<?xml version="1.0" encoding="utf-8" standalone="no"?>
<!DOCTYPE svg PUBLIC "-//W3C//DTD SVG 1.1//EN"
  "http://www.w3.org/Graphics/SVG/1.1/DTD/svg11.dtd">
<!-- Created with matplotlib (https://matplotlib.org/) -->
<svg height="288pt" version="1.1" viewBox="0 0 432 288" width="432pt" xmlns="http://www.w3.org/2000/svg" xmlns:xlink="http://www.w3.org/1999/xlink">
 <defs>
  <style type="text/css">
*{stroke-linecap:butt;stroke-linejoin:round;}
  </style>
 </defs>
 <g id="figure_1">
  <g id="patch_1">
   <path d="M 0 288 
L 432 288 
L 432 0 
L 0 0 
z
" style="fill:#ffffff;"/>
  </g>
  <g id="axes_1">
   <g id="patch_2">
    <path d="M 54 252 
L 388.8 252 
L 388.8 34.56 
L 54 34.56 
z
" style="fill:#ffffff;"/>
   </g>
   <g id="matplotlib.axis_1">
    <g id="xtick_1">
     <g id="line2d_1">
      <path clip-path="url(#p9d3cd4b9ad)" d="M 69.218182 252 
L 69.218182 34.56 
" style="fill:none;stroke:#b0b0b0;stroke-linecap:square;stroke-width:0.8;"/>
     </g>
     <g id="line2d_2">
      <defs>
       <path d="M 0 0 
L 0 3.5 
" id="m00f8d2bb82" style="stroke:#000000;stroke-width:0.8;"/>
      </defs>
      <g>
       <use style="stroke:#000000;stroke-width:0.8;" x="69.218182" xlink:href="#m00f8d2bb82" y="252"/>
      </g>
     </g>
     <g id="text_1">
      <!-- 0 -->
      <defs>
       <path d="M 31.78125 66.40625 
Q 24.171875 66.40625 20.328125 58.90625 
Q 16.5 51.421875 16.5 36.375 
Q 16.5 21.390625 20.328125 13.890625 
Q 24.171875 6.390625 31.78125 6.390625 
Q 39.453125 6.390625 43.28125 13.890625 
Q 47.125 21.390625 47.125 36.375 
Q 47.125 51.421875 43.28125 58.90625 
Q 39.453125 66.40625 31.78125 66.40625 
z
M 31.78125 74.21875 
Q 44.046875 74.21875 50.515625 64.515625 
Q 56.984375 54.828125 56.984375 36.375 
Q 56.984375 17.96875 50.515625 8.265625 
Q 44.046875 -1.421875 31.78125 -1.421875 
Q 19.53125 -1.421875 13.0625 8.265625 
Q 6.59375 17.96875 6.59375 36.375 
Q 6.59375 54.828125 13.0625 64.515625 
Q 19.53125 74.21875 31.78125 74.21875 
z
" id="DejaVuSans-48"/>
      </defs>
      <g transform="translate(66.036932 266.598437)scale(0.1 -0.1)">
       <use xlink:href="#DejaVuSans-48"/>
      </g>
     </g>
    </g>
    <g id="xtick_2">
     <g id="line2d_3">
      <path clip-path="url(#p9d3cd4b9ad)" d="M 107.45482 252 
L 107.45482 34.56 
" style="fill:none;stroke:#b0b0b0;stroke-linecap:square;stroke-width:0.8;"/>
     </g>
     <g id="line2d_4">
      <g>
       <use style="stroke:#000000;stroke-width:0.8;" x="107.45482" xlink:href="#m00f8d2bb82" y="252"/>
      </g>
     </g>
     <g id="text_2">
      <!-- 25 -->
      <defs>
       <path d="M 19.1875 8.296875 
L 53.609375 8.296875 
L 53.609375 0 
L 7.328125 0 
L 7.328125 8.296875 
Q 12.9375 14.109375 22.625 23.890625 
Q 32.328125 33.6875 34.8125 36.53125 
Q 39.546875 41.84375 41.421875 45.53125 
Q 43.3125 49.21875 43.3125 52.78125 
Q 43.3125 58.59375 39.234375 62.25 
Q 35.15625 65.921875 28.609375 65.921875 
Q 23.96875 65.921875 18.8125 64.3125 
Q 13.671875 62.703125 7.8125 59.421875 
L 7.8125 69.390625 
Q 13.765625 71.78125 18.9375 73 
Q 24.125 74.21875 28.421875 74.21875 
Q 39.75 74.21875 46.484375 68.546875 
Q 53.21875 62.890625 53.21875 53.421875 
Q 53.21875 48.921875 51.53125 44.890625 
Q 49.859375 40.875 45.40625 35.40625 
Q 44.1875 33.984375 37.640625 27.21875 
Q 31.109375 20.453125 19.1875 8.296875 
z
" id="DejaVuSans-50"/>
       <path d="M 10.796875 72.90625 
L 49.515625 72.90625 
L 49.515625 64.59375 
L 19.828125 64.59375 
L 19.828125 46.734375 
Q 21.96875 47.46875 24.109375 47.828125 
Q 26.265625 48.1875 28.421875 48.1875 
Q 40.625 48.1875 47.75 41.5 
Q 54.890625 34.8125 54.890625 23.390625 
Q 54.890625 11.625 47.5625 5.09375 
Q 40.234375 -1.421875 26.90625 -1.421875 
Q 22.3125 -1.421875 17.546875 -0.640625 
Q 12.796875 0.140625 7.71875 1.703125 
L 7.71875 11.625 
Q 12.109375 9.234375 16.796875 8.0625 
Q 21.484375 6.890625 26.703125 6.890625 
Q 35.15625 6.890625 40.078125 11.328125 
Q 45.015625 15.765625 45.015625 23.390625 
Q 45.015625 31 40.078125 35.4375 
Q 35.15625 39.890625 26.703125 39.890625 
Q 22.75 39.890625 18.8125 39.015625 
Q 14.890625 38.140625 10.796875 36.28125 
z
" id="DejaVuSans-53"/>
      </defs>
      <g transform="translate(101.09232 266.598437)scale(0.1 -0.1)">
       <use xlink:href="#DejaVuSans-50"/>
       <use x="63.623047" xlink:href="#DejaVuSans-53"/>
      </g>
     </g>
    </g>
    <g id="xtick_3">
     <g id="line2d_5">
      <path clip-path="url(#p9d3cd4b9ad)" d="M 145.691457 252 
L 145.691457 34.56 
" style="fill:none;stroke:#b0b0b0;stroke-linecap:square;stroke-width:0.8;"/>
     </g>
     <g id="line2d_6">
      <g>
       <use style="stroke:#000000;stroke-width:0.8;" x="145.691457" xlink:href="#m00f8d2bb82" y="252"/>
      </g>
     </g>
     <g id="text_3">
      <!-- 50 -->
      <g transform="translate(139.328957 266.598437)scale(0.1 -0.1)">
       <use xlink:href="#DejaVuSans-53"/>
       <use x="63.623047" xlink:href="#DejaVuSans-48"/>
      </g>
     </g>
    </g>
    <g id="xtick_4">
     <g id="line2d_7">
      <path clip-path="url(#p9d3cd4b9ad)" d="M 183.928095 252 
L 183.928095 34.56 
" style="fill:none;stroke:#b0b0b0;stroke-linecap:square;stroke-width:0.8;"/>
     </g>
     <g id="line2d_8">
      <g>
       <use style="stroke:#000000;stroke-width:0.8;" x="183.928095" xlink:href="#m00f8d2bb82" y="252"/>
      </g>
     </g>
     <g id="text_4">
      <!-- 75 -->
      <defs>
       <path d="M 8.203125 72.90625 
L 55.078125 72.90625 
L 55.078125 68.703125 
L 28.609375 0 
L 18.3125 0 
L 43.21875 64.59375 
L 8.203125 64.59375 
z
" id="DejaVuSans-55"/>
      </defs>
      <g transform="translate(177.565595 266.598437)scale(0.1 -0.1)">
       <use xlink:href="#DejaVuSans-55"/>
       <use x="63.623047" xlink:href="#DejaVuSans-53"/>
      </g>
     </g>
    </g>
    <g id="xtick_5">
     <g id="line2d_9">
      <path clip-path="url(#p9d3cd4b9ad)" d="M 222.164733 252 
L 222.164733 34.56 
" style="fill:none;stroke:#b0b0b0;stroke-linecap:square;stroke-width:0.8;"/>
     </g>
     <g id="line2d_10">
      <g>
       <use style="stroke:#000000;stroke-width:0.8;" x="222.164733" xlink:href="#m00f8d2bb82" y="252"/>
      </g>
     </g>
     <g id="text_5">
      <!-- 100 -->
      <defs>
       <path d="M 12.40625 8.296875 
L 28.515625 8.296875 
L 28.515625 63.921875 
L 10.984375 60.40625 
L 10.984375 69.390625 
L 28.421875 72.90625 
L 38.28125 72.90625 
L 38.28125 8.296875 
L 54.390625 8.296875 
L 54.390625 0 
L 12.40625 0 
z
" id="DejaVuSans-49"/>
      </defs>
      <g transform="translate(212.620983 266.598437)scale(0.1 -0.1)">
       <use xlink:href="#DejaVuSans-49"/>
       <use x="63.623047" xlink:href="#DejaVuSans-48"/>
       <use x="127.246094" xlink:href="#DejaVuSans-48"/>
      </g>
     </g>
    </g>
    <g id="xtick_6">
     <g id="line2d_11">
      <path clip-path="url(#p9d3cd4b9ad)" d="M 260.40137 252 
L 260.40137 34.56 
" style="fill:none;stroke:#b0b0b0;stroke-linecap:square;stroke-width:0.8;"/>
     </g>
     <g id="line2d_12">
      <g>
       <use style="stroke:#000000;stroke-width:0.8;" x="260.40137" xlink:href="#m00f8d2bb82" y="252"/>
      </g>
     </g>
     <g id="text_6">
      <!-- 125 -->
      <g transform="translate(250.85762 266.598437)scale(0.1 -0.1)">
       <use xlink:href="#DejaVuSans-49"/>
       <use x="63.623047" xlink:href="#DejaVuSans-50"/>
       <use x="127.246094" xlink:href="#DejaVuSans-53"/>
      </g>
     </g>
    </g>
    <g id="xtick_7">
     <g id="line2d_13">
      <path clip-path="url(#p9d3cd4b9ad)" d="M 298.638008 252 
L 298.638008 34.56 
" style="fill:none;stroke:#b0b0b0;stroke-linecap:square;stroke-width:0.8;"/>
     </g>
     <g id="line2d_14">
      <g>
       <use style="stroke:#000000;stroke-width:0.8;" x="298.638008" xlink:href="#m00f8d2bb82" y="252"/>
      </g>
     </g>
     <g id="text_7">
      <!-- 150 -->
      <g transform="translate(289.094258 266.598437)scale(0.1 -0.1)">
       <use xlink:href="#DejaVuSans-49"/>
       <use x="63.623047" xlink:href="#DejaVuSans-53"/>
       <use x="127.246094" xlink:href="#DejaVuSans-48"/>
      </g>
     </g>
    </g>
    <g id="xtick_8">
     <g id="line2d_15">
      <path clip-path="url(#p9d3cd4b9ad)" d="M 336.874646 252 
L 336.874646 34.56 
" style="fill:none;stroke:#b0b0b0;stroke-linecap:square;stroke-width:0.8;"/>
     </g>
     <g id="line2d_16">
      <g>
       <use style="stroke:#000000;stroke-width:0.8;" x="336.874646" xlink:href="#m00f8d2bb82" y="252"/>
      </g>
     </g>
     <g id="text_8">
      <!-- 175 -->
      <g transform="translate(327.330896 266.598437)scale(0.1 -0.1)">
       <use xlink:href="#DejaVuSans-49"/>
       <use x="63.623047" xlink:href="#DejaVuSans-55"/>
       <use x="127.246094" xlink:href="#DejaVuSans-53"/>
      </g>
     </g>
    </g>
    <g id="xtick_9">
     <g id="line2d_17">
      <path clip-path="url(#p9d3cd4b9ad)" d="M 375.111284 252 
L 375.111284 34.56 
" style="fill:none;stroke:#b0b0b0;stroke-linecap:square;stroke-width:0.8;"/>
     </g>
     <g id="line2d_18">
      <g>
       <use style="stroke:#000000;stroke-width:0.8;" x="375.111284" xlink:href="#m00f8d2bb82" y="252"/>
      </g>
     </g>
     <g id="text_9">
      <!-- 200 -->
      <g transform="translate(365.567534 266.598437)scale(0.1 -0.1)">
       <use xlink:href="#DejaVuSans-50"/>
       <use x="63.623047" xlink:href="#DejaVuSans-48"/>
       <use x="127.246094" xlink:href="#DejaVuSans-48"/>
      </g>
     </g>
    </g>
    <g id="text_10">
     <!-- Generations -->
     <defs>
      <path d="M 59.515625 10.40625 
L 59.515625 29.984375 
L 43.40625 29.984375 
L 43.40625 38.09375 
L 69.28125 38.09375 
L 69.28125 6.78125 
Q 63.578125 2.734375 56.6875 0.65625 
Q 49.8125 -1.421875 42 -1.421875 
Q 24.90625 -1.421875 15.25 8.5625 
Q 5.609375 18.5625 5.609375 36.375 
Q 5.609375 54.25 15.25 64.234375 
Q 24.90625 74.21875 42 74.21875 
Q 49.125 74.21875 55.546875 72.453125 
Q 61.96875 70.703125 67.390625 67.28125 
L 67.390625 56.78125 
Q 61.921875 61.421875 55.765625 63.765625 
Q 49.609375 66.109375 42.828125 66.109375 
Q 29.4375 66.109375 22.71875 58.640625 
Q 16.015625 51.171875 16.015625 36.375 
Q 16.015625 21.625 22.71875 14.15625 
Q 29.4375 6.6875 42.828125 6.6875 
Q 48.046875 6.6875 52.140625 7.59375 
Q 56.25 8.5 59.515625 10.40625 
z
" id="DejaVuSans-71"/>
      <path d="M 56.203125 29.59375 
L 56.203125 25.203125 
L 14.890625 25.203125 
Q 15.484375 15.921875 20.484375 11.0625 
Q 25.484375 6.203125 34.421875 6.203125 
Q 39.59375 6.203125 44.453125 7.46875 
Q 49.3125 8.734375 54.109375 11.28125 
L 54.109375 2.78125 
Q 49.265625 0.734375 44.1875 -0.34375 
Q 39.109375 -1.421875 33.890625 -1.421875 
Q 20.796875 -1.421875 13.15625 6.1875 
Q 5.515625 13.8125 5.515625 26.8125 
Q 5.515625 40.234375 12.765625 48.109375 
Q 20.015625 56 32.328125 56 
Q 43.359375 56 49.78125 48.890625 
Q 56.203125 41.796875 56.203125 29.59375 
z
M 47.21875 32.234375 
Q 47.125 39.59375 43.09375 43.984375 
Q 39.0625 48.390625 32.421875 48.390625 
Q 24.90625 48.390625 20.390625 44.140625 
Q 15.875 39.890625 15.1875 32.171875 
z
" id="DejaVuSans-101"/>
      <path d="M 54.890625 33.015625 
L 54.890625 0 
L 45.90625 0 
L 45.90625 32.71875 
Q 45.90625 40.484375 42.875 44.328125 
Q 39.84375 48.1875 33.796875 48.1875 
Q 26.515625 48.1875 22.3125 43.546875 
Q 18.109375 38.921875 18.109375 30.90625 
L 18.109375 0 
L 9.078125 0 
L 9.078125 54.6875 
L 18.109375 54.6875 
L 18.109375 46.1875 
Q 21.34375 51.125 25.703125 53.5625 
Q 30.078125 56 35.796875 56 
Q 45.21875 56 50.046875 50.171875 
Q 54.890625 44.34375 54.890625 33.015625 
z
" id="DejaVuSans-110"/>
      <path d="M 41.109375 46.296875 
Q 39.59375 47.171875 37.8125 47.578125 
Q 36.03125 48 33.890625 48 
Q 26.265625 48 22.1875 43.046875 
Q 18.109375 38.09375 18.109375 28.8125 
L 18.109375 0 
L 9.078125 0 
L 9.078125 54.6875 
L 18.109375 54.6875 
L 18.109375 46.1875 
Q 20.953125 51.171875 25.484375 53.578125 
Q 30.03125 56 36.53125 56 
Q 37.453125 56 38.578125 55.875 
Q 39.703125 55.765625 41.0625 55.515625 
z
" id="DejaVuSans-114"/>
      <path d="M 34.28125 27.484375 
Q 23.390625 27.484375 19.1875 25 
Q 14.984375 22.515625 14.984375 16.5 
Q 14.984375 11.71875 18.140625 8.90625 
Q 21.296875 6.109375 26.703125 6.109375 
Q 34.1875 6.109375 38.703125 11.40625 
Q 43.21875 16.703125 43.21875 25.484375 
L 43.21875 27.484375 
z
M 52.203125 31.203125 
L 52.203125 0 
L 43.21875 0 
L 43.21875 8.296875 
Q 40.140625 3.328125 35.546875 0.953125 
Q 30.953125 -1.421875 24.3125 -1.421875 
Q 15.921875 -1.421875 10.953125 3.296875 
Q 6 8.015625 6 15.921875 
Q 6 25.140625 12.171875 29.828125 
Q 18.359375 34.515625 30.609375 34.515625 
L 43.21875 34.515625 
L 43.21875 35.40625 
Q 43.21875 41.609375 39.140625 45 
Q 35.0625 48.390625 27.6875 48.390625 
Q 23 48.390625 18.546875 47.265625 
Q 14.109375 46.140625 10.015625 43.890625 
L 10.015625 52.203125 
Q 14.9375 54.109375 19.578125 55.046875 
Q 24.21875 56 28.609375 56 
Q 40.484375 56 46.34375 49.84375 
Q 52.203125 43.703125 52.203125 31.203125 
z
" id="DejaVuSans-97"/>
      <path d="M 18.3125 70.21875 
L 18.3125 54.6875 
L 36.8125 54.6875 
L 36.8125 47.703125 
L 18.3125 47.703125 
L 18.3125 18.015625 
Q 18.3125 11.328125 20.140625 9.421875 
Q 21.96875 7.515625 27.59375 7.515625 
L 36.8125 7.515625 
L 36.8125 0 
L 27.59375 0 
Q 17.1875 0 13.234375 3.875 
Q 9.28125 7.765625 9.28125 18.015625 
L 9.28125 47.703125 
L 2.6875 47.703125 
L 2.6875 54.6875 
L 9.28125 54.6875 
L 9.28125 70.21875 
z
" id="DejaVuSans-116"/>
      <path d="M 9.421875 54.6875 
L 18.40625 54.6875 
L 18.40625 0 
L 9.421875 0 
z
M 9.421875 75.984375 
L 18.40625 75.984375 
L 18.40625 64.59375 
L 9.421875 64.59375 
z
" id="DejaVuSans-105"/>
      <path d="M 30.609375 48.390625 
Q 23.390625 48.390625 19.1875 42.75 
Q 14.984375 37.109375 14.984375 27.296875 
Q 14.984375 17.484375 19.15625 11.84375 
Q 23.34375 6.203125 30.609375 6.203125 
Q 37.796875 6.203125 41.984375 11.859375 
Q 46.1875 17.53125 46.1875 27.296875 
Q 46.1875 37.015625 41.984375 42.703125 
Q 37.796875 48.390625 30.609375 48.390625 
z
M 30.609375 56 
Q 42.328125 56 49.015625 48.375 
Q 55.71875 40.765625 55.71875 27.296875 
Q 55.71875 13.875 49.015625 6.21875 
Q 42.328125 -1.421875 30.609375 -1.421875 
Q 18.84375 -1.421875 12.171875 6.21875 
Q 5.515625 13.875 5.515625 27.296875 
Q 5.515625 40.765625 12.171875 48.375 
Q 18.84375 56 30.609375 56 
z
" id="DejaVuSans-111"/>
      <path d="M 44.28125 53.078125 
L 44.28125 44.578125 
Q 40.484375 46.53125 36.375 47.5 
Q 32.28125 48.484375 27.875 48.484375 
Q 21.1875 48.484375 17.84375 46.4375 
Q 14.5 44.390625 14.5 40.28125 
Q 14.5 37.15625 16.890625 35.375 
Q 19.28125 33.59375 26.515625 31.984375 
L 29.59375 31.296875 
Q 39.15625 29.25 43.1875 25.515625 
Q 47.21875 21.78125 47.21875 15.09375 
Q 47.21875 7.46875 41.1875 3.015625 
Q 35.15625 -1.421875 24.609375 -1.421875 
Q 20.21875 -1.421875 15.453125 -0.5625 
Q 10.6875 0.296875 5.421875 2 
L 5.421875 11.28125 
Q 10.40625 8.6875 15.234375 7.390625 
Q 20.0625 6.109375 24.8125 6.109375 
Q 31.15625 6.109375 34.5625 8.28125 
Q 37.984375 10.453125 37.984375 14.40625 
Q 37.984375 18.0625 35.515625 20.015625 
Q 33.0625 21.96875 24.703125 23.78125 
L 21.578125 24.515625 
Q 13.234375 26.265625 9.515625 29.90625 
Q 5.8125 33.546875 5.8125 39.890625 
Q 5.8125 47.609375 11.28125 51.796875 
Q 16.75 56 26.8125 56 
Q 31.78125 56 36.171875 55.265625 
Q 40.578125 54.546875 44.28125 53.078125 
z
" id="DejaVuSans-115"/>
     </defs>
     <g transform="translate(190.902344 280.276563)scale(0.1 -0.1)">
      <use xlink:href="#DejaVuSans-71"/>
      <use x="77.490234" xlink:href="#DejaVuSans-101"/>
      <use x="139.013672" xlink:href="#DejaVuSans-110"/>
      <use x="202.392578" xlink:href="#DejaVuSans-101"/>
      <use x="263.916016" xlink:href="#DejaVuSans-114"/>
      <use x="305.029297" xlink:href="#DejaVuSans-97"/>
      <use x="366.308594" xlink:href="#DejaVuSans-116"/>
      <use x="405.517578" xlink:href="#DejaVuSans-105"/>
      <use x="433.300781" xlink:href="#DejaVuSans-111"/>
      <use x="494.482422" xlink:href="#DejaVuSans-110"/>
      <use x="557.861328" xlink:href="#DejaVuSans-115"/>
     </g>
    </g>
   </g>
   <g id="matplotlib.axis_2">
    <g id="ytick_1">
     <g id="line2d_19">
      <path clip-path="url(#p9d3cd4b9ad)" d="M 54 228.651329 
L 388.8 228.651329 
" style="fill:none;stroke:#b0b0b0;stroke-linecap:square;stroke-width:0.8;"/>
     </g>
     <g id="line2d_20">
      <defs>
       <path d="M 0 0 
L -3.5 0 
" id="me29e8445f3" style="stroke:#000000;stroke-width:0.8;"/>
      </defs>
      <g>
       <use style="stroke:#000000;stroke-width:0.8;" x="54" xlink:href="#me29e8445f3" y="228.651329"/>
      </g>
     </g>
     <g id="text_11">
      <!-- −2000 -->
      <defs>
       <path d="M 10.59375 35.5 
L 73.1875 35.5 
L 73.1875 27.203125 
L 10.59375 27.203125 
z
" id="DejaVuSans-8722"/>
      </defs>
      <g transform="translate(13.170313 232.450547)scale(0.1 -0.1)">
       <use xlink:href="#DejaVuSans-8722"/>
       <use x="83.789062" xlink:href="#DejaVuSans-50"/>
       <use x="147.412109" xlink:href="#DejaVuSans-48"/>
       <use x="211.035156" xlink:href="#DejaVuSans-48"/>
       <use x="274.658203" xlink:href="#DejaVuSans-48"/>
      </g>
     </g>
    </g>
    <g id="ytick_2">
     <g id="line2d_21">
      <path clip-path="url(#p9d3cd4b9ad)" d="M 54 203.819983 
L 388.8 203.819983 
" style="fill:none;stroke:#b0b0b0;stroke-linecap:square;stroke-width:0.8;"/>
     </g>
     <g id="line2d_22">
      <g>
       <use style="stroke:#000000;stroke-width:0.8;" x="54" xlink:href="#me29e8445f3" y="203.819983"/>
      </g>
     </g>
     <g id="text_12">
      <!-- −1500 -->
      <g transform="translate(13.170313 207.619202)scale(0.1 -0.1)">
       <use xlink:href="#DejaVuSans-8722"/>
       <use x="83.789062" xlink:href="#DejaVuSans-49"/>
       <use x="147.412109" xlink:href="#DejaVuSans-53"/>
       <use x="211.035156" xlink:href="#DejaVuSans-48"/>
       <use x="274.658203" xlink:href="#DejaVuSans-48"/>
      </g>
     </g>
    </g>
    <g id="ytick_3">
     <g id="line2d_23">
      <path clip-path="url(#p9d3cd4b9ad)" d="M 54 178.988637 
L 388.8 178.988637 
" style="fill:none;stroke:#b0b0b0;stroke-linecap:square;stroke-width:0.8;"/>
     </g>
     <g id="line2d_24">
      <g>
       <use style="stroke:#000000;stroke-width:0.8;" x="54" xlink:href="#me29e8445f3" y="178.988637"/>
      </g>
     </g>
     <g id="text_13">
      <!-- −1000 -->
      <g transform="translate(13.170313 182.787856)scale(0.1 -0.1)">
       <use xlink:href="#DejaVuSans-8722"/>
       <use x="83.789062" xlink:href="#DejaVuSans-49"/>
       <use x="147.412109" xlink:href="#DejaVuSans-48"/>
       <use x="211.035156" xlink:href="#DejaVuSans-48"/>
       <use x="274.658203" xlink:href="#DejaVuSans-48"/>
      </g>
     </g>
    </g>
    <g id="ytick_4">
     <g id="line2d_25">
      <path clip-path="url(#p9d3cd4b9ad)" d="M 54 154.157291 
L 388.8 154.157291 
" style="fill:none;stroke:#b0b0b0;stroke-linecap:square;stroke-width:0.8;"/>
     </g>
     <g id="line2d_26">
      <g>
       <use style="stroke:#000000;stroke-width:0.8;" x="54" xlink:href="#me29e8445f3" y="154.157291"/>
      </g>
     </g>
     <g id="text_14">
      <!-- −500 -->
      <g transform="translate(19.532812 157.95651)scale(0.1 -0.1)">
       <use xlink:href="#DejaVuSans-8722"/>
       <use x="83.789062" xlink:href="#DejaVuSans-53"/>
       <use x="147.412109" xlink:href="#DejaVuSans-48"/>
       <use x="211.035156" xlink:href="#DejaVuSans-48"/>
      </g>
     </g>
    </g>
    <g id="ytick_5">
     <g id="line2d_27">
      <path clip-path="url(#p9d3cd4b9ad)" d="M 54 129.325946 
L 388.8 129.325946 
" style="fill:none;stroke:#b0b0b0;stroke-linecap:square;stroke-width:0.8;"/>
     </g>
     <g id="line2d_28">
      <g>
       <use style="stroke:#000000;stroke-width:0.8;" x="54" xlink:href="#me29e8445f3" y="129.325946"/>
      </g>
     </g>
     <g id="text_15">
      <!-- 0 -->
      <g transform="translate(40.6375 133.125164)scale(0.1 -0.1)">
       <use xlink:href="#DejaVuSans-48"/>
      </g>
     </g>
    </g>
    <g id="ytick_6">
     <g id="line2d_29">
      <path clip-path="url(#p9d3cd4b9ad)" d="M 54 104.4946 
L 388.8 104.4946 
" style="fill:none;stroke:#b0b0b0;stroke-linecap:square;stroke-width:0.8;"/>
     </g>
     <g id="line2d_30">
      <g>
       <use style="stroke:#000000;stroke-width:0.8;" x="54" xlink:href="#me29e8445f3" y="104.4946"/>
      </g>
     </g>
     <g id="text_16">
      <!-- 500 -->
      <g transform="translate(27.9125 108.293819)scale(0.1 -0.1)">
       <use xlink:href="#DejaVuSans-53"/>
       <use x="63.623047" xlink:href="#DejaVuSans-48"/>
       <use x="127.246094" xlink:href="#DejaVuSans-48"/>
      </g>
     </g>
    </g>
    <g id="ytick_7">
     <g id="line2d_31">
      <path clip-path="url(#p9d3cd4b9ad)" d="M 54 79.663254 
L 388.8 79.663254 
" style="fill:none;stroke:#b0b0b0;stroke-linecap:square;stroke-width:0.8;"/>
     </g>
     <g id="line2d_32">
      <g>
       <use style="stroke:#000000;stroke-width:0.8;" x="54" xlink:href="#me29e8445f3" y="79.663254"/>
      </g>
     </g>
     <g id="text_17">
      <!-- 1000 -->
      <g transform="translate(21.55 83.462473)scale(0.1 -0.1)">
       <use xlink:href="#DejaVuSans-49"/>
       <use x="63.623047" xlink:href="#DejaVuSans-48"/>
       <use x="127.246094" xlink:href="#DejaVuSans-48"/>
       <use x="190.869141" xlink:href="#DejaVuSans-48"/>
      </g>
     </g>
    </g>
    <g id="ytick_8">
     <g id="line2d_33">
      <path clip-path="url(#p9d3cd4b9ad)" d="M 54 54.831909 
L 388.8 54.831909 
" style="fill:none;stroke:#b0b0b0;stroke-linecap:square;stroke-width:0.8;"/>
     </g>
     <g id="line2d_34">
      <g>
       <use style="stroke:#000000;stroke-width:0.8;" x="54" xlink:href="#me29e8445f3" y="54.831909"/>
      </g>
     </g>
     <g id="text_18">
      <!-- 1500 -->
      <g transform="translate(21.55 58.631127)scale(0.1 -0.1)">
       <use xlink:href="#DejaVuSans-49"/>
       <use x="63.623047" xlink:href="#DejaVuSans-53"/>
       <use x="127.246094" xlink:href="#DejaVuSans-48"/>
       <use x="190.869141" xlink:href="#DejaVuSans-48"/>
      </g>
     </g>
    </g>
    <g id="text_19">
     <!-- Fitness -->
     <defs>
      <path d="M 9.8125 72.90625 
L 51.703125 72.90625 
L 51.703125 64.59375 
L 19.671875 64.59375 
L 19.671875 43.109375 
L 48.578125 43.109375 
L 48.578125 34.8125 
L 19.671875 34.8125 
L 19.671875 0 
L 9.8125 0 
z
" id="DejaVuSans-70"/>
     </defs>
     <g transform="translate(7.090625 160.954219)rotate(-90)scale(0.1 -0.1)">
      <use xlink:href="#DejaVuSans-70"/>
      <use x="57.410156" xlink:href="#DejaVuSans-105"/>
      <use x="85.193359" xlink:href="#DejaVuSans-116"/>
      <use x="124.402344" xlink:href="#DejaVuSans-110"/>
      <use x="187.78125" xlink:href="#DejaVuSans-101"/>
      <use x="249.304688" xlink:href="#DejaVuSans-115"/>
      <use x="301.404297" xlink:href="#DejaVuSans-115"/>
     </g>
    </g>
   </g>
   <g id="line2d_35">
    <path clip-path="url(#p9d3cd4b9ad)" d="M 69.218182 159.424505 
L 70.747647 158.796202 
L 72.277113 162.153632 
L 73.806578 150.447219 
L 75.336044 157.297203 
L 76.865509 149.854785 
L 78.394975 151.135838 
L 79.92444 155.154655 
L 81.453906 146.843555 
L 82.983371 147.67893 
L 84.512837 147.351589 
L 86.042302 148.412513 
L 87.571768 148.634526 
L 89.101233 146.072001 
L 90.630699 147.215 
L 92.160164 144.822501 
L 93.68963 144.449274 
L 95.219095 143.171994 
L 96.748561 142.229015 
L 98.278026 142.962301 
L 99.807492 141.053642 
L 101.336958 141.053208 
L 102.866423 140.488144 
L 104.395889 140.630186 
L 105.925354 144.230913 
L 107.45482 139.659047 
L 108.984285 141.161934 
L 110.513751 144.713042 
L 112.043216 140.392693 
L 113.572682 140.53346 
L 115.102147 139.204358 
L 116.631613 137.435438 
L 121.220009 137.972452 
L 122.749475 137.60709 
L 124.27894 137.812548 
L 125.808406 143.194831 
L 127.337871 138.705279 
L 128.867337 137.719683 
L 130.396802 136.995527 
L 131.926268 137.328994 
L 133.455733 141.237587 
L 134.985199 138.94571 
L 136.514664 135.950374 
L 138.04413 136.159878 
L 139.573595 137.435439 
L 141.103061 135.844526 
L 142.632526 135.337072 
L 144.161992 143.095536 
L 145.691457 136.019099 
L 147.220923 139.182038 
L 148.750388 136.058902 
L 150.279854 136.540474 
L 151.809319 137.628509 
L 153.338785 135.857096 
L 154.86825 134.681352 
L 156.397716 134.553586 
L 157.927181 135.58921 
L 159.456647 136.201004 
L 160.986112 134.669018 
L 162.515578 134.582904 
L 164.045043 133.606419 
L 165.574509 134.79731 
L 167.103974 137.681639 
L 168.63344 134.031681 
L 170.162905 134.256062 
L 171.692371 132.771526 
L 173.221836 133.486289 
L 174.751302 133.292394 
L 176.280767 132.18902 
L 177.810233 132.959782 
L 179.339698 132.991926 
L 180.869164 132.855073 
L 182.39863 133.222359 
L 183.928095 137.253009 
L 185.457561 134.28191 
L 186.987026 133.975962 
L 188.516492 132.857335 
L 190.045957 133.066087 
L 191.575423 134.625128 
L 193.104888 134.270501 
L 194.634354 132.940953 
L 196.163819 132.897682 
L 197.693285 133.30113 
L 199.22275 132.39117 
L 200.752216 132.714033 
L 202.281681 132.769294 
L 203.811147 133.032695 
L 205.340612 132.860261 
L 206.870078 132.446707 
L 208.399543 132.387191 
L 209.929009 132.855613 
L 211.458474 133.813155 
L 212.98794 132.157945 
L 220.635267 132.520376 
L 222.164733 133.308062 
L 223.694198 133.223899 
L 225.223664 132.083769 
L 226.753129 132.168641 
L 228.282595 132.672653 
L 229.81206 132.426099 
L 231.341526 133.215469 
L 232.870991 132.307525 
L 234.400457 131.91403 
L 237.459388 132.413553 
L 238.988853 132.333418 
L 240.518319 131.659903 
L 242.047784 132.272476 
L 245.106715 133.106714 
L 246.636181 133.695088 
L 248.165646 132.239551 
L 249.695112 132.594207 
L 251.224577 133.566893 
L 252.754043 132.453475 
L 254.283508 133.312186 
L 255.812974 132.138656 
L 257.342439 131.737681 
L 258.871905 132.121717 
L 260.40137 132.129399 
L 261.930836 132.748065 
L 263.460302 132.1116 
L 264.989767 132.740733 
L 266.519233 131.817462 
L 268.048698 132.263559 
L 269.578164 131.992046 
L 271.107629 133.590243 
L 272.637095 134.759388 
L 274.16656 131.726474 
L 275.696026 132.973749 
L 277.225491 133.632301 
L 278.754957 132.552025 
L 281.813888 131.83858 
L 283.343353 131.74496 
L 284.872819 132.680484 
L 286.402284 135.78727 
L 287.93175 133.079982 
L 289.461215 131.8307 
L 290.990681 131.597204 
L 292.520146 131.836344 
L 294.049612 132.261932 
L 295.579077 132.123917 
L 297.108543 134.46384 
L 298.638008 133.17285 
L 300.167474 134.828846 
L 301.696939 143.28 
L 303.226405 132.095643 
L 304.75587 132.045138 
L 306.285336 132.387802 
L 307.814801 131.382436 
L 309.344267 132.883497 
L 310.873732 132.890582 
L 312.403198 132.505816 
L 313.932663 137.638326 
L 315.462129 132.628645 
L 316.991594 133.428382 
L 318.52106 133.614281 
L 320.050525 137.074839 
L 321.579991 133.382927 
L 323.109456 139.583428 
L 324.638922 134.184545 
L 326.168387 133.688798 
L 327.697853 133.987882 
L 329.227318 135.161192 
L 330.756784 134.713802 
L 332.286249 142.834785 
L 333.815715 135.06645 
L 335.34518 134.042912 
L 336.874646 135.929116 
L 338.404111 134.357558 
L 339.933577 133.667414 
L 341.463042 133.565281 
L 342.992508 133.988714 
L 344.521974 133.707893 
L 346.051439 134.539253 
L 347.580905 133.939843 
L 349.11037 135.782959 
L 350.639836 135.749509 
L 352.169301 134.215047 
L 355.228232 133.256784 
L 356.757698 133.71366 
L 358.287163 134.650297 
L 359.816629 135.183043 
L 361.346094 135.007559 
L 362.87556 134.305349 
L 364.405025 136.90925 
L 365.934491 135.013164 
L 367.463956 134.136031 
L 368.993422 136.436255 
L 370.522887 134.53213 
L 372.052353 134.006445 
L 373.581818 134.529949 
L 373.581818 134.529949 
" style="fill:none;stroke:#0000ff;stroke-linecap:square;stroke-width:1.5;"/>
   </g>
   <g id="line2d_36">
    <path clip-path="url(#p9d3cd4b9ad)" d="M 69.218182 191.88409 
L 70.747647 183.33294 
L 72.277113 219.386977 
L 73.806578 163.030443 
L 75.336044 194.613594 
L 76.865509 160.406051 
L 78.394975 167.664936 
L 79.92444 195.136363 
L 81.453906 157.670302 
L 82.983371 159.734944 
L 86.042302 164.344114 
L 87.571768 170.057005 
L 89.101233 154.787286 
L 90.630699 171.291166 
L 92.160164 154.176377 
L 93.68963 158.84129 
L 95.219095 150.859377 
L 96.748561 150.877573 
L 98.278026 152.731757 
L 99.807492 147.754757 
L 101.336958 151.410253 
L 102.866423 149.586933 
L 104.395889 151.898387 
L 105.925354 186.848077 
L 107.45482 148.324816 
L 108.984285 161.349607 
L 110.513751 193.684221 
L 112.043216 154.022706 
L 113.572682 157.635508 
L 115.102147 147.997293 
L 116.631613 144.286574 
L 118.161078 145.009147 
L 119.690544 146.800272 
L 121.220009 145.238891 
L 122.749475 145.813041 
L 124.27894 145.578827 
L 125.808406 179.07786 
L 127.337871 151.176337 
L 128.867337 145.580839 
L 130.396802 145.564917 
L 131.926268 152.354964 
L 133.455733 170.095824 
L 134.985199 158.219335 
L 136.514664 142.679905 
L 139.573595 150.203781 
L 141.103061 142.806289 
L 142.632526 142.509879 
L 144.161992 205.6796 
L 145.691457 145.069401 
L 147.220923 157.166332 
L 148.750388 144.571741 
L 150.279854 147.766382 
L 151.809319 167.284912 
L 153.338785 142.703889 
L 154.86825 141.425542 
L 156.397716 140.802247 
L 157.927181 150.82923 
L 159.456647 151.725444 
L 160.986112 140.849438 
L 162.515578 141.574746 
L 164.045043 139.340522 
L 165.574509 143.467381 
L 167.103974 162.70327 
L 168.63344 140.243912 
L 170.162905 140.536665 
L 171.692371 137.915139 
L 173.221836 141.050864 
L 174.751302 139.586221 
L 176.280767 136.691229 
L 177.810233 139.009835 
L 179.339698 138.64897 
L 180.869164 138.621389 
L 182.39863 140.370245 
L 183.928095 176.189231 
L 185.457561 142.916702 
L 186.987026 143.280043 
L 188.516492 139.809681 
L 190.045957 139.726613 
L 191.575423 147.039 
L 193.104888 144.304508 
L 194.634354 139.463404 
L 196.163819 138.688813 
L 197.693285 141.399961 
L 199.22275 138.226813 
L 200.752216 138.272375 
L 202.281681 138.587185 
L 203.811147 139.877338 
L 206.870078 138.167344 
L 208.399543 137.546531 
L 209.929009 139.884308 
L 211.458474 148.056142 
L 212.98794 137.270179 
L 214.517405 137.168721 
L 217.576336 137.75845 
L 219.105802 139.405485 
L 220.635267 137.969624 
L 222.164733 143.993955 
L 223.694198 139.843212 
L 225.223664 137.194763 
L 226.753129 137.271062 
L 228.282595 137.853989 
L 229.81206 137.833791 
L 231.341526 140.287512 
L 232.870991 137.519947 
L 234.400457 136.677726 
L 235.929922 137.657578 
L 237.459388 139.70743 
L 238.988853 138.160342 
L 240.518319 136.397121 
L 242.047784 137.675137 
L 243.57725 138.082977 
L 245.106715 140.000155 
L 246.636181 143.217852 
L 248.165646 137.46907 
L 249.695112 138.246791 
L 251.224577 145.83802 
L 252.754043 137.936471 
L 254.283508 145.890257 
L 255.812974 137.468144 
L 257.342439 136.351031 
L 258.871905 137.199925 
L 260.40137 137.327251 
L 261.930836 141.273997 
L 263.460302 137.464619 
L 264.989767 140.466708 
L 266.519233 136.654406 
L 268.048698 138.217321 
L 269.578164 137.172065 
L 271.107629 152.014317 
L 272.637095 158.211525 
L 274.16656 136.594361 
L 275.696026 139.860659 
L 277.225491 147.513731 
L 278.754957 139.318085 
L 280.284422 137.920909 
L 281.813888 136.881674 
L 283.343353 136.681826 
L 284.872819 144.480519 
L 286.402284 172.369402 
L 287.93175 140.527143 
L 289.461215 136.926355 
L 290.990681 136.090758 
L 292.520146 136.975396 
L 294.049612 138.311284 
L 295.579077 139.215645 
L 297.108543 161.201535 
L 298.638008 142.707436 
L 300.167474 149.378746 
L 301.696939 242.116364 
L 303.226405 137.783378 
L 304.75587 138.527168 
L 306.285336 140.420332 
L 307.814801 136.619052 
L 309.344267 148.174245 
L 310.873732 143.912893 
L 312.403198 138.823459 
L 313.932663 183.280568 
L 315.462129 139.983482 
L 316.991594 143.57796 
L 318.52106 141.687776 
L 320.050525 165.058155 
L 321.579991 140.134099 
L 323.109456 177.667558 
L 324.638922 141.589895 
L 326.168387 141.082793 
L 327.697853 140.724188 
L 329.227318 147.276766 
L 330.756784 143.399522 
L 332.286249 227.692446 
L 333.815715 143.013447 
L 335.34518 141.157383 
L 336.874646 151.518251 
L 338.404111 141.290221 
L 339.933577 140.063354 
L 341.463042 141.307172 
L 342.992508 140.860471 
L 344.521974 141.992964 
L 346.051439 144.890586 
L 347.580905 142.633807 
L 349.11037 153.69952 
L 350.639836 149.091608 
L 352.169301 145.250177 
L 353.698767 142.027724 
L 355.228232 141.208645 
L 356.757698 141.089432 
L 358.287163 145.765781 
L 359.816629 149.216459 
L 361.346094 145.616095 
L 362.87556 143.088385 
L 364.405025 154.090576 
L 365.934491 146.925792 
L 367.463956 143.607891 
L 368.993422 156.879759 
L 370.522887 149.541316 
L 372.052353 143.844465 
L 373.581818 142.8373 
L 373.581818 142.8373 
" style="fill:none;stroke:#008000;stroke-dasharray:9.6,2.4,1.5,2.4;stroke-dashoffset:0;stroke-width:1.5;"/>
   </g>
   <g id="line2d_37">
    <path clip-path="url(#p9d3cd4b9ad)" d="M 69.218182 126.96492 
L 70.747647 134.259463 
L 72.277113 104.920288 
L 73.806578 137.863995 
L 75.336044 119.980812 
L 76.865509 139.303519 
L 78.394975 134.606739 
L 79.92444 115.172948 
L 81.453906 136.016808 
L 82.983371 135.622917 
L 84.512837 132.616489 
L 86.042302 132.480913 
L 87.571768 127.212047 
L 89.101233 137.356717 
L 90.630699 123.138834 
L 92.160164 135.468624 
L 93.68963 130.057258 
L 95.219095 135.48461 
L 96.748561 133.580456 
L 98.278026 133.192846 
L 99.807492 134.352527 
L 101.336958 130.696164 
L 102.866423 131.389354 
L 104.395889 129.361986 
L 105.925354 101.613749 
L 107.45482 130.993277 
L 108.984285 120.974261 
L 110.513751 95.741864 
L 112.043216 126.76268 
L 113.572682 123.431411 
L 115.102147 130.411423 
L 116.631613 130.584302 
L 118.161078 130.160185 
L 119.690544 128.869779 
L 121.220009 130.706012 
L 122.749475 129.40114 
L 124.27894 130.04627 
L 125.808406 107.311802 
L 127.337871 126.234221 
L 128.867337 129.858526 
L 130.396802 128.426137 
L 131.926268 122.303024 
L 133.455733 112.379349 
L 134.985199 119.672086 
L 136.514664 129.220843 
L 138.04413 125.797531 
L 139.573595 124.667096 
L 141.103061 128.882764 
L 142.632526 128.164265 
L 144.161992 80.511473 
L 145.691457 126.968797 
L 147.220923 121.197743 
L 148.750388 127.546062 
L 150.279854 125.314566 
L 151.809319 107.972106 
L 153.338785 129.010303 
L 154.86825 127.937162 
L 156.397716 128.304926 
L 157.927181 120.34919 
L 159.456647 120.676564 
L 160.986112 128.488599 
L 162.515578 127.591062 
L 164.045043 127.872317 
L 165.574509 126.12724 
L 167.103974 112.660008 
L 168.63344 127.81945 
L 170.162905 127.975459 
L 171.692371 127.627912 
L 173.221836 125.921715 
L 174.751302 126.998568 
L 176.280767 127.686811 
L 177.810233 126.909728 
L 179.339698 127.334882 
L 180.869164 127.088757 
L 182.39863 126.074473 
L 183.928095 98.316788 
L 185.457561 125.647118 
L 186.987026 124.67188 
L 188.516492 125.904988 
L 190.045957 126.405561 
L 191.575423 122.211257 
L 194.634354 126.418503 
L 196.163819 127.106552 
L 197.693285 125.202298 
L 199.22275 126.555527 
L 200.752216 127.155692 
L 202.281681 126.951404 
L 203.811147 126.188051 
L 205.340612 126.675883 
L 206.870078 126.72607 
L 208.399543 127.227852 
L 209.929009 125.826918 
L 211.458474 119.570169 
L 212.98794 127.04571 
L 214.517405 127.329208 
L 217.576336 127.212417 
L 219.105802 125.743169 
L 220.635267 127.071128 
L 222.164733 122.622169 
L 223.694198 126.604585 
L 225.223664 126.972776 
L 226.753129 127.066219 
L 228.282595 127.491316 
L 229.81206 127.018408 
L 231.341526 126.143426 
L 232.870991 127.095104 
L 234.400457 127.150334 
L 235.929922 126.698242 
L 237.459388 125.119676 
L 238.988853 126.506494 
L 240.518319 126.922685 
L 242.047784 126.869816 
L 243.57725 127.248776 
L 245.106715 126.213272 
L 246.636181 124.172324 
L 248.165646 127.010033 
L 249.695112 126.941623 
L 251.224577 121.295765 
L 252.754043 126.970479 
L 254.283508 120.734115 
L 255.812974 126.809168 
L 257.342439 127.12433 
L 260.40137 126.931548 
L 261.930836 124.222132 
L 263.460302 126.758582 
L 264.989767 125.014758 
L 266.519233 126.980519 
L 268.048698 126.309797 
L 269.578164 126.812027 
L 271.107629 115.166168 
L 272.637095 111.307251 
L 274.16656 126.858588 
L 275.696026 126.086839 
L 277.225491 119.750872 
L 278.754957 125.785964 
L 280.284422 126.532323 
L 281.813888 126.795486 
L 283.343353 126.808095 
L 284.872819 120.880449 
L 286.402284 99.205138 
L 287.93175 125.632821 
L 289.461215 126.735046 
L 290.990681 127.10365 
L 294.049612 126.21258 
L 295.579077 125.032189 
L 297.108543 107.726145 
L 298.638008 123.638264 
L 300.167474 120.278946 
L 301.696939 44.443636 
L 303.226405 126.407907 
L 304.75587 125.563108 
L 306.285336 124.355273 
L 307.814801 126.14582 
L 309.344267 117.592748 
L 312.403198 126.188173 
L 313.932663 91.996085 
L 315.462129 125.273808 
L 316.991594 123.278805 
L 318.52106 125.540785 
L 320.050525 109.091523 
L 321.579991 126.631755 
L 323.109456 101.499297 
L 324.638922 126.779194 
L 326.168387 126.294803 
L 327.697853 127.251577 
L 329.227318 123.045619 
L 330.756784 126.028082 
L 332.286249 57.977123 
L 333.815715 127.119454 
L 335.34518 126.928441 
L 336.874646 120.339981 
L 338.404111 127.424895 
L 339.933577 127.271474 
L 341.463042 125.82339 
L 342.992508 127.116958 
L 344.521974 125.422821 
L 346.051439 124.18792 
L 347.580905 125.245879 
L 349.11037 117.866397 
L 350.639836 122.407411 
L 352.169301 123.179918 
L 353.698767 125.363004 
L 355.228232 125.304922 
L 356.757698 126.337887 
L 358.287163 123.534812 
L 359.816629 121.149628 
L 361.346094 124.399022 
L 362.87556 125.522313 
L 364.405025 119.727924 
L 365.934491 123.100535 
L 367.463956 124.664171 
L 368.993422 115.992752 
L 370.522887 119.522943 
L 372.052353 124.168426 
L 373.581818 126.222598 
L 373.581818 126.222598 
" style="fill:none;stroke:#008000;stroke-dasharray:9.6,2.4,1.5,2.4;stroke-dashoffset:0;stroke-width:1.5;"/>
   </g>
   <g id="line2d_38">
    <path clip-path="url(#p9d3cd4b9ad)" d="M 69.218182 144.235661 
L 75.336044 144.24196 
L 76.865509 135.491764 
L 78.394975 132.685198 
L 79.92444 132.107376 
L 81.453906 129.346319 
L 82.983371 132.145938 
L 84.512837 129.325957 
L 86.042302 132.167324 
L 87.571768 129.337527 
L 89.101233 131.576899 
L 90.630699 130.918576 
L 92.160164 129.484895 
L 93.68963 129.041349 
L 95.219095 128.830626 
L 96.748561 129.367043 
L 99.807492 129.324588 
L 101.336958 128.797915 
L 102.866423 129.204248 
L 104.395889 128.692146 
L 105.925354 128.778023 
L 107.45482 129.156697 
L 108.984285 129.184187 
L 110.513751 128.971385 
L 113.572682 129.294146 
L 118.161078 129.28919 
L 119.690544 128.973378 
L 121.220009 129.284443 
L 124.27894 128.626356 
L 125.808406 128.754187 
L 127.337871 129.305649 
L 128.867337 127.105181 
L 130.396802 128.433379 
L 131.926268 129.205313 
L 134.985199 129.051371 
L 136.514664 128.204496 
L 138.04413 128.766671 
L 139.573595 128.743019 
L 141.103061 128.53715 
L 142.632526 128.757235 
L 144.161992 128.796627 
L 145.691457 127.960225 
L 147.220923 128.693092 
L 148.750388 128.715131 
L 150.279854 128.919025 
L 151.809319 128.666053 
L 153.338785 128.069371 
L 154.86825 128.703019 
L 156.397716 128.838496 
L 159.456647 128.039188 
L 160.986112 128.280622 
L 162.515578 128.761716 
L 165.574509 128.779794 
L 167.103974 128.890765 
L 168.63344 127.924592 
L 170.162905 128.776408 
L 171.692371 128.756838 
L 173.221836 127.204449 
L 174.751302 126.036136 
L 176.280767 127.647887 
L 177.810233 126.29677 
L 179.339698 126.935792 
L 180.869164 124.988153 
L 182.39863 125.110901 
L 183.928095 125.740439 
L 185.457561 125.208144 
L 186.987026 125.261496 
L 188.516492 124.5693 
L 190.045957 125.022932 
L 191.575423 125.284084 
L 194.634354 125.114486 
L 196.163819 124.665075 
L 197.693285 125.047996 
L 199.22275 125.116969 
L 200.752216 125.605806 
L 202.281681 125.048072 
L 203.811147 125.270382 
L 206.870078 125.202571 
L 208.399543 125.432303 
L 209.929009 125.298717 
L 211.458474 125.666629 
L 212.98794 124.688445 
L 214.517405 125.139421 
L 216.046871 124.991501 
L 217.576336 124.545897 
L 219.105802 125.28298 
L 220.635267 125.120481 
L 223.694198 125.074765 
L 225.223664 124.94686 
L 226.753129 123.747135 
L 228.282595 124.477618 
L 229.81206 125.688253 
L 231.341526 124.262078 
L 232.870991 125.127014 
L 234.400457 125.611951 
L 235.929922 125.183212 
L 237.459388 124.892846 
L 238.988853 125.461002 
L 240.518319 123.691995 
L 242.047784 124.964709 
L 243.57725 125.038344 
L 245.106715 125.580442 
L 246.636181 125.778977 
L 248.165646 124.447962 
L 249.695112 125.262903 
L 251.224577 125.436615 
L 252.754043 125.28748 
L 254.283508 124.518681 
L 255.812974 125.413107 
L 257.342439 124.853748 
L 258.871905 125.339464 
L 260.40137 124.25632 
L 261.930836 125.002105 
L 263.460302 124.682885 
L 264.989767 124.944388 
L 266.519233 125.91182 
L 268.048698 124.873292 
L 269.578164 125.154646 
L 271.107629 124.626169 
L 272.637095 125.212862 
L 274.16656 125.579237 
L 275.696026 124.892566 
L 277.225491 125.233118 
L 278.754957 125.130969 
L 280.284422 124.497772 
L 281.813888 125.004311 
L 283.343353 124.392016 
L 284.872819 124.745021 
L 286.402284 124.354761 
L 287.93175 125.136902 
L 289.461215 124.533322 
L 290.990681 124.918876 
L 292.520146 124.896617 
L 294.049612 123.698039 
L 295.579077 123.138611 
L 297.108543 124.63472 
L 298.638008 124.360665 
L 300.167474 125.067456 
L 301.696939 125.117776 
L 303.226405 119.817082 
L 304.75587 123.7154 
L 306.285336 122.799663 
L 307.814801 123.109032 
L 309.344267 124.729418 
L 310.873732 124.199678 
L 312.403198 124.056187 
L 313.932663 124.345512 
L 315.462129 124.472345 
L 316.991594 123.962423 
L 318.52106 125.802633 
L 320.050525 126.333854 
L 321.579991 125.89355 
L 324.638922 124.503792 
L 326.168387 124.487067 
L 327.697853 124.092657 
L 329.227318 121.689785 
L 330.756784 124.540691 
L 332.286249 125.753124 
L 333.815715 123.890838 
L 335.34518 124.757715 
L 338.404111 124.879135 
L 339.933577 125.552492 
L 341.463042 124.988262 
L 342.992508 124.940089 
L 344.521974 124.691557 
L 346.051439 125.426373 
L 347.580905 125.292 
L 349.11037 124.344105 
L 350.639836 125.852057 
L 352.169301 125.425087 
L 353.698767 123.811382 
L 355.228232 124.029314 
L 356.757698 123.007511 
L 358.287163 124.233443 
L 359.816629 125.275468 
L 361.346094 124.7195 
L 362.87556 124.438673 
L 364.405025 125.558802 
L 367.463956 124.90282 
L 368.993422 125.181741 
L 370.522887 124.422077 
L 372.052353 125.523744 
L 373.581818 124.897133 
L 373.581818 124.897133 
" style="fill:none;stroke:#ff0000;stroke-linecap:square;stroke-width:1.5;"/>
   </g>
   <g id="patch_3">
    <path d="M 54 252 
L 54 34.56 
" style="fill:none;stroke:#000000;stroke-linecap:square;stroke-linejoin:miter;stroke-width:0.8;"/>
   </g>
   <g id="patch_4">
    <path d="M 388.8 252 
L 388.8 34.56 
" style="fill:none;stroke:#000000;stroke-linecap:square;stroke-linejoin:miter;stroke-width:0.8;"/>
   </g>
   <g id="patch_5">
    <path d="M 54 252 
L 388.8 252 
" style="fill:none;stroke:#000000;stroke-linecap:square;stroke-linejoin:miter;stroke-width:0.8;"/>
   </g>
   <g id="patch_6">
    <path d="M 54 34.56 
L 388.8 34.56 
" style="fill:none;stroke:#000000;stroke-linecap:square;stroke-linejoin:miter;stroke-width:0.8;"/>
   </g>
   <g id="text_20">
    <!-- Population's average and best fitness -->
    <defs>
     <path d="M 19.671875 64.796875 
L 19.671875 37.40625 
L 32.078125 37.40625 
Q 38.96875 37.40625 42.71875 40.96875 
Q 46.484375 44.53125 46.484375 51.125 
Q 46.484375 57.671875 42.71875 61.234375 
Q 38.96875 64.796875 32.078125 64.796875 
z
M 9.8125 72.90625 
L 32.078125 72.90625 
Q 44.34375 72.90625 50.609375 67.359375 
Q 56.890625 61.8125 56.890625 51.125 
Q 56.890625 40.328125 50.609375 34.8125 
Q 44.34375 29.296875 32.078125 29.296875 
L 19.671875 29.296875 
L 19.671875 0 
L 9.8125 0 
z
" id="DejaVuSans-80"/>
     <path d="M 18.109375 8.203125 
L 18.109375 -20.796875 
L 9.078125 -20.796875 
L 9.078125 54.6875 
L 18.109375 54.6875 
L 18.109375 46.390625 
Q 20.953125 51.265625 25.265625 53.625 
Q 29.59375 56 35.59375 56 
Q 45.5625 56 51.78125 48.09375 
Q 58.015625 40.1875 58.015625 27.296875 
Q 58.015625 14.40625 51.78125 6.484375 
Q 45.5625 -1.421875 35.59375 -1.421875 
Q 29.59375 -1.421875 25.265625 0.953125 
Q 20.953125 3.328125 18.109375 8.203125 
z
M 48.6875 27.296875 
Q 48.6875 37.203125 44.609375 42.84375 
Q 40.53125 48.484375 33.40625 48.484375 
Q 26.265625 48.484375 22.1875 42.84375 
Q 18.109375 37.203125 18.109375 27.296875 
Q 18.109375 17.390625 22.1875 11.75 
Q 26.265625 6.109375 33.40625 6.109375 
Q 40.53125 6.109375 44.609375 11.75 
Q 48.6875 17.390625 48.6875 27.296875 
z
" id="DejaVuSans-112"/>
     <path d="M 8.5 21.578125 
L 8.5 54.6875 
L 17.484375 54.6875 
L 17.484375 21.921875 
Q 17.484375 14.15625 20.5 10.265625 
Q 23.53125 6.390625 29.59375 6.390625 
Q 36.859375 6.390625 41.078125 11.03125 
Q 45.3125 15.671875 45.3125 23.6875 
L 45.3125 54.6875 
L 54.296875 54.6875 
L 54.296875 0 
L 45.3125 0 
L 45.3125 8.40625 
Q 42.046875 3.421875 37.71875 1 
Q 33.40625 -1.421875 27.6875 -1.421875 
Q 18.265625 -1.421875 13.375 4.4375 
Q 8.5 10.296875 8.5 21.578125 
z
M 31.109375 56 
z
" id="DejaVuSans-117"/>
     <path d="M 9.421875 75.984375 
L 18.40625 75.984375 
L 18.40625 0 
L 9.421875 0 
z
" id="DejaVuSans-108"/>
     <path d="M 17.921875 72.90625 
L 17.921875 45.796875 
L 9.625 45.796875 
L 9.625 72.90625 
z
" id="DejaVuSans-39"/>
     <path id="DejaVuSans-32"/>
     <path d="M 2.984375 54.6875 
L 12.5 54.6875 
L 29.59375 8.796875 
L 46.6875 54.6875 
L 56.203125 54.6875 
L 35.6875 0 
L 23.484375 0 
z
" id="DejaVuSans-118"/>
     <path d="M 45.40625 27.984375 
Q 45.40625 37.75 41.375 43.109375 
Q 37.359375 48.484375 30.078125 48.484375 
Q 22.859375 48.484375 18.828125 43.109375 
Q 14.796875 37.75 14.796875 27.984375 
Q 14.796875 18.265625 18.828125 12.890625 
Q 22.859375 7.515625 30.078125 7.515625 
Q 37.359375 7.515625 41.375 12.890625 
Q 45.40625 18.265625 45.40625 27.984375 
z
M 54.390625 6.78125 
Q 54.390625 -7.171875 48.1875 -13.984375 
Q 42 -20.796875 29.203125 -20.796875 
Q 24.46875 -20.796875 20.265625 -20.09375 
Q 16.0625 -19.390625 12.109375 -17.921875 
L 12.109375 -9.1875 
Q 16.0625 -11.328125 19.921875 -12.34375 
Q 23.78125 -13.375 27.78125 -13.375 
Q 36.625 -13.375 41.015625 -8.765625 
Q 45.40625 -4.15625 45.40625 5.171875 
L 45.40625 9.625 
Q 42.625 4.78125 38.28125 2.390625 
Q 33.9375 0 27.875 0 
Q 17.828125 0 11.671875 7.65625 
Q 5.515625 15.328125 5.515625 27.984375 
Q 5.515625 40.671875 11.671875 48.328125 
Q 17.828125 56 27.875 56 
Q 33.9375 56 38.28125 53.609375 
Q 42.625 51.21875 45.40625 46.390625 
L 45.40625 54.6875 
L 54.390625 54.6875 
z
" id="DejaVuSans-103"/>
     <path d="M 45.40625 46.390625 
L 45.40625 75.984375 
L 54.390625 75.984375 
L 54.390625 0 
L 45.40625 0 
L 45.40625 8.203125 
Q 42.578125 3.328125 38.25 0.953125 
Q 33.9375 -1.421875 27.875 -1.421875 
Q 17.96875 -1.421875 11.734375 6.484375 
Q 5.515625 14.40625 5.515625 27.296875 
Q 5.515625 40.1875 11.734375 48.09375 
Q 17.96875 56 27.875 56 
Q 33.9375 56 38.25 53.625 
Q 42.578125 51.265625 45.40625 46.390625 
z
M 14.796875 27.296875 
Q 14.796875 17.390625 18.875 11.75 
Q 22.953125 6.109375 30.078125 6.109375 
Q 37.203125 6.109375 41.296875 11.75 
Q 45.40625 17.390625 45.40625 27.296875 
Q 45.40625 37.203125 41.296875 42.84375 
Q 37.203125 48.484375 30.078125 48.484375 
Q 22.953125 48.484375 18.875 42.84375 
Q 14.796875 37.203125 14.796875 27.296875 
z
" id="DejaVuSans-100"/>
     <path d="M 48.6875 27.296875 
Q 48.6875 37.203125 44.609375 42.84375 
Q 40.53125 48.484375 33.40625 48.484375 
Q 26.265625 48.484375 22.1875 42.84375 
Q 18.109375 37.203125 18.109375 27.296875 
Q 18.109375 17.390625 22.1875 11.75 
Q 26.265625 6.109375 33.40625 6.109375 
Q 40.53125 6.109375 44.609375 11.75 
Q 48.6875 17.390625 48.6875 27.296875 
z
M 18.109375 46.390625 
Q 20.953125 51.265625 25.265625 53.625 
Q 29.59375 56 35.59375 56 
Q 45.5625 56 51.78125 48.09375 
Q 58.015625 40.1875 58.015625 27.296875 
Q 58.015625 14.40625 51.78125 6.484375 
Q 45.5625 -1.421875 35.59375 -1.421875 
Q 29.59375 -1.421875 25.265625 0.953125 
Q 20.953125 3.328125 18.109375 8.203125 
L 18.109375 0 
L 9.078125 0 
L 9.078125 75.984375 
L 18.109375 75.984375 
z
" id="DejaVuSans-98"/>
     <path d="M 37.109375 75.984375 
L 37.109375 68.5 
L 28.515625 68.5 
Q 23.6875 68.5 21.796875 66.546875 
Q 19.921875 64.59375 19.921875 59.515625 
L 19.921875 54.6875 
L 34.71875 54.6875 
L 34.71875 47.703125 
L 19.921875 47.703125 
L 19.921875 0 
L 10.890625 0 
L 10.890625 47.703125 
L 2.296875 47.703125 
L 2.296875 54.6875 
L 10.890625 54.6875 
L 10.890625 58.5 
Q 10.890625 67.625 15.140625 71.796875 
Q 19.390625 75.984375 28.609375 75.984375 
z
" id="DejaVuSans-102"/>
    </defs>
    <g transform="translate(108.555 28.56)scale(0.12 -0.12)">
     <use xlink:href="#DejaVuSans-80"/>
     <use x="60.255859" xlink:href="#DejaVuSans-111"/>
     <use x="121.4375" xlink:href="#DejaVuSans-112"/>
     <use x="184.914062" xlink:href="#DejaVuSans-117"/>
     <use x="248.292969" xlink:href="#DejaVuSans-108"/>
     <use x="276.076172" xlink:href="#DejaVuSans-97"/>
     <use x="337.355469" xlink:href="#DejaVuSans-116"/>
     <use x="376.564453" xlink:href="#DejaVuSans-105"/>
     <use x="404.347656" xlink:href="#DejaVuSans-111"/>
     <use x="465.529297" xlink:href="#DejaVuSans-110"/>
     <use x="528.908203" xlink:href="#DejaVuSans-39"/>
     <use x="556.398438" xlink:href="#DejaVuSans-115"/>
     <use x="608.498047" xlink:href="#DejaVuSans-32"/>
     <use x="640.285156" xlink:href="#DejaVuSans-97"/>
     <use x="701.564453" xlink:href="#DejaVuSans-118"/>
     <use x="760.744141" xlink:href="#DejaVuSans-101"/>
     <use x="822.267578" xlink:href="#DejaVuSans-114"/>
     <use x="863.380859" xlink:href="#DejaVuSans-97"/>
     <use x="924.660156" xlink:href="#DejaVuSans-103"/>
     <use x="988.136719" xlink:href="#DejaVuSans-101"/>
     <use x="1049.660156" xlink:href="#DejaVuSans-32"/>
     <use x="1081.447266" xlink:href="#DejaVuSans-97"/>
     <use x="1142.726562" xlink:href="#DejaVuSans-110"/>
     <use x="1206.105469" xlink:href="#DejaVuSans-100"/>
     <use x="1269.582031" xlink:href="#DejaVuSans-32"/>
     <use x="1301.369141" xlink:href="#DejaVuSans-98"/>
     <use x="1364.845703" xlink:href="#DejaVuSans-101"/>
     <use x="1426.369141" xlink:href="#DejaVuSans-115"/>
     <use x="1478.46875" xlink:href="#DejaVuSans-116"/>
     <use x="1517.677734" xlink:href="#DejaVuSans-32"/>
     <use x="1549.464844" xlink:href="#DejaVuSans-102"/>
     <use x="1584.669922" xlink:href="#DejaVuSans-105"/>
     <use x="1612.453125" xlink:href="#DejaVuSans-116"/>
     <use x="1651.662109" xlink:href="#DejaVuSans-110"/>
     <use x="1715.041016" xlink:href="#DejaVuSans-101"/>
     <use x="1776.564453" xlink:href="#DejaVuSans-115"/>
     <use x="1828.664062" xlink:href="#DejaVuSans-115"/>
    </g>
   </g>
   <g id="legend_1">
    <g id="patch_7">
     <path d="M 184.929688 247 
L 257.870313 247 
Q 259.870313 247 259.870313 245 
L 259.870313 187.2875 
Q 259.870313 185.2875 257.870313 185.2875 
L 184.929688 185.2875 
Q 182.929688 185.2875 182.929688 187.2875 
L 182.929688 245 
Q 182.929688 247 184.929688 247 
z
" style="fill:#ffffff;opacity:0.8;stroke:#cccccc;stroke-linejoin:miter;"/>
    </g>
    <g id="line2d_39">
     <path d="M 186.929688 193.385938 
L 206.929688 193.385938 
" style="fill:none;stroke:#0000ff;stroke-linecap:square;stroke-width:1.5;"/>
    </g>
    <g id="line2d_40"/>
    <g id="text_21">
     <!-- average -->
     <g transform="translate(214.929688 196.885938)scale(0.1 -0.1)">
      <use xlink:href="#DejaVuSans-97"/>
      <use x="61.279297" xlink:href="#DejaVuSans-118"/>
      <use x="120.458984" xlink:href="#DejaVuSans-101"/>
      <use x="181.982422" xlink:href="#DejaVuSans-114"/>
      <use x="223.095703" xlink:href="#DejaVuSans-97"/>
      <use x="284.375" xlink:href="#DejaVuSans-103"/>
      <use x="347.851562" xlink:href="#DejaVuSans-101"/>
     </g>
    </g>
    <g id="line2d_41">
     <path d="M 186.929688 208.064063 
L 206.929688 208.064063 
" style="fill:none;stroke:#008000;stroke-dasharray:9.6,2.4,1.5,2.4;stroke-dashoffset:0;stroke-width:1.5;"/>
    </g>
    <g id="line2d_42"/>
    <g id="text_22">
     <!-- -1 sd -->
     <defs>
      <path d="M 4.890625 31.390625 
L 31.203125 31.390625 
L 31.203125 23.390625 
L 4.890625 23.390625 
z
" id="DejaVuSans-45"/>
     </defs>
     <g transform="translate(214.929688 211.564063)scale(0.1 -0.1)">
      <use xlink:href="#DejaVuSans-45"/>
      <use x="36.083984" xlink:href="#DejaVuSans-49"/>
      <use x="99.707031" xlink:href="#DejaVuSans-32"/>
      <use x="131.494141" xlink:href="#DejaVuSans-115"/>
      <use x="183.59375" xlink:href="#DejaVuSans-100"/>
     </g>
    </g>
    <g id="line2d_43">
     <path d="M 186.929688 222.742188 
L 206.929688 222.742188 
" style="fill:none;stroke:#008000;stroke-dasharray:9.6,2.4,1.5,2.4;stroke-dashoffset:0;stroke-width:1.5;"/>
    </g>
    <g id="line2d_44"/>
    <g id="text_23">
     <!-- +1 sd -->
     <defs>
      <path d="M 46 62.703125 
L 46 35.5 
L 73.1875 35.5 
L 73.1875 27.203125 
L 46 27.203125 
L 46 0 
L 37.796875 0 
L 37.796875 27.203125 
L 10.59375 27.203125 
L 10.59375 35.5 
L 37.796875 35.5 
L 37.796875 62.703125 
z
" id="DejaVuSans-43"/>
     </defs>
     <g transform="translate(214.929688 226.242188)scale(0.1 -0.1)">
      <use xlink:href="#DejaVuSans-43"/>
      <use x="83.789062" xlink:href="#DejaVuSans-49"/>
      <use x="147.412109" xlink:href="#DejaVuSans-32"/>
      <use x="179.199219" xlink:href="#DejaVuSans-115"/>
      <use x="231.298828" xlink:href="#DejaVuSans-100"/>
     </g>
    </g>
    <g id="line2d_45">
     <path d="M 186.929688 237.420312 
L 206.929688 237.420312 
" style="fill:none;stroke:#ff0000;stroke-linecap:square;stroke-width:1.5;"/>
    </g>
    <g id="line2d_46"/>
    <g id="text_24">
     <!-- best -->
     <g transform="translate(214.929688 240.920312)scale(0.1 -0.1)">
      <use xlink:href="#DejaVuSans-98"/>
      <use x="63.476562" xlink:href="#DejaVuSans-101"/>
      <use x="125" xlink:href="#DejaVuSans-115"/>
      <use x="177.099609" xlink:href="#DejaVuSans-116"/>
     </g>
    </g>
   </g>
  </g>
 </g>
 <defs>
  <clipPath id="p9d3cd4b9ad">
   <rect height="217.44" width="334.8" x="54" y="34.56"/>
  </clipPath>
 </defs>
</svg>
