<?xml version="1.0" encoding="utf-8" standalone="no"?>
<!DOCTYPE svg PUBLIC "-//W3C//DTD SVG 1.1//EN"
  "http://www.w3.org/Graphics/SVG/1.1/DTD/svg11.dtd">
<!-- Created with matplotlib (https://matplotlib.org/) -->
<svg height="288pt" version="1.1" viewBox="0 0 432 288" width="432pt" xmlns="http://www.w3.org/2000/svg" xmlns:xlink="http://www.w3.org/1999/xlink">
 <defs>
  <style type="text/css">
*{stroke-linecap:butt;stroke-linejoin:round;}
  </style>
 </defs>
 <g id="figure_1">
  <g id="patch_1">
   <path d="M 0 288 
L 432 288 
L 432 0 
L 0 0 
z
" style="fill:#ffffff;"/>
  </g>
  <g id="axes_1">
   <g id="patch_2">
    <path d="M 54 252 
L 388.8 252 
L 388.8 34.56 
L 54 34.56 
z
" style="fill:#ffffff;"/>
   </g>
   <g id="matplotlib.axis_1">
    <g id="xtick_1">
     <g id="line2d_1">
      <path clip-path="url(#pa792d9ad28)" d="M 69.218182 252 
L 69.218182 34.56 
" style="fill:none;stroke:#b0b0b0;stroke-linecap:square;stroke-width:0.8;"/>
     </g>
     <g id="line2d_2">
      <defs>
       <path d="M 0 0 
L 0 3.5 
" id="mc0b46960cd" style="stroke:#000000;stroke-width:0.8;"/>
      </defs>
      <g>
       <use style="stroke:#000000;stroke-width:0.8;" x="69.218182" xlink:href="#mc0b46960cd" y="252"/>
      </g>
     </g>
     <g id="text_1">
      <!-- 0 -->
      <defs>
       <path d="M 31.78125 66.40625 
Q 24.171875 66.40625 20.328125 58.90625 
Q 16.5 51.421875 16.5 36.375 
Q 16.5 21.390625 20.328125 13.890625 
Q 24.171875 6.390625 31.78125 6.390625 
Q 39.453125 6.390625 43.28125 13.890625 
Q 47.125 21.390625 47.125 36.375 
Q 47.125 51.421875 43.28125 58.90625 
Q 39.453125 66.40625 31.78125 66.40625 
z
M 31.78125 74.21875 
Q 44.046875 74.21875 50.515625 64.515625 
Q 56.984375 54.828125 56.984375 36.375 
Q 56.984375 17.96875 50.515625 8.265625 
Q 44.046875 -1.421875 31.78125 -1.421875 
Q 19.53125 -1.421875 13.0625 8.265625 
Q 6.59375 17.96875 6.59375 36.375 
Q 6.59375 54.828125 13.0625 64.515625 
Q 19.53125 74.21875 31.78125 74.21875 
z
" id="DejaVuSans-48"/>
      </defs>
      <g transform="translate(66.036932 266.598437)scale(0.1 -0.1)">
       <use xlink:href="#DejaVuSans-48"/>
      </g>
     </g>
    </g>
    <g id="xtick_2">
     <g id="line2d_3">
      <path clip-path="url(#pa792d9ad28)" d="M 107.45482 252 
L 107.45482 34.56 
" style="fill:none;stroke:#b0b0b0;stroke-linecap:square;stroke-width:0.8;"/>
     </g>
     <g id="line2d_4">
      <g>
       <use style="stroke:#000000;stroke-width:0.8;" x="107.45482" xlink:href="#mc0b46960cd" y="252"/>
      </g>
     </g>
     <g id="text_2">
      <!-- 25 -->
      <defs>
       <path d="M 19.1875 8.296875 
L 53.609375 8.296875 
L 53.609375 0 
L 7.328125 0 
L 7.328125 8.296875 
Q 12.9375 14.109375 22.625 23.890625 
Q 32.328125 33.6875 34.8125 36.53125 
Q 39.546875 41.84375 41.421875 45.53125 
Q 43.3125 49.21875 43.3125 52.78125 
Q 43.3125 58.59375 39.234375 62.25 
Q 35.15625 65.921875 28.609375 65.921875 
Q 23.96875 65.921875 18.8125 64.3125 
Q 13.671875 62.703125 7.8125 59.421875 
L 7.8125 69.390625 
Q 13.765625 71.78125 18.9375 73 
Q 24.125 74.21875 28.421875 74.21875 
Q 39.75 74.21875 46.484375 68.546875 
Q 53.21875 62.890625 53.21875 53.421875 
Q 53.21875 48.921875 51.53125 44.890625 
Q 49.859375 40.875 45.40625 35.40625 
Q 44.1875 33.984375 37.640625 27.21875 
Q 31.109375 20.453125 19.1875 8.296875 
z
" id="DejaVuSans-50"/>
       <path d="M 10.796875 72.90625 
L 49.515625 72.90625 
L 49.515625 64.59375 
L 19.828125 64.59375 
L 19.828125 46.734375 
Q 21.96875 47.46875 24.109375 47.828125 
Q 26.265625 48.1875 28.421875 48.1875 
Q 40.625 48.1875 47.75 41.5 
Q 54.890625 34.8125 54.890625 23.390625 
Q 54.890625 11.625 47.5625 5.09375 
Q 40.234375 -1.421875 26.90625 -1.421875 
Q 22.3125 -1.421875 17.546875 -0.640625 
Q 12.796875 0.140625 7.71875 1.703125 
L 7.71875 11.625 
Q 12.109375 9.234375 16.796875 8.0625 
Q 21.484375 6.890625 26.703125 6.890625 
Q 35.15625 6.890625 40.078125 11.328125 
Q 45.015625 15.765625 45.015625 23.390625 
Q 45.015625 31 40.078125 35.4375 
Q 35.15625 39.890625 26.703125 39.890625 
Q 22.75 39.890625 18.8125 39.015625 
Q 14.890625 38.140625 10.796875 36.28125 
z
" id="DejaVuSans-53"/>
      </defs>
      <g transform="translate(101.09232 266.598437)scale(0.1 -0.1)">
       <use xlink:href="#DejaVuSans-50"/>
       <use x="63.623047" xlink:href="#DejaVuSans-53"/>
      </g>
     </g>
    </g>
    <g id="xtick_3">
     <g id="line2d_5">
      <path clip-path="url(#pa792d9ad28)" d="M 145.691457 252 
L 145.691457 34.56 
" style="fill:none;stroke:#b0b0b0;stroke-linecap:square;stroke-width:0.8;"/>
     </g>
     <g id="line2d_6">
      <g>
       <use style="stroke:#000000;stroke-width:0.8;" x="145.691457" xlink:href="#mc0b46960cd" y="252"/>
      </g>
     </g>
     <g id="text_3">
      <!-- 50 -->
      <g transform="translate(139.328957 266.598437)scale(0.1 -0.1)">
       <use xlink:href="#DejaVuSans-53"/>
       <use x="63.623047" xlink:href="#DejaVuSans-48"/>
      </g>
     </g>
    </g>
    <g id="xtick_4">
     <g id="line2d_7">
      <path clip-path="url(#pa792d9ad28)" d="M 183.928095 252 
L 183.928095 34.56 
" style="fill:none;stroke:#b0b0b0;stroke-linecap:square;stroke-width:0.8;"/>
     </g>
     <g id="line2d_8">
      <g>
       <use style="stroke:#000000;stroke-width:0.8;" x="183.928095" xlink:href="#mc0b46960cd" y="252"/>
      </g>
     </g>
     <g id="text_4">
      <!-- 75 -->
      <defs>
       <path d="M 8.203125 72.90625 
L 55.078125 72.90625 
L 55.078125 68.703125 
L 28.609375 0 
L 18.3125 0 
L 43.21875 64.59375 
L 8.203125 64.59375 
z
" id="DejaVuSans-55"/>
      </defs>
      <g transform="translate(177.565595 266.598437)scale(0.1 -0.1)">
       <use xlink:href="#DejaVuSans-55"/>
       <use x="63.623047" xlink:href="#DejaVuSans-53"/>
      </g>
     </g>
    </g>
    <g id="xtick_5">
     <g id="line2d_9">
      <path clip-path="url(#pa792d9ad28)" d="M 222.164733 252 
L 222.164733 34.56 
" style="fill:none;stroke:#b0b0b0;stroke-linecap:square;stroke-width:0.8;"/>
     </g>
     <g id="line2d_10">
      <g>
       <use style="stroke:#000000;stroke-width:0.8;" x="222.164733" xlink:href="#mc0b46960cd" y="252"/>
      </g>
     </g>
     <g id="text_5">
      <!-- 100 -->
      <defs>
       <path d="M 12.40625 8.296875 
L 28.515625 8.296875 
L 28.515625 63.921875 
L 10.984375 60.40625 
L 10.984375 69.390625 
L 28.421875 72.90625 
L 38.28125 72.90625 
L 38.28125 8.296875 
L 54.390625 8.296875 
L 54.390625 0 
L 12.40625 0 
z
" id="DejaVuSans-49"/>
      </defs>
      <g transform="translate(212.620983 266.598437)scale(0.1 -0.1)">
       <use xlink:href="#DejaVuSans-49"/>
       <use x="63.623047" xlink:href="#DejaVuSans-48"/>
       <use x="127.246094" xlink:href="#DejaVuSans-48"/>
      </g>
     </g>
    </g>
    <g id="xtick_6">
     <g id="line2d_11">
      <path clip-path="url(#pa792d9ad28)" d="M 260.40137 252 
L 260.40137 34.56 
" style="fill:none;stroke:#b0b0b0;stroke-linecap:square;stroke-width:0.8;"/>
     </g>
     <g id="line2d_12">
      <g>
       <use style="stroke:#000000;stroke-width:0.8;" x="260.40137" xlink:href="#mc0b46960cd" y="252"/>
      </g>
     </g>
     <g id="text_6">
      <!-- 125 -->
      <g transform="translate(250.85762 266.598437)scale(0.1 -0.1)">
       <use xlink:href="#DejaVuSans-49"/>
       <use x="63.623047" xlink:href="#DejaVuSans-50"/>
       <use x="127.246094" xlink:href="#DejaVuSans-53"/>
      </g>
     </g>
    </g>
    <g id="xtick_7">
     <g id="line2d_13">
      <path clip-path="url(#pa792d9ad28)" d="M 298.638008 252 
L 298.638008 34.56 
" style="fill:none;stroke:#b0b0b0;stroke-linecap:square;stroke-width:0.8;"/>
     </g>
     <g id="line2d_14">
      <g>
       <use style="stroke:#000000;stroke-width:0.8;" x="298.638008" xlink:href="#mc0b46960cd" y="252"/>
      </g>
     </g>
     <g id="text_7">
      <!-- 150 -->
      <g transform="translate(289.094258 266.598437)scale(0.1 -0.1)">
       <use xlink:href="#DejaVuSans-49"/>
       <use x="63.623047" xlink:href="#DejaVuSans-53"/>
       <use x="127.246094" xlink:href="#DejaVuSans-48"/>
      </g>
     </g>
    </g>
    <g id="xtick_8">
     <g id="line2d_15">
      <path clip-path="url(#pa792d9ad28)" d="M 336.874646 252 
L 336.874646 34.56 
" style="fill:none;stroke:#b0b0b0;stroke-linecap:square;stroke-width:0.8;"/>
     </g>
     <g id="line2d_16">
      <g>
       <use style="stroke:#000000;stroke-width:0.8;" x="336.874646" xlink:href="#mc0b46960cd" y="252"/>
      </g>
     </g>
     <g id="text_8">
      <!-- 175 -->
      <g transform="translate(327.330896 266.598437)scale(0.1 -0.1)">
       <use xlink:href="#DejaVuSans-49"/>
       <use x="63.623047" xlink:href="#DejaVuSans-55"/>
       <use x="127.246094" xlink:href="#DejaVuSans-53"/>
      </g>
     </g>
    </g>
    <g id="xtick_9">
     <g id="line2d_17">
      <path clip-path="url(#pa792d9ad28)" d="M 375.111284 252 
L 375.111284 34.56 
" style="fill:none;stroke:#b0b0b0;stroke-linecap:square;stroke-width:0.8;"/>
     </g>
     <g id="line2d_18">
      <g>
       <use style="stroke:#000000;stroke-width:0.8;" x="375.111284" xlink:href="#mc0b46960cd" y="252"/>
      </g>
     </g>
     <g id="text_9">
      <!-- 200 -->
      <g transform="translate(365.567534 266.598437)scale(0.1 -0.1)">
       <use xlink:href="#DejaVuSans-50"/>
       <use x="63.623047" xlink:href="#DejaVuSans-48"/>
       <use x="127.246094" xlink:href="#DejaVuSans-48"/>
      </g>
     </g>
    </g>
    <g id="text_10">
     <!-- Generations -->
     <defs>
      <path d="M 59.515625 10.40625 
L 59.515625 29.984375 
L 43.40625 29.984375 
L 43.40625 38.09375 
L 69.28125 38.09375 
L 69.28125 6.78125 
Q 63.578125 2.734375 56.6875 0.65625 
Q 49.8125 -1.421875 42 -1.421875 
Q 24.90625 -1.421875 15.25 8.5625 
Q 5.609375 18.5625 5.609375 36.375 
Q 5.609375 54.25 15.25 64.234375 
Q 24.90625 74.21875 42 74.21875 
Q 49.125 74.21875 55.546875 72.453125 
Q 61.96875 70.703125 67.390625 67.28125 
L 67.390625 56.78125 
Q 61.921875 61.421875 55.765625 63.765625 
Q 49.609375 66.109375 42.828125 66.109375 
Q 29.4375 66.109375 22.71875 58.640625 
Q 16.015625 51.171875 16.015625 36.375 
Q 16.015625 21.625 22.71875 14.15625 
Q 29.4375 6.6875 42.828125 6.6875 
Q 48.046875 6.6875 52.140625 7.59375 
Q 56.25 8.5 59.515625 10.40625 
z
" id="DejaVuSans-71"/>
      <path d="M 56.203125 29.59375 
L 56.203125 25.203125 
L 14.890625 25.203125 
Q 15.484375 15.921875 20.484375 11.0625 
Q 25.484375 6.203125 34.421875 6.203125 
Q 39.59375 6.203125 44.453125 7.46875 
Q 49.3125 8.734375 54.109375 11.28125 
L 54.109375 2.78125 
Q 49.265625 0.734375 44.1875 -0.34375 
Q 39.109375 -1.421875 33.890625 -1.421875 
Q 20.796875 -1.421875 13.15625 6.1875 
Q 5.515625 13.8125 5.515625 26.8125 
Q 5.515625 40.234375 12.765625 48.109375 
Q 20.015625 56 32.328125 56 
Q 43.359375 56 49.78125 48.890625 
Q 56.203125 41.796875 56.203125 29.59375 
z
M 47.21875 32.234375 
Q 47.125 39.59375 43.09375 43.984375 
Q 39.0625 48.390625 32.421875 48.390625 
Q 24.90625 48.390625 20.390625 44.140625 
Q 15.875 39.890625 15.1875 32.171875 
z
" id="DejaVuSans-101"/>
      <path d="M 54.890625 33.015625 
L 54.890625 0 
L 45.90625 0 
L 45.90625 32.71875 
Q 45.90625 40.484375 42.875 44.328125 
Q 39.84375 48.1875 33.796875 48.1875 
Q 26.515625 48.1875 22.3125 43.546875 
Q 18.109375 38.921875 18.109375 30.90625 
L 18.109375 0 
L 9.078125 0 
L 9.078125 54.6875 
L 18.109375 54.6875 
L 18.109375 46.1875 
Q 21.34375 51.125 25.703125 53.5625 
Q 30.078125 56 35.796875 56 
Q 45.21875 56 50.046875 50.171875 
Q 54.890625 44.34375 54.890625 33.015625 
z
" id="DejaVuSans-110"/>
      <path d="M 41.109375 46.296875 
Q 39.59375 47.171875 37.8125 47.578125 
Q 36.03125 48 33.890625 48 
Q 26.265625 48 22.1875 43.046875 
Q 18.109375 38.09375 18.109375 28.8125 
L 18.109375 0 
L 9.078125 0 
L 9.078125 54.6875 
L 18.109375 54.6875 
L 18.109375 46.1875 
Q 20.953125 51.171875 25.484375 53.578125 
Q 30.03125 56 36.53125 56 
Q 37.453125 56 38.578125 55.875 
Q 39.703125 55.765625 41.0625 55.515625 
z
" id="DejaVuSans-114"/>
      <path d="M 34.28125 27.484375 
Q 23.390625 27.484375 19.1875 25 
Q 14.984375 22.515625 14.984375 16.5 
Q 14.984375 11.71875 18.140625 8.90625 
Q 21.296875 6.109375 26.703125 6.109375 
Q 34.1875 6.109375 38.703125 11.40625 
Q 43.21875 16.703125 43.21875 25.484375 
L 43.21875 27.484375 
z
M 52.203125 31.203125 
L 52.203125 0 
L 43.21875 0 
L 43.21875 8.296875 
Q 40.140625 3.328125 35.546875 0.953125 
Q 30.953125 -1.421875 24.3125 -1.421875 
Q 15.921875 -1.421875 10.953125 3.296875 
Q 6 8.015625 6 15.921875 
Q 6 25.140625 12.171875 29.828125 
Q 18.359375 34.515625 30.609375 34.515625 
L 43.21875 34.515625 
L 43.21875 35.40625 
Q 43.21875 41.609375 39.140625 45 
Q 35.0625 48.390625 27.6875 48.390625 
Q 23 48.390625 18.546875 47.265625 
Q 14.109375 46.140625 10.015625 43.890625 
L 10.015625 52.203125 
Q 14.9375 54.109375 19.578125 55.046875 
Q 24.21875 56 28.609375 56 
Q 40.484375 56 46.34375 49.84375 
Q 52.203125 43.703125 52.203125 31.203125 
z
" id="DejaVuSans-97"/>
      <path d="M 18.3125 70.21875 
L 18.3125 54.6875 
L 36.8125 54.6875 
L 36.8125 47.703125 
L 18.3125 47.703125 
L 18.3125 18.015625 
Q 18.3125 11.328125 20.140625 9.421875 
Q 21.96875 7.515625 27.59375 7.515625 
L 36.8125 7.515625 
L 36.8125 0 
L 27.59375 0 
Q 17.1875 0 13.234375 3.875 
Q 9.28125 7.765625 9.28125 18.015625 
L 9.28125 47.703125 
L 2.6875 47.703125 
L 2.6875 54.6875 
L 9.28125 54.6875 
L 9.28125 70.21875 
z
" id="DejaVuSans-116"/>
      <path d="M 9.421875 54.6875 
L 18.40625 54.6875 
L 18.40625 0 
L 9.421875 0 
z
M 9.421875 75.984375 
L 18.40625 75.984375 
L 18.40625 64.59375 
L 9.421875 64.59375 
z
" id="DejaVuSans-105"/>
      <path d="M 30.609375 48.390625 
Q 23.390625 48.390625 19.1875 42.75 
Q 14.984375 37.109375 14.984375 27.296875 
Q 14.984375 17.484375 19.15625 11.84375 
Q 23.34375 6.203125 30.609375 6.203125 
Q 37.796875 6.203125 41.984375 11.859375 
Q 46.1875 17.53125 46.1875 27.296875 
Q 46.1875 37.015625 41.984375 42.703125 
Q 37.796875 48.390625 30.609375 48.390625 
z
M 30.609375 56 
Q 42.328125 56 49.015625 48.375 
Q 55.71875 40.765625 55.71875 27.296875 
Q 55.71875 13.875 49.015625 6.21875 
Q 42.328125 -1.421875 30.609375 -1.421875 
Q 18.84375 -1.421875 12.171875 6.21875 
Q 5.515625 13.875 5.515625 27.296875 
Q 5.515625 40.765625 12.171875 48.375 
Q 18.84375 56 30.609375 56 
z
" id="DejaVuSans-111"/>
      <path d="M 44.28125 53.078125 
L 44.28125 44.578125 
Q 40.484375 46.53125 36.375 47.5 
Q 32.28125 48.484375 27.875 48.484375 
Q 21.1875 48.484375 17.84375 46.4375 
Q 14.5 44.390625 14.5 40.28125 
Q 14.5 37.15625 16.890625 35.375 
Q 19.28125 33.59375 26.515625 31.984375 
L 29.59375 31.296875 
Q 39.15625 29.25 43.1875 25.515625 
Q 47.21875 21.78125 47.21875 15.09375 
Q 47.21875 7.46875 41.1875 3.015625 
Q 35.15625 -1.421875 24.609375 -1.421875 
Q 20.21875 -1.421875 15.453125 -0.5625 
Q 10.6875 0.296875 5.421875 2 
L 5.421875 11.28125 
Q 10.40625 8.6875 15.234375 7.390625 
Q 20.0625 6.109375 24.8125 6.109375 
Q 31.15625 6.109375 34.5625 8.28125 
Q 37.984375 10.453125 37.984375 14.40625 
Q 37.984375 18.0625 35.515625 20.015625 
Q 33.0625 21.96875 24.703125 23.78125 
L 21.578125 24.515625 
Q 13.234375 26.265625 9.515625 29.90625 
Q 5.8125 33.546875 5.8125 39.890625 
Q 5.8125 47.609375 11.28125 51.796875 
Q 16.75 56 26.8125 56 
Q 31.78125 56 36.171875 55.265625 
Q 40.578125 54.546875 44.28125 53.078125 
z
" id="DejaVuSans-115"/>
     </defs>
     <g transform="translate(190.902344 280.276563)scale(0.1 -0.1)">
      <use xlink:href="#DejaVuSans-71"/>
      <use x="77.490234" xlink:href="#DejaVuSans-101"/>
      <use x="139.013672" xlink:href="#DejaVuSans-110"/>
      <use x="202.392578" xlink:href="#DejaVuSans-101"/>
      <use x="263.916016" xlink:href="#DejaVuSans-114"/>
      <use x="305.029297" xlink:href="#DejaVuSans-97"/>
      <use x="366.308594" xlink:href="#DejaVuSans-116"/>
      <use x="405.517578" xlink:href="#DejaVuSans-105"/>
      <use x="433.300781" xlink:href="#DejaVuSans-111"/>
      <use x="494.482422" xlink:href="#DejaVuSans-110"/>
      <use x="557.861328" xlink:href="#DejaVuSans-115"/>
     </g>
    </g>
   </g>
   <g id="matplotlib.axis_2">
    <g id="ytick_1">
     <g id="line2d_19">
      <path clip-path="url(#pa792d9ad28)" d="M 54 222.190334 
L 388.8 222.190334 
" style="fill:none;stroke:#b0b0b0;stroke-linecap:square;stroke-width:0.8;"/>
     </g>
     <g id="line2d_20">
      <defs>
       <path d="M 0 0 
L -3.5 0 
" id="m120c7e7ef8" style="stroke:#000000;stroke-width:0.8;"/>
      </defs>
      <g>
       <use style="stroke:#000000;stroke-width:0.8;" x="54" xlink:href="#m120c7e7ef8" y="222.190334"/>
      </g>
     </g>
     <g id="text_11">
      <!-- −1500 -->
      <defs>
       <path d="M 10.59375 35.5 
L 73.1875 35.5 
L 73.1875 27.203125 
L 10.59375 27.203125 
z
" id="DejaVuSans-8722"/>
      </defs>
      <g transform="translate(13.170313 225.989552)scale(0.1 -0.1)">
       <use xlink:href="#DejaVuSans-8722"/>
       <use x="83.789062" xlink:href="#DejaVuSans-49"/>
       <use x="147.412109" xlink:href="#DejaVuSans-53"/>
       <use x="211.035156" xlink:href="#DejaVuSans-48"/>
       <use x="274.658203" xlink:href="#DejaVuSans-48"/>
      </g>
     </g>
    </g>
    <g id="ytick_2">
     <g id="line2d_21">
      <path clip-path="url(#pa792d9ad28)" d="M 54 190.439709 
L 388.8 190.439709 
" style="fill:none;stroke:#b0b0b0;stroke-linecap:square;stroke-width:0.8;"/>
     </g>
     <g id="line2d_22">
      <g>
       <use style="stroke:#000000;stroke-width:0.8;" x="54" xlink:href="#m120c7e7ef8" y="190.439709"/>
      </g>
     </g>
     <g id="text_12">
      <!-- −1000 -->
      <g transform="translate(13.170313 194.238928)scale(0.1 -0.1)">
       <use xlink:href="#DejaVuSans-8722"/>
       <use x="83.789062" xlink:href="#DejaVuSans-49"/>
       <use x="147.412109" xlink:href="#DejaVuSans-48"/>
       <use x="211.035156" xlink:href="#DejaVuSans-48"/>
       <use x="274.658203" xlink:href="#DejaVuSans-48"/>
      </g>
     </g>
    </g>
    <g id="ytick_3">
     <g id="line2d_23">
      <path clip-path="url(#pa792d9ad28)" d="M 54 158.689084 
L 388.8 158.689084 
" style="fill:none;stroke:#b0b0b0;stroke-linecap:square;stroke-width:0.8;"/>
     </g>
     <g id="line2d_24">
      <g>
       <use style="stroke:#000000;stroke-width:0.8;" x="54" xlink:href="#m120c7e7ef8" y="158.689084"/>
      </g>
     </g>
     <g id="text_13">
      <!-- −500 -->
      <g transform="translate(19.532812 162.488303)scale(0.1 -0.1)">
       <use xlink:href="#DejaVuSans-8722"/>
       <use x="83.789062" xlink:href="#DejaVuSans-53"/>
       <use x="147.412109" xlink:href="#DejaVuSans-48"/>
       <use x="211.035156" xlink:href="#DejaVuSans-48"/>
      </g>
     </g>
    </g>
    <g id="ytick_4">
     <g id="line2d_25">
      <path clip-path="url(#pa792d9ad28)" d="M 54 126.93846 
L 388.8 126.93846 
" style="fill:none;stroke:#b0b0b0;stroke-linecap:square;stroke-width:0.8;"/>
     </g>
     <g id="line2d_26">
      <g>
       <use style="stroke:#000000;stroke-width:0.8;" x="54" xlink:href="#m120c7e7ef8" y="126.93846"/>
      </g>
     </g>
     <g id="text_14">
      <!-- 0 -->
      <g transform="translate(40.6375 130.737678)scale(0.1 -0.1)">
       <use xlink:href="#DejaVuSans-48"/>
      </g>
     </g>
    </g>
    <g id="ytick_5">
     <g id="line2d_27">
      <path clip-path="url(#pa792d9ad28)" d="M 54 95.187835 
L 388.8 95.187835 
" style="fill:none;stroke:#b0b0b0;stroke-linecap:square;stroke-width:0.8;"/>
     </g>
     <g id="line2d_28">
      <g>
       <use style="stroke:#000000;stroke-width:0.8;" x="54" xlink:href="#m120c7e7ef8" y="95.187835"/>
      </g>
     </g>
     <g id="text_15">
      <!-- 500 -->
      <g transform="translate(27.9125 98.987054)scale(0.1 -0.1)">
       <use xlink:href="#DejaVuSans-53"/>
       <use x="63.623047" xlink:href="#DejaVuSans-48"/>
       <use x="127.246094" xlink:href="#DejaVuSans-48"/>
      </g>
     </g>
    </g>
    <g id="ytick_6">
     <g id="line2d_29">
      <path clip-path="url(#pa792d9ad28)" d="M 54 63.43721 
L 388.8 63.43721 
" style="fill:none;stroke:#b0b0b0;stroke-linecap:square;stroke-width:0.8;"/>
     </g>
     <g id="line2d_30">
      <g>
       <use style="stroke:#000000;stroke-width:0.8;" x="54" xlink:href="#m120c7e7ef8" y="63.43721"/>
      </g>
     </g>
     <g id="text_16">
      <!-- 1000 -->
      <g transform="translate(21.55 67.236429)scale(0.1 -0.1)">
       <use xlink:href="#DejaVuSans-49"/>
       <use x="63.623047" xlink:href="#DejaVuSans-48"/>
       <use x="127.246094" xlink:href="#DejaVuSans-48"/>
       <use x="190.869141" xlink:href="#DejaVuSans-48"/>
      </g>
     </g>
    </g>
    <g id="text_17">
     <!-- Fitness -->
     <defs>
      <path d="M 9.8125 72.90625 
L 51.703125 72.90625 
L 51.703125 64.59375 
L 19.671875 64.59375 
L 19.671875 43.109375 
L 48.578125 43.109375 
L 48.578125 34.8125 
L 19.671875 34.8125 
L 19.671875 0 
L 9.8125 0 
z
" id="DejaVuSans-70"/>
     </defs>
     <g transform="translate(7.090625 160.954219)rotate(-90)scale(0.1 -0.1)">
      <use xlink:href="#DejaVuSans-70"/>
      <use x="57.410156" xlink:href="#DejaVuSans-105"/>
      <use x="85.193359" xlink:href="#DejaVuSans-116"/>
      <use x="124.402344" xlink:href="#DejaVuSans-110"/>
      <use x="187.78125" xlink:href="#DejaVuSans-101"/>
      <use x="249.304688" xlink:href="#DejaVuSans-115"/>
      <use x="301.404297" xlink:href="#DejaVuSans-115"/>
     </g>
    </g>
   </g>
   <g id="line2d_31">
    <path clip-path="url(#pa792d9ad28)" d="M 69.218182 166.710232 
L 70.747647 163.22945 
L 72.277113 154.370178 
L 73.806578 156.8774 
L 75.336044 154.870684 
L 76.865509 157.526958 
L 78.394975 157.478697 
L 79.92444 152.6105 
L 81.453906 154.571384 
L 82.983371 149.676858 
L 84.512837 151.660652 
L 86.042302 150.937613 
L 87.571768 159.561946 
L 89.101233 150.704047 
L 90.630699 148.950261 
L 92.160164 148.025317 
L 93.68963 149.735498 
L 95.219095 149.876996 
L 96.748561 152.277727 
L 98.278026 147.91896 
L 99.807492 149.333498 
L 101.336958 148.821215 
L 102.866423 147.784595 
L 104.395889 158.008048 
L 105.925354 147.705723 
L 107.45482 146.929468 
L 108.984285 146.804545 
L 110.513751 145.43733 
L 112.043216 145.266962 
L 113.572682 144.780316 
L 116.631613 145.220448 
L 118.161078 144.449859 
L 119.690544 146.295937 
L 121.220009 145.055533 
L 122.749475 144.812731 
L 124.27894 144.413357 
L 125.808406 145.698648 
L 127.337871 145.433575 
L 128.867337 144.392036 
L 130.396802 145.054899 
L 131.926268 144.328629 
L 133.455733 141.596423 
L 134.985199 143.147351 
L 136.514664 140.706874 
L 138.04413 140.369005 
L 141.103061 138.59548 
L 142.632526 140.894024 
L 144.161992 139.333548 
L 145.691457 138.108598 
L 147.220923 137.234181 
L 148.750388 138.132971 
L 150.279854 139.210581 
L 151.809319 138.150539 
L 153.338785 138.690679 
L 154.86825 138.690918 
L 156.397716 138.462412 
L 157.927181 137.764126 
L 160.986112 138.167809 
L 162.515578 137.74898 
L 164.045043 136.281122 
L 165.574509 136.499738 
L 167.103974 137.248566 
L 168.63344 137.366143 
L 170.162905 141.634133 
L 171.692371 137.45777 
L 173.221836 137.644433 
L 174.751302 135.585372 
L 176.280767 136.966368 
L 177.810233 140.157271 
L 179.339698 137.65743 
L 180.869164 137.417214 
L 182.39863 137.31159 
L 183.928095 135.449684 
L 185.457561 137.559375 
L 186.987026 135.387629 
L 188.516492 138.723908 
L 190.045957 136.386654 
L 191.575423 135.552402 
L 193.104888 135.596027 
L 194.634354 135.429701 
L 196.163819 136.277106 
L 197.693285 135.117235 
L 199.22275 134.967285 
L 200.752216 134.11536 
L 202.281681 133.577211 
L 203.811147 136.170111 
L 205.340612 132.770906 
L 206.870078 134.225462 
L 208.399543 132.831351 
L 209.929009 132.393789 
L 211.458474 135.138201 
L 212.98794 131.794051 
L 214.517405 132.487331 
L 216.046871 134.657069 
L 217.576336 131.842747 
L 219.105802 133.119648 
L 220.635267 131.952709 
L 222.164733 132.159834 
L 223.694198 132.195766 
L 225.223664 131.563831 
L 226.753129 133.529873 
L 228.282595 132.708124 
L 229.81206 132.470789 
L 231.341526 131.10828 
L 232.870991 132.523689 
L 234.400457 132.782538 
L 235.929922 135.466318 
L 237.459388 132.014129 
L 238.988853 131.638262 
L 240.518319 142.374487 
L 242.047784 132.912503 
L 243.57725 132.195076 
L 245.106715 134.787746 
L 246.636181 132.198397 
L 248.165646 135.097526 
L 249.695112 132.189211 
L 251.224577 134.039693 
L 252.754043 131.919944 
L 254.283508 132.620443 
L 255.812974 132.060281 
L 257.342439 132.239887 
L 258.871905 134.753855 
L 260.40137 133.148222 
L 261.930836 134.075481 
L 264.989767 133.935056 
L 266.519233 133.20819 
L 268.048698 135.724707 
L 269.578164 135.932322 
L 272.637095 132.58236 
L 274.16656 134.462526 
L 275.696026 133.466302 
L 277.225491 135.480455 
L 278.754957 133.807848 
L 280.284422 135.310671 
L 281.813888 134.344817 
L 283.343353 135.484398 
L 284.872819 135.803297 
L 286.402284 136.489212 
L 287.93175 136.083282 
L 289.461215 136.285889 
L 290.990681 136.256628 
L 292.520146 134.016797 
L 294.049612 133.935023 
L 295.579077 134.508521 
L 297.108543 136.030574 
L 298.638008 132.521508 
L 300.167474 133.102592 
L 301.696939 132.600463 
L 303.226405 141.685653 
L 304.75587 133.344033 
L 306.285336 133.286369 
L 307.814801 133.510624 
L 309.344267 131.770226 
L 310.873732 132.547704 
L 312.403198 131.12802 
L 313.932663 131.742528 
L 315.462129 131.582794 
L 316.991594 132.187492 
L 318.52106 133.725701 
L 320.050525 130.918465 
L 321.579991 131.829178 
L 323.109456 132.083634 
L 324.638922 133.312436 
L 326.168387 146.749091 
L 327.697853 133.072428 
L 329.227318 131.653078 
L 330.756784 132.366229 
L 333.815715 132.223568 
L 335.34518 132.535158 
L 336.874646 130.696435 
L 338.404111 130.139135 
L 339.933577 130.44371 
L 341.463042 129.42016 
L 342.992508 129.783786 
L 344.521974 130.741932 
L 346.051439 131.274315 
L 347.580905 130.800181 
L 349.11037 132.74263 
L 350.639836 130.644474 
L 352.169301 131.30127 
L 353.698767 130.558779 
L 355.228232 129.408684 
L 356.757698 129.933089 
L 358.287163 129.827746 
L 359.816629 130.32799 
L 361.346094 128.996617 
L 362.87556 128.645375 
L 364.405025 129.518516 
L 365.934491 128.982115 
L 370.522887 128.678799 
L 372.052353 129.757927 
L 373.581818 132.293627 
L 373.581818 132.293627 
" style="fill:none;stroke:#0000ff;stroke-linecap:square;stroke-width:1.5;"/>
   </g>
   <g id="line2d_32">
    <path clip-path="url(#pa792d9ad28)" d="M 69.218182 200.682 
L 70.747647 201.81621 
L 72.277113 165.857241 
L 73.806578 176.708948 
L 75.336044 170.01342 
L 76.865509 178.992213 
L 78.394975 186.036554 
L 79.92444 164.426494 
L 81.453906 173.375091 
L 82.983371 158.22341 
L 84.512837 169.379212 
L 86.042302 162.250813 
L 87.571768 211.084013 
L 89.101233 171.375559 
L 92.160164 156.71501 
L 93.68963 178.825911 
L 95.219095 172.918356 
L 96.748561 175.315385 
L 98.278026 155.770755 
L 99.807492 163.795063 
L 101.336958 160.834552 
L 102.866423 155.721532 
L 104.395889 226.154194 
L 105.925354 158.321076 
L 107.45482 157.019205 
L 108.984285 155.500572 
L 110.513751 152.741797 
L 112.043216 151.703614 
L 113.572682 150.391634 
L 115.102147 154.532508 
L 116.631613 153.688478 
L 118.161078 149.908371 
L 119.690544 159.322992 
L 121.220009 153.139048 
L 122.749475 152.937843 
L 124.27894 155.695323 
L 125.808406 163.46333 
L 127.337871 159.941422 
L 128.867337 153.92961 
L 130.396802 161.630669 
L 131.926268 158.455781 
L 133.455733 149.547708 
L 134.985199 175.405015 
L 136.514664 150.132866 
L 138.04413 149.909262 
L 139.573595 147.928802 
L 141.103061 148.413752 
L 142.632526 161.94179 
L 144.161992 148.327564 
L 145.691457 146.69191 
L 147.220923 145.982258 
L 148.750388 148.851776 
L 150.279854 150.295753 
L 151.809319 148.111548 
L 153.338785 150.826945 
L 154.86825 156.666493 
L 156.397716 149.919652 
L 157.927181 147.713579 
L 159.456647 148.961471 
L 160.986112 149.497838 
L 162.515578 147.019732 
L 164.045043 145.236146 
L 165.574509 145.130355 
L 167.103974 148.307639 
L 168.63344 148.23048 
L 170.162905 185.43892 
L 171.692371 147.495463 
L 173.221836 150.927301 
L 174.751302 144.954604 
L 176.280767 147.790847 
L 177.810233 167.582548 
L 179.339698 156.931408 
L 180.869164 152.80019 
L 182.39863 150.659785 
L 183.928095 145.250841 
L 185.457561 160.768125 
L 186.987026 146.30423 
L 188.516492 166.085502 
L 190.045957 147.299982 
L 191.575423 147.880255 
L 193.104888 146.009634 
L 194.634354 147.439757 
L 196.163819 151.16293 
L 197.693285 148.095768 
L 199.22275 146.179876 
L 200.752216 143.233496 
L 202.281681 144.123989 
L 203.811147 162.010186 
L 205.340612 141.898068 
L 206.870078 148.380893 
L 208.399543 142.056482 
L 209.929009 141.353656 
L 211.458474 154.403256 
L 212.98794 139.421405 
L 214.517405 141.306079 
L 216.046871 158.946566 
L 217.576336 140.921422 
L 219.105802 150.107488 
L 220.635267 140.1505 
L 222.164733 140.567772 
L 223.694198 140.49963 
L 225.223664 140.132513 
L 226.753129 149.676376 
L 228.282595 143.315116 
L 231.341526 139.093054 
L 232.870991 142.912946 
L 234.400457 141.871128 
L 235.929922 162.456528 
L 237.459388 140.94653 
L 238.988853 140.294587 
L 240.518319 240.305338 
L 242.047784 143.195582 
L 243.57725 141.264657 
L 245.106715 154.149185 
L 246.636181 142.627847 
L 248.165646 161.905984 
L 249.695112 140.915297 
L 251.224577 149.661735 
L 252.754043 140.091317 
L 254.283508 141.423058 
L 255.812974 141.470396 
L 257.342439 142.21414 
L 258.871905 160.610744 
L 260.40137 143.603287 
L 261.930836 144.434481 
L 263.460302 146.486471 
L 264.989767 143.91475 
L 266.519233 144.000843 
L 268.048698 150.287435 
L 269.578164 154.754995 
L 271.107629 144.18279 
L 272.637095 141.051962 
L 274.16656 145.749496 
L 275.696026 144.445403 
L 277.225491 149.618477 
L 278.754957 145.67932 
L 280.284422 147.398144 
L 281.813888 144.104302 
L 283.343353 149.654594 
L 286.402284 147.826896 
L 287.93175 146.64126 
L 289.461215 149.503878 
L 290.990681 150.560365 
L 292.520146 143.550595 
L 294.049612 145.156456 
L 295.579077 148.445666 
L 297.108543 156.087697 
L 298.638008 142.865988 
L 300.167474 146.978625 
L 301.696939 142.961744 
L 303.226405 208.223189 
L 304.75587 147.127968 
L 306.285336 146.45887 
L 307.814801 147.175955 
L 309.344267 139.673554 
L 310.873732 140.913423 
L 312.403198 138.235387 
L 313.932663 140.354223 
L 315.462129 139.101715 
L 316.991594 141.121717 
L 318.52106 149.981752 
L 320.050525 137.854712 
L 321.579991 140.0973 
L 323.109456 139.782428 
L 324.638922 149.416345 
L 326.168387 242.116364 
L 327.697853 145.451656 
L 329.227318 139.77099 
L 330.756784 141.480536 
L 332.286249 141.841702 
L 333.815715 141.201399 
L 335.34518 145.122616 
L 336.874646 138.113311 
L 338.404111 136.911409 
L 339.933577 138.273845 
L 341.463042 135.335217 
L 344.521974 138.292769 
L 346.051439 143.492261 
L 347.580905 140.109493 
L 349.11037 148.609053 
L 350.639836 139.614925 
L 352.169301 140.830145 
L 353.698767 138.476526 
L 355.228232 136.447845 
L 356.757698 137.146933 
L 358.287163 136.50231 
L 359.816629 139.810991 
L 361.346094 134.915349 
L 362.87556 135.406365 
L 364.405025 137.398206 
L 365.934491 135.135979 
L 367.463956 134.468197 
L 368.993422 134.316011 
L 370.522887 133.768995 
L 372.052353 137.59849 
L 373.581818 169.219906 
L 373.581818 169.219906 
" style="fill:none;stroke:#008000;stroke-dasharray:9.6,2.4,1.5,2.4;stroke-dashoffset:0;stroke-width:1.5;"/>
   </g>
   <g id="line2d_33">
    <path clip-path="url(#pa792d9ad28)" d="M 69.218182 132.738465 
L 70.747647 124.64269 
L 72.277113 142.883115 
L 73.806578 137.045851 
L 75.336044 139.727947 
L 76.865509 136.061702 
L 78.394975 128.920839 
L 79.92444 140.794507 
L 81.453906 135.767676 
L 82.983371 141.130305 
L 84.512837 133.942092 
L 86.042302 139.624412 
L 87.571768 108.039879 
L 89.101233 130.032534 
L 90.630699 134.014221 
L 92.160164 139.335625 
L 93.68963 120.645085 
L 95.219095 126.835637 
L 96.748561 129.240069 
L 98.278026 140.067166 
L 99.807492 134.871934 
L 101.336958 136.807879 
L 102.866423 139.847658 
L 104.395889 89.861901 
L 105.925354 137.09037 
L 107.45482 136.839731 
L 108.984285 138.108518 
L 110.513751 138.132863 
L 112.043216 138.830309 
L 113.572682 139.168998 
L 115.102147 135.505955 
L 116.631613 136.752419 
L 118.161078 138.991347 
L 119.690544 133.268882 
L 121.220009 136.972018 
L 122.749475 136.687618 
L 124.27894 133.131392 
L 125.808406 127.933966 
L 127.337871 130.925729 
L 128.867337 134.854461 
L 130.396802 128.479128 
L 131.926268 130.201477 
L 133.455733 133.645138 
L 134.985199 110.889687 
L 136.514664 131.280881 
L 138.04413 130.828748 
L 139.573595 131.054345 
L 141.103061 128.777208 
L 142.632526 119.846258 
L 144.161992 130.339533 
L 145.691457 129.525285 
L 148.750388 127.414167 
L 150.279854 128.125409 
L 151.809319 128.18953 
L 153.338785 126.554412 
L 154.86825 120.715343 
L 156.397716 127.005171 
L 157.927181 127.814673 
L 159.456647 126.92633 
L 160.986112 126.837781 
L 162.515578 128.478227 
L 164.045043 127.326098 
L 165.574509 127.869121 
L 167.103974 126.189494 
L 168.63344 126.501807 
L 170.162905 97.829346 
L 171.692371 127.420077 
L 173.221836 124.361565 
L 174.751302 126.216139 
L 176.280767 126.141889 
L 177.810233 112.731994 
L 179.339698 118.383452 
L 180.869164 122.034237 
L 182.39863 123.963395 
L 183.928095 125.648528 
L 185.457561 114.350625 
L 186.987026 124.471028 
L 188.516492 111.362313 
L 190.045957 125.473326 
L 191.575423 123.224549 
L 193.104888 125.18242 
L 194.634354 123.419644 
L 196.163819 121.391282 
L 197.693285 122.138701 
L 199.22275 123.754694 
L 200.752216 124.997224 
L 202.281681 123.030434 
L 203.811147 110.330037 
L 205.340612 123.643744 
L 206.870078 120.070031 
L 208.399543 123.606219 
L 209.929009 123.433922 
L 211.458474 115.873146 
L 212.98794 124.166697 
L 214.517405 123.668582 
L 216.046871 110.367573 
L 217.576336 122.764073 
L 219.105802 116.131808 
L 220.635267 123.754919 
L 222.164733 123.751896 
L 223.694198 123.891903 
L 225.223664 122.995149 
L 226.753129 117.383371 
L 228.282595 122.101131 
L 229.81206 123.812244 
L 231.341526 123.123506 
L 232.870991 122.134432 
L 234.400457 123.693947 
L 235.929922 108.476108 
L 237.459388 123.081729 
L 238.988853 122.981937 
L 240.518319 44.443636 
L 242.047784 122.629424 
L 243.57725 123.125495 
L 245.106715 115.426308 
L 246.636181 121.768947 
L 248.165646 108.289067 
L 249.695112 123.463125 
L 251.224577 118.41765 
L 252.754043 123.74857 
L 254.283508 123.817828 
L 255.812974 122.650165 
L 257.342439 122.265635 
L 258.871905 108.896967 
L 260.40137 122.693156 
L 261.930836 123.716482 
L 263.460302 121.456145 
L 264.989767 123.955361 
L 266.519233 122.415537 
L 268.048698 121.161978 
L 269.578164 117.10965 
L 271.107629 124.424215 
L 272.637095 124.112758 
L 274.16656 123.175556 
L 275.696026 122.487202 
L 277.225491 121.342433 
L 278.754957 121.936375 
L 281.813888 124.585332 
L 283.343353 121.314202 
L 284.872819 122.901359 
L 286.402284 125.151529 
L 287.93175 125.525304 
L 289.461215 123.0679 
L 290.990681 121.95289 
L 292.520146 124.482999 
L 294.049612 122.71359 
L 295.579077 120.571376 
L 297.108543 115.973452 
L 298.638008 122.177027 
L 300.167474 119.226559 
L 301.696939 122.239182 
L 303.226405 75.148118 
L 304.75587 119.560098 
L 306.285336 120.113867 
L 307.814801 119.845294 
L 309.344267 123.866898 
L 310.873732 124.181985 
L 312.403198 124.020654 
L 313.932663 123.130832 
L 315.462129 124.063874 
L 316.991594 123.253266 
L 318.52106 117.46965 
L 320.050525 123.982217 
L 321.579991 123.561055 
L 323.109456 124.38484 
L 324.638922 117.208527 
L 326.168387 51.381818 
L 327.697853 120.693199 
L 329.227318 123.535166 
L 330.756784 123.251923 
L 332.286249 122.665697 
L 333.815715 123.245738 
L 335.34518 119.947699 
L 336.874646 123.27956 
L 338.404111 123.366861 
L 339.933577 122.613575 
L 341.463042 123.505103 
L 342.992508 122.802512 
L 344.521974 123.191095 
L 346.051439 119.056369 
L 347.580905 121.490868 
L 349.11037 116.876208 
L 350.639836 121.674022 
L 352.169301 121.772394 
L 353.698767 122.641032 
L 355.228232 122.369522 
L 358.287163 123.153181 
L 359.816629 120.844989 
L 361.346094 123.077885 
L 362.87556 121.884385 
L 364.405025 121.638826 
L 365.934491 122.828252 
L 367.463956 123.347897 
L 368.993422 123.209093 
L 370.522887 123.588602 
L 372.052353 121.917364 
L 373.581818 95.367348 
L 373.581818 95.367348 
" style="fill:none;stroke:#008000;stroke-dasharray:9.6,2.4,1.5,2.4;stroke-dashoffset:0;stroke-width:1.5;"/>
   </g>
   <g id="line2d_34">
    <path clip-path="url(#pa792d9ad28)" d="M 69.218182 146.019946 
L 75.336044 146.000163 
L 76.865509 145.103727 
L 78.394975 140.094417 
L 79.92444 144.103451 
L 81.453906 144.111332 
L 82.983371 144.774006 
L 84.512837 145.100384 
L 86.042302 144.538731 
L 87.571768 128.349457 
L 89.101233 128.16455 
L 90.630699 128.307787 
L 96.748561 128.252864 
L 98.278026 128.436993 
L 99.807492 125.674713 
L 102.866423 125.884162 
L 105.925354 125.42051 
L 107.45482 126.415319 
L 108.984285 125.540217 
L 110.513751 125.987231 
L 112.043216 126.240539 
L 113.572682 125.878812 
L 115.102147 125.380981 
L 116.631613 125.832353 
L 118.161078 125.941066 
L 119.690544 126.546621 
L 121.220009 125.617203 
L 122.749475 125.876811 
L 124.27894 126.348411 
L 125.808406 126.132326 
L 127.337871 126.614261 
L 128.867337 126.004968 
L 130.396802 126.029077 
L 131.926268 125.602612 
L 133.455733 125.428178 
L 134.985199 126.125061 
L 136.514664 125.549442 
L 138.04413 125.389483 
L 139.573595 125.731982 
L 141.103061 122.114207 
L 142.632526 123.862596 
L 144.161992 119.609973 
L 145.691457 124.277732 
L 147.220923 124.075586 
L 148.750388 121.603037 
L 151.809319 124.055502 
L 153.338785 120.484979 
L 154.86825 120.76126 
L 156.397716 122.179808 
L 157.927181 121.109963 
L 159.456647 122.458309 
L 160.986112 121.71028 
L 162.515578 125.1868 
L 164.045043 120.503068 
L 165.574509 123.53295 
L 167.103974 122.222445 
L 168.63344 118.756564 
L 170.162905 109.01959 
L 171.692371 119.48981 
L 173.221836 119.906412 
L 174.751302 115.248987 
L 176.280767 122.277793 
L 177.810233 119.487941 
L 179.339698 110.308629 
L 180.869164 115.636749 
L 182.39863 109.153346 
L 183.928095 121.61354 
L 185.457561 107.657388 
L 186.987026 108.415444 
L 188.516492 117.128993 
L 190.045957 120.531892 
L 191.575423 108.271414 
L 193.104888 115.982496 
L 194.634354 121.716385 
L 196.163819 119.597891 
L 197.693285 120.324317 
L 199.22275 105.691469 
L 200.752216 122.081067 
L 202.281681 100.759359 
L 203.811147 115.826286 
L 205.340612 115.705564 
L 208.399543 122.243936 
L 209.929009 120.368222 
L 211.458474 107.14426 
L 212.98794 115.169865 
L 214.517405 118.13721 
L 216.046871 115.635732 
L 217.576336 114.253849 
L 219.105802 120.450112 
L 220.635267 121.02581 
L 222.164733 122.792238 
L 223.694198 118.694772 
L 225.223664 117.499135 
L 226.753129 117.582389 
L 228.282595 108.111212 
L 229.81206 112.944833 
L 231.341526 119.004237 
L 232.870991 103.059875 
L 234.400457 107.153269 
L 235.929922 121.17253 
L 237.459388 104.191114 
L 238.988853 105.557472 
L 240.518319 119.047597 
L 242.047784 122.590617 
L 243.57725 103.232582 
L 245.106715 122.342724 
L 246.636181 122.332073 
L 248.165646 105.384658 
L 249.695112 108.642117 
L 251.224577 106.119431 
L 252.754043 108.200664 
L 254.283508 122.341053 
L 255.812974 105.721205 
L 257.342439 109.7234 
L 258.871905 111.836014 
L 260.40137 114.873177 
L 261.930836 122.506131 
L 263.460302 119.552926 
L 264.989767 121.434344 
L 266.519233 107.417064 
L 268.048698 112.597476 
L 269.578164 108.675073 
L 271.107629 119.603382 
L 272.637095 113.544977 
L 274.16656 106.419346 
L 275.696026 104.188137 
L 277.225491 119.767235 
L 278.754957 119.63422 
L 280.284422 119.806577 
L 281.813888 121.017837 
L 283.343353 119.477343 
L 284.872819 120.739675 
L 286.402284 121.182215 
L 287.93175 119.012913 
L 289.461215 120.524034 
L 290.990681 120.566624 
L 292.520146 121.103189 
L 294.049612 119.398113 
L 295.579077 119.882987 
L 297.108543 120.849436 
L 298.638008 120.248517 
L 300.167474 120.823194 
L 301.696939 119.836991 
L 303.226405 120.470592 
L 304.75587 119.290053 
L 307.814801 120.940554 
L 309.344267 120.287852 
L 310.873732 120.364673 
L 312.403198 121.039396 
L 313.932663 121.048701 
L 315.462129 120.770826 
L 316.991594 120.847004 
L 318.52106 119.726781 
L 320.050525 117.677887 
L 321.579991 119.299836 
L 323.109456 120.289549 
L 324.638922 112.398345 
L 326.168387 108.551351 
L 327.697853 119.375632 
L 329.227318 111.207824 
L 330.756784 115.558689 
L 332.286249 110.175909 
L 333.815715 119.55836 
L 335.34518 111.853098 
L 336.874646 120.543006 
L 338.404111 119.565643 
L 339.933577 112.409734 
L 341.463042 110.31884 
L 342.992508 117.836539 
L 344.521974 111.478864 
L 346.051439 119.889127 
L 347.580905 114.850747 
L 349.11037 117.105226 
L 350.639836 109.63911 
L 352.169301 110.006794 
L 353.698767 118.746979 
L 355.228232 120.262103 
L 356.757698 109.582013 
L 358.287163 119.652161 
L 359.816629 113.175875 
L 361.346094 118.952441 
L 362.87556 106.81496 
L 364.405025 112.364624 
L 365.934491 119.506254 
L 367.463956 112.45658 
L 368.993422 120.15541 
L 370.522887 112.373444 
L 372.052353 112.596235 
L 373.581818 116.431688 
L 373.581818 116.431688 
" style="fill:none;stroke:#ff0000;stroke-linecap:square;stroke-width:1.5;"/>
   </g>
   <g id="patch_3">
    <path d="M 54 252 
L 54 34.56 
" style="fill:none;stroke:#000000;stroke-linecap:square;stroke-linejoin:miter;stroke-width:0.8;"/>
   </g>
   <g id="patch_4">
    <path d="M 388.8 252 
L 388.8 34.56 
" style="fill:none;stroke:#000000;stroke-linecap:square;stroke-linejoin:miter;stroke-width:0.8;"/>
   </g>
   <g id="patch_5">
    <path d="M 54 252 
L 388.8 252 
" style="fill:none;stroke:#000000;stroke-linecap:square;stroke-linejoin:miter;stroke-width:0.8;"/>
   </g>
   <g id="patch_6">
    <path d="M 54 34.56 
L 388.8 34.56 
" style="fill:none;stroke:#000000;stroke-linecap:square;stroke-linejoin:miter;stroke-width:0.8;"/>
   </g>
   <g id="text_18">
    <!-- Population's average and best fitness -->
    <defs>
     <path d="M 19.671875 64.796875 
L 19.671875 37.40625 
L 32.078125 37.40625 
Q 38.96875 37.40625 42.71875 40.96875 
Q 46.484375 44.53125 46.484375 51.125 
Q 46.484375 57.671875 42.71875 61.234375 
Q 38.96875 64.796875 32.078125 64.796875 
z
M 9.8125 72.90625 
L 32.078125 72.90625 
Q 44.34375 72.90625 50.609375 67.359375 
Q 56.890625 61.8125 56.890625 51.125 
Q 56.890625 40.328125 50.609375 34.8125 
Q 44.34375 29.296875 32.078125 29.296875 
L 19.671875 29.296875 
L 19.671875 0 
L 9.8125 0 
z
" id="DejaVuSans-80"/>
     <path d="M 18.109375 8.203125 
L 18.109375 -20.796875 
L 9.078125 -20.796875 
L 9.078125 54.6875 
L 18.109375 54.6875 
L 18.109375 46.390625 
Q 20.953125 51.265625 25.265625 53.625 
Q 29.59375 56 35.59375 56 
Q 45.5625 56 51.78125 48.09375 
Q 58.015625 40.1875 58.015625 27.296875 
Q 58.015625 14.40625 51.78125 6.484375 
Q 45.5625 -1.421875 35.59375 -1.421875 
Q 29.59375 -1.421875 25.265625 0.953125 
Q 20.953125 3.328125 18.109375 8.203125 
z
M 48.6875 27.296875 
Q 48.6875 37.203125 44.609375 42.84375 
Q 40.53125 48.484375 33.40625 48.484375 
Q 26.265625 48.484375 22.1875 42.84375 
Q 18.109375 37.203125 18.109375 27.296875 
Q 18.109375 17.390625 22.1875 11.75 
Q 26.265625 6.109375 33.40625 6.109375 
Q 40.53125 6.109375 44.609375 11.75 
Q 48.6875 17.390625 48.6875 27.296875 
z
" id="DejaVuSans-112"/>
     <path d="M 8.5 21.578125 
L 8.5 54.6875 
L 17.484375 54.6875 
L 17.484375 21.921875 
Q 17.484375 14.15625 20.5 10.265625 
Q 23.53125 6.390625 29.59375 6.390625 
Q 36.859375 6.390625 41.078125 11.03125 
Q 45.3125 15.671875 45.3125 23.6875 
L 45.3125 54.6875 
L 54.296875 54.6875 
L 54.296875 0 
L 45.3125 0 
L 45.3125 8.40625 
Q 42.046875 3.421875 37.71875 1 
Q 33.40625 -1.421875 27.6875 -1.421875 
Q 18.265625 -1.421875 13.375 4.4375 
Q 8.5 10.296875 8.5 21.578125 
z
M 31.109375 56 
z
" id="DejaVuSans-117"/>
     <path d="M 9.421875 75.984375 
L 18.40625 75.984375 
L 18.40625 0 
L 9.421875 0 
z
" id="DejaVuSans-108"/>
     <path d="M 17.921875 72.90625 
L 17.921875 45.796875 
L 9.625 45.796875 
L 9.625 72.90625 
z
" id="DejaVuSans-39"/>
     <path id="DejaVuSans-32"/>
     <path d="M 2.984375 54.6875 
L 12.5 54.6875 
L 29.59375 8.796875 
L 46.6875 54.6875 
L 56.203125 54.6875 
L 35.6875 0 
L 23.484375 0 
z
" id="DejaVuSans-118"/>
     <path d="M 45.40625 27.984375 
Q 45.40625 37.75 41.375 43.109375 
Q 37.359375 48.484375 30.078125 48.484375 
Q 22.859375 48.484375 18.828125 43.109375 
Q 14.796875 37.75 14.796875 27.984375 
Q 14.796875 18.265625 18.828125 12.890625 
Q 22.859375 7.515625 30.078125 7.515625 
Q 37.359375 7.515625 41.375 12.890625 
Q 45.40625 18.265625 45.40625 27.984375 
z
M 54.390625 6.78125 
Q 54.390625 -7.171875 48.1875 -13.984375 
Q 42 -20.796875 29.203125 -20.796875 
Q 24.46875 -20.796875 20.265625 -20.09375 
Q 16.0625 -19.390625 12.109375 -17.921875 
L 12.109375 -9.1875 
Q 16.0625 -11.328125 19.921875 -12.34375 
Q 23.78125 -13.375 27.78125 -13.375 
Q 36.625 -13.375 41.015625 -8.765625 
Q 45.40625 -4.15625 45.40625 5.171875 
L 45.40625 9.625 
Q 42.625 4.78125 38.28125 2.390625 
Q 33.9375 0 27.875 0 
Q 17.828125 0 11.671875 7.65625 
Q 5.515625 15.328125 5.515625 27.984375 
Q 5.515625 40.671875 11.671875 48.328125 
Q 17.828125 56 27.875 56 
Q 33.9375 56 38.28125 53.609375 
Q 42.625 51.21875 45.40625 46.390625 
L 45.40625 54.6875 
L 54.390625 54.6875 
z
" id="DejaVuSans-103"/>
     <path d="M 45.40625 46.390625 
L 45.40625 75.984375 
L 54.390625 75.984375 
L 54.390625 0 
L 45.40625 0 
L 45.40625 8.203125 
Q 42.578125 3.328125 38.25 0.953125 
Q 33.9375 -1.421875 27.875 -1.421875 
Q 17.96875 -1.421875 11.734375 6.484375 
Q 5.515625 14.40625 5.515625 27.296875 
Q 5.515625 40.1875 11.734375 48.09375 
Q 17.96875 56 27.875 56 
Q 33.9375 56 38.25 53.625 
Q 42.578125 51.265625 45.40625 46.390625 
z
M 14.796875 27.296875 
Q 14.796875 17.390625 18.875 11.75 
Q 22.953125 6.109375 30.078125 6.109375 
Q 37.203125 6.109375 41.296875 11.75 
Q 45.40625 17.390625 45.40625 27.296875 
Q 45.40625 37.203125 41.296875 42.84375 
Q 37.203125 48.484375 30.078125 48.484375 
Q 22.953125 48.484375 18.875 42.84375 
Q 14.796875 37.203125 14.796875 27.296875 
z
" id="DejaVuSans-100"/>
     <path d="M 48.6875 27.296875 
Q 48.6875 37.203125 44.609375 42.84375 
Q 40.53125 48.484375 33.40625 48.484375 
Q 26.265625 48.484375 22.1875 42.84375 
Q 18.109375 37.203125 18.109375 27.296875 
Q 18.109375 17.390625 22.1875 11.75 
Q 26.265625 6.109375 33.40625 6.109375 
Q 40.53125 6.109375 44.609375 11.75 
Q 48.6875 17.390625 48.6875 27.296875 
z
M 18.109375 46.390625 
Q 20.953125 51.265625 25.265625 53.625 
Q 29.59375 56 35.59375 56 
Q 45.5625 56 51.78125 48.09375 
Q 58.015625 40.1875 58.015625 27.296875 
Q 58.015625 14.40625 51.78125 6.484375 
Q 45.5625 -1.421875 35.59375 -1.421875 
Q 29.59375 -1.421875 25.265625 0.953125 
Q 20.953125 3.328125 18.109375 8.203125 
L 18.109375 0 
L 9.078125 0 
L 9.078125 75.984375 
L 18.109375 75.984375 
z
" id="DejaVuSans-98"/>
     <path d="M 37.109375 75.984375 
L 37.109375 68.5 
L 28.515625 68.5 
Q 23.6875 68.5 21.796875 66.546875 
Q 19.921875 64.59375 19.921875 59.515625 
L 19.921875 54.6875 
L 34.71875 54.6875 
L 34.71875 47.703125 
L 19.921875 47.703125 
L 19.921875 0 
L 10.890625 0 
L 10.890625 47.703125 
L 2.296875 47.703125 
L 2.296875 54.6875 
L 10.890625 54.6875 
L 10.890625 58.5 
Q 10.890625 67.625 15.140625 71.796875 
Q 19.390625 75.984375 28.609375 75.984375 
z
" id="DejaVuSans-102"/>
    </defs>
    <g transform="translate(108.555 28.56)scale(0.12 -0.12)">
     <use xlink:href="#DejaVuSans-80"/>
     <use x="60.255859" xlink:href="#DejaVuSans-111"/>
     <use x="121.4375" xlink:href="#DejaVuSans-112"/>
     <use x="184.914062" xlink:href="#DejaVuSans-117"/>
     <use x="248.292969" xlink:href="#DejaVuSans-108"/>
     <use x="276.076172" xlink:href="#DejaVuSans-97"/>
     <use x="337.355469" xlink:href="#DejaVuSans-116"/>
     <use x="376.564453" xlink:href="#DejaVuSans-105"/>
     <use x="404.347656" xlink:href="#DejaVuSans-111"/>
     <use x="465.529297" xlink:href="#DejaVuSans-110"/>
     <use x="528.908203" xlink:href="#DejaVuSans-39"/>
     <use x="556.398438" xlink:href="#DejaVuSans-115"/>
     <use x="608.498047" xlink:href="#DejaVuSans-32"/>
     <use x="640.285156" xlink:href="#DejaVuSans-97"/>
     <use x="701.564453" xlink:href="#DejaVuSans-118"/>
     <use x="760.744141" xlink:href="#DejaVuSans-101"/>
     <use x="822.267578" xlink:href="#DejaVuSans-114"/>
     <use x="863.380859" xlink:href="#DejaVuSans-97"/>
     <use x="924.660156" xlink:href="#DejaVuSans-103"/>
     <use x="988.136719" xlink:href="#DejaVuSans-101"/>
     <use x="1049.660156" xlink:href="#DejaVuSans-32"/>
     <use x="1081.447266" xlink:href="#DejaVuSans-97"/>
     <use x="1142.726562" xlink:href="#DejaVuSans-110"/>
     <use x="1206.105469" xlink:href="#DejaVuSans-100"/>
     <use x="1269.582031" xlink:href="#DejaVuSans-32"/>
     <use x="1301.369141" xlink:href="#DejaVuSans-98"/>
     <use x="1364.845703" xlink:href="#DejaVuSans-101"/>
     <use x="1426.369141" xlink:href="#DejaVuSans-115"/>
     <use x="1478.46875" xlink:href="#DejaVuSans-116"/>
     <use x="1517.677734" xlink:href="#DejaVuSans-32"/>
     <use x="1549.464844" xlink:href="#DejaVuSans-102"/>
     <use x="1584.669922" xlink:href="#DejaVuSans-105"/>
     <use x="1612.453125" xlink:href="#DejaVuSans-116"/>
     <use x="1651.662109" xlink:href="#DejaVuSans-110"/>
     <use x="1715.041016" xlink:href="#DejaVuSans-101"/>
     <use x="1776.564453" xlink:href="#DejaVuSans-115"/>
     <use x="1828.664062" xlink:href="#DejaVuSans-115"/>
    </g>
   </g>
   <g id="legend_1">
    <g id="patch_7">
     <path d="M 61 101.2725 
L 133.940625 101.2725 
Q 135.940625 101.2725 135.940625 99.2725 
L 135.940625 41.56 
Q 135.940625 39.56 133.940625 39.56 
L 61 39.56 
Q 59 39.56 59 41.56 
L 59 99.2725 
Q 59 101.2725 61 101.2725 
z
" style="fill:#ffffff;opacity:0.8;stroke:#cccccc;stroke-linejoin:miter;"/>
    </g>
    <g id="line2d_35">
     <path d="M 63 47.658437 
L 83 47.658437 
" style="fill:none;stroke:#0000ff;stroke-linecap:square;stroke-width:1.5;"/>
    </g>
    <g id="line2d_36"/>
    <g id="text_19">
     <!-- average -->
     <g transform="translate(91 51.158437)scale(0.1 -0.1)">
      <use xlink:href="#DejaVuSans-97"/>
      <use x="61.279297" xlink:href="#DejaVuSans-118"/>
      <use x="120.458984" xlink:href="#DejaVuSans-101"/>
      <use x="181.982422" xlink:href="#DejaVuSans-114"/>
      <use x="223.095703" xlink:href="#DejaVuSans-97"/>
      <use x="284.375" xlink:href="#DejaVuSans-103"/>
      <use x="347.851562" xlink:href="#DejaVuSans-101"/>
     </g>
    </g>
    <g id="line2d_37">
     <path d="M 63 62.336562 
L 83 62.336562 
" style="fill:none;stroke:#008000;stroke-dasharray:9.6,2.4,1.5,2.4;stroke-dashoffset:0;stroke-width:1.5;"/>
    </g>
    <g id="line2d_38"/>
    <g id="text_20">
     <!-- -1 sd -->
     <defs>
      <path d="M 4.890625 31.390625 
L 31.203125 31.390625 
L 31.203125 23.390625 
L 4.890625 23.390625 
z
" id="DejaVuSans-45"/>
     </defs>
     <g transform="translate(91 65.836562)scale(0.1 -0.1)">
      <use xlink:href="#DejaVuSans-45"/>
      <use x="36.083984" xlink:href="#DejaVuSans-49"/>
      <use x="99.707031" xlink:href="#DejaVuSans-32"/>
      <use x="131.494141" xlink:href="#DejaVuSans-115"/>
      <use x="183.59375" xlink:href="#DejaVuSans-100"/>
     </g>
    </g>
    <g id="line2d_39">
     <path d="M 63 77.014687 
L 83 77.014687 
" style="fill:none;stroke:#008000;stroke-dasharray:9.6,2.4,1.5,2.4;stroke-dashoffset:0;stroke-width:1.5;"/>
    </g>
    <g id="line2d_40"/>
    <g id="text_21">
     <!-- +1 sd -->
     <defs>
      <path d="M 46 62.703125 
L 46 35.5 
L 73.1875 35.5 
L 73.1875 27.203125 
L 46 27.203125 
L 46 0 
L 37.796875 0 
L 37.796875 27.203125 
L 10.59375 27.203125 
L 10.59375 35.5 
L 37.796875 35.5 
L 37.796875 62.703125 
z
" id="DejaVuSans-43"/>
     </defs>
     <g transform="translate(91 80.514687)scale(0.1 -0.1)">
      <use xlink:href="#DejaVuSans-43"/>
      <use x="83.789062" xlink:href="#DejaVuSans-49"/>
      <use x="147.412109" xlink:href="#DejaVuSans-32"/>
      <use x="179.199219" xlink:href="#DejaVuSans-115"/>
      <use x="231.298828" xlink:href="#DejaVuSans-100"/>
     </g>
    </g>
    <g id="line2d_41">
     <path d="M 63 91.692813 
L 83 91.692813 
" style="fill:none;stroke:#ff0000;stroke-linecap:square;stroke-width:1.5;"/>
    </g>
    <g id="line2d_42"/>
    <g id="text_22">
     <!-- best -->
     <g transform="translate(91 95.192813)scale(0.1 -0.1)">
      <use xlink:href="#DejaVuSans-98"/>
      <use x="63.476562" xlink:href="#DejaVuSans-101"/>
      <use x="125" xlink:href="#DejaVuSans-115"/>
      <use x="177.099609" xlink:href="#DejaVuSans-116"/>
     </g>
    </g>
   </g>
  </g>
 </g>
 <defs>
  <clipPath id="pa792d9ad28">
   <rect height="217.44" width="334.8" x="54" y="34.56"/>
  </clipPath>
 </defs>
</svg>
