<?xml version="1.0" encoding="utf-8" standalone="no"?>
<!DOCTYPE svg PUBLIC "-//W3C//DTD SVG 1.1//EN"
  "http://www.w3.org/Graphics/SVG/1.1/DTD/svg11.dtd">
<!-- Created with matplotlib (https://matplotlib.org/) -->
<svg height="288pt" version="1.1" viewBox="0 0 432 288" width="432pt" xmlns="http://www.w3.org/2000/svg" xmlns:xlink="http://www.w3.org/1999/xlink">
 <defs>
  <style type="text/css">
*{stroke-linecap:butt;stroke-linejoin:round;}
  </style>
 </defs>
 <g id="figure_1">
  <g id="patch_1">
   <path d="M 0 288 
L 432 288 
L 432 0 
L 0 0 
z
" style="fill:#ffffff;"/>
  </g>
  <g id="axes_1">
   <g id="patch_2">
    <path d="M 54 252 
L 388.8 252 
L 388.8 34.56 
L 54 34.56 
z
" style="fill:#ffffff;"/>
   </g>
   <g id="matplotlib.axis_1">
    <g id="xtick_1">
     <g id="line2d_1">
      <path clip-path="url(#p9cc91cd421)" d="M 69.218182 252 
L 69.218182 34.56 
" style="fill:none;stroke:#b0b0b0;stroke-linecap:square;stroke-width:0.8;"/>
     </g>
     <g id="line2d_2">
      <defs>
       <path d="M 0 0 
L 0 3.5 
" id="mf374e7e677" style="stroke:#000000;stroke-width:0.8;"/>
      </defs>
      <g>
       <use style="stroke:#000000;stroke-width:0.8;" x="69.218182" xlink:href="#mf374e7e677" y="252"/>
      </g>
     </g>
     <g id="text_1">
      <!-- 0 -->
      <defs>
       <path d="M 31.78125 66.40625 
Q 24.171875 66.40625 20.328125 58.90625 
Q 16.5 51.421875 16.5 36.375 
Q 16.5 21.390625 20.328125 13.890625 
Q 24.171875 6.390625 31.78125 6.390625 
Q 39.453125 6.390625 43.28125 13.890625 
Q 47.125 21.390625 47.125 36.375 
Q 47.125 51.421875 43.28125 58.90625 
Q 39.453125 66.40625 31.78125 66.40625 
z
M 31.78125 74.21875 
Q 44.046875 74.21875 50.515625 64.515625 
Q 56.984375 54.828125 56.984375 36.375 
Q 56.984375 17.96875 50.515625 8.265625 
Q 44.046875 -1.421875 31.78125 -1.421875 
Q 19.53125 -1.421875 13.0625 8.265625 
Q 6.59375 17.96875 6.59375 36.375 
Q 6.59375 54.828125 13.0625 64.515625 
Q 19.53125 74.21875 31.78125 74.21875 
z
" id="DejaVuSans-48"/>
      </defs>
      <g transform="translate(66.036932 266.598437)scale(0.1 -0.1)">
       <use xlink:href="#DejaVuSans-48"/>
      </g>
     </g>
    </g>
    <g id="xtick_2">
     <g id="line2d_3">
      <path clip-path="url(#p9cc91cd421)" d="M 107.45482 252 
L 107.45482 34.56 
" style="fill:none;stroke:#b0b0b0;stroke-linecap:square;stroke-width:0.8;"/>
     </g>
     <g id="line2d_4">
      <g>
       <use style="stroke:#000000;stroke-width:0.8;" x="107.45482" xlink:href="#mf374e7e677" y="252"/>
      </g>
     </g>
     <g id="text_2">
      <!-- 25 -->
      <defs>
       <path d="M 19.1875 8.296875 
L 53.609375 8.296875 
L 53.609375 0 
L 7.328125 0 
L 7.328125 8.296875 
Q 12.9375 14.109375 22.625 23.890625 
Q 32.328125 33.6875 34.8125 36.53125 
Q 39.546875 41.84375 41.421875 45.53125 
Q 43.3125 49.21875 43.3125 52.78125 
Q 43.3125 58.59375 39.234375 62.25 
Q 35.15625 65.921875 28.609375 65.921875 
Q 23.96875 65.921875 18.8125 64.3125 
Q 13.671875 62.703125 7.8125 59.421875 
L 7.8125 69.390625 
Q 13.765625 71.78125 18.9375 73 
Q 24.125 74.21875 28.421875 74.21875 
Q 39.75 74.21875 46.484375 68.546875 
Q 53.21875 62.890625 53.21875 53.421875 
Q 53.21875 48.921875 51.53125 44.890625 
Q 49.859375 40.875 45.40625 35.40625 
Q 44.1875 33.984375 37.640625 27.21875 
Q 31.109375 20.453125 19.1875 8.296875 
z
" id="DejaVuSans-50"/>
       <path d="M 10.796875 72.90625 
L 49.515625 72.90625 
L 49.515625 64.59375 
L 19.828125 64.59375 
L 19.828125 46.734375 
Q 21.96875 47.46875 24.109375 47.828125 
Q 26.265625 48.1875 28.421875 48.1875 
Q 40.625 48.1875 47.75 41.5 
Q 54.890625 34.8125 54.890625 23.390625 
Q 54.890625 11.625 47.5625 5.09375 
Q 40.234375 -1.421875 26.90625 -1.421875 
Q 22.3125 -1.421875 17.546875 -0.640625 
Q 12.796875 0.140625 7.71875 1.703125 
L 7.71875 11.625 
Q 12.109375 9.234375 16.796875 8.0625 
Q 21.484375 6.890625 26.703125 6.890625 
Q 35.15625 6.890625 40.078125 11.328125 
Q 45.015625 15.765625 45.015625 23.390625 
Q 45.015625 31 40.078125 35.4375 
Q 35.15625 39.890625 26.703125 39.890625 
Q 22.75 39.890625 18.8125 39.015625 
Q 14.890625 38.140625 10.796875 36.28125 
z
" id="DejaVuSans-53"/>
      </defs>
      <g transform="translate(101.09232 266.598437)scale(0.1 -0.1)">
       <use xlink:href="#DejaVuSans-50"/>
       <use x="63.623047" xlink:href="#DejaVuSans-53"/>
      </g>
     </g>
    </g>
    <g id="xtick_3">
     <g id="line2d_5">
      <path clip-path="url(#p9cc91cd421)" d="M 145.691457 252 
L 145.691457 34.56 
" style="fill:none;stroke:#b0b0b0;stroke-linecap:square;stroke-width:0.8;"/>
     </g>
     <g id="line2d_6">
      <g>
       <use style="stroke:#000000;stroke-width:0.8;" x="145.691457" xlink:href="#mf374e7e677" y="252"/>
      </g>
     </g>
     <g id="text_3">
      <!-- 50 -->
      <g transform="translate(139.328957 266.598437)scale(0.1 -0.1)">
       <use xlink:href="#DejaVuSans-53"/>
       <use x="63.623047" xlink:href="#DejaVuSans-48"/>
      </g>
     </g>
    </g>
    <g id="xtick_4">
     <g id="line2d_7">
      <path clip-path="url(#p9cc91cd421)" d="M 183.928095 252 
L 183.928095 34.56 
" style="fill:none;stroke:#b0b0b0;stroke-linecap:square;stroke-width:0.8;"/>
     </g>
     <g id="line2d_8">
      <g>
       <use style="stroke:#000000;stroke-width:0.8;" x="183.928095" xlink:href="#mf374e7e677" y="252"/>
      </g>
     </g>
     <g id="text_4">
      <!-- 75 -->
      <defs>
       <path d="M 8.203125 72.90625 
L 55.078125 72.90625 
L 55.078125 68.703125 
L 28.609375 0 
L 18.3125 0 
L 43.21875 64.59375 
L 8.203125 64.59375 
z
" id="DejaVuSans-55"/>
      </defs>
      <g transform="translate(177.565595 266.598437)scale(0.1 -0.1)">
       <use xlink:href="#DejaVuSans-55"/>
       <use x="63.623047" xlink:href="#DejaVuSans-53"/>
      </g>
     </g>
    </g>
    <g id="xtick_5">
     <g id="line2d_9">
      <path clip-path="url(#p9cc91cd421)" d="M 222.164733 252 
L 222.164733 34.56 
" style="fill:none;stroke:#b0b0b0;stroke-linecap:square;stroke-width:0.8;"/>
     </g>
     <g id="line2d_10">
      <g>
       <use style="stroke:#000000;stroke-width:0.8;" x="222.164733" xlink:href="#mf374e7e677" y="252"/>
      </g>
     </g>
     <g id="text_5">
      <!-- 100 -->
      <defs>
       <path d="M 12.40625 8.296875 
L 28.515625 8.296875 
L 28.515625 63.921875 
L 10.984375 60.40625 
L 10.984375 69.390625 
L 28.421875 72.90625 
L 38.28125 72.90625 
L 38.28125 8.296875 
L 54.390625 8.296875 
L 54.390625 0 
L 12.40625 0 
z
" id="DejaVuSans-49"/>
      </defs>
      <g transform="translate(212.620983 266.598437)scale(0.1 -0.1)">
       <use xlink:href="#DejaVuSans-49"/>
       <use x="63.623047" xlink:href="#DejaVuSans-48"/>
       <use x="127.246094" xlink:href="#DejaVuSans-48"/>
      </g>
     </g>
    </g>
    <g id="xtick_6">
     <g id="line2d_11">
      <path clip-path="url(#p9cc91cd421)" d="M 260.40137 252 
L 260.40137 34.56 
" style="fill:none;stroke:#b0b0b0;stroke-linecap:square;stroke-width:0.8;"/>
     </g>
     <g id="line2d_12">
      <g>
       <use style="stroke:#000000;stroke-width:0.8;" x="260.40137" xlink:href="#mf374e7e677" y="252"/>
      </g>
     </g>
     <g id="text_6">
      <!-- 125 -->
      <g transform="translate(250.85762 266.598437)scale(0.1 -0.1)">
       <use xlink:href="#DejaVuSans-49"/>
       <use x="63.623047" xlink:href="#DejaVuSans-50"/>
       <use x="127.246094" xlink:href="#DejaVuSans-53"/>
      </g>
     </g>
    </g>
    <g id="xtick_7">
     <g id="line2d_13">
      <path clip-path="url(#p9cc91cd421)" d="M 298.638008 252 
L 298.638008 34.56 
" style="fill:none;stroke:#b0b0b0;stroke-linecap:square;stroke-width:0.8;"/>
     </g>
     <g id="line2d_14">
      <g>
       <use style="stroke:#000000;stroke-width:0.8;" x="298.638008" xlink:href="#mf374e7e677" y="252"/>
      </g>
     </g>
     <g id="text_7">
      <!-- 150 -->
      <g transform="translate(289.094258 266.598437)scale(0.1 -0.1)">
       <use xlink:href="#DejaVuSans-49"/>
       <use x="63.623047" xlink:href="#DejaVuSans-53"/>
       <use x="127.246094" xlink:href="#DejaVuSans-48"/>
      </g>
     </g>
    </g>
    <g id="xtick_8">
     <g id="line2d_15">
      <path clip-path="url(#p9cc91cd421)" d="M 336.874646 252 
L 336.874646 34.56 
" style="fill:none;stroke:#b0b0b0;stroke-linecap:square;stroke-width:0.8;"/>
     </g>
     <g id="line2d_16">
      <g>
       <use style="stroke:#000000;stroke-width:0.8;" x="336.874646" xlink:href="#mf374e7e677" y="252"/>
      </g>
     </g>
     <g id="text_8">
      <!-- 175 -->
      <g transform="translate(327.330896 266.598437)scale(0.1 -0.1)">
       <use xlink:href="#DejaVuSans-49"/>
       <use x="63.623047" xlink:href="#DejaVuSans-55"/>
       <use x="127.246094" xlink:href="#DejaVuSans-53"/>
      </g>
     </g>
    </g>
    <g id="xtick_9">
     <g id="line2d_17">
      <path clip-path="url(#p9cc91cd421)" d="M 375.111284 252 
L 375.111284 34.56 
" style="fill:none;stroke:#b0b0b0;stroke-linecap:square;stroke-width:0.8;"/>
     </g>
     <g id="line2d_18">
      <g>
       <use style="stroke:#000000;stroke-width:0.8;" x="375.111284" xlink:href="#mf374e7e677" y="252"/>
      </g>
     </g>
     <g id="text_9">
      <!-- 200 -->
      <g transform="translate(365.567534 266.598437)scale(0.1 -0.1)">
       <use xlink:href="#DejaVuSans-50"/>
       <use x="63.623047" xlink:href="#DejaVuSans-48"/>
       <use x="127.246094" xlink:href="#DejaVuSans-48"/>
      </g>
     </g>
    </g>
    <g id="text_10">
     <!-- Generations -->
     <defs>
      <path d="M 59.515625 10.40625 
L 59.515625 29.984375 
L 43.40625 29.984375 
L 43.40625 38.09375 
L 69.28125 38.09375 
L 69.28125 6.78125 
Q 63.578125 2.734375 56.6875 0.65625 
Q 49.8125 -1.421875 42 -1.421875 
Q 24.90625 -1.421875 15.25 8.5625 
Q 5.609375 18.5625 5.609375 36.375 
Q 5.609375 54.25 15.25 64.234375 
Q 24.90625 74.21875 42 74.21875 
Q 49.125 74.21875 55.546875 72.453125 
Q 61.96875 70.703125 67.390625 67.28125 
L 67.390625 56.78125 
Q 61.921875 61.421875 55.765625 63.765625 
Q 49.609375 66.109375 42.828125 66.109375 
Q 29.4375 66.109375 22.71875 58.640625 
Q 16.015625 51.171875 16.015625 36.375 
Q 16.015625 21.625 22.71875 14.15625 
Q 29.4375 6.6875 42.828125 6.6875 
Q 48.046875 6.6875 52.140625 7.59375 
Q 56.25 8.5 59.515625 10.40625 
z
" id="DejaVuSans-71"/>
      <path d="M 56.203125 29.59375 
L 56.203125 25.203125 
L 14.890625 25.203125 
Q 15.484375 15.921875 20.484375 11.0625 
Q 25.484375 6.203125 34.421875 6.203125 
Q 39.59375 6.203125 44.453125 7.46875 
Q 49.3125 8.734375 54.109375 11.28125 
L 54.109375 2.78125 
Q 49.265625 0.734375 44.1875 -0.34375 
Q 39.109375 -1.421875 33.890625 -1.421875 
Q 20.796875 -1.421875 13.15625 6.1875 
Q 5.515625 13.8125 5.515625 26.8125 
Q 5.515625 40.234375 12.765625 48.109375 
Q 20.015625 56 32.328125 56 
Q 43.359375 56 49.78125 48.890625 
Q 56.203125 41.796875 56.203125 29.59375 
z
M 47.21875 32.234375 
Q 47.125 39.59375 43.09375 43.984375 
Q 39.0625 48.390625 32.421875 48.390625 
Q 24.90625 48.390625 20.390625 44.140625 
Q 15.875 39.890625 15.1875 32.171875 
z
" id="DejaVuSans-101"/>
      <path d="M 54.890625 33.015625 
L 54.890625 0 
L 45.90625 0 
L 45.90625 32.71875 
Q 45.90625 40.484375 42.875 44.328125 
Q 39.84375 48.1875 33.796875 48.1875 
Q 26.515625 48.1875 22.3125 43.546875 
Q 18.109375 38.921875 18.109375 30.90625 
L 18.109375 0 
L 9.078125 0 
L 9.078125 54.6875 
L 18.109375 54.6875 
L 18.109375 46.1875 
Q 21.34375 51.125 25.703125 53.5625 
Q 30.078125 56 35.796875 56 
Q 45.21875 56 50.046875 50.171875 
Q 54.890625 44.34375 54.890625 33.015625 
z
" id="DejaVuSans-110"/>
      <path d="M 41.109375 46.296875 
Q 39.59375 47.171875 37.8125 47.578125 
Q 36.03125 48 33.890625 48 
Q 26.265625 48 22.1875 43.046875 
Q 18.109375 38.09375 18.109375 28.8125 
L 18.109375 0 
L 9.078125 0 
L 9.078125 54.6875 
L 18.109375 54.6875 
L 18.109375 46.1875 
Q 20.953125 51.171875 25.484375 53.578125 
Q 30.03125 56 36.53125 56 
Q 37.453125 56 38.578125 55.875 
Q 39.703125 55.765625 41.0625 55.515625 
z
" id="DejaVuSans-114"/>
      <path d="M 34.28125 27.484375 
Q 23.390625 27.484375 19.1875 25 
Q 14.984375 22.515625 14.984375 16.5 
Q 14.984375 11.71875 18.140625 8.90625 
Q 21.296875 6.109375 26.703125 6.109375 
Q 34.1875 6.109375 38.703125 11.40625 
Q 43.21875 16.703125 43.21875 25.484375 
L 43.21875 27.484375 
z
M 52.203125 31.203125 
L 52.203125 0 
L 43.21875 0 
L 43.21875 8.296875 
Q 40.140625 3.328125 35.546875 0.953125 
Q 30.953125 -1.421875 24.3125 -1.421875 
Q 15.921875 -1.421875 10.953125 3.296875 
Q 6 8.015625 6 15.921875 
Q 6 25.140625 12.171875 29.828125 
Q 18.359375 34.515625 30.609375 34.515625 
L 43.21875 34.515625 
L 43.21875 35.40625 
Q 43.21875 41.609375 39.140625 45 
Q 35.0625 48.390625 27.6875 48.390625 
Q 23 48.390625 18.546875 47.265625 
Q 14.109375 46.140625 10.015625 43.890625 
L 10.015625 52.203125 
Q 14.9375 54.109375 19.578125 55.046875 
Q 24.21875 56 28.609375 56 
Q 40.484375 56 46.34375 49.84375 
Q 52.203125 43.703125 52.203125 31.203125 
z
" id="DejaVuSans-97"/>
      <path d="M 18.3125 70.21875 
L 18.3125 54.6875 
L 36.8125 54.6875 
L 36.8125 47.703125 
L 18.3125 47.703125 
L 18.3125 18.015625 
Q 18.3125 11.328125 20.140625 9.421875 
Q 21.96875 7.515625 27.59375 7.515625 
L 36.8125 7.515625 
L 36.8125 0 
L 27.59375 0 
Q 17.1875 0 13.234375 3.875 
Q 9.28125 7.765625 9.28125 18.015625 
L 9.28125 47.703125 
L 2.6875 47.703125 
L 2.6875 54.6875 
L 9.28125 54.6875 
L 9.28125 70.21875 
z
" id="DejaVuSans-116"/>
      <path d="M 9.421875 54.6875 
L 18.40625 54.6875 
L 18.40625 0 
L 9.421875 0 
z
M 9.421875 75.984375 
L 18.40625 75.984375 
L 18.40625 64.59375 
L 9.421875 64.59375 
z
" id="DejaVuSans-105"/>
      <path d="M 30.609375 48.390625 
Q 23.390625 48.390625 19.1875 42.75 
Q 14.984375 37.109375 14.984375 27.296875 
Q 14.984375 17.484375 19.15625 11.84375 
Q 23.34375 6.203125 30.609375 6.203125 
Q 37.796875 6.203125 41.984375 11.859375 
Q 46.1875 17.53125 46.1875 27.296875 
Q 46.1875 37.015625 41.984375 42.703125 
Q 37.796875 48.390625 30.609375 48.390625 
z
M 30.609375 56 
Q 42.328125 56 49.015625 48.375 
Q 55.71875 40.765625 55.71875 27.296875 
Q 55.71875 13.875 49.015625 6.21875 
Q 42.328125 -1.421875 30.609375 -1.421875 
Q 18.84375 -1.421875 12.171875 6.21875 
Q 5.515625 13.875 5.515625 27.296875 
Q 5.515625 40.765625 12.171875 48.375 
Q 18.84375 56 30.609375 56 
z
" id="DejaVuSans-111"/>
      <path d="M 44.28125 53.078125 
L 44.28125 44.578125 
Q 40.484375 46.53125 36.375 47.5 
Q 32.28125 48.484375 27.875 48.484375 
Q 21.1875 48.484375 17.84375 46.4375 
Q 14.5 44.390625 14.5 40.28125 
Q 14.5 37.15625 16.890625 35.375 
Q 19.28125 33.59375 26.515625 31.984375 
L 29.59375 31.296875 
Q 39.15625 29.25 43.1875 25.515625 
Q 47.21875 21.78125 47.21875 15.09375 
Q 47.21875 7.46875 41.1875 3.015625 
Q 35.15625 -1.421875 24.609375 -1.421875 
Q 20.21875 -1.421875 15.453125 -0.5625 
Q 10.6875 0.296875 5.421875 2 
L 5.421875 11.28125 
Q 10.40625 8.6875 15.234375 7.390625 
Q 20.0625 6.109375 24.8125 6.109375 
Q 31.15625 6.109375 34.5625 8.28125 
Q 37.984375 10.453125 37.984375 14.40625 
Q 37.984375 18.0625 35.515625 20.015625 
Q 33.0625 21.96875 24.703125 23.78125 
L 21.578125 24.515625 
Q 13.234375 26.265625 9.515625 29.90625 
Q 5.8125 33.546875 5.8125 39.890625 
Q 5.8125 47.609375 11.28125 51.796875 
Q 16.75 56 26.8125 56 
Q 31.78125 56 36.171875 55.265625 
Q 40.578125 54.546875 44.28125 53.078125 
z
" id="DejaVuSans-115"/>
     </defs>
     <g transform="translate(190.902344 280.276563)scale(0.1 -0.1)">
      <use xlink:href="#DejaVuSans-71"/>
      <use x="77.490234" xlink:href="#DejaVuSans-101"/>
      <use x="139.013672" xlink:href="#DejaVuSans-110"/>
      <use x="202.392578" xlink:href="#DejaVuSans-101"/>
      <use x="263.916016" xlink:href="#DejaVuSans-114"/>
      <use x="305.029297" xlink:href="#DejaVuSans-97"/>
      <use x="366.308594" xlink:href="#DejaVuSans-116"/>
      <use x="405.517578" xlink:href="#DejaVuSans-105"/>
      <use x="433.300781" xlink:href="#DejaVuSans-111"/>
      <use x="494.482422" xlink:href="#DejaVuSans-110"/>
      <use x="557.861328" xlink:href="#DejaVuSans-115"/>
     </g>
    </g>
   </g>
   <g id="matplotlib.axis_2">
    <g id="ytick_1">
     <g id="line2d_19">
      <path clip-path="url(#p9cc91cd421)" d="M 54 207.467889 
L 388.8 207.467889 
" style="fill:none;stroke:#b0b0b0;stroke-linecap:square;stroke-width:0.8;"/>
     </g>
     <g id="line2d_20">
      <defs>
       <path d="M 0 0 
L -3.5 0 
" id="mec1191cde3" style="stroke:#000000;stroke-width:0.8;"/>
      </defs>
      <g>
       <use style="stroke:#000000;stroke-width:0.8;" x="54" xlink:href="#mec1191cde3" y="207.467889"/>
      </g>
     </g>
     <g id="text_11">
      <!-- −2000 -->
      <defs>
       <path d="M 10.59375 35.5 
L 73.1875 35.5 
L 73.1875 27.203125 
L 10.59375 27.203125 
z
" id="DejaVuSans-8722"/>
      </defs>
      <g transform="translate(13.170313 211.267107)scale(0.1 -0.1)">
       <use xlink:href="#DejaVuSans-8722"/>
       <use x="83.789062" xlink:href="#DejaVuSans-50"/>
       <use x="147.412109" xlink:href="#DejaVuSans-48"/>
       <use x="211.035156" xlink:href="#DejaVuSans-48"/>
       <use x="274.658203" xlink:href="#DejaVuSans-48"/>
      </g>
     </g>
    </g>
    <g id="ytick_2">
     <g id="line2d_21">
      <path clip-path="url(#p9cc91cd421)" d="M 54 161.591889 
L 388.8 161.591889 
" style="fill:none;stroke:#b0b0b0;stroke-linecap:square;stroke-width:0.8;"/>
     </g>
     <g id="line2d_22">
      <g>
       <use style="stroke:#000000;stroke-width:0.8;" x="54" xlink:href="#mec1191cde3" y="161.591889"/>
      </g>
     </g>
     <g id="text_12">
      <!-- −1000 -->
      <g transform="translate(13.170313 165.391108)scale(0.1 -0.1)">
       <use xlink:href="#DejaVuSans-8722"/>
       <use x="83.789062" xlink:href="#DejaVuSans-49"/>
       <use x="147.412109" xlink:href="#DejaVuSans-48"/>
       <use x="211.035156" xlink:href="#DejaVuSans-48"/>
       <use x="274.658203" xlink:href="#DejaVuSans-48"/>
      </g>
     </g>
    </g>
    <g id="ytick_3">
     <g id="line2d_23">
      <path clip-path="url(#p9cc91cd421)" d="M 54 115.71589 
L 388.8 115.71589 
" style="fill:none;stroke:#b0b0b0;stroke-linecap:square;stroke-width:0.8;"/>
     </g>
     <g id="line2d_24">
      <g>
       <use style="stroke:#000000;stroke-width:0.8;" x="54" xlink:href="#mec1191cde3" y="115.71589"/>
      </g>
     </g>
     <g id="text_13">
      <!-- 0 -->
      <g transform="translate(40.6375 119.515109)scale(0.1 -0.1)">
       <use xlink:href="#DejaVuSans-48"/>
      </g>
     </g>
    </g>
    <g id="ytick_4">
     <g id="line2d_25">
      <path clip-path="url(#p9cc91cd421)" d="M 54 69.839891 
L 388.8 69.839891 
" style="fill:none;stroke:#b0b0b0;stroke-linecap:square;stroke-width:0.8;"/>
     </g>
     <g id="line2d_26">
      <g>
       <use style="stroke:#000000;stroke-width:0.8;" x="54" xlink:href="#mec1191cde3" y="69.839891"/>
      </g>
     </g>
     <g id="text_14">
      <!-- 1000 -->
      <g transform="translate(21.55 73.63911)scale(0.1 -0.1)">
       <use xlink:href="#DejaVuSans-49"/>
       <use x="63.623047" xlink:href="#DejaVuSans-48"/>
       <use x="127.246094" xlink:href="#DejaVuSans-48"/>
       <use x="190.869141" xlink:href="#DejaVuSans-48"/>
      </g>
     </g>
    </g>
    <g id="text_15">
     <!-- Fitness -->
     <defs>
      <path d="M 9.8125 72.90625 
L 51.703125 72.90625 
L 51.703125 64.59375 
L 19.671875 64.59375 
L 19.671875 43.109375 
L 48.578125 43.109375 
L 48.578125 34.8125 
L 19.671875 34.8125 
L 19.671875 0 
L 9.8125 0 
z
" id="DejaVuSans-70"/>
     </defs>
     <g transform="translate(7.090625 160.954219)rotate(-90)scale(0.1 -0.1)">
      <use xlink:href="#DejaVuSans-70"/>
      <use x="57.410156" xlink:href="#DejaVuSans-105"/>
      <use x="85.193359" xlink:href="#DejaVuSans-116"/>
      <use x="124.402344" xlink:href="#DejaVuSans-110"/>
      <use x="187.78125" xlink:href="#DejaVuSans-101"/>
      <use x="249.304688" xlink:href="#DejaVuSans-115"/>
      <use x="301.404297" xlink:href="#DejaVuSans-115"/>
     </g>
    </g>
   </g>
   <g id="line2d_27">
    <path clip-path="url(#p9cc91cd421)" d="M 69.218182 146.557412 
L 70.747647 145.329349 
L 72.277113 144.677092 
L 73.806578 138.755768 
L 75.336044 137.757909 
L 76.865509 138.374522 
L 78.394975 135.073002 
L 79.92444 137.282738 
L 81.453906 132.808473 
L 82.983371 135.480415 
L 84.512837 134.820137 
L 86.042302 136.985606 
L 87.571768 147.60701 
L 89.101233 135.1659 
L 90.630699 136.777805 
L 92.160164 132.844776 
L 93.68963 132.351666 
L 95.219095 132.096387 
L 96.748561 131.301764 
L 98.278026 132.026552 
L 99.807492 128.999244 
L 101.336958 128.137699 
L 102.866423 127.527759 
L 105.925354 126.793998 
L 107.45482 126.381945 
L 108.984285 125.052159 
L 110.513751 124.857492 
L 112.043216 126.148458 
L 113.572682 123.990426 
L 115.102147 125.893292 
L 116.631613 124.4768 
L 118.161078 124.179287 
L 119.690544 123.402251 
L 121.220009 138.999953 
L 122.749475 125.21719 
L 124.27894 122.914504 
L 125.808406 123.178961 
L 127.337871 125.978136 
L 128.867337 123.117501 
L 130.396802 122.931054 
L 131.926268 123.5359 
L 133.455733 122.272476 
L 134.985199 123.818153 
L 136.514664 126.086107 
L 138.04413 123.180624 
L 139.573595 121.813304 
L 141.103061 122.436799 
L 144.161992 123.414492 
L 145.691457 122.392523 
L 147.220923 122.496015 
L 148.750388 123.684882 
L 150.279854 121.571549 
L 151.809319 121.941796 
L 153.338785 121.400118 
L 154.86825 121.229878 
L 156.397716 121.206599 
L 157.927181 120.7388 
L 159.456647 123.923014 
L 160.986112 122.122123 
L 162.515578 122.210049 
L 164.045043 120.918331 
L 165.574509 121.341532 
L 167.103974 121.207182 
L 168.63344 120.756753 
L 170.162905 122.634028 
L 171.692371 121.179757 
L 173.221836 119.940813 
L 174.751302 120.359471 
L 176.280767 119.048996 
L 177.810233 120.668261 
L 179.339698 120.916291 
L 180.869164 120.377832 
L 182.39863 120.873042 
L 183.928095 120.859088 
L 185.457561 119.237963 
L 186.987026 122.063642 
L 188.516492 120.468122 
L 190.045957 123.636394 
L 191.575423 120.155322 
L 193.104888 121.989772 
L 194.634354 122.257508 
L 196.163819 120.768977 
L 197.693285 120.921916 
L 199.22275 122.462911 
L 200.752216 130.529391 
L 202.281681 121.389348 
L 203.811147 121.770496 
L 205.340612 132.889332 
L 206.870078 120.342505 
L 208.399543 121.859345 
L 209.929009 124.662466 
L 211.458474 121.105315 
L 212.98794 120.57265 
L 214.517405 121.341875 
L 216.046871 119.937226 
L 219.105802 125.401208 
L 220.635267 119.969827 
L 222.164733 120.142594 
L 223.694198 121.609822 
L 225.223664 122.189387 
L 226.753129 121.148105 
L 228.282595 120.425952 
L 231.341526 120.898569 
L 232.870991 122.480606 
L 234.400457 119.759606 
L 235.929922 119.886337 
L 237.459388 120.146022 
L 238.988853 120.623157 
L 240.518319 119.48356 
L 242.047784 119.51512 
L 243.57725 120.437828 
L 245.106715 120.692458 
L 246.636181 119.175323 
L 248.165646 120.109269 
L 249.695112 119.173636 
L 251.224577 119.646088 
L 252.754043 118.75723 
L 254.283508 119.368372 
L 255.812974 119.58004 
L 257.342439 119.656945 
L 258.871905 121.764163 
L 260.40137 119.601765 
L 261.930836 120.134149 
L 263.460302 120.355229 
L 264.989767 120.849667 
L 266.519233 119.983624 
L 269.578164 119.430888 
L 271.107629 120.440445 
L 272.637095 123.678443 
L 274.16656 122.652351 
L 275.696026 119.76515 
L 277.225491 120.811387 
L 278.754957 120.529607 
L 280.284422 120.934132 
L 281.813888 122.918108 
L 283.343353 121.290958 
L 284.872819 120.388914 
L 286.402284 121.989259 
L 287.93175 122.126233 
L 289.461215 120.727019 
L 290.990681 123.810362 
L 292.520146 122.987289 
L 294.049612 120.734128 
L 295.579077 120.661434 
L 297.108543 121.227253 
L 298.638008 120.013914 
L 300.167474 121.783453 
L 301.696939 126.305146 
L 303.226405 121.653951 
L 304.75587 121.1848 
L 306.285336 120.543839 
L 307.814801 119.133143 
L 309.344267 121.482876 
L 310.873732 123.620483 
L 313.932663 120.200743 
L 315.462129 119.546063 
L 316.991594 120.927093 
L 318.52106 119.018284 
L 320.050525 119.554489 
L 321.579991 121.707967 
L 323.109456 119.324953 
L 324.638922 121.210754 
L 326.168387 120.161466 
L 327.697853 118.932299 
L 329.227318 119.003445 
L 330.756784 121.48042 
L 332.286249 122.351952 
L 335.34518 118.651729 
L 336.874646 119.186322 
L 338.404111 117.853079 
L 341.463042 119.500228 
L 342.992508 118.847989 
L 344.521974 120.542477 
L 346.051439 118.03709 
L 347.580905 118.774545 
L 349.11037 118.492854 
L 350.639836 117.746326 
L 352.169301 118.283424 
L 353.698767 119.357664 
L 355.228232 118.775153 
L 356.757698 119.506527 
L 358.287163 118.67766 
L 361.346094 118.962301 
L 362.87556 118.935132 
L 364.405025 121.352464 
L 365.934491 120.092605 
L 367.463956 120.07614 
L 368.993422 120.1993 
L 370.522887 122.486484 
L 372.052353 121.477053 
L 373.581818 120.03512 
L 373.581818 120.03512 
" style="fill:none;stroke:#0000ff;stroke-linecap:square;stroke-width:1.5;"/>
   </g>
   <g id="line2d_28">
    <path clip-path="url(#p9cc91cd421)" d="M 69.218182 172.447799 
L 70.747647 177.881673 
L 72.277113 219.700951 
L 73.806578 158.512358 
L 75.336044 159.351333 
L 76.865509 165.471662 
L 78.394975 146.722157 
L 79.92444 160.123672 
L 81.453906 140.523716 
L 82.983371 153.623182 
L 84.512837 150.263187 
L 86.042302 174.675659 
L 87.571768 242.116364 
L 89.101233 164.167724 
L 90.630699 169.526203 
L 92.160164 153.088103 
L 93.68963 149.189257 
L 95.219095 147.75261 
L 96.748561 148.123342 
L 98.278026 155.233665 
L 99.807492 142.47063 
L 101.336958 139.280245 
L 102.866423 140.267869 
L 104.395889 138.429944 
L 105.925354 138.582117 
L 107.45482 135.827896 
L 108.984285 131.938658 
L 110.513751 133.599332 
L 112.043216 140.052418 
L 113.572682 130.803602 
L 115.102147 140.863372 
L 116.631613 133.49945 
L 118.161078 132.56335 
L 119.690544 129.608676 
L 121.220009 213.87068 
L 122.749475 137.420412 
L 124.27894 129.726722 
L 125.808406 130.326992 
L 127.337871 148.747084 
L 128.867337 129.482676 
L 130.396802 129.350524 
L 131.926268 140.008431 
L 133.455733 128.462525 
L 134.985199 132.712601 
L 136.514664 154.173479 
L 138.04413 133.041962 
L 139.573595 128.379747 
L 141.103061 130.110964 
L 142.632526 130.78256 
L 144.161992 134.311532 
L 145.691457 129.981198 
L 148.750388 135.347415 
L 150.279854 129.706316 
L 151.809319 128.616357 
L 153.338785 127.765213 
L 156.397716 127.371609 
L 157.927181 126.467127 
L 159.456647 138.176503 
L 160.986112 130.386131 
L 162.515578 131.264714 
L 164.045043 127.28757 
L 165.574509 129.589405 
L 167.103974 128.755651 
L 168.63344 126.94163 
L 170.162905 139.283792 
L 171.692371 127.948724 
L 173.221836 126.535287 
L 174.751302 131.126238 
L 176.280767 124.21396 
L 177.810233 127.822829 
L 179.339698 132.442253 
L 180.869164 126.413956 
L 182.39863 133.125869 
L 183.928095 130.640844 
L 185.457561 124.79627 
L 186.987026 136.217427 
L 188.516492 126.815287 
L 190.045957 141.118034 
L 191.575423 126.448358 
L 193.104888 144.694896 
L 194.634354 142.417089 
L 196.163819 128.083837 
L 197.693285 128.571602 
L 199.22275 138.647101 
L 200.752216 197.327355 
L 202.281681 129.651507 
L 203.811147 130.975255 
L 205.340612 221.335029 
L 206.870078 126.12941 
L 208.399543 133.408445 
L 209.929009 171.505747 
L 211.458474 132.269004 
L 212.98794 127.431687 
L 214.517405 130.058766 
L 216.046871 127.414667 
L 217.576336 147.057217 
L 219.105802 163.837534 
L 220.635267 127.173497 
L 222.164733 126.467902 
L 223.694198 133.249145 
L 225.223664 136.471477 
L 226.753129 130.017256 
L 228.282595 126.644911 
L 229.81206 130.447478 
L 231.341526 128.090096 
L 232.870991 140.938848 
L 234.400457 125.305384 
L 235.929922 125.858862 
L 237.459388 127.761285 
L 238.988853 128.634683 
L 240.518319 125.276645 
L 242.047784 125.663546 
L 243.57725 129.519793 
L 245.106715 129.061448 
L 246.636181 126.324315 
L 248.165646 127.409533 
L 249.695112 125.187686 
L 251.224577 126.216008 
L 252.754043 124.159064 
L 254.283508 125.502518 
L 255.812974 126.121822 
L 257.342439 128.275023 
L 258.871905 139.436095 
L 260.40137 127.069975 
L 261.930836 132.973487 
L 263.460302 127.608475 
L 264.989767 130.193698 
L 266.519233 129.806351 
L 268.048698 125.668165 
L 269.578164 125.574261 
L 271.107629 129.6013 
L 272.637095 152.348023 
L 274.16656 136.188696 
L 275.696026 126.274161 
L 277.225491 130.080716 
L 278.754957 126.63761 
L 280.284422 128.422928 
L 281.813888 136.099949 
L 283.343353 128.239608 
L 284.872819 126.387281 
L 286.402284 138.801039 
L 287.93175 134.410579 
L 289.461215 128.55348 
L 290.990681 157.091391 
L 292.520146 145.201069 
L 294.049612 128.192712 
L 295.579077 127.747376 
L 297.108543 133.529124 
L 298.638008 126.546112 
L 300.167474 135.476826 
L 301.696939 155.850983 
L 303.226405 130.602991 
L 304.75587 131.676258 
L 306.285336 127.942355 
L 307.814801 124.889565 
L 309.344267 135.28289 
L 310.873732 149.694946 
L 312.403198 148.349781 
L 313.932663 129.111765 
L 315.462129 126.029984 
L 316.991594 136.695952 
L 318.52106 125.073589 
L 320.050525 127.987247 
L 321.579991 142.544435 
L 323.109456 126.26105 
L 324.638922 141.968523 
L 326.168387 129.049286 
L 327.697853 125.584891 
L 329.227318 126.457836 
L 332.286249 160.578181 
L 333.815715 137.496663 
L 335.34518 124.633334 
L 336.874646 125.449012 
L 338.404111 123.300436 
L 339.933577 124.838943 
L 341.463042 132.366826 
L 342.992508 125.75068 
L 344.521974 136.834953 
L 346.051439 123.47841 
L 347.580905 128.706112 
L 349.11037 124.98954 
L 350.639836 123.653943 
L 352.169301 124.595889 
L 353.698767 126.32849 
L 355.228232 124.892254 
L 356.757698 128.806043 
L 358.287163 125.348015 
L 359.816629 125.061258 
L 361.346094 126.8121 
L 362.87556 125.363149 
L 364.405025 136.008867 
L 365.934491 131.59555 
L 367.463956 129.303947 
L 368.993422 129.447714 
L 370.522887 152.702057 
L 372.052353 130.925096 
L 373.581818 130.066356 
L 373.581818 130.066356 
" style="fill:none;stroke:#008000;stroke-dasharray:9.6,2.4,1.5,2.4;stroke-dashoffset:0;stroke-width:1.5;"/>
   </g>
   <g id="line2d_29">
    <path clip-path="url(#p9cc91cd421)" d="M 69.218182 120.667025 
L 70.747647 112.777025 
L 72.277113 69.653234 
L 73.806578 118.999179 
L 75.336044 116.164485 
L 76.865509 111.277381 
L 78.394975 123.423848 
L 79.92444 114.441804 
L 81.453906 125.09323 
L 82.983371 117.337648 
L 84.512837 119.377086 
L 86.042302 99.295553 
L 87.571768 53.097656 
L 89.101233 106.164076 
L 90.630699 104.029407 
L 92.160164 112.601448 
L 93.68963 115.514075 
L 95.219095 116.440163 
L 96.748561 114.480186 
L 98.278026 108.819438 
L 99.807492 115.527859 
L 101.336958 116.995153 
L 102.866423 114.78765 
L 104.395889 115.95907 
L 105.925354 115.005879 
L 107.45482 116.935995 
L 108.984285 118.16566 
L 110.513751 116.115653 
L 112.043216 112.244497 
L 113.572682 117.17725 
L 115.102147 110.923212 
L 116.631613 115.45415 
L 118.161078 115.795224 
L 119.690544 117.195825 
L 121.220009 64.129225 
L 122.749475 113.013969 
L 124.27894 116.102285 
L 125.808406 116.03093 
L 127.337871 103.209189 
L 128.867337 116.752326 
L 130.396802 116.511583 
L 131.926268 107.063369 
L 133.455733 116.082426 
L 134.985199 114.923704 
L 136.514664 97.998735 
L 138.04413 113.319286 
L 139.573595 115.24686 
L 141.103061 114.762633 
L 142.632526 115.06664 
L 144.161992 112.517451 
L 145.691457 114.803848 
L 147.220923 112.297112 
L 148.750388 112.022349 
L 150.279854 113.436781 
L 151.809319 115.267234 
L 154.86825 114.870064 
L 156.397716 115.041589 
L 157.927181 115.010474 
L 159.456647 109.669525 
L 160.986112 113.858115 
L 162.515578 113.155383 
L 164.045043 114.549092 
L 165.574509 113.093659 
L 167.103974 113.658713 
L 168.63344 114.571875 
L 170.162905 105.984265 
L 171.692371 114.41079 
L 173.221836 113.346338 
L 174.751302 109.592704 
L 176.280767 113.884031 
L 177.810233 113.513693 
L 179.339698 109.390328 
L 180.869164 114.341708 
L 182.39863 108.620214 
L 185.457561 113.679655 
L 186.987026 107.909858 
L 188.516492 114.120957 
L 190.045957 106.154754 
L 191.575423 113.862286 
L 193.104888 99.284648 
L 194.634354 102.097927 
L 196.163819 113.454118 
L 197.693285 113.272231 
L 199.22275 106.27872 
L 200.752216 63.731427 
L 202.281681 113.12719 
L 203.811147 112.565738 
L 205.340612 44.443636 
L 206.870078 114.555599 
L 208.399543 110.310245 
L 209.929009 77.819185 
L 211.458474 109.941625 
L 212.98794 113.713612 
L 214.517405 112.624983 
L 216.046871 112.459786 
L 217.576336 98.328207 
L 219.105802 86.964882 
L 220.635267 112.766156 
L 222.164733 113.817287 
L 223.694198 109.970498 
L 225.223664 107.907297 
L 226.753129 112.278953 
L 228.282595 114.206993 
L 229.81206 110.806433 
L 231.341526 113.707041 
L 232.870991 104.022364 
L 234.400457 114.213827 
L 235.929922 113.913813 
L 237.459388 112.530758 
L 238.988853 112.61163 
L 240.518319 113.690475 
L 242.047784 113.366693 
L 243.57725 111.355863 
L 245.106715 112.323468 
L 246.636181 112.026331 
L 248.165646 112.809004 
L 249.695112 113.159586 
L 251.224577 113.076168 
L 252.754043 113.355396 
L 255.812974 113.038257 
L 257.342439 111.038868 
L 258.871905 104.092232 
L 260.40137 112.133554 
L 261.930836 107.294811 
L 263.460302 113.101982 
L 264.989767 111.505636 
L 266.519233 110.160897 
L 268.048698 113.695728 
L 269.578164 113.287516 
L 271.107629 111.27959 
L 272.637095 95.008863 
L 274.16656 109.116006 
L 275.696026 113.256138 
L 277.225491 111.542059 
L 278.754957 114.421604 
L 280.284422 113.445337 
L 281.813888 109.736267 
L 283.343353 114.342307 
L 284.872819 114.390546 
L 286.402284 105.177479 
L 287.93175 109.841887 
L 289.461215 112.900558 
L 290.990681 90.529333 
L 292.520146 100.773508 
L 294.049612 113.275544 
L 295.579077 113.575492 
L 297.108543 108.925382 
L 298.638008 113.481717 
L 300.167474 108.090079 
L 301.696939 96.759308 
L 303.226405 112.704912 
L 304.75587 110.693343 
L 306.285336 113.145323 
L 307.814801 113.376721 
L 309.344267 107.682862 
L 310.873732 97.546021 
L 312.403198 95.536018 
L 313.932663 111.289721 
L 315.462129 113.062142 
L 316.991594 105.158234 
L 318.52106 112.962979 
L 320.050525 111.121732 
L 321.579991 100.8715 
L 323.109456 112.388856 
L 324.638922 100.452985 
L 326.168387 111.273647 
L 327.697853 112.279706 
L 329.227318 111.549055 
L 330.756784 99.900987 
L 332.286249 84.125723 
L 333.815715 103.416687 
L 335.34518 112.670124 
L 336.874646 112.923631 
L 338.404111 112.405721 
L 339.933577 112.601983 
L 341.463042 106.633629 
L 342.992508 111.945298 
L 344.521974 104.250001 
L 346.051439 112.595771 
L 347.580905 108.842979 
L 349.11037 111.996168 
L 350.639836 111.83871 
L 352.169301 111.970958 
L 353.698767 112.386837 
L 355.228232 112.658052 
L 356.757698 110.207012 
L 358.287163 112.007306 
L 359.816629 112.60217 
L 361.346094 111.112502 
L 362.87556 112.507115 
L 364.405025 106.69606 
L 365.934491 108.589661 
L 367.463956 110.848333 
L 368.993422 110.950887 
L 370.522887 92.27091 
L 372.052353 112.02901 
L 373.581818 110.003883 
L 373.581818 110.003883 
" style="fill:none;stroke:#008000;stroke-dasharray:9.6,2.4,1.5,2.4;stroke-dashoffset:0;stroke-width:1.5;"/>
   </g>
   <g id="line2d_30">
    <path clip-path="url(#p9cc91cd421)" d="M 69.218182 129.486874 
L 78.394975 129.489839 
L 79.92444 119.012016 
L 81.453906 119.280394 
L 82.983371 121.043458 
L 84.512837 119.209082 
L 86.042302 118.974182 
L 87.571768 117.682372 
L 89.101233 117.321821 
L 90.630699 117.151001 
L 92.160164 117.39291 
L 93.68963 116.789007 
L 96.748561 117.129664 
L 98.278026 116.682592 
L 99.807492 114.539822 
L 101.336958 116.538172 
L 102.866423 115.878101 
L 104.395889 115.403586 
L 105.925354 115.503643 
L 107.45482 116.079114 
L 108.984285 113.008767 
L 110.513751 112.978485 
L 112.043216 115.024802 
L 113.572682 112.66948 
L 115.102147 113.082682 
L 116.631613 114.690291 
L 118.161078 113.477339 
L 119.690544 114.077518 
L 121.220009 112.386439 
L 122.749475 112.961025 
L 124.27894 113.062742 
L 125.808406 113.932791 
L 127.337871 113.342554 
L 131.926268 112.59304 
L 133.455733 112.676011 
L 134.985199 112.919407 
L 136.514664 112.195652 
L 138.04413 113.147791 
L 139.573595 113.412315 
L 141.103061 113.389462 
L 142.632526 112.275719 
L 144.161992 112.690118 
L 145.691457 112.039512 
L 147.220923 113.211939 
L 150.279854 112.416255 
L 151.809319 114.042785 
L 153.338785 112.519009 
L 154.86825 112.851511 
L 156.397716 109.922384 
L 157.927181 112.474577 
L 159.456647 112.633263 
L 160.986112 111.950029 
L 162.515578 112.95034 
L 164.045043 112.622114 
L 165.574509 111.248883 
L 167.103974 110.283613 
L 168.63344 112.670574 
L 170.162905 111.665551 
L 171.692371 112.500038 
L 173.221836 112.364825 
L 174.751302 112.054392 
L 176.280767 110.101383 
L 177.810233 112.244008 
L 179.339698 110.031553 
L 180.869164 112.434861 
L 182.39863 110.818914 
L 183.928095 113.443957 
L 185.457561 110.871258 
L 186.987026 111.986817 
L 188.516492 112.524673 
L 190.045957 112.496917 
L 191.575423 111.282606 
L 193.104888 111.425585 
L 194.634354 110.05255 
L 196.163819 110.811437 
L 197.693285 109.715503 
L 199.22275 113.017198 
L 200.752216 113.308581 
L 202.281681 112.152604 
L 203.811147 110.222787 
L 205.340612 113.533568 
L 206.870078 113.234852 
L 208.399543 110.787224 
L 209.929009 113.605621 
L 211.458474 112.374598 
L 212.98794 112.213727 
L 214.517405 112.399727 
L 216.046871 111.140856 
L 217.576336 110.317082 
L 219.105802 112.446533 
L 220.635267 112.247572 
L 222.164733 111.656674 
L 223.694198 112.187271 
L 225.223664 111.778591 
L 226.753129 112.105628 
L 228.282595 112.064091 
L 229.81206 112.613329 
L 231.341526 111.759171 
L 232.870991 110.427345 
L 234.400457 112.604417 
L 235.929922 112.150922 
L 237.459388 112.165023 
L 238.988853 111.112945 
L 240.518319 111.061906 
L 242.047784 112.173618 
L 243.57725 112.212568 
L 248.165646 110.934523 
L 249.695112 112.293159 
L 251.224577 111.820941 
L 252.754043 112.710933 
L 254.283508 111.892775 
L 255.812974 111.290398 
L 257.342439 110.897975 
L 258.871905 111.770536 
L 260.40137 111.618441 
L 261.930836 112.409568 
L 264.989767 112.347763 
L 266.519233 111.145519 
L 268.048698 112.500886 
L 269.578164 111.681 
L 271.107629 109.088964 
L 272.637095 111.174047 
L 274.16656 110.057262 
L 275.696026 111.444274 
L 277.225491 111.699546 
L 278.754957 111.14213 
L 280.284422 111.529362 
L 281.813888 110.536194 
L 283.343353 111.160871 
L 284.872819 110.987543 
L 286.402284 112.704483 
L 287.93175 110.740987 
L 289.461215 112.194301 
L 292.520146 107.456468 
L 294.049612 106.398088 
L 295.579077 107.585234 
L 297.108543 110.644477 
L 298.638008 108.1604 
L 300.167474 110.624065 
L 301.696939 110.67436 
L 303.226405 105.883866 
L 304.75587 111.383974 
L 306.285336 110.423791 
L 307.814801 105.294008 
L 309.344267 111.611917 
L 310.873732 107.759153 
L 312.403198 108.252067 
L 313.932663 110.8786 
L 315.462129 110.29418 
L 316.991594 107.833674 
L 318.52106 109.780318 
L 320.050525 110.169979 
L 321.579991 109.007496 
L 323.109456 102.24331 
L 324.638922 109.756491 
L 326.168387 109.087314 
L 327.697853 105.125263 
L 329.227318 110.383027 
L 330.756784 108.692191 
L 332.286249 104.608275 
L 333.815715 108.09767 
L 335.34518 107.643983 
L 336.874646 110.341781 
L 338.404111 106.843397 
L 339.933577 108.342187 
L 341.463042 106.526282 
L 342.992508 108.699477 
L 344.521974 104.640037 
L 346.051439 106.229627 
L 347.580905 105.92452 
L 349.11037 108.582062 
L 350.639836 108.273105 
L 352.169301 106.311666 
L 353.698767 105.001788 
L 355.228232 107.59105 
L 356.757698 107.153363 
L 358.287163 108.715057 
L 361.346094 105.442052 
L 362.87556 104.3012 
L 364.405025 106.321301 
L 365.934491 109.122611 
L 367.463956 105.89608 
L 368.993422 107.571913 
L 370.522887 104.901563 
L 372.052353 105.688779 
L 373.581818 108.622459 
L 373.581818 108.622459 
" style="fill:none;stroke:#ff0000;stroke-linecap:square;stroke-width:1.5;"/>
   </g>
   <g id="patch_3">
    <path d="M 54 252 
L 54 34.56 
" style="fill:none;stroke:#000000;stroke-linecap:square;stroke-linejoin:miter;stroke-width:0.8;"/>
   </g>
   <g id="patch_4">
    <path d="M 388.8 252 
L 388.8 34.56 
" style="fill:none;stroke:#000000;stroke-linecap:square;stroke-linejoin:miter;stroke-width:0.8;"/>
   </g>
   <g id="patch_5">
    <path d="M 54 252 
L 388.8 252 
" style="fill:none;stroke:#000000;stroke-linecap:square;stroke-linejoin:miter;stroke-width:0.8;"/>
   </g>
   <g id="patch_6">
    <path d="M 54 34.56 
L 388.8 34.56 
" style="fill:none;stroke:#000000;stroke-linecap:square;stroke-linejoin:miter;stroke-width:0.8;"/>
   </g>
   <g id="text_16">
    <!-- Population's average and best fitness -->
    <defs>
     <path d="M 19.671875 64.796875 
L 19.671875 37.40625 
L 32.078125 37.40625 
Q 38.96875 37.40625 42.71875 40.96875 
Q 46.484375 44.53125 46.484375 51.125 
Q 46.484375 57.671875 42.71875 61.234375 
Q 38.96875 64.796875 32.078125 64.796875 
z
M 9.8125 72.90625 
L 32.078125 72.90625 
Q 44.34375 72.90625 50.609375 67.359375 
Q 56.890625 61.8125 56.890625 51.125 
Q 56.890625 40.328125 50.609375 34.8125 
Q 44.34375 29.296875 32.078125 29.296875 
L 19.671875 29.296875 
L 19.671875 0 
L 9.8125 0 
z
" id="DejaVuSans-80"/>
     <path d="M 18.109375 8.203125 
L 18.109375 -20.796875 
L 9.078125 -20.796875 
L 9.078125 54.6875 
L 18.109375 54.6875 
L 18.109375 46.390625 
Q 20.953125 51.265625 25.265625 53.625 
Q 29.59375 56 35.59375 56 
Q 45.5625 56 51.78125 48.09375 
Q 58.015625 40.1875 58.015625 27.296875 
Q 58.015625 14.40625 51.78125 6.484375 
Q 45.5625 -1.421875 35.59375 -1.421875 
Q 29.59375 -1.421875 25.265625 0.953125 
Q 20.953125 3.328125 18.109375 8.203125 
z
M 48.6875 27.296875 
Q 48.6875 37.203125 44.609375 42.84375 
Q 40.53125 48.484375 33.40625 48.484375 
Q 26.265625 48.484375 22.1875 42.84375 
Q 18.109375 37.203125 18.109375 27.296875 
Q 18.109375 17.390625 22.1875 11.75 
Q 26.265625 6.109375 33.40625 6.109375 
Q 40.53125 6.109375 44.609375 11.75 
Q 48.6875 17.390625 48.6875 27.296875 
z
" id="DejaVuSans-112"/>
     <path d="M 8.5 21.578125 
L 8.5 54.6875 
L 17.484375 54.6875 
L 17.484375 21.921875 
Q 17.484375 14.15625 20.5 10.265625 
Q 23.53125 6.390625 29.59375 6.390625 
Q 36.859375 6.390625 41.078125 11.03125 
Q 45.3125 15.671875 45.3125 23.6875 
L 45.3125 54.6875 
L 54.296875 54.6875 
L 54.296875 0 
L 45.3125 0 
L 45.3125 8.40625 
Q 42.046875 3.421875 37.71875 1 
Q 33.40625 -1.421875 27.6875 -1.421875 
Q 18.265625 -1.421875 13.375 4.4375 
Q 8.5 10.296875 8.5 21.578125 
z
M 31.109375 56 
z
" id="DejaVuSans-117"/>
     <path d="M 9.421875 75.984375 
L 18.40625 75.984375 
L 18.40625 0 
L 9.421875 0 
z
" id="DejaVuSans-108"/>
     <path d="M 17.921875 72.90625 
L 17.921875 45.796875 
L 9.625 45.796875 
L 9.625 72.90625 
z
" id="DejaVuSans-39"/>
     <path id="DejaVuSans-32"/>
     <path d="M 2.984375 54.6875 
L 12.5 54.6875 
L 29.59375 8.796875 
L 46.6875 54.6875 
L 56.203125 54.6875 
L 35.6875 0 
L 23.484375 0 
z
" id="DejaVuSans-118"/>
     <path d="M 45.40625 27.984375 
Q 45.40625 37.75 41.375 43.109375 
Q 37.359375 48.484375 30.078125 48.484375 
Q 22.859375 48.484375 18.828125 43.109375 
Q 14.796875 37.75 14.796875 27.984375 
Q 14.796875 18.265625 18.828125 12.890625 
Q 22.859375 7.515625 30.078125 7.515625 
Q 37.359375 7.515625 41.375 12.890625 
Q 45.40625 18.265625 45.40625 27.984375 
z
M 54.390625 6.78125 
Q 54.390625 -7.171875 48.1875 -13.984375 
Q 42 -20.796875 29.203125 -20.796875 
Q 24.46875 -20.796875 20.265625 -20.09375 
Q 16.0625 -19.390625 12.109375 -17.921875 
L 12.109375 -9.1875 
Q 16.0625 -11.328125 19.921875 -12.34375 
Q 23.78125 -13.375 27.78125 -13.375 
Q 36.625 -13.375 41.015625 -8.765625 
Q 45.40625 -4.15625 45.40625 5.171875 
L 45.40625 9.625 
Q 42.625 4.78125 38.28125 2.390625 
Q 33.9375 0 27.875 0 
Q 17.828125 0 11.671875 7.65625 
Q 5.515625 15.328125 5.515625 27.984375 
Q 5.515625 40.671875 11.671875 48.328125 
Q 17.828125 56 27.875 56 
Q 33.9375 56 38.28125 53.609375 
Q 42.625 51.21875 45.40625 46.390625 
L 45.40625 54.6875 
L 54.390625 54.6875 
z
" id="DejaVuSans-103"/>
     <path d="M 45.40625 46.390625 
L 45.40625 75.984375 
L 54.390625 75.984375 
L 54.390625 0 
L 45.40625 0 
L 45.40625 8.203125 
Q 42.578125 3.328125 38.25 0.953125 
Q 33.9375 -1.421875 27.875 -1.421875 
Q 17.96875 -1.421875 11.734375 6.484375 
Q 5.515625 14.40625 5.515625 27.296875 
Q 5.515625 40.1875 11.734375 48.09375 
Q 17.96875 56 27.875 56 
Q 33.9375 56 38.25 53.625 
Q 42.578125 51.265625 45.40625 46.390625 
z
M 14.796875 27.296875 
Q 14.796875 17.390625 18.875 11.75 
Q 22.953125 6.109375 30.078125 6.109375 
Q 37.203125 6.109375 41.296875 11.75 
Q 45.40625 17.390625 45.40625 27.296875 
Q 45.40625 37.203125 41.296875 42.84375 
Q 37.203125 48.484375 30.078125 48.484375 
Q 22.953125 48.484375 18.875 42.84375 
Q 14.796875 37.203125 14.796875 27.296875 
z
" id="DejaVuSans-100"/>
     <path d="M 48.6875 27.296875 
Q 48.6875 37.203125 44.609375 42.84375 
Q 40.53125 48.484375 33.40625 48.484375 
Q 26.265625 48.484375 22.1875 42.84375 
Q 18.109375 37.203125 18.109375 27.296875 
Q 18.109375 17.390625 22.1875 11.75 
Q 26.265625 6.109375 33.40625 6.109375 
Q 40.53125 6.109375 44.609375 11.75 
Q 48.6875 17.390625 48.6875 27.296875 
z
M 18.109375 46.390625 
Q 20.953125 51.265625 25.265625 53.625 
Q 29.59375 56 35.59375 56 
Q 45.5625 56 51.78125 48.09375 
Q 58.015625 40.1875 58.015625 27.296875 
Q 58.015625 14.40625 51.78125 6.484375 
Q 45.5625 -1.421875 35.59375 -1.421875 
Q 29.59375 -1.421875 25.265625 0.953125 
Q 20.953125 3.328125 18.109375 8.203125 
L 18.109375 0 
L 9.078125 0 
L 9.078125 75.984375 
L 18.109375 75.984375 
z
" id="DejaVuSans-98"/>
     <path d="M 37.109375 75.984375 
L 37.109375 68.5 
L 28.515625 68.5 
Q 23.6875 68.5 21.796875 66.546875 
Q 19.921875 64.59375 19.921875 59.515625 
L 19.921875 54.6875 
L 34.71875 54.6875 
L 34.71875 47.703125 
L 19.921875 47.703125 
L 19.921875 0 
L 10.890625 0 
L 10.890625 47.703125 
L 2.296875 47.703125 
L 2.296875 54.6875 
L 10.890625 54.6875 
L 10.890625 58.5 
Q 10.890625 67.625 15.140625 71.796875 
Q 19.390625 75.984375 28.609375 75.984375 
z
" id="DejaVuSans-102"/>
    </defs>
    <g transform="translate(108.555 28.56)scale(0.12 -0.12)">
     <use xlink:href="#DejaVuSans-80"/>
     <use x="60.255859" xlink:href="#DejaVuSans-111"/>
     <use x="121.4375" xlink:href="#DejaVuSans-112"/>
     <use x="184.914062" xlink:href="#DejaVuSans-117"/>
     <use x="248.292969" xlink:href="#DejaVuSans-108"/>
     <use x="276.076172" xlink:href="#DejaVuSans-97"/>
     <use x="337.355469" xlink:href="#DejaVuSans-116"/>
     <use x="376.564453" xlink:href="#DejaVuSans-105"/>
     <use x="404.347656" xlink:href="#DejaVuSans-111"/>
     <use x="465.529297" xlink:href="#DejaVuSans-110"/>
     <use x="528.908203" xlink:href="#DejaVuSans-39"/>
     <use x="556.398438" xlink:href="#DejaVuSans-115"/>
     <use x="608.498047" xlink:href="#DejaVuSans-32"/>
     <use x="640.285156" xlink:href="#DejaVuSans-97"/>
     <use x="701.564453" xlink:href="#DejaVuSans-118"/>
     <use x="760.744141" xlink:href="#DejaVuSans-101"/>
     <use x="822.267578" xlink:href="#DejaVuSans-114"/>
     <use x="863.380859" xlink:href="#DejaVuSans-97"/>
     <use x="924.660156" xlink:href="#DejaVuSans-103"/>
     <use x="988.136719" xlink:href="#DejaVuSans-101"/>
     <use x="1049.660156" xlink:href="#DejaVuSans-32"/>
     <use x="1081.447266" xlink:href="#DejaVuSans-97"/>
     <use x="1142.726562" xlink:href="#DejaVuSans-110"/>
     <use x="1206.105469" xlink:href="#DejaVuSans-100"/>
     <use x="1269.582031" xlink:href="#DejaVuSans-32"/>
     <use x="1301.369141" xlink:href="#DejaVuSans-98"/>
     <use x="1364.845703" xlink:href="#DejaVuSans-101"/>
     <use x="1426.369141" xlink:href="#DejaVuSans-115"/>
     <use x="1478.46875" xlink:href="#DejaVuSans-116"/>
     <use x="1517.677734" xlink:href="#DejaVuSans-32"/>
     <use x="1549.464844" xlink:href="#DejaVuSans-102"/>
     <use x="1584.669922" xlink:href="#DejaVuSans-105"/>
     <use x="1612.453125" xlink:href="#DejaVuSans-116"/>
     <use x="1651.662109" xlink:href="#DejaVuSans-110"/>
     <use x="1715.041016" xlink:href="#DejaVuSans-101"/>
     <use x="1776.564453" xlink:href="#DejaVuSans-115"/>
     <use x="1828.664062" xlink:href="#DejaVuSans-115"/>
    </g>
   </g>
   <g id="legend_1">
    <g id="patch_7">
     <path d="M 308.859375 247 
L 381.8 247 
Q 383.8 247 383.8 245 
L 383.8 187.2875 
Q 383.8 185.2875 381.8 185.2875 
L 308.859375 185.2875 
Q 306.859375 185.2875 306.859375 187.2875 
L 306.859375 245 
Q 306.859375 247 308.859375 247 
z
" style="fill:#ffffff;opacity:0.8;stroke:#cccccc;stroke-linejoin:miter;"/>
    </g>
    <g id="line2d_31">
     <path d="M 310.859375 193.385938 
L 330.859375 193.385938 
" style="fill:none;stroke:#0000ff;stroke-linecap:square;stroke-width:1.5;"/>
    </g>
    <g id="line2d_32"/>
    <g id="text_17">
     <!-- average -->
     <g transform="translate(338.859375 196.885938)scale(0.1 -0.1)">
      <use xlink:href="#DejaVuSans-97"/>
      <use x="61.279297" xlink:href="#DejaVuSans-118"/>
      <use x="120.458984" xlink:href="#DejaVuSans-101"/>
      <use x="181.982422" xlink:href="#DejaVuSans-114"/>
      <use x="223.095703" xlink:href="#DejaVuSans-97"/>
      <use x="284.375" xlink:href="#DejaVuSans-103"/>
      <use x="347.851562" xlink:href="#DejaVuSans-101"/>
     </g>
    </g>
    <g id="line2d_33">
     <path d="M 310.859375 208.064063 
L 330.859375 208.064063 
" style="fill:none;stroke:#008000;stroke-dasharray:9.6,2.4,1.5,2.4;stroke-dashoffset:0;stroke-width:1.5;"/>
    </g>
    <g id="line2d_34"/>
    <g id="text_18">
     <!-- -1 sd -->
     <defs>
      <path d="M 4.890625 31.390625 
L 31.203125 31.390625 
L 31.203125 23.390625 
L 4.890625 23.390625 
z
" id="DejaVuSans-45"/>
     </defs>
     <g transform="translate(338.859375 211.564063)scale(0.1 -0.1)">
      <use xlink:href="#DejaVuSans-45"/>
      <use x="36.083984" xlink:href="#DejaVuSans-49"/>
      <use x="99.707031" xlink:href="#DejaVuSans-32"/>
      <use x="131.494141" xlink:href="#DejaVuSans-115"/>
      <use x="183.59375" xlink:href="#DejaVuSans-100"/>
     </g>
    </g>
    <g id="line2d_35">
     <path d="M 310.859375 222.742188 
L 330.859375 222.742188 
" style="fill:none;stroke:#008000;stroke-dasharray:9.6,2.4,1.5,2.4;stroke-dashoffset:0;stroke-width:1.5;"/>
    </g>
    <g id="line2d_36"/>
    <g id="text_19">
     <!-- +1 sd -->
     <defs>
      <path d="M 46 62.703125 
L 46 35.5 
L 73.1875 35.5 
L 73.1875 27.203125 
L 46 27.203125 
L 46 0 
L 37.796875 0 
L 37.796875 27.203125 
L 10.59375 27.203125 
L 10.59375 35.5 
L 37.796875 35.5 
L 37.796875 62.703125 
z
" id="DejaVuSans-43"/>
     </defs>
     <g transform="translate(338.859375 226.242188)scale(0.1 -0.1)">
      <use xlink:href="#DejaVuSans-43"/>
      <use x="83.789062" xlink:href="#DejaVuSans-49"/>
      <use x="147.412109" xlink:href="#DejaVuSans-32"/>
      <use x="179.199219" xlink:href="#DejaVuSans-115"/>
      <use x="231.298828" xlink:href="#DejaVuSans-100"/>
     </g>
    </g>
    <g id="line2d_37">
     <path d="M 310.859375 237.420312 
L 330.859375 237.420312 
" style="fill:none;stroke:#ff0000;stroke-linecap:square;stroke-width:1.5;"/>
    </g>
    <g id="line2d_38"/>
    <g id="text_20">
     <!-- best -->
     <g transform="translate(338.859375 240.920312)scale(0.1 -0.1)">
      <use xlink:href="#DejaVuSans-98"/>
      <use x="63.476562" xlink:href="#DejaVuSans-101"/>
      <use x="125" xlink:href="#DejaVuSans-115"/>
      <use x="177.099609" xlink:href="#DejaVuSans-116"/>
     </g>
    </g>
   </g>
  </g>
 </g>
 <defs>
  <clipPath id="p9cc91cd421">
   <rect height="217.44" width="334.8" x="54" y="34.56"/>
  </clipPath>
 </defs>
</svg>
