<?xml version="1.0" encoding="utf-8" standalone="no"?>
<!DOCTYPE svg PUBLIC "-//W3C//DTD SVG 1.1//EN"
  "http://www.w3.org/Graphics/SVG/1.1/DTD/svg11.dtd">
<!-- Created with matplotlib (https://matplotlib.org/) -->
<svg height="288pt" version="1.1" viewBox="0 0 432 288" width="432pt" xmlns="http://www.w3.org/2000/svg" xmlns:xlink="http://www.w3.org/1999/xlink">
 <defs>
  <style type="text/css">
*{stroke-linecap:butt;stroke-linejoin:round;}
  </style>
 </defs>
 <g id="figure_1">
  <g id="patch_1">
   <path d="M 0 288 
L 432 288 
L 432 0 
L 0 0 
z
" style="fill:#ffffff;"/>
  </g>
  <g id="axes_1">
   <g id="patch_2">
    <path d="M 54 252 
L 388.8 252 
L 388.8 34.56 
L 54 34.56 
z
" style="fill:#ffffff;"/>
   </g>
   <g id="matplotlib.axis_1">
    <g id="xtick_1">
     <g id="line2d_1">
      <path clip-path="url(#p1162d3fc69)" d="M 69.218182 252 
L 69.218182 34.56 
" style="fill:none;stroke:#b0b0b0;stroke-linecap:square;stroke-width:0.8;"/>
     </g>
     <g id="line2d_2">
      <defs>
       <path d="M 0 0 
L 0 3.5 
" id="m182e68d89c" style="stroke:#000000;stroke-width:0.8;"/>
      </defs>
      <g>
       <use style="stroke:#000000;stroke-width:0.8;" x="69.218182" xlink:href="#m182e68d89c" y="252"/>
      </g>
     </g>
     <g id="text_1">
      <!-- 0 -->
      <defs>
       <path d="M 31.78125 66.40625 
Q 24.171875 66.40625 20.328125 58.90625 
Q 16.5 51.421875 16.5 36.375 
Q 16.5 21.390625 20.328125 13.890625 
Q 24.171875 6.390625 31.78125 6.390625 
Q 39.453125 6.390625 43.28125 13.890625 
Q 47.125 21.390625 47.125 36.375 
Q 47.125 51.421875 43.28125 58.90625 
Q 39.453125 66.40625 31.78125 66.40625 
z
M 31.78125 74.21875 
Q 44.046875 74.21875 50.515625 64.515625 
Q 56.984375 54.828125 56.984375 36.375 
Q 56.984375 17.96875 50.515625 8.265625 
Q 44.046875 -1.421875 31.78125 -1.421875 
Q 19.53125 -1.421875 13.0625 8.265625 
Q 6.59375 17.96875 6.59375 36.375 
Q 6.59375 54.828125 13.0625 64.515625 
Q 19.53125 74.21875 31.78125 74.21875 
z
" id="DejaVuSans-48"/>
      </defs>
      <g transform="translate(66.036932 266.598437)scale(0.1 -0.1)">
       <use xlink:href="#DejaVuSans-48"/>
      </g>
     </g>
    </g>
    <g id="xtick_2">
     <g id="line2d_3">
      <path clip-path="url(#p1162d3fc69)" d="M 107.45482 252 
L 107.45482 34.56 
" style="fill:none;stroke:#b0b0b0;stroke-linecap:square;stroke-width:0.8;"/>
     </g>
     <g id="line2d_4">
      <g>
       <use style="stroke:#000000;stroke-width:0.8;" x="107.45482" xlink:href="#m182e68d89c" y="252"/>
      </g>
     </g>
     <g id="text_2">
      <!-- 25 -->
      <defs>
       <path d="M 19.1875 8.296875 
L 53.609375 8.296875 
L 53.609375 0 
L 7.328125 0 
L 7.328125 8.296875 
Q 12.9375 14.109375 22.625 23.890625 
Q 32.328125 33.6875 34.8125 36.53125 
Q 39.546875 41.84375 41.421875 45.53125 
Q 43.3125 49.21875 43.3125 52.78125 
Q 43.3125 58.59375 39.234375 62.25 
Q 35.15625 65.921875 28.609375 65.921875 
Q 23.96875 65.921875 18.8125 64.3125 
Q 13.671875 62.703125 7.8125 59.421875 
L 7.8125 69.390625 
Q 13.765625 71.78125 18.9375 73 
Q 24.125 74.21875 28.421875 74.21875 
Q 39.75 74.21875 46.484375 68.546875 
Q 53.21875 62.890625 53.21875 53.421875 
Q 53.21875 48.921875 51.53125 44.890625 
Q 49.859375 40.875 45.40625 35.40625 
Q 44.1875 33.984375 37.640625 27.21875 
Q 31.109375 20.453125 19.1875 8.296875 
z
" id="DejaVuSans-50"/>
       <path d="M 10.796875 72.90625 
L 49.515625 72.90625 
L 49.515625 64.59375 
L 19.828125 64.59375 
L 19.828125 46.734375 
Q 21.96875 47.46875 24.109375 47.828125 
Q 26.265625 48.1875 28.421875 48.1875 
Q 40.625 48.1875 47.75 41.5 
Q 54.890625 34.8125 54.890625 23.390625 
Q 54.890625 11.625 47.5625 5.09375 
Q 40.234375 -1.421875 26.90625 -1.421875 
Q 22.3125 -1.421875 17.546875 -0.640625 
Q 12.796875 0.140625 7.71875 1.703125 
L 7.71875 11.625 
Q 12.109375 9.234375 16.796875 8.0625 
Q 21.484375 6.890625 26.703125 6.890625 
Q 35.15625 6.890625 40.078125 11.328125 
Q 45.015625 15.765625 45.015625 23.390625 
Q 45.015625 31 40.078125 35.4375 
Q 35.15625 39.890625 26.703125 39.890625 
Q 22.75 39.890625 18.8125 39.015625 
Q 14.890625 38.140625 10.796875 36.28125 
z
" id="DejaVuSans-53"/>
      </defs>
      <g transform="translate(101.09232 266.598437)scale(0.1 -0.1)">
       <use xlink:href="#DejaVuSans-50"/>
       <use x="63.623047" xlink:href="#DejaVuSans-53"/>
      </g>
     </g>
    </g>
    <g id="xtick_3">
     <g id="line2d_5">
      <path clip-path="url(#p1162d3fc69)" d="M 145.691457 252 
L 145.691457 34.56 
" style="fill:none;stroke:#b0b0b0;stroke-linecap:square;stroke-width:0.8;"/>
     </g>
     <g id="line2d_6">
      <g>
       <use style="stroke:#000000;stroke-width:0.8;" x="145.691457" xlink:href="#m182e68d89c" y="252"/>
      </g>
     </g>
     <g id="text_3">
      <!-- 50 -->
      <g transform="translate(139.328957 266.598437)scale(0.1 -0.1)">
       <use xlink:href="#DejaVuSans-53"/>
       <use x="63.623047" xlink:href="#DejaVuSans-48"/>
      </g>
     </g>
    </g>
    <g id="xtick_4">
     <g id="line2d_7">
      <path clip-path="url(#p1162d3fc69)" d="M 183.928095 252 
L 183.928095 34.56 
" style="fill:none;stroke:#b0b0b0;stroke-linecap:square;stroke-width:0.8;"/>
     </g>
     <g id="line2d_8">
      <g>
       <use style="stroke:#000000;stroke-width:0.8;" x="183.928095" xlink:href="#m182e68d89c" y="252"/>
      </g>
     </g>
     <g id="text_4">
      <!-- 75 -->
      <defs>
       <path d="M 8.203125 72.90625 
L 55.078125 72.90625 
L 55.078125 68.703125 
L 28.609375 0 
L 18.3125 0 
L 43.21875 64.59375 
L 8.203125 64.59375 
z
" id="DejaVuSans-55"/>
      </defs>
      <g transform="translate(177.565595 266.598437)scale(0.1 -0.1)">
       <use xlink:href="#DejaVuSans-55"/>
       <use x="63.623047" xlink:href="#DejaVuSans-53"/>
      </g>
     </g>
    </g>
    <g id="xtick_5">
     <g id="line2d_9">
      <path clip-path="url(#p1162d3fc69)" d="M 222.164733 252 
L 222.164733 34.56 
" style="fill:none;stroke:#b0b0b0;stroke-linecap:square;stroke-width:0.8;"/>
     </g>
     <g id="line2d_10">
      <g>
       <use style="stroke:#000000;stroke-width:0.8;" x="222.164733" xlink:href="#m182e68d89c" y="252"/>
      </g>
     </g>
     <g id="text_5">
      <!-- 100 -->
      <defs>
       <path d="M 12.40625 8.296875 
L 28.515625 8.296875 
L 28.515625 63.921875 
L 10.984375 60.40625 
L 10.984375 69.390625 
L 28.421875 72.90625 
L 38.28125 72.90625 
L 38.28125 8.296875 
L 54.390625 8.296875 
L 54.390625 0 
L 12.40625 0 
z
" id="DejaVuSans-49"/>
      </defs>
      <g transform="translate(212.620983 266.598437)scale(0.1 -0.1)">
       <use xlink:href="#DejaVuSans-49"/>
       <use x="63.623047" xlink:href="#DejaVuSans-48"/>
       <use x="127.246094" xlink:href="#DejaVuSans-48"/>
      </g>
     </g>
    </g>
    <g id="xtick_6">
     <g id="line2d_11">
      <path clip-path="url(#p1162d3fc69)" d="M 260.40137 252 
L 260.40137 34.56 
" style="fill:none;stroke:#b0b0b0;stroke-linecap:square;stroke-width:0.8;"/>
     </g>
     <g id="line2d_12">
      <g>
       <use style="stroke:#000000;stroke-width:0.8;" x="260.40137" xlink:href="#m182e68d89c" y="252"/>
      </g>
     </g>
     <g id="text_6">
      <!-- 125 -->
      <g transform="translate(250.85762 266.598437)scale(0.1 -0.1)">
       <use xlink:href="#DejaVuSans-49"/>
       <use x="63.623047" xlink:href="#DejaVuSans-50"/>
       <use x="127.246094" xlink:href="#DejaVuSans-53"/>
      </g>
     </g>
    </g>
    <g id="xtick_7">
     <g id="line2d_13">
      <path clip-path="url(#p1162d3fc69)" d="M 298.638008 252 
L 298.638008 34.56 
" style="fill:none;stroke:#b0b0b0;stroke-linecap:square;stroke-width:0.8;"/>
     </g>
     <g id="line2d_14">
      <g>
       <use style="stroke:#000000;stroke-width:0.8;" x="298.638008" xlink:href="#m182e68d89c" y="252"/>
      </g>
     </g>
     <g id="text_7">
      <!-- 150 -->
      <g transform="translate(289.094258 266.598437)scale(0.1 -0.1)">
       <use xlink:href="#DejaVuSans-49"/>
       <use x="63.623047" xlink:href="#DejaVuSans-53"/>
       <use x="127.246094" xlink:href="#DejaVuSans-48"/>
      </g>
     </g>
    </g>
    <g id="xtick_8">
     <g id="line2d_15">
      <path clip-path="url(#p1162d3fc69)" d="M 336.874646 252 
L 336.874646 34.56 
" style="fill:none;stroke:#b0b0b0;stroke-linecap:square;stroke-width:0.8;"/>
     </g>
     <g id="line2d_16">
      <g>
       <use style="stroke:#000000;stroke-width:0.8;" x="336.874646" xlink:href="#m182e68d89c" y="252"/>
      </g>
     </g>
     <g id="text_8">
      <!-- 175 -->
      <g transform="translate(327.330896 266.598437)scale(0.1 -0.1)">
       <use xlink:href="#DejaVuSans-49"/>
       <use x="63.623047" xlink:href="#DejaVuSans-55"/>
       <use x="127.246094" xlink:href="#DejaVuSans-53"/>
      </g>
     </g>
    </g>
    <g id="xtick_9">
     <g id="line2d_17">
      <path clip-path="url(#p1162d3fc69)" d="M 375.111284 252 
L 375.111284 34.56 
" style="fill:none;stroke:#b0b0b0;stroke-linecap:square;stroke-width:0.8;"/>
     </g>
     <g id="line2d_18">
      <g>
       <use style="stroke:#000000;stroke-width:0.8;" x="375.111284" xlink:href="#m182e68d89c" y="252"/>
      </g>
     </g>
     <g id="text_9">
      <!-- 200 -->
      <g transform="translate(365.567534 266.598437)scale(0.1 -0.1)">
       <use xlink:href="#DejaVuSans-50"/>
       <use x="63.623047" xlink:href="#DejaVuSans-48"/>
       <use x="127.246094" xlink:href="#DejaVuSans-48"/>
      </g>
     </g>
    </g>
    <g id="text_10">
     <!-- Generations -->
     <defs>
      <path d="M 59.515625 10.40625 
L 59.515625 29.984375 
L 43.40625 29.984375 
L 43.40625 38.09375 
L 69.28125 38.09375 
L 69.28125 6.78125 
Q 63.578125 2.734375 56.6875 0.65625 
Q 49.8125 -1.421875 42 -1.421875 
Q 24.90625 -1.421875 15.25 8.5625 
Q 5.609375 18.5625 5.609375 36.375 
Q 5.609375 54.25 15.25 64.234375 
Q 24.90625 74.21875 42 74.21875 
Q 49.125 74.21875 55.546875 72.453125 
Q 61.96875 70.703125 67.390625 67.28125 
L 67.390625 56.78125 
Q 61.921875 61.421875 55.765625 63.765625 
Q 49.609375 66.109375 42.828125 66.109375 
Q 29.4375 66.109375 22.71875 58.640625 
Q 16.015625 51.171875 16.015625 36.375 
Q 16.015625 21.625 22.71875 14.15625 
Q 29.4375 6.6875 42.828125 6.6875 
Q 48.046875 6.6875 52.140625 7.59375 
Q 56.25 8.5 59.515625 10.40625 
z
" id="DejaVuSans-71"/>
      <path d="M 56.203125 29.59375 
L 56.203125 25.203125 
L 14.890625 25.203125 
Q 15.484375 15.921875 20.484375 11.0625 
Q 25.484375 6.203125 34.421875 6.203125 
Q 39.59375 6.203125 44.453125 7.46875 
Q 49.3125 8.734375 54.109375 11.28125 
L 54.109375 2.78125 
Q 49.265625 0.734375 44.1875 -0.34375 
Q 39.109375 -1.421875 33.890625 -1.421875 
Q 20.796875 -1.421875 13.15625 6.1875 
Q 5.515625 13.8125 5.515625 26.8125 
Q 5.515625 40.234375 12.765625 48.109375 
Q 20.015625 56 32.328125 56 
Q 43.359375 56 49.78125 48.890625 
Q 56.203125 41.796875 56.203125 29.59375 
z
M 47.21875 32.234375 
Q 47.125 39.59375 43.09375 43.984375 
Q 39.0625 48.390625 32.421875 48.390625 
Q 24.90625 48.390625 20.390625 44.140625 
Q 15.875 39.890625 15.1875 32.171875 
z
" id="DejaVuSans-101"/>
      <path d="M 54.890625 33.015625 
L 54.890625 0 
L 45.90625 0 
L 45.90625 32.71875 
Q 45.90625 40.484375 42.875 44.328125 
Q 39.84375 48.1875 33.796875 48.1875 
Q 26.515625 48.1875 22.3125 43.546875 
Q 18.109375 38.921875 18.109375 30.90625 
L 18.109375 0 
L 9.078125 0 
L 9.078125 54.6875 
L 18.109375 54.6875 
L 18.109375 46.1875 
Q 21.34375 51.125 25.703125 53.5625 
Q 30.078125 56 35.796875 56 
Q 45.21875 56 50.046875 50.171875 
Q 54.890625 44.34375 54.890625 33.015625 
z
" id="DejaVuSans-110"/>
      <path d="M 41.109375 46.296875 
Q 39.59375 47.171875 37.8125 47.578125 
Q 36.03125 48 33.890625 48 
Q 26.265625 48 22.1875 43.046875 
Q 18.109375 38.09375 18.109375 28.8125 
L 18.109375 0 
L 9.078125 0 
L 9.078125 54.6875 
L 18.109375 54.6875 
L 18.109375 46.1875 
Q 20.953125 51.171875 25.484375 53.578125 
Q 30.03125 56 36.53125 56 
Q 37.453125 56 38.578125 55.875 
Q 39.703125 55.765625 41.0625 55.515625 
z
" id="DejaVuSans-114"/>
      <path d="M 34.28125 27.484375 
Q 23.390625 27.484375 19.1875 25 
Q 14.984375 22.515625 14.984375 16.5 
Q 14.984375 11.71875 18.140625 8.90625 
Q 21.296875 6.109375 26.703125 6.109375 
Q 34.1875 6.109375 38.703125 11.40625 
Q 43.21875 16.703125 43.21875 25.484375 
L 43.21875 27.484375 
z
M 52.203125 31.203125 
L 52.203125 0 
L 43.21875 0 
L 43.21875 8.296875 
Q 40.140625 3.328125 35.546875 0.953125 
Q 30.953125 -1.421875 24.3125 -1.421875 
Q 15.921875 -1.421875 10.953125 3.296875 
Q 6 8.015625 6 15.921875 
Q 6 25.140625 12.171875 29.828125 
Q 18.359375 34.515625 30.609375 34.515625 
L 43.21875 34.515625 
L 43.21875 35.40625 
Q 43.21875 41.609375 39.140625 45 
Q 35.0625 48.390625 27.6875 48.390625 
Q 23 48.390625 18.546875 47.265625 
Q 14.109375 46.140625 10.015625 43.890625 
L 10.015625 52.203125 
Q 14.9375 54.109375 19.578125 55.046875 
Q 24.21875 56 28.609375 56 
Q 40.484375 56 46.34375 49.84375 
Q 52.203125 43.703125 52.203125 31.203125 
z
" id="DejaVuSans-97"/>
      <path d="M 18.3125 70.21875 
L 18.3125 54.6875 
L 36.8125 54.6875 
L 36.8125 47.703125 
L 18.3125 47.703125 
L 18.3125 18.015625 
Q 18.3125 11.328125 20.140625 9.421875 
Q 21.96875 7.515625 27.59375 7.515625 
L 36.8125 7.515625 
L 36.8125 0 
L 27.59375 0 
Q 17.1875 0 13.234375 3.875 
Q 9.28125 7.765625 9.28125 18.015625 
L 9.28125 47.703125 
L 2.6875 47.703125 
L 2.6875 54.6875 
L 9.28125 54.6875 
L 9.28125 70.21875 
z
" id="DejaVuSans-116"/>
      <path d="M 9.421875 54.6875 
L 18.40625 54.6875 
L 18.40625 0 
L 9.421875 0 
z
M 9.421875 75.984375 
L 18.40625 75.984375 
L 18.40625 64.59375 
L 9.421875 64.59375 
z
" id="DejaVuSans-105"/>
      <path d="M 30.609375 48.390625 
Q 23.390625 48.390625 19.1875 42.75 
Q 14.984375 37.109375 14.984375 27.296875 
Q 14.984375 17.484375 19.15625 11.84375 
Q 23.34375 6.203125 30.609375 6.203125 
Q 37.796875 6.203125 41.984375 11.859375 
Q 46.1875 17.53125 46.1875 27.296875 
Q 46.1875 37.015625 41.984375 42.703125 
Q 37.796875 48.390625 30.609375 48.390625 
z
M 30.609375 56 
Q 42.328125 56 49.015625 48.375 
Q 55.71875 40.765625 55.71875 27.296875 
Q 55.71875 13.875 49.015625 6.21875 
Q 42.328125 -1.421875 30.609375 -1.421875 
Q 18.84375 -1.421875 12.171875 6.21875 
Q 5.515625 13.875 5.515625 27.296875 
Q 5.515625 40.765625 12.171875 48.375 
Q 18.84375 56 30.609375 56 
z
" id="DejaVuSans-111"/>
      <path d="M 44.28125 53.078125 
L 44.28125 44.578125 
Q 40.484375 46.53125 36.375 47.5 
Q 32.28125 48.484375 27.875 48.484375 
Q 21.1875 48.484375 17.84375 46.4375 
Q 14.5 44.390625 14.5 40.28125 
Q 14.5 37.15625 16.890625 35.375 
Q 19.28125 33.59375 26.515625 31.984375 
L 29.59375 31.296875 
Q 39.15625 29.25 43.1875 25.515625 
Q 47.21875 21.78125 47.21875 15.09375 
Q 47.21875 7.46875 41.1875 3.015625 
Q 35.15625 -1.421875 24.609375 -1.421875 
Q 20.21875 -1.421875 15.453125 -0.5625 
Q 10.6875 0.296875 5.421875 2 
L 5.421875 11.28125 
Q 10.40625 8.6875 15.234375 7.390625 
Q 20.0625 6.109375 24.8125 6.109375 
Q 31.15625 6.109375 34.5625 8.28125 
Q 37.984375 10.453125 37.984375 14.40625 
Q 37.984375 18.0625 35.515625 20.015625 
Q 33.0625 21.96875 24.703125 23.78125 
L 21.578125 24.515625 
Q 13.234375 26.265625 9.515625 29.90625 
Q 5.8125 33.546875 5.8125 39.890625 
Q 5.8125 47.609375 11.28125 51.796875 
Q 16.75 56 26.8125 56 
Q 31.78125 56 36.171875 55.265625 
Q 40.578125 54.546875 44.28125 53.078125 
z
" id="DejaVuSans-115"/>
     </defs>
     <g transform="translate(190.902344 280.276563)scale(0.1 -0.1)">
      <use xlink:href="#DejaVuSans-71"/>
      <use x="77.490234" xlink:href="#DejaVuSans-101"/>
      <use x="139.013672" xlink:href="#DejaVuSans-110"/>
      <use x="202.392578" xlink:href="#DejaVuSans-101"/>
      <use x="263.916016" xlink:href="#DejaVuSans-114"/>
      <use x="305.029297" xlink:href="#DejaVuSans-97"/>
      <use x="366.308594" xlink:href="#DejaVuSans-116"/>
      <use x="405.517578" xlink:href="#DejaVuSans-105"/>
      <use x="433.300781" xlink:href="#DejaVuSans-111"/>
      <use x="494.482422" xlink:href="#DejaVuSans-110"/>
      <use x="557.861328" xlink:href="#DejaVuSans-115"/>
     </g>
    </g>
   </g>
   <g id="matplotlib.axis_2">
    <g id="ytick_1">
     <g id="line2d_19">
      <path clip-path="url(#p1162d3fc69)" d="M 54 211.385324 
L 388.8 211.385324 
" style="fill:none;stroke:#b0b0b0;stroke-linecap:square;stroke-width:0.8;"/>
     </g>
     <g id="line2d_20">
      <defs>
       <path d="M 0 0 
L -3.5 0 
" id="m138c1637ab" style="stroke:#000000;stroke-width:0.8;"/>
      </defs>
      <g>
       <use style="stroke:#000000;stroke-width:0.8;" x="54" xlink:href="#m138c1637ab" y="211.385324"/>
      </g>
     </g>
     <g id="text_11">
      <!-- −1000 -->
      <defs>
       <path d="M 10.59375 35.5 
L 73.1875 35.5 
L 73.1875 27.203125 
L 10.59375 27.203125 
z
" id="DejaVuSans-8722"/>
      </defs>
      <g transform="translate(13.170313 215.184542)scale(0.1 -0.1)">
       <use xlink:href="#DejaVuSans-8722"/>
       <use x="83.789062" xlink:href="#DejaVuSans-49"/>
       <use x="147.412109" xlink:href="#DejaVuSans-48"/>
       <use x="211.035156" xlink:href="#DejaVuSans-48"/>
       <use x="274.658203" xlink:href="#DejaVuSans-48"/>
      </g>
     </g>
    </g>
    <g id="ytick_2">
     <g id="line2d_21">
      <path clip-path="url(#p1162d3fc69)" d="M 54 165.874265 
L 388.8 165.874265 
" style="fill:none;stroke:#b0b0b0;stroke-linecap:square;stroke-width:0.8;"/>
     </g>
     <g id="line2d_22">
      <g>
       <use style="stroke:#000000;stroke-width:0.8;" x="54" xlink:href="#m138c1637ab" y="165.874265"/>
      </g>
     </g>
     <g id="text_12">
      <!-- −500 -->
      <g transform="translate(19.532812 169.673484)scale(0.1 -0.1)">
       <use xlink:href="#DejaVuSans-8722"/>
       <use x="83.789062" xlink:href="#DejaVuSans-53"/>
       <use x="147.412109" xlink:href="#DejaVuSans-48"/>
       <use x="211.035156" xlink:href="#DejaVuSans-48"/>
      </g>
     </g>
    </g>
    <g id="ytick_3">
     <g id="line2d_23">
      <path clip-path="url(#p1162d3fc69)" d="M 54 120.363206 
L 388.8 120.363206 
" style="fill:none;stroke:#b0b0b0;stroke-linecap:square;stroke-width:0.8;"/>
     </g>
     <g id="line2d_24">
      <g>
       <use style="stroke:#000000;stroke-width:0.8;" x="54" xlink:href="#m138c1637ab" y="120.363206"/>
      </g>
     </g>
     <g id="text_13">
      <!-- 0 -->
      <g transform="translate(40.6375 124.162425)scale(0.1 -0.1)">
       <use xlink:href="#DejaVuSans-48"/>
      </g>
     </g>
    </g>
    <g id="ytick_4">
     <g id="line2d_25">
      <path clip-path="url(#p1162d3fc69)" d="M 54 74.852148 
L 388.8 74.852148 
" style="fill:none;stroke:#b0b0b0;stroke-linecap:square;stroke-width:0.8;"/>
     </g>
     <g id="line2d_26">
      <g>
       <use style="stroke:#000000;stroke-width:0.8;" x="54" xlink:href="#m138c1637ab" y="74.852148"/>
      </g>
     </g>
     <g id="text_14">
      <!-- 500 -->
      <g transform="translate(27.9125 78.651366)scale(0.1 -0.1)">
       <use xlink:href="#DejaVuSans-53"/>
       <use x="63.623047" xlink:href="#DejaVuSans-48"/>
       <use x="127.246094" xlink:href="#DejaVuSans-48"/>
      </g>
     </g>
    </g>
    <g id="text_15">
     <!-- Fitness -->
     <defs>
      <path d="M 9.8125 72.90625 
L 51.703125 72.90625 
L 51.703125 64.59375 
L 19.671875 64.59375 
L 19.671875 43.109375 
L 48.578125 43.109375 
L 48.578125 34.8125 
L 19.671875 34.8125 
L 19.671875 0 
L 9.8125 0 
z
" id="DejaVuSans-70"/>
     </defs>
     <g transform="translate(7.090625 160.954219)rotate(-90)scale(0.1 -0.1)">
      <use xlink:href="#DejaVuSans-70"/>
      <use x="57.410156" xlink:href="#DejaVuSans-105"/>
      <use x="85.193359" xlink:href="#DejaVuSans-116"/>
      <use x="124.402344" xlink:href="#DejaVuSans-110"/>
      <use x="187.78125" xlink:href="#DejaVuSans-101"/>
      <use x="249.304688" xlink:href="#DejaVuSans-115"/>
      <use x="301.404297" xlink:href="#DejaVuSans-115"/>
     </g>
    </g>
   </g>
   <g id="line2d_27">
    <path clip-path="url(#p1162d3fc69)" d="M 69.218182 120.387332 
L 70.747647 132.316783 
L 72.277113 136.141003 
L 73.806578 137.576729 
L 75.336044 138.523364 
L 76.865509 140.698187 
L 78.394975 142.22849 
L 79.92444 144.430819 
L 81.453906 143.179382 
L 82.983371 146.503393 
L 84.512837 144.872885 
L 86.042302 145.169239 
L 87.571768 146.25311 
L 89.101233 143.09854 
L 90.630699 142.44094 
L 92.160164 146.823861 
L 93.68963 145.229121 
L 95.219095 143.473459 
L 96.748561 151.955548 
L 98.278026 144.698565 
L 99.807492 143.669948 
L 101.336958 143.284442 
L 102.866423 143.790452 
L 104.395889 141.106685 
L 105.925354 141.284855 
L 107.45482 144.517539 
L 108.984285 139.401258 
L 110.513751 135.691189 
L 112.043216 137.2921 
L 115.102147 136.360568 
L 116.631613 139.735637 
L 118.161078 137.367103 
L 119.690544 133.364563 
L 121.220009 132.363594 
L 122.749475 135.073031 
L 124.27894 135.845325 
L 125.808406 133.708837 
L 127.337871 133.300304 
L 128.867337 134.227404 
L 130.396802 143.28 
L 131.926268 133.590384 
L 133.455733 136.428315 
L 134.985199 133.467276 
L 136.514664 132.362119 
L 138.04413 132.853724 
L 139.573595 132.052779 
L 141.103061 132.553875 
L 142.632526 130.227082 
L 144.161992 132.286848 
L 145.691457 131.324226 
L 147.220923 132.528975 
L 148.750388 131.351276 
L 150.279854 132.631408 
L 151.809319 132.268438 
L 153.338785 132.805606 
L 154.86825 129.941887 
L 156.397716 133.391534 
L 157.927181 130.146576 
L 159.456647 131.618636 
L 160.986112 130.98112 
L 162.515578 132.453217 
L 164.045043 131.809475 
L 165.574509 131.396177 
L 167.103974 132.673276 
L 168.63344 133.535959 
L 170.162905 132.111901 
L 171.692371 131.293118 
L 173.221836 132.019828 
L 174.751302 132.62014 
L 176.280767 131.999053 
L 177.810233 130.973014 
L 179.339698 132.352887 
L 180.869164 133.474157 
L 182.39863 134.954414 
L 183.928095 131.957469 
L 185.457561 130.881472 
L 186.987026 131.399375 
L 188.516492 134.347733 
L 190.045957 132.680406 
L 191.575423 130.475024 
L 193.104888 131.337299 
L 194.634354 130.910276 
L 196.163819 130.651829 
L 197.693285 131.433912 
L 199.22275 133.003922 
L 200.752216 130.366431 
L 203.811147 137.105143 
L 205.340612 133.918397 
L 206.870078 131.827023 
L 208.399543 132.515009 
L 209.929009 134.355489 
L 211.458474 135.910596 
L 212.98794 133.392323 
L 214.517405 135.057098 
L 216.046871 131.950216 
L 217.576336 140.284127 
L 219.105802 133.443024 
L 220.635267 134.937784 
L 222.164733 134.385558 
L 223.694198 134.418052 
L 225.223664 132.111196 
L 226.753129 142.284331 
L 228.282595 131.469767 
L 229.81206 134.354697 
L 231.341526 132.338872 
L 232.870991 133.92235 
L 234.400457 132.402898 
L 235.929922 130.709593 
L 237.459388 132.011824 
L 238.988853 131.42988 
L 240.518319 132.701014 
L 242.047784 132.88068 
L 243.57725 131.183819 
L 245.106715 132.277211 
L 246.636181 130.977325 
L 248.165646 133.411905 
L 249.695112 131.176702 
L 251.224577 132.383022 
L 252.754043 134.176009 
L 254.283508 132.515581 
L 255.812974 130.639222 
L 257.342439 132.239809 
L 258.871905 132.241565 
L 260.40137 135.009733 
L 261.930836 139.921529 
L 263.460302 132.01078 
L 264.989767 130.565191 
L 266.519233 131.838575 
L 268.048698 131.607026 
L 271.107629 132.399234 
L 272.637095 133.087751 
L 274.16656 131.579739 
L 275.696026 131.394961 
L 277.225491 131.481984 
L 278.754957 132.247544 
L 280.284422 131.462419 
L 281.813888 130.89163 
L 283.343353 130.720787 
L 284.872819 131.355605 
L 286.402284 132.303397 
L 287.93175 132.54995 
L 289.461215 130.999357 
L 290.990681 130.679241 
L 292.520146 131.062845 
L 294.049612 132.258549 
L 295.579077 132.392418 
L 297.108543 135.729119 
L 298.638008 134.392847 
L 300.167474 132.735812 
L 301.696939 132.775494 
L 303.226405 136.487622 
L 304.75587 132.771555 
L 306.285336 131.681208 
L 307.814801 134.274805 
L 309.344267 131.233582 
L 310.873732 131.448637 
L 312.403198 131.829147 
L 313.932663 132.68254 
L 315.462129 133.079598 
L 316.991594 132.887905 
L 318.52106 133.59502 
L 320.050525 134.002225 
L 321.579991 132.60005 
L 323.109456 132.131559 
L 324.638922 134.221094 
L 326.168387 135.008104 
L 327.697853 132.275605 
L 329.227318 133.6663 
L 330.756784 131.625047 
L 332.286249 133.703772 
L 333.815715 132.864927 
L 335.34518 136.522124 
L 336.874646 132.399785 
L 338.404111 131.836072 
L 339.933577 131.028982 
L 341.463042 132.430001 
L 342.992508 130.86217 
L 344.521974 131.570306 
L 346.051439 130.786874 
L 347.580905 136.785259 
L 349.11037 131.978027 
L 350.639836 130.688581 
L 352.169301 129.65548 
L 353.698767 130.439659 
L 356.757698 130.472218 
L 358.287163 129.244341 
L 359.816629 128.965553 
L 361.346094 134.602381 
L 362.87556 127.794067 
L 364.405025 126.169408 
L 365.934491 128.482855 
L 367.463956 129.568619 
L 368.993422 127.603809 
L 370.522887 127.041632 
L 372.052353 128.054174 
L 373.581818 131.781495 
L 373.581818 131.781495 
" style="fill:none;stroke:#0000ff;stroke-linecap:square;stroke-width:1.5;"/>
   </g>
   <g id="line2d_28">
    <path clip-path="url(#p1162d3fc69)" d="M 69.218182 120.454962 
L 70.747647 144.024001 
L 72.277113 147.074003 
L 73.806578 149.440469 
L 75.336044 148.408968 
L 76.865509 153.001895 
L 78.394975 159.477046 
L 79.92444 163.90629 
L 81.453906 164.149901 
L 82.983371 186.235504 
L 84.512837 163.311302 
L 86.042302 158.583176 
L 87.571768 165.340617 
L 89.101233 154.478798 
L 90.630699 151.925413 
L 92.160164 176.592807 
L 93.68963 158.750394 
L 95.219095 156.016289 
L 96.748561 214.2761 
L 98.278026 156.218383 
L 99.807492 156.015488 
L 101.336958 156.16768 
L 102.866423 158.308955 
L 104.395889 153.355343 
L 105.925354 154.092172 
L 107.45482 176.236489 
L 108.984285 150.197153 
L 110.513751 144.991856 
L 112.043216 150.635796 
L 113.572682 147.09523 
L 115.102147 148.117315 
L 116.631613 184.453892 
L 118.161078 167.593585 
L 119.690544 143.837994 
L 121.220009 142.49471 
L 122.749475 157.487517 
L 124.27894 167.476903 
L 125.808406 146.145516 
L 127.337871 148.003214 
L 128.867337 150.309888 
L 130.396802 242.116364 
L 131.926268 145.5967 
L 133.455733 173.517752 
L 134.985199 145.523151 
L 136.514664 144.267003 
L 138.04413 145.914355 
L 139.573595 143.766004 
L 141.103061 145.901826 
L 142.632526 141.830273 
L 144.161992 145.059534 
L 145.691457 143.384087 
L 147.220923 146.409149 
L 148.750388 146.000627 
L 150.279854 146.246828 
L 151.809319 150.661647 
L 153.338785 145.712222 
L 154.86825 142.462316 
L 156.397716 160.585153 
L 157.927181 143.053015 
L 159.456647 145.299581 
L 160.986112 145.28373 
L 162.515578 145.955727 
L 164.045043 147.696985 
L 165.574509 144.619907 
L 167.103974 148.743783 
L 168.63344 147.91251 
L 170.162905 145.925232 
L 171.692371 144.241208 
L 173.221836 145.571089 
L 174.751302 151.886649 
L 176.280767 145.341374 
L 177.810233 144.341743 
L 179.339698 145.998306 
L 180.869164 154.037729 
L 182.39863 165.064846 
L 183.928095 145.360604 
L 185.457561 143.375048 
L 186.987026 144.601396 
L 188.516492 151.287677 
L 190.045957 147.025424 
L 191.575423 143.755372 
L 193.104888 145.381725 
L 194.634354 144.392336 
L 197.693285 144.871817 
L 199.22275 146.934812 
L 200.752216 146.29504 
L 202.281681 148.270242 
L 203.811147 182.55375 
L 205.340612 147.883456 
L 206.870078 145.794975 
L 208.399543 145.3996 
L 209.929009 154.604377 
L 211.458474 159.290134 
L 212.98794 147.579767 
L 214.517405 153.224463 
L 216.046871 145.218391 
L 217.576336 198.728177 
L 219.105802 147.981626 
L 220.635267 157.739715 
L 222.164733 150.711739 
L 223.694198 161.094002 
L 225.223664 147.240991 
L 226.753129 218.12379 
L 228.282595 144.25448 
L 229.81206 159.836837 
L 231.341526 145.17155 
L 232.870991 164.139459 
L 234.400457 146.818001 
L 235.929922 143.717411 
L 237.459388 145.285212 
L 238.988853 144.669559 
L 240.518319 147.046811 
L 242.047784 149.866034 
L 243.57725 144.06451 
L 245.106715 150.074188 
L 246.636181 143.471238 
L 248.165646 149.098806 
L 249.695112 145.086859 
L 251.224577 146.531109 
L 252.754043 149.463775 
L 254.283508 146.249543 
L 255.812974 144.177436 
L 257.342439 148.177761 
L 258.871905 146.283925 
L 260.40137 157.021386 
L 261.930836 190.786264 
L 263.460302 145.552449 
L 264.989767 143.724993 
L 266.519233 145.10773 
L 268.048698 144.145334 
L 269.578164 144.516318 
L 271.107629 146.082494 
L 272.637095 147.964612 
L 274.16656 145.351466 
L 275.696026 143.937976 
L 277.225491 144.992044 
L 278.754957 145.244507 
L 280.284422 145.06413 
L 281.813888 143.251196 
L 283.343353 143.437777 
L 284.872819 144.451967 
L 286.402284 157.244243 
L 287.93175 146.883604 
L 289.461215 145.56676 
L 290.990681 143.405286 
L 292.520146 145.117897 
L 294.049612 144.416263 
L 295.579077 146.381446 
L 297.108543 193.835447 
L 298.638008 168.144928 
L 300.167474 146.118859 
L 301.696939 147.730874 
L 303.226405 162.958214 
L 304.75587 145.889436 
L 306.285336 144.948336 
L 307.814801 153.72476 
L 309.344267 144.306108 
L 310.873732 144.104458 
L 312.403198 146.012291 
L 313.932663 145.632022 
L 315.462129 146.197564 
L 316.991594 146.172953 
L 318.52106 151.728294 
L 320.050525 151.110897 
L 321.579991 144.893219 
L 323.109456 144.168885 
L 324.638922 148.753202 
L 326.168387 147.790181 
L 327.697853 145.743568 
L 329.227318 146.767854 
L 330.756784 144.508934 
L 332.286249 147.90865 
L 333.815715 146.046706 
L 335.34518 160.069926 
L 336.874646 145.533807 
L 338.404111 144.879146 
L 339.933577 150.017968 
L 341.463042 145.574913 
L 342.992508 144.821935 
L 344.521974 144.959987 
L 346.051439 142.980101 
L 347.580905 202.163792 
L 349.11037 146.077578 
L 350.639836 142.779364 
L 352.169301 140.903305 
L 353.698767 142.5774 
L 355.228232 143.78342 
L 356.757698 143.882561 
L 358.287163 141.84066 
L 359.816629 140.502881 
L 361.346094 189.108123 
L 362.87556 140.280601 
L 364.405025 137.345907 
L 365.934491 141.502647 
L 367.463956 149.121156 
L 368.993422 141.52571 
L 370.522887 139.102707 
L 372.052353 141.1711 
L 373.581818 163.235646 
L 373.581818 163.235646 
" style="fill:none;stroke:#008000;stroke-dasharray:9.6,2.4,1.5,2.4;stroke-dashoffset:0;stroke-width:1.5;"/>
   </g>
   <g id="line2d_29">
    <path clip-path="url(#p1162d3fc69)" d="M 69.218182 120.319702 
L 70.747647 120.609564 
L 72.277113 125.208002 
L 73.806578 125.712988 
L 75.336044 128.63776 
L 76.865509 128.39448 
L 78.394975 124.979934 
L 79.92444 124.955349 
L 81.453906 122.208864 
L 82.983371 106.771282 
L 84.512837 126.434468 
L 86.042302 131.755303 
L 87.571768 127.165603 
L 89.101233 131.718281 
L 90.630699 132.956467 
L 92.160164 117.054914 
L 93.68963 131.707849 
L 95.219095 130.930628 
L 96.748561 89.634995 
L 98.278026 133.178748 
L 99.807492 131.324408 
L 101.336958 130.401204 
L 102.866423 129.271948 
L 105.925354 128.477538 
L 107.45482 112.79859 
L 108.984285 128.605362 
L 110.513751 126.390522 
L 112.043216 123.948405 
L 113.572682 126.531246 
L 115.102147 124.603821 
L 116.631613 95.017382 
L 118.161078 107.140621 
L 119.690544 122.891133 
L 121.220009 122.232479 
L 122.749475 112.658545 
L 124.27894 104.213747 
L 125.808406 121.272157 
L 127.337871 118.597395 
L 128.867337 118.14492 
L 130.396802 44.443636 
L 131.926268 121.584067 
L 133.455733 99.338878 
L 134.985199 121.411401 
L 136.514664 120.457235 
L 138.04413 119.793093 
L 139.573595 120.339555 
L 141.103061 119.205924 
L 142.632526 118.623891 
L 144.161992 119.514162 
L 145.691457 119.264365 
L 147.220923 118.648802 
L 148.750388 116.701925 
L 150.279854 119.015988 
L 151.809319 113.875229 
L 153.338785 119.89899 
L 154.86825 117.421458 
L 156.397716 106.197915 
L 157.927181 117.240138 
L 159.456647 117.937692 
L 160.986112 116.67851 
L 162.515578 118.950708 
L 164.045043 115.921964 
L 165.574509 118.172448 
L 167.103974 116.602768 
L 168.63344 119.159408 
L 170.162905 118.298571 
L 173.221836 118.468566 
L 174.751302 113.353632 
L 176.280767 118.656731 
L 177.810233 117.604286 
L 179.339698 118.707468 
L 180.869164 112.910584 
L 182.39863 104.843982 
L 183.928095 118.554333 
L 186.987026 118.197354 
L 188.516492 117.40779 
L 190.045957 118.335388 
L 191.575423 117.194677 
L 194.634354 117.428215 
L 196.163819 116.686635 
L 197.693285 117.996007 
L 199.22275 119.073032 
L 200.752216 114.437822 
L 202.281681 119.116384 
L 203.811147 91.656536 
L 205.340612 119.953339 
L 206.870078 117.859072 
L 208.399543 119.630417 
L 209.929009 114.106602 
L 211.458474 112.531059 
L 212.98794 119.204878 
L 214.517405 116.889733 
L 216.046871 118.682041 
L 217.576336 81.840077 
L 219.105802 118.904423 
L 220.635267 112.135852 
L 222.164733 118.059378 
L 223.694198 107.742102 
L 225.223664 116.981401 
L 226.753129 66.444872 
L 228.282595 118.685053 
L 229.81206 108.872557 
L 231.341526 119.506195 
L 232.870991 103.705241 
L 234.400457 117.987795 
L 235.929922 117.701775 
L 237.459388 118.738436 
L 238.988853 118.190201 
L 240.518319 118.355216 
L 242.047784 115.895327 
L 243.57725 118.303127 
L 245.106715 114.480233 
L 246.636181 118.483411 
L 248.165646 117.725004 
L 249.695112 117.266546 
L 251.224577 118.234934 
L 252.754043 118.888243 
L 254.283508 118.78162 
L 255.812974 117.101009 
L 257.342439 116.301858 
L 258.871905 118.199206 
L 260.40137 112.99808 
L 261.930836 89.056795 
L 263.460302 118.469112 
L 264.989767 117.405389 
L 266.519233 118.56942 
L 268.048698 119.068718 
L 269.578164 119.400101 
L 271.107629 118.715975 
L 274.16656 117.808012 
L 275.696026 118.851946 
L 277.225491 117.971924 
L 278.754957 119.250581 
L 280.284422 117.860707 
L 281.813888 118.532063 
L 283.343353 118.003798 
L 284.872819 118.259242 
L 286.402284 107.362552 
L 287.93175 118.216296 
L 289.461215 116.431953 
L 290.990681 117.953196 
L 292.520146 117.007793 
L 294.049612 120.100835 
L 295.579077 118.40339 
L 297.108543 77.622791 
L 298.638008 100.640765 
L 300.167474 119.352765 
L 301.696939 117.820114 
L 303.226405 110.01703 
L 304.75587 119.653674 
L 306.285336 118.41408 
L 307.814801 114.82485 
L 309.344267 118.161055 
L 310.873732 118.792817 
L 312.403198 117.646003 
L 313.932663 119.733057 
L 315.462129 119.961631 
L 316.991594 119.602857 
L 318.52106 115.461745 
L 320.050525 116.893553 
L 321.579991 120.306881 
L 323.109456 120.094234 
L 324.638922 119.688987 
L 326.168387 122.226027 
L 327.697853 118.807642 
L 329.227318 120.564746 
L 330.756784 118.74116 
L 332.286249 119.498894 
L 333.815715 119.683148 
L 335.34518 112.974322 
L 336.874646 119.265762 
L 338.404111 118.792999 
L 339.933577 112.039996 
L 341.463042 119.285089 
L 342.992508 116.902404 
L 344.521974 118.180624 
L 346.051439 118.593648 
L 347.580905 71.406726 
L 349.11037 117.878476 
L 350.639836 118.597799 
L 353.698767 118.301918 
L 355.228232 117.234788 
L 356.757698 117.061875 
L 358.287163 116.648021 
L 359.816629 117.428225 
L 361.346094 80.096639 
L 362.87556 115.307534 
L 364.405025 114.992909 
L 365.934491 115.463063 
L 367.463956 110.016082 
L 368.993422 113.681907 
L 370.522887 114.980558 
L 372.052353 114.937248 
L 373.581818 100.327344 
L 373.581818 100.327344 
" style="fill:none;stroke:#008000;stroke-dasharray:9.6,2.4,1.5,2.4;stroke-dashoffset:0;stroke-width:1.5;"/>
   </g>
   <g id="line2d_30">
    <path clip-path="url(#p1162d3fc69)" d="M 69.218182 120.247002 
L 70.747647 120.328076 
L 72.277113 120.286275 
L 73.806578 119.608019 
L 78.394975 119.629879 
L 79.92444 110.328399 
L 81.453906 110.452326 
L 82.983371 97.567893 
L 84.512837 96.869937 
L 86.042302 98.182278 
L 87.571768 98.567457 
L 89.101233 110.372459 
L 92.160164 110.686539 
L 93.68963 110.911505 
L 95.219095 110.885738 
L 96.748561 110.731763 
L 98.278026 107.479957 
L 99.807492 106.943881 
L 101.336958 77.268858 
L 102.866423 79.819402 
L 104.395889 110.587259 
L 105.925354 110.834174 
L 107.45482 110.083096 
L 108.984285 110.838975 
L 112.043216 110.986082 
L 113.572682 110.503899 
L 115.102147 110.52735 
L 116.631613 110.775713 
L 118.161078 110.05608 
L 119.690544 110.832172 
L 121.220009 110.626228 
L 122.749475 110.129177 
L 124.27894 110.429193 
L 125.808406 110.517438 
L 127.337871 110.245381 
L 128.867337 110.129496 
L 130.396802 110.686284 
L 131.926268 109.54753 
L 133.455733 109.550555 
L 134.985199 109.137418 
L 136.514664 109.378117 
L 138.04413 108.336334 
L 139.573595 106.152723 
L 141.103061 109.440315 
L 142.632526 103.330887 
L 145.691457 103.573478 
L 147.220923 103.459336 
L 148.750388 103.598644 
L 151.809319 103.248057 
L 153.338785 103.680331 
L 159.456647 103.504444 
L 160.986112 89.796303 
L 162.515578 89.172508 
L 165.574509 89.254045 
L 167.103974 89.944554 
L 168.63344 89.706277 
L 170.162905 90.77172 
L 171.692371 89.85992 
L 173.221836 89.508877 
L 174.751302 89.462195 
L 176.280767 90.18979 
L 177.810233 89.568435 
L 179.339698 89.239353 
L 180.869164 90.168939 
L 182.39863 89.131344 
L 183.928095 89.193774 
L 185.457561 88.888161 
L 186.987026 90.153434 
L 188.516492 89.142175 
L 190.045957 89.368354 
L 191.575423 89.182657 
L 193.104888 89.270665 
L 194.634354 89.71443 
L 196.163819 89.100863 
L 199.22275 89.601954 
L 202.281681 89.430158 
L 203.811147 89.926001 
L 205.340612 89.764149 
L 206.870078 89.084949 
L 208.399543 103.159282 
L 209.929009 103.539452 
L 211.458474 103.385927 
L 212.98794 99.251841 
L 214.517405 103.491532 
L 216.046871 101.464118 
L 217.576336 103.604057 
L 219.105802 103.213845 
L 220.635267 103.267175 
L 222.164733 103.457593 
L 223.694198 103.443517 
L 225.223664 103.807091 
L 226.753129 103.34796 
L 228.282595 103.347743 
L 229.81206 102.893865 
L 232.870991 103.823312 
L 235.929922 103.366409 
L 237.459388 103.417572 
L 238.988853 103.24809 
L 240.518319 103.733737 
L 242.047784 103.143236 
L 243.57725 103.450393 
L 246.636181 103.677138 
L 248.165646 103.33629 
L 249.695112 103.27778 
L 251.224577 103.490275 
L 252.754043 103.459995 
L 254.283508 103.571937 
L 255.812974 103.38773 
L 257.342439 103.456795 
L 258.871905 103.162974 
L 260.40137 101.338866 
L 261.930836 100.530777 
L 263.460302 103.370452 
L 264.989767 98.705328 
L 266.519233 99.380274 
L 268.048698 97.292142 
L 269.578164 100.584881 
L 271.107629 100.723562 
L 272.637095 101.848276 
L 274.16656 100.579206 
L 275.696026 96.883586 
L 277.225491 98.972422 
L 278.754957 103.320233 
L 280.284422 103.697633 
L 281.813888 100.018914 
L 283.343353 97.786934 
L 284.872819 102.367576 
L 286.402284 101.027124 
L 287.93175 101.933338 
L 289.461215 103.322316 
L 290.990681 98.746586 
L 292.520146 103.411096 
L 294.049612 103.692549 
L 295.579077 103.497121 
L 298.638008 102.0291 
L 300.167474 103.477364 
L 301.696939 103.372182 
L 303.226405 103.456307 
L 304.75587 103.71335 
L 306.285336 103.377288 
L 307.814801 103.220902 
L 309.344267 103.458958 
L 310.873732 103.379944 
L 312.403198 103.703128 
L 313.932663 103.215425 
L 315.462129 103.381586 
L 318.52106 103.35081 
L 320.050525 103.096383 
L 321.579991 103.427154 
L 324.638922 103.519511 
L 326.168387 103.531093 
L 327.697853 103.385972 
L 329.227318 103.574679 
L 330.756784 97.254219 
L 332.286249 98.643135 
L 333.815715 102.283604 
L 338.404111 96.961578 
L 339.933577 103.545951 
L 341.463042 101.307006 
L 342.992508 103.531364 
L 344.521974 103.354486 
L 350.639836 103.656263 
L 352.169301 103.328697 
L 353.698767 103.494925 
L 355.228232 103.349269 
L 361.346094 103.323417 
L 362.87556 99.559441 
L 364.405025 94.950657 
L 365.934491 96.420179 
L 367.463956 98.510955 
L 368.993422 98.230241 
L 370.522887 97.369032 
L 372.052353 96.837453 
L 373.581818 98.475534 
L 373.581818 98.475534 
" style="fill:none;stroke:#ff0000;stroke-linecap:square;stroke-width:1.5;"/>
   </g>
   <g id="patch_3">
    <path d="M 54 252 
L 54 34.56 
" style="fill:none;stroke:#000000;stroke-linecap:square;stroke-linejoin:miter;stroke-width:0.8;"/>
   </g>
   <g id="patch_4">
    <path d="M 388.8 252 
L 388.8 34.56 
" style="fill:none;stroke:#000000;stroke-linecap:square;stroke-linejoin:miter;stroke-width:0.8;"/>
   </g>
   <g id="patch_5">
    <path d="M 54 252 
L 388.8 252 
" style="fill:none;stroke:#000000;stroke-linecap:square;stroke-linejoin:miter;stroke-width:0.8;"/>
   </g>
   <g id="patch_6">
    <path d="M 54 34.56 
L 388.8 34.56 
" style="fill:none;stroke:#000000;stroke-linecap:square;stroke-linejoin:miter;stroke-width:0.8;"/>
   </g>
   <g id="text_16">
    <!-- Population's average and best fitness -->
    <defs>
     <path d="M 19.671875 64.796875 
L 19.671875 37.40625 
L 32.078125 37.40625 
Q 38.96875 37.40625 42.71875 40.96875 
Q 46.484375 44.53125 46.484375 51.125 
Q 46.484375 57.671875 42.71875 61.234375 
Q 38.96875 64.796875 32.078125 64.796875 
z
M 9.8125 72.90625 
L 32.078125 72.90625 
Q 44.34375 72.90625 50.609375 67.359375 
Q 56.890625 61.8125 56.890625 51.125 
Q 56.890625 40.328125 50.609375 34.8125 
Q 44.34375 29.296875 32.078125 29.296875 
L 19.671875 29.296875 
L 19.671875 0 
L 9.8125 0 
z
" id="DejaVuSans-80"/>
     <path d="M 18.109375 8.203125 
L 18.109375 -20.796875 
L 9.078125 -20.796875 
L 9.078125 54.6875 
L 18.109375 54.6875 
L 18.109375 46.390625 
Q 20.953125 51.265625 25.265625 53.625 
Q 29.59375 56 35.59375 56 
Q 45.5625 56 51.78125 48.09375 
Q 58.015625 40.1875 58.015625 27.296875 
Q 58.015625 14.40625 51.78125 6.484375 
Q 45.5625 -1.421875 35.59375 -1.421875 
Q 29.59375 -1.421875 25.265625 0.953125 
Q 20.953125 3.328125 18.109375 8.203125 
z
M 48.6875 27.296875 
Q 48.6875 37.203125 44.609375 42.84375 
Q 40.53125 48.484375 33.40625 48.484375 
Q 26.265625 48.484375 22.1875 42.84375 
Q 18.109375 37.203125 18.109375 27.296875 
Q 18.109375 17.390625 22.1875 11.75 
Q 26.265625 6.109375 33.40625 6.109375 
Q 40.53125 6.109375 44.609375 11.75 
Q 48.6875 17.390625 48.6875 27.296875 
z
" id="DejaVuSans-112"/>
     <path d="M 8.5 21.578125 
L 8.5 54.6875 
L 17.484375 54.6875 
L 17.484375 21.921875 
Q 17.484375 14.15625 20.5 10.265625 
Q 23.53125 6.390625 29.59375 6.390625 
Q 36.859375 6.390625 41.078125 11.03125 
Q 45.3125 15.671875 45.3125 23.6875 
L 45.3125 54.6875 
L 54.296875 54.6875 
L 54.296875 0 
L 45.3125 0 
L 45.3125 8.40625 
Q 42.046875 3.421875 37.71875 1 
Q 33.40625 -1.421875 27.6875 -1.421875 
Q 18.265625 -1.421875 13.375 4.4375 
Q 8.5 10.296875 8.5 21.578125 
z
M 31.109375 56 
z
" id="DejaVuSans-117"/>
     <path d="M 9.421875 75.984375 
L 18.40625 75.984375 
L 18.40625 0 
L 9.421875 0 
z
" id="DejaVuSans-108"/>
     <path d="M 17.921875 72.90625 
L 17.921875 45.796875 
L 9.625 45.796875 
L 9.625 72.90625 
z
" id="DejaVuSans-39"/>
     <path id="DejaVuSans-32"/>
     <path d="M 2.984375 54.6875 
L 12.5 54.6875 
L 29.59375 8.796875 
L 46.6875 54.6875 
L 56.203125 54.6875 
L 35.6875 0 
L 23.484375 0 
z
" id="DejaVuSans-118"/>
     <path d="M 45.40625 27.984375 
Q 45.40625 37.75 41.375 43.109375 
Q 37.359375 48.484375 30.078125 48.484375 
Q 22.859375 48.484375 18.828125 43.109375 
Q 14.796875 37.75 14.796875 27.984375 
Q 14.796875 18.265625 18.828125 12.890625 
Q 22.859375 7.515625 30.078125 7.515625 
Q 37.359375 7.515625 41.375 12.890625 
Q 45.40625 18.265625 45.40625 27.984375 
z
M 54.390625 6.78125 
Q 54.390625 -7.171875 48.1875 -13.984375 
Q 42 -20.796875 29.203125 -20.796875 
Q 24.46875 -20.796875 20.265625 -20.09375 
Q 16.0625 -19.390625 12.109375 -17.921875 
L 12.109375 -9.1875 
Q 16.0625 -11.328125 19.921875 -12.34375 
Q 23.78125 -13.375 27.78125 -13.375 
Q 36.625 -13.375 41.015625 -8.765625 
Q 45.40625 -4.15625 45.40625 5.171875 
L 45.40625 9.625 
Q 42.625 4.78125 38.28125 2.390625 
Q 33.9375 0 27.875 0 
Q 17.828125 0 11.671875 7.65625 
Q 5.515625 15.328125 5.515625 27.984375 
Q 5.515625 40.671875 11.671875 48.328125 
Q 17.828125 56 27.875 56 
Q 33.9375 56 38.28125 53.609375 
Q 42.625 51.21875 45.40625 46.390625 
L 45.40625 54.6875 
L 54.390625 54.6875 
z
" id="DejaVuSans-103"/>
     <path d="M 45.40625 46.390625 
L 45.40625 75.984375 
L 54.390625 75.984375 
L 54.390625 0 
L 45.40625 0 
L 45.40625 8.203125 
Q 42.578125 3.328125 38.25 0.953125 
Q 33.9375 -1.421875 27.875 -1.421875 
Q 17.96875 -1.421875 11.734375 6.484375 
Q 5.515625 14.40625 5.515625 27.296875 
Q 5.515625 40.1875 11.734375 48.09375 
Q 17.96875 56 27.875 56 
Q 33.9375 56 38.25 53.625 
Q 42.578125 51.265625 45.40625 46.390625 
z
M 14.796875 27.296875 
Q 14.796875 17.390625 18.875 11.75 
Q 22.953125 6.109375 30.078125 6.109375 
Q 37.203125 6.109375 41.296875 11.75 
Q 45.40625 17.390625 45.40625 27.296875 
Q 45.40625 37.203125 41.296875 42.84375 
Q 37.203125 48.484375 30.078125 48.484375 
Q 22.953125 48.484375 18.875 42.84375 
Q 14.796875 37.203125 14.796875 27.296875 
z
" id="DejaVuSans-100"/>
     <path d="M 48.6875 27.296875 
Q 48.6875 37.203125 44.609375 42.84375 
Q 40.53125 48.484375 33.40625 48.484375 
Q 26.265625 48.484375 22.1875 42.84375 
Q 18.109375 37.203125 18.109375 27.296875 
Q 18.109375 17.390625 22.1875 11.75 
Q 26.265625 6.109375 33.40625 6.109375 
Q 40.53125 6.109375 44.609375 11.75 
Q 48.6875 17.390625 48.6875 27.296875 
z
M 18.109375 46.390625 
Q 20.953125 51.265625 25.265625 53.625 
Q 29.59375 56 35.59375 56 
Q 45.5625 56 51.78125 48.09375 
Q 58.015625 40.1875 58.015625 27.296875 
Q 58.015625 14.40625 51.78125 6.484375 
Q 45.5625 -1.421875 35.59375 -1.421875 
Q 29.59375 -1.421875 25.265625 0.953125 
Q 20.953125 3.328125 18.109375 8.203125 
L 18.109375 0 
L 9.078125 0 
L 9.078125 75.984375 
L 18.109375 75.984375 
z
" id="DejaVuSans-98"/>
     <path d="M 37.109375 75.984375 
L 37.109375 68.5 
L 28.515625 68.5 
Q 23.6875 68.5 21.796875 66.546875 
Q 19.921875 64.59375 19.921875 59.515625 
L 19.921875 54.6875 
L 34.71875 54.6875 
L 34.71875 47.703125 
L 19.921875 47.703125 
L 19.921875 0 
L 10.890625 0 
L 10.890625 47.703125 
L 2.296875 47.703125 
L 2.296875 54.6875 
L 10.890625 54.6875 
L 10.890625 58.5 
Q 10.890625 67.625 15.140625 71.796875 
Q 19.390625 75.984375 28.609375 75.984375 
z
" id="DejaVuSans-102"/>
    </defs>
    <g transform="translate(108.555 28.56)scale(0.12 -0.12)">
     <use xlink:href="#DejaVuSans-80"/>
     <use x="60.255859" xlink:href="#DejaVuSans-111"/>
     <use x="121.4375" xlink:href="#DejaVuSans-112"/>
     <use x="184.914062" xlink:href="#DejaVuSans-117"/>
     <use x="248.292969" xlink:href="#DejaVuSans-108"/>
     <use x="276.076172" xlink:href="#DejaVuSans-97"/>
     <use x="337.355469" xlink:href="#DejaVuSans-116"/>
     <use x="376.564453" xlink:href="#DejaVuSans-105"/>
     <use x="404.347656" xlink:href="#DejaVuSans-111"/>
     <use x="465.529297" xlink:href="#DejaVuSans-110"/>
     <use x="528.908203" xlink:href="#DejaVuSans-39"/>
     <use x="556.398438" xlink:href="#DejaVuSans-115"/>
     <use x="608.498047" xlink:href="#DejaVuSans-32"/>
     <use x="640.285156" xlink:href="#DejaVuSans-97"/>
     <use x="701.564453" xlink:href="#DejaVuSans-118"/>
     <use x="760.744141" xlink:href="#DejaVuSans-101"/>
     <use x="822.267578" xlink:href="#DejaVuSans-114"/>
     <use x="863.380859" xlink:href="#DejaVuSans-97"/>
     <use x="924.660156" xlink:href="#DejaVuSans-103"/>
     <use x="988.136719" xlink:href="#DejaVuSans-101"/>
     <use x="1049.660156" xlink:href="#DejaVuSans-32"/>
     <use x="1081.447266" xlink:href="#DejaVuSans-97"/>
     <use x="1142.726562" xlink:href="#DejaVuSans-110"/>
     <use x="1206.105469" xlink:href="#DejaVuSans-100"/>
     <use x="1269.582031" xlink:href="#DejaVuSans-32"/>
     <use x="1301.369141" xlink:href="#DejaVuSans-98"/>
     <use x="1364.845703" xlink:href="#DejaVuSans-101"/>
     <use x="1426.369141" xlink:href="#DejaVuSans-115"/>
     <use x="1478.46875" xlink:href="#DejaVuSans-116"/>
     <use x="1517.677734" xlink:href="#DejaVuSans-32"/>
     <use x="1549.464844" xlink:href="#DejaVuSans-102"/>
     <use x="1584.669922" xlink:href="#DejaVuSans-105"/>
     <use x="1612.453125" xlink:href="#DejaVuSans-116"/>
     <use x="1651.662109" xlink:href="#DejaVuSans-110"/>
     <use x="1715.041016" xlink:href="#DejaVuSans-101"/>
     <use x="1776.564453" xlink:href="#DejaVuSans-115"/>
     <use x="1828.664062" xlink:href="#DejaVuSans-115"/>
    </g>
   </g>
   <g id="legend_1">
    <g id="patch_7">
     <path d="M 308.859375 247 
L 381.8 247 
Q 383.8 247 383.8 245 
L 383.8 187.2875 
Q 383.8 185.2875 381.8 185.2875 
L 308.859375 185.2875 
Q 306.859375 185.2875 306.859375 187.2875 
L 306.859375 245 
Q 306.859375 247 308.859375 247 
z
" style="fill:#ffffff;opacity:0.8;stroke:#cccccc;stroke-linejoin:miter;"/>
    </g>
    <g id="line2d_31">
     <path d="M 310.859375 193.385938 
L 330.859375 193.385938 
" style="fill:none;stroke:#0000ff;stroke-linecap:square;stroke-width:1.5;"/>
    </g>
    <g id="line2d_32"/>
    <g id="text_17">
     <!-- average -->
     <g transform="translate(338.859375 196.885938)scale(0.1 -0.1)">
      <use xlink:href="#DejaVuSans-97"/>
      <use x="61.279297" xlink:href="#DejaVuSans-118"/>
      <use x="120.458984" xlink:href="#DejaVuSans-101"/>
      <use x="181.982422" xlink:href="#DejaVuSans-114"/>
      <use x="223.095703" xlink:href="#DejaVuSans-97"/>
      <use x="284.375" xlink:href="#DejaVuSans-103"/>
      <use x="347.851562" xlink:href="#DejaVuSans-101"/>
     </g>
    </g>
    <g id="line2d_33">
     <path d="M 310.859375 208.064063 
L 330.859375 208.064063 
" style="fill:none;stroke:#008000;stroke-dasharray:9.6,2.4,1.5,2.4;stroke-dashoffset:0;stroke-width:1.5;"/>
    </g>
    <g id="line2d_34"/>
    <g id="text_18">
     <!-- -1 sd -->
     <defs>
      <path d="M 4.890625 31.390625 
L 31.203125 31.390625 
L 31.203125 23.390625 
L 4.890625 23.390625 
z
" id="DejaVuSans-45"/>
     </defs>
     <g transform="translate(338.859375 211.564063)scale(0.1 -0.1)">
      <use xlink:href="#DejaVuSans-45"/>
      <use x="36.083984" xlink:href="#DejaVuSans-49"/>
      <use x="99.707031" xlink:href="#DejaVuSans-32"/>
      <use x="131.494141" xlink:href="#DejaVuSans-115"/>
      <use x="183.59375" xlink:href="#DejaVuSans-100"/>
     </g>
    </g>
    <g id="line2d_35">
     <path d="M 310.859375 222.742188 
L 330.859375 222.742188 
" style="fill:none;stroke:#008000;stroke-dasharray:9.6,2.4,1.5,2.4;stroke-dashoffset:0;stroke-width:1.5;"/>
    </g>
    <g id="line2d_36"/>
    <g id="text_19">
     <!-- +1 sd -->
     <defs>
      <path d="M 46 62.703125 
L 46 35.5 
L 73.1875 35.5 
L 73.1875 27.203125 
L 46 27.203125 
L 46 0 
L 37.796875 0 
L 37.796875 27.203125 
L 10.59375 27.203125 
L 10.59375 35.5 
L 37.796875 35.5 
L 37.796875 62.703125 
z
" id="DejaVuSans-43"/>
     </defs>
     <g transform="translate(338.859375 226.242188)scale(0.1 -0.1)">
      <use xlink:href="#DejaVuSans-43"/>
      <use x="83.789062" xlink:href="#DejaVuSans-49"/>
      <use x="147.412109" xlink:href="#DejaVuSans-32"/>
      <use x="179.199219" xlink:href="#DejaVuSans-115"/>
      <use x="231.298828" xlink:href="#DejaVuSans-100"/>
     </g>
    </g>
    <g id="line2d_37">
     <path d="M 310.859375 237.420312 
L 330.859375 237.420312 
" style="fill:none;stroke:#ff0000;stroke-linecap:square;stroke-width:1.5;"/>
    </g>
    <g id="line2d_38"/>
    <g id="text_20">
     <!-- best -->
     <g transform="translate(338.859375 240.920312)scale(0.1 -0.1)">
      <use xlink:href="#DejaVuSans-98"/>
      <use x="63.476562" xlink:href="#DejaVuSans-101"/>
      <use x="125" xlink:href="#DejaVuSans-115"/>
      <use x="177.099609" xlink:href="#DejaVuSans-116"/>
     </g>
    </g>
   </g>
  </g>
 </g>
 <defs>
  <clipPath id="p1162d3fc69">
   <rect height="217.44" width="334.8" x="54" y="34.56"/>
  </clipPath>
 </defs>
</svg>
