<?xml version="1.0" encoding="utf-8" standalone="no"?>
<!DOCTYPE svg PUBLIC "-//W3C//DTD SVG 1.1//EN"
  "http://www.w3.org/Graphics/SVG/1.1/DTD/svg11.dtd">
<!-- Created with matplotlib (https://matplotlib.org/) -->
<svg height="288pt" version="1.1" viewBox="0 0 432 288" width="432pt" xmlns="http://www.w3.org/2000/svg" xmlns:xlink="http://www.w3.org/1999/xlink">
 <defs>
  <style type="text/css">
*{stroke-linecap:butt;stroke-linejoin:round;}
  </style>
 </defs>
 <g id="figure_1">
  <g id="patch_1">
   <path d="M 0 288 
L 432 288 
L 432 0 
L 0 0 
z
" style="fill:#ffffff;"/>
  </g>
  <g id="axes_1">
   <g id="patch_2">
    <path d="M 54 252 
L 388.8 252 
L 388.8 34.56 
L 54 34.56 
z
" style="fill:#ffffff;"/>
   </g>
   <g id="matplotlib.axis_1">
    <g id="xtick_1">
     <g id="line2d_1">
      <path clip-path="url(#pfa638b3309)" d="M 69.218182 252 
L 69.218182 34.56 
" style="fill:none;stroke:#b0b0b0;stroke-linecap:square;stroke-width:0.8;"/>
     </g>
     <g id="line2d_2">
      <defs>
       <path d="M 0 0 
L 0 3.5 
" id="me86be4dd3e" style="stroke:#000000;stroke-width:0.8;"/>
      </defs>
      <g>
       <use style="stroke:#000000;stroke-width:0.8;" x="69.218182" xlink:href="#me86be4dd3e" y="252"/>
      </g>
     </g>
     <g id="text_1">
      <!-- 0 -->
      <defs>
       <path d="M 31.78125 66.40625 
Q 24.171875 66.40625 20.328125 58.90625 
Q 16.5 51.421875 16.5 36.375 
Q 16.5 21.390625 20.328125 13.890625 
Q 24.171875 6.390625 31.78125 6.390625 
Q 39.453125 6.390625 43.28125 13.890625 
Q 47.125 21.390625 47.125 36.375 
Q 47.125 51.421875 43.28125 58.90625 
Q 39.453125 66.40625 31.78125 66.40625 
z
M 31.78125 74.21875 
Q 44.046875 74.21875 50.515625 64.515625 
Q 56.984375 54.828125 56.984375 36.375 
Q 56.984375 17.96875 50.515625 8.265625 
Q 44.046875 -1.421875 31.78125 -1.421875 
Q 19.53125 -1.421875 13.0625 8.265625 
Q 6.59375 17.96875 6.59375 36.375 
Q 6.59375 54.828125 13.0625 64.515625 
Q 19.53125 74.21875 31.78125 74.21875 
z
" id="DejaVuSans-48"/>
      </defs>
      <g transform="translate(66.036932 266.598437)scale(0.1 -0.1)">
       <use xlink:href="#DejaVuSans-48"/>
      </g>
     </g>
    </g>
    <g id="xtick_2">
     <g id="line2d_3">
      <path clip-path="url(#pfa638b3309)" d="M 106.609292 252 
L 106.609292 34.56 
" style="fill:none;stroke:#b0b0b0;stroke-linecap:square;stroke-width:0.8;"/>
     </g>
     <g id="line2d_4">
      <g>
       <use style="stroke:#000000;stroke-width:0.8;" x="106.609292" xlink:href="#me86be4dd3e" y="252"/>
      </g>
     </g>
     <g id="text_2">
      <!-- 50 -->
      <defs>
       <path d="M 10.796875 72.90625 
L 49.515625 72.90625 
L 49.515625 64.59375 
L 19.828125 64.59375 
L 19.828125 46.734375 
Q 21.96875 47.46875 24.109375 47.828125 
Q 26.265625 48.1875 28.421875 48.1875 
Q 40.625 48.1875 47.75 41.5 
Q 54.890625 34.8125 54.890625 23.390625 
Q 54.890625 11.625 47.5625 5.09375 
Q 40.234375 -1.421875 26.90625 -1.421875 
Q 22.3125 -1.421875 17.546875 -0.640625 
Q 12.796875 0.140625 7.71875 1.703125 
L 7.71875 11.625 
Q 12.109375 9.234375 16.796875 8.0625 
Q 21.484375 6.890625 26.703125 6.890625 
Q 35.15625 6.890625 40.078125 11.328125 
Q 45.015625 15.765625 45.015625 23.390625 
Q 45.015625 31 40.078125 35.4375 
Q 35.15625 39.890625 26.703125 39.890625 
Q 22.75 39.890625 18.8125 39.015625 
Q 14.890625 38.140625 10.796875 36.28125 
z
" id="DejaVuSans-53"/>
      </defs>
      <g transform="translate(100.246792 266.598437)scale(0.1 -0.1)">
       <use xlink:href="#DejaVuSans-53"/>
       <use x="63.623047" xlink:href="#DejaVuSans-48"/>
      </g>
     </g>
    </g>
    <g id="xtick_3">
     <g id="line2d_5">
      <path clip-path="url(#pfa638b3309)" d="M 144.000402 252 
L 144.000402 34.56 
" style="fill:none;stroke:#b0b0b0;stroke-linecap:square;stroke-width:0.8;"/>
     </g>
     <g id="line2d_6">
      <g>
       <use style="stroke:#000000;stroke-width:0.8;" x="144.000402" xlink:href="#me86be4dd3e" y="252"/>
      </g>
     </g>
     <g id="text_3">
      <!-- 100 -->
      <defs>
       <path d="M 12.40625 8.296875 
L 28.515625 8.296875 
L 28.515625 63.921875 
L 10.984375 60.40625 
L 10.984375 69.390625 
L 28.421875 72.90625 
L 38.28125 72.90625 
L 38.28125 8.296875 
L 54.390625 8.296875 
L 54.390625 0 
L 12.40625 0 
z
" id="DejaVuSans-49"/>
      </defs>
      <g transform="translate(134.456652 266.598437)scale(0.1 -0.1)">
       <use xlink:href="#DejaVuSans-49"/>
       <use x="63.623047" xlink:href="#DejaVuSans-48"/>
       <use x="127.246094" xlink:href="#DejaVuSans-48"/>
      </g>
     </g>
    </g>
    <g id="xtick_4">
     <g id="line2d_7">
      <path clip-path="url(#pfa638b3309)" d="M 181.391512 252 
L 181.391512 34.56 
" style="fill:none;stroke:#b0b0b0;stroke-linecap:square;stroke-width:0.8;"/>
     </g>
     <g id="line2d_8">
      <g>
       <use style="stroke:#000000;stroke-width:0.8;" x="181.391512" xlink:href="#me86be4dd3e" y="252"/>
      </g>
     </g>
     <g id="text_4">
      <!-- 150 -->
      <g transform="translate(171.847762 266.598437)scale(0.1 -0.1)">
       <use xlink:href="#DejaVuSans-49"/>
       <use x="63.623047" xlink:href="#DejaVuSans-53"/>
       <use x="127.246094" xlink:href="#DejaVuSans-48"/>
      </g>
     </g>
    </g>
    <g id="xtick_5">
     <g id="line2d_9">
      <path clip-path="url(#pfa638b3309)" d="M 218.782622 252 
L 218.782622 34.56 
" style="fill:none;stroke:#b0b0b0;stroke-linecap:square;stroke-width:0.8;"/>
     </g>
     <g id="line2d_10">
      <g>
       <use style="stroke:#000000;stroke-width:0.8;" x="218.782622" xlink:href="#me86be4dd3e" y="252"/>
      </g>
     </g>
     <g id="text_5">
      <!-- 200 -->
      <defs>
       <path d="M 19.1875 8.296875 
L 53.609375 8.296875 
L 53.609375 0 
L 7.328125 0 
L 7.328125 8.296875 
Q 12.9375 14.109375 22.625 23.890625 
Q 32.328125 33.6875 34.8125 36.53125 
Q 39.546875 41.84375 41.421875 45.53125 
Q 43.3125 49.21875 43.3125 52.78125 
Q 43.3125 58.59375 39.234375 62.25 
Q 35.15625 65.921875 28.609375 65.921875 
Q 23.96875 65.921875 18.8125 64.3125 
Q 13.671875 62.703125 7.8125 59.421875 
L 7.8125 69.390625 
Q 13.765625 71.78125 18.9375 73 
Q 24.125 74.21875 28.421875 74.21875 
Q 39.75 74.21875 46.484375 68.546875 
Q 53.21875 62.890625 53.21875 53.421875 
Q 53.21875 48.921875 51.53125 44.890625 
Q 49.859375 40.875 45.40625 35.40625 
Q 44.1875 33.984375 37.640625 27.21875 
Q 31.109375 20.453125 19.1875 8.296875 
z
" id="DejaVuSans-50"/>
      </defs>
      <g transform="translate(209.238872 266.598437)scale(0.1 -0.1)">
       <use xlink:href="#DejaVuSans-50"/>
       <use x="63.623047" xlink:href="#DejaVuSans-48"/>
       <use x="127.246094" xlink:href="#DejaVuSans-48"/>
      </g>
     </g>
    </g>
    <g id="xtick_6">
     <g id="line2d_11">
      <path clip-path="url(#pfa638b3309)" d="M 256.173732 252 
L 256.173732 34.56 
" style="fill:none;stroke:#b0b0b0;stroke-linecap:square;stroke-width:0.8;"/>
     </g>
     <g id="line2d_12">
      <g>
       <use style="stroke:#000000;stroke-width:0.8;" x="256.173732" xlink:href="#me86be4dd3e" y="252"/>
      </g>
     </g>
     <g id="text_6">
      <!-- 250 -->
      <g transform="translate(246.629982 266.598437)scale(0.1 -0.1)">
       <use xlink:href="#DejaVuSans-50"/>
       <use x="63.623047" xlink:href="#DejaVuSans-53"/>
       <use x="127.246094" xlink:href="#DejaVuSans-48"/>
      </g>
     </g>
    </g>
    <g id="xtick_7">
     <g id="line2d_13">
      <path clip-path="url(#pfa638b3309)" d="M 293.564843 252 
L 293.564843 34.56 
" style="fill:none;stroke:#b0b0b0;stroke-linecap:square;stroke-width:0.8;"/>
     </g>
     <g id="line2d_14">
      <g>
       <use style="stroke:#000000;stroke-width:0.8;" x="293.564843" xlink:href="#me86be4dd3e" y="252"/>
      </g>
     </g>
     <g id="text_7">
      <!-- 300 -->
      <defs>
       <path d="M 40.578125 39.3125 
Q 47.65625 37.796875 51.625 33 
Q 55.609375 28.21875 55.609375 21.1875 
Q 55.609375 10.40625 48.1875 4.484375 
Q 40.765625 -1.421875 27.09375 -1.421875 
Q 22.515625 -1.421875 17.65625 -0.515625 
Q 12.796875 0.390625 7.625 2.203125 
L 7.625 11.71875 
Q 11.71875 9.328125 16.59375 8.109375 
Q 21.484375 6.890625 26.8125 6.890625 
Q 36.078125 6.890625 40.9375 10.546875 
Q 45.796875 14.203125 45.796875 21.1875 
Q 45.796875 27.640625 41.28125 31.265625 
Q 36.765625 34.90625 28.71875 34.90625 
L 20.21875 34.90625 
L 20.21875 43.015625 
L 29.109375 43.015625 
Q 36.375 43.015625 40.234375 45.921875 
Q 44.09375 48.828125 44.09375 54.296875 
Q 44.09375 59.90625 40.109375 62.90625 
Q 36.140625 65.921875 28.71875 65.921875 
Q 24.65625 65.921875 20.015625 65.03125 
Q 15.375 64.15625 9.8125 62.3125 
L 9.8125 71.09375 
Q 15.4375 72.65625 20.34375 73.4375 
Q 25.25 74.21875 29.59375 74.21875 
Q 40.828125 74.21875 47.359375 69.109375 
Q 53.90625 64.015625 53.90625 55.328125 
Q 53.90625 49.265625 50.4375 45.09375 
Q 46.96875 40.921875 40.578125 39.3125 
z
" id="DejaVuSans-51"/>
      </defs>
      <g transform="translate(284.021093 266.598437)scale(0.1 -0.1)">
       <use xlink:href="#DejaVuSans-51"/>
       <use x="63.623047" xlink:href="#DejaVuSans-48"/>
       <use x="127.246094" xlink:href="#DejaVuSans-48"/>
      </g>
     </g>
    </g>
    <g id="xtick_8">
     <g id="line2d_15">
      <path clip-path="url(#pfa638b3309)" d="M 330.955953 252 
L 330.955953 34.56 
" style="fill:none;stroke:#b0b0b0;stroke-linecap:square;stroke-width:0.8;"/>
     </g>
     <g id="line2d_16">
      <g>
       <use style="stroke:#000000;stroke-width:0.8;" x="330.955953" xlink:href="#me86be4dd3e" y="252"/>
      </g>
     </g>
     <g id="text_8">
      <!-- 350 -->
      <g transform="translate(321.412203 266.598437)scale(0.1 -0.1)">
       <use xlink:href="#DejaVuSans-51"/>
       <use x="63.623047" xlink:href="#DejaVuSans-53"/>
       <use x="127.246094" xlink:href="#DejaVuSans-48"/>
      </g>
     </g>
    </g>
    <g id="xtick_9">
     <g id="line2d_17">
      <path clip-path="url(#pfa638b3309)" d="M 368.347063 252 
L 368.347063 34.56 
" style="fill:none;stroke:#b0b0b0;stroke-linecap:square;stroke-width:0.8;"/>
     </g>
     <g id="line2d_18">
      <g>
       <use style="stroke:#000000;stroke-width:0.8;" x="368.347063" xlink:href="#me86be4dd3e" y="252"/>
      </g>
     </g>
     <g id="text_9">
      <!-- 400 -->
      <defs>
       <path d="M 37.796875 64.3125 
L 12.890625 25.390625 
L 37.796875 25.390625 
z
M 35.203125 72.90625 
L 47.609375 72.90625 
L 47.609375 25.390625 
L 58.015625 25.390625 
L 58.015625 17.1875 
L 47.609375 17.1875 
L 47.609375 0 
L 37.796875 0 
L 37.796875 17.1875 
L 4.890625 17.1875 
L 4.890625 26.703125 
z
" id="DejaVuSans-52"/>
      </defs>
      <g transform="translate(358.803313 266.598437)scale(0.1 -0.1)">
       <use xlink:href="#DejaVuSans-52"/>
       <use x="63.623047" xlink:href="#DejaVuSans-48"/>
       <use x="127.246094" xlink:href="#DejaVuSans-48"/>
      </g>
     </g>
    </g>
    <g id="text_10">
     <!-- Generations -->
     <defs>
      <path d="M 59.515625 10.40625 
L 59.515625 29.984375 
L 43.40625 29.984375 
L 43.40625 38.09375 
L 69.28125 38.09375 
L 69.28125 6.78125 
Q 63.578125 2.734375 56.6875 0.65625 
Q 49.8125 -1.421875 42 -1.421875 
Q 24.90625 -1.421875 15.25 8.5625 
Q 5.609375 18.5625 5.609375 36.375 
Q 5.609375 54.25 15.25 64.234375 
Q 24.90625 74.21875 42 74.21875 
Q 49.125 74.21875 55.546875 72.453125 
Q 61.96875 70.703125 67.390625 67.28125 
L 67.390625 56.78125 
Q 61.921875 61.421875 55.765625 63.765625 
Q 49.609375 66.109375 42.828125 66.109375 
Q 29.4375 66.109375 22.71875 58.640625 
Q 16.015625 51.171875 16.015625 36.375 
Q 16.015625 21.625 22.71875 14.15625 
Q 29.4375 6.6875 42.828125 6.6875 
Q 48.046875 6.6875 52.140625 7.59375 
Q 56.25 8.5 59.515625 10.40625 
z
" id="DejaVuSans-71"/>
      <path d="M 56.203125 29.59375 
L 56.203125 25.203125 
L 14.890625 25.203125 
Q 15.484375 15.921875 20.484375 11.0625 
Q 25.484375 6.203125 34.421875 6.203125 
Q 39.59375 6.203125 44.453125 7.46875 
Q 49.3125 8.734375 54.109375 11.28125 
L 54.109375 2.78125 
Q 49.265625 0.734375 44.1875 -0.34375 
Q 39.109375 -1.421875 33.890625 -1.421875 
Q 20.796875 -1.421875 13.15625 6.1875 
Q 5.515625 13.8125 5.515625 26.8125 
Q 5.515625 40.234375 12.765625 48.109375 
Q 20.015625 56 32.328125 56 
Q 43.359375 56 49.78125 48.890625 
Q 56.203125 41.796875 56.203125 29.59375 
z
M 47.21875 32.234375 
Q 47.125 39.59375 43.09375 43.984375 
Q 39.0625 48.390625 32.421875 48.390625 
Q 24.90625 48.390625 20.390625 44.140625 
Q 15.875 39.890625 15.1875 32.171875 
z
" id="DejaVuSans-101"/>
      <path d="M 54.890625 33.015625 
L 54.890625 0 
L 45.90625 0 
L 45.90625 32.71875 
Q 45.90625 40.484375 42.875 44.328125 
Q 39.84375 48.1875 33.796875 48.1875 
Q 26.515625 48.1875 22.3125 43.546875 
Q 18.109375 38.921875 18.109375 30.90625 
L 18.109375 0 
L 9.078125 0 
L 9.078125 54.6875 
L 18.109375 54.6875 
L 18.109375 46.1875 
Q 21.34375 51.125 25.703125 53.5625 
Q 30.078125 56 35.796875 56 
Q 45.21875 56 50.046875 50.171875 
Q 54.890625 44.34375 54.890625 33.015625 
z
" id="DejaVuSans-110"/>
      <path d="M 41.109375 46.296875 
Q 39.59375 47.171875 37.8125 47.578125 
Q 36.03125 48 33.890625 48 
Q 26.265625 48 22.1875 43.046875 
Q 18.109375 38.09375 18.109375 28.8125 
L 18.109375 0 
L 9.078125 0 
L 9.078125 54.6875 
L 18.109375 54.6875 
L 18.109375 46.1875 
Q 20.953125 51.171875 25.484375 53.578125 
Q 30.03125 56 36.53125 56 
Q 37.453125 56 38.578125 55.875 
Q 39.703125 55.765625 41.0625 55.515625 
z
" id="DejaVuSans-114"/>
      <path d="M 34.28125 27.484375 
Q 23.390625 27.484375 19.1875 25 
Q 14.984375 22.515625 14.984375 16.5 
Q 14.984375 11.71875 18.140625 8.90625 
Q 21.296875 6.109375 26.703125 6.109375 
Q 34.1875 6.109375 38.703125 11.40625 
Q 43.21875 16.703125 43.21875 25.484375 
L 43.21875 27.484375 
z
M 52.203125 31.203125 
L 52.203125 0 
L 43.21875 0 
L 43.21875 8.296875 
Q 40.140625 3.328125 35.546875 0.953125 
Q 30.953125 -1.421875 24.3125 -1.421875 
Q 15.921875 -1.421875 10.953125 3.296875 
Q 6 8.015625 6 15.921875 
Q 6 25.140625 12.171875 29.828125 
Q 18.359375 34.515625 30.609375 34.515625 
L 43.21875 34.515625 
L 43.21875 35.40625 
Q 43.21875 41.609375 39.140625 45 
Q 35.0625 48.390625 27.6875 48.390625 
Q 23 48.390625 18.546875 47.265625 
Q 14.109375 46.140625 10.015625 43.890625 
L 10.015625 52.203125 
Q 14.9375 54.109375 19.578125 55.046875 
Q 24.21875 56 28.609375 56 
Q 40.484375 56 46.34375 49.84375 
Q 52.203125 43.703125 52.203125 31.203125 
z
" id="DejaVuSans-97"/>
      <path d="M 18.3125 70.21875 
L 18.3125 54.6875 
L 36.8125 54.6875 
L 36.8125 47.703125 
L 18.3125 47.703125 
L 18.3125 18.015625 
Q 18.3125 11.328125 20.140625 9.421875 
Q 21.96875 7.515625 27.59375 7.515625 
L 36.8125 7.515625 
L 36.8125 0 
L 27.59375 0 
Q 17.1875 0 13.234375 3.875 
Q 9.28125 7.765625 9.28125 18.015625 
L 9.28125 47.703125 
L 2.6875 47.703125 
L 2.6875 54.6875 
L 9.28125 54.6875 
L 9.28125 70.21875 
z
" id="DejaVuSans-116"/>
      <path d="M 9.421875 54.6875 
L 18.40625 54.6875 
L 18.40625 0 
L 9.421875 0 
z
M 9.421875 75.984375 
L 18.40625 75.984375 
L 18.40625 64.59375 
L 9.421875 64.59375 
z
" id="DejaVuSans-105"/>
      <path d="M 30.609375 48.390625 
Q 23.390625 48.390625 19.1875 42.75 
Q 14.984375 37.109375 14.984375 27.296875 
Q 14.984375 17.484375 19.15625 11.84375 
Q 23.34375 6.203125 30.609375 6.203125 
Q 37.796875 6.203125 41.984375 11.859375 
Q 46.1875 17.53125 46.1875 27.296875 
Q 46.1875 37.015625 41.984375 42.703125 
Q 37.796875 48.390625 30.609375 48.390625 
z
M 30.609375 56 
Q 42.328125 56 49.015625 48.375 
Q 55.71875 40.765625 55.71875 27.296875 
Q 55.71875 13.875 49.015625 6.21875 
Q 42.328125 -1.421875 30.609375 -1.421875 
Q 18.84375 -1.421875 12.171875 6.21875 
Q 5.515625 13.875 5.515625 27.296875 
Q 5.515625 40.765625 12.171875 48.375 
Q 18.84375 56 30.609375 56 
z
" id="DejaVuSans-111"/>
      <path d="M 44.28125 53.078125 
L 44.28125 44.578125 
Q 40.484375 46.53125 36.375 47.5 
Q 32.28125 48.484375 27.875 48.484375 
Q 21.1875 48.484375 17.84375 46.4375 
Q 14.5 44.390625 14.5 40.28125 
Q 14.5 37.15625 16.890625 35.375 
Q 19.28125 33.59375 26.515625 31.984375 
L 29.59375 31.296875 
Q 39.15625 29.25 43.1875 25.515625 
Q 47.21875 21.78125 47.21875 15.09375 
Q 47.21875 7.46875 41.1875 3.015625 
Q 35.15625 -1.421875 24.609375 -1.421875 
Q 20.21875 -1.421875 15.453125 -0.5625 
Q 10.6875 0.296875 5.421875 2 
L 5.421875 11.28125 
Q 10.40625 8.6875 15.234375 7.390625 
Q 20.0625 6.109375 24.8125 6.109375 
Q 31.15625 6.109375 34.5625 8.28125 
Q 37.984375 10.453125 37.984375 14.40625 
Q 37.984375 18.0625 35.515625 20.015625 
Q 33.0625 21.96875 24.703125 23.78125 
L 21.578125 24.515625 
Q 13.234375 26.265625 9.515625 29.90625 
Q 5.8125 33.546875 5.8125 39.890625 
Q 5.8125 47.609375 11.28125 51.796875 
Q 16.75 56 26.8125 56 
Q 31.78125 56 36.171875 55.265625 
Q 40.578125 54.546875 44.28125 53.078125 
z
" id="DejaVuSans-115"/>
     </defs>
     <g transform="translate(190.902344 280.276563)scale(0.1 -0.1)">
      <use xlink:href="#DejaVuSans-71"/>
      <use x="77.490234" xlink:href="#DejaVuSans-101"/>
      <use x="139.013672" xlink:href="#DejaVuSans-110"/>
      <use x="202.392578" xlink:href="#DejaVuSans-101"/>
      <use x="263.916016" xlink:href="#DejaVuSans-114"/>
      <use x="305.029297" xlink:href="#DejaVuSans-97"/>
      <use x="366.308594" xlink:href="#DejaVuSans-116"/>
      <use x="405.517578" xlink:href="#DejaVuSans-105"/>
      <use x="433.300781" xlink:href="#DejaVuSans-111"/>
      <use x="494.482422" xlink:href="#DejaVuSans-110"/>
      <use x="557.861328" xlink:href="#DejaVuSans-115"/>
     </g>
    </g>
   </g>
   <g id="matplotlib.axis_2">
    <g id="ytick_1">
     <g id="line2d_19">
      <path clip-path="url(#pfa638b3309)" d="M 54 229.75297 
L 388.8 229.75297 
" style="fill:none;stroke:#b0b0b0;stroke-linecap:square;stroke-width:0.8;"/>
     </g>
     <g id="line2d_20">
      <defs>
       <path d="M 0 0 
L -3.5 0 
" id="m221e695430" style="stroke:#000000;stroke-width:0.8;"/>
      </defs>
      <g>
       <use style="stroke:#000000;stroke-width:0.8;" x="54" xlink:href="#m221e695430" y="229.75297"/>
      </g>
     </g>
     <g id="text_11">
      <!-- −4000 -->
      <defs>
       <path d="M 10.59375 35.5 
L 73.1875 35.5 
L 73.1875 27.203125 
L 10.59375 27.203125 
z
" id="DejaVuSans-8722"/>
      </defs>
      <g transform="translate(13.170313 233.552189)scale(0.1 -0.1)">
       <use xlink:href="#DejaVuSans-8722"/>
       <use x="83.789062" xlink:href="#DejaVuSans-52"/>
       <use x="147.412109" xlink:href="#DejaVuSans-48"/>
       <use x="211.035156" xlink:href="#DejaVuSans-48"/>
       <use x="274.658203" xlink:href="#DejaVuSans-48"/>
      </g>
     </g>
    </g>
    <g id="ytick_2">
     <g id="line2d_21">
      <path clip-path="url(#pfa638b3309)" d="M 54 181.789671 
L 388.8 181.789671 
" style="fill:none;stroke:#b0b0b0;stroke-linecap:square;stroke-width:0.8;"/>
     </g>
     <g id="line2d_22">
      <g>
       <use style="stroke:#000000;stroke-width:0.8;" x="54" xlink:href="#m221e695430" y="181.789671"/>
      </g>
     </g>
     <g id="text_12">
      <!-- −2000 -->
      <g transform="translate(13.170313 185.58889)scale(0.1 -0.1)">
       <use xlink:href="#DejaVuSans-8722"/>
       <use x="83.789062" xlink:href="#DejaVuSans-50"/>
       <use x="147.412109" xlink:href="#DejaVuSans-48"/>
       <use x="211.035156" xlink:href="#DejaVuSans-48"/>
       <use x="274.658203" xlink:href="#DejaVuSans-48"/>
      </g>
     </g>
    </g>
    <g id="ytick_3">
     <g id="line2d_23">
      <path clip-path="url(#pfa638b3309)" d="M 54 133.826373 
L 388.8 133.826373 
" style="fill:none;stroke:#b0b0b0;stroke-linecap:square;stroke-width:0.8;"/>
     </g>
     <g id="line2d_24">
      <g>
       <use style="stroke:#000000;stroke-width:0.8;" x="54" xlink:href="#m221e695430" y="133.826373"/>
      </g>
     </g>
     <g id="text_13">
      <!-- 0 -->
      <g transform="translate(40.6375 137.625592)scale(0.1 -0.1)">
       <use xlink:href="#DejaVuSans-48"/>
      </g>
     </g>
    </g>
    <g id="ytick_4">
     <g id="line2d_25">
      <path clip-path="url(#pfa638b3309)" d="M 54 85.863075 
L 388.8 85.863075 
" style="fill:none;stroke:#b0b0b0;stroke-linecap:square;stroke-width:0.8;"/>
     </g>
     <g id="line2d_26">
      <g>
       <use style="stroke:#000000;stroke-width:0.8;" x="54" xlink:href="#m221e695430" y="85.863075"/>
      </g>
     </g>
     <g id="text_14">
      <!-- 2000 -->
      <g transform="translate(21.55 89.662294)scale(0.1 -0.1)">
       <use xlink:href="#DejaVuSans-50"/>
       <use x="63.623047" xlink:href="#DejaVuSans-48"/>
       <use x="127.246094" xlink:href="#DejaVuSans-48"/>
       <use x="190.869141" xlink:href="#DejaVuSans-48"/>
      </g>
     </g>
    </g>
    <g id="ytick_5">
     <g id="line2d_27">
      <path clip-path="url(#pfa638b3309)" d="M 54 37.899777 
L 388.8 37.899777 
" style="fill:none;stroke:#b0b0b0;stroke-linecap:square;stroke-width:0.8;"/>
     </g>
     <g id="line2d_28">
      <g>
       <use style="stroke:#000000;stroke-width:0.8;" x="54" xlink:href="#m221e695430" y="37.899777"/>
      </g>
     </g>
     <g id="text_15">
      <!-- 4000 -->
      <g transform="translate(21.55 41.698995)scale(0.1 -0.1)">
       <use xlink:href="#DejaVuSans-52"/>
       <use x="63.623047" xlink:href="#DejaVuSans-48"/>
       <use x="127.246094" xlink:href="#DejaVuSans-48"/>
       <use x="190.869141" xlink:href="#DejaVuSans-48"/>
      </g>
     </g>
    </g>
    <g id="text_16">
     <!-- Fitness -->
     <defs>
      <path d="M 9.8125 72.90625 
L 51.703125 72.90625 
L 51.703125 64.59375 
L 19.671875 64.59375 
L 19.671875 43.109375 
L 48.578125 43.109375 
L 48.578125 34.8125 
L 19.671875 34.8125 
L 19.671875 0 
L 9.8125 0 
z
" id="DejaVuSans-70"/>
     </defs>
     <g transform="translate(7.090625 160.954219)rotate(-90)scale(0.1 -0.1)">
      <use xlink:href="#DejaVuSans-70"/>
      <use x="57.410156" xlink:href="#DejaVuSans-105"/>
      <use x="85.193359" xlink:href="#DejaVuSans-116"/>
      <use x="124.402344" xlink:href="#DejaVuSans-110"/>
      <use x="187.78125" xlink:href="#DejaVuSans-101"/>
      <use x="249.304688" xlink:href="#DejaVuSans-115"/>
      <use x="301.404297" xlink:href="#DejaVuSans-115"/>
     </g>
    </g>
   </g>
   <g id="line2d_29">
    <path clip-path="url(#pfa638b3309)" d="M 69.218182 134.727133 
L 69.966004 134.667559 
L 70.713826 134.897511 
L 71.461648 136.660467 
L 72.209471 134.471573 
L 72.957293 135.14035 
L 73.705115 135.260191 
L 74.452937 134.651204 
L 75.948582 134.096082 
L 77.444226 134.285718 
L 78.192048 134.026273 
L 78.93987 134.734166 
L 79.687693 133.671582 
L 80.435515 134.548136 
L 81.183337 134.262438 
L 81.931159 134.353132 
L 82.678981 134.259242 
L 83.426804 135.368733 
L 84.174626 134.179019 
L 84.922448 134.387896 
L 85.67027 133.942559 
L 86.418092 134.642163 
L 87.165915 134.051443 
L 87.913737 134.066049 
L 88.661559 134.827711 
L 89.409381 134.1563 
L 90.157203 134.106434 
L 90.905026 133.731604 
L 92.40067 133.61973 
L 93.148492 133.363676 
L 93.896314 133.829203 
L 94.644137 133.245817 
L 95.391959 133.66536 
L 96.887603 133.537277 
L 97.635426 133.686385 
L 98.383248 134.106865 
L 99.13107 133.934898 
L 99.878892 134.027313 
L 100.626714 133.213685 
L 101.374537 133.379695 
L 102.122359 133.789896 
L 102.870181 132.838312 
L 103.618003 132.936932 
L 104.365825 133.546701 
L 105.113648 133.688115 
L 105.86147 133.405724 
L 107.357114 133.474075 
L 108.104936 133.203851 
L 109.600581 133.294718 
L 110.348403 133.071054 
L 111.096225 133.712942 
L 111.844047 133.019397 
L 112.59187 132.611502 
L 114.087514 133.317517 
L 114.835336 132.981362 
L 115.583158 133.301501 
L 116.330981 133.400286 
L 117.078803 133.027865 
L 117.826625 133.968891 
L 118.574447 143.28 
L 119.322269 132.822912 
L 120.070092 133.508232 
L 120.817914 133.585676 
L 121.565736 132.78581 
L 122.313558 133.107832 
L 123.06138 135.268546 
L 123.809203 133.513915 
L 124.557025 133.585745 
L 126.052669 134.614896 
L 126.800491 134.115741 
L 127.548314 134.047614 
L 128.296136 133.717203 
L 129.043958 139.329467 
L 129.79178 134.134602 
L 130.539602 134.008398 
L 131.287425 134.067825 
L 132.035247 133.235581 
L 132.783069 133.487459 
L 133.530891 133.926121 
L 134.278713 133.223339 
L 135.026536 133.691315 
L 135.774358 133.227746 
L 136.52218 133.890502 
L 137.270002 133.880147 
L 138.017824 133.602423 
L 138.765647 134.00951 
L 139.513469 133.11842 
L 140.261291 133.825216 
L 141.009113 134.199972 
L 142.504758 134.066958 
L 143.25258 134.37867 
L 144.000402 133.547195 
L 144.748224 134.33538 
L 145.496046 133.716087 
L 146.243869 133.872847 
L 146.991691 134.804531 
L 147.739513 133.291695 
L 149.235157 133.46594 
L 150.730802 134.077805 
L 151.478624 133.995547 
L 152.226446 134.895339 
L 152.974268 134.678064 
L 153.722091 134.337806 
L 154.469913 134.173366 
L 155.217735 138.147738 
L 155.965557 133.993246 
L 157.461202 133.661082 
L 158.209024 133.722068 
L 158.956846 134.181324 
L 159.704668 134.037908 
L 160.452491 134.145492 
L 161.200313 134.402512 
L 161.948135 133.905827 
L 162.695957 134.718601 
L 163.443779 134.313249 
L 164.191602 134.050637 
L 164.939424 134.703943 
L 165.687246 135.055148 
L 166.435068 134.54529 
L 167.18289 134.664836 
L 167.930713 134.136257 
L 168.678535 134.29009 
L 169.426357 134.794992 
L 170.174179 134.201803 
L 170.922001 134.620272 
L 172.417646 134.446749 
L 173.165468 134.126548 
L 173.91329 134.24665 
L 174.661112 134.656253 
L 175.408935 133.740942 
L 176.156757 133.551707 
L 176.904579 134.784656 
L 177.652401 134.197296 
L 178.400223 134.568866 
L 179.148046 133.767661 
L 179.895868 134.258486 
L 180.64369 137.354075 
L 181.391512 134.25819 
L 182.139334 134.057268 
L 182.887157 134.071283 
L 183.634979 133.697416 
L 184.382801 134.014008 
L 185.130623 133.890807 
L 187.37409 134.075198 
L 188.121912 133.582955 
L 188.869734 134.575595 
L 189.617556 133.7746 
L 190.365379 133.439575 
L 191.113201 133.893456 
L 191.861023 133.582615 
L 193.356667 133.886681 
L 194.10449 133.340879 
L 194.852312 133.643873 
L 195.600134 133.292924 
L 197.095778 133.392399 
L 197.843601 133.060741 
L 200.087067 133.330887 
L 200.834889 132.984401 
L 201.582712 134.239302 
L 202.330534 136.126341 
L 203.078356 133.6751 
L 203.826178 133.950673 
L 204.574 134.017694 
L 205.321823 133.286005 
L 206.069645 134.281129 
L 206.817467 133.691638 
L 207.565289 133.438318 
L 208.313111 133.803061 
L 209.060934 133.503712 
L 209.808756 133.712798 
L 210.556578 134.136991 
L 211.3044 133.366719 
L 212.052222 134.119181 
L 212.800045 133.765242 
L 214.295689 133.580733 
L 215.043511 134.199776 
L 215.791333 133.362132 
L 216.539156 134.306915 
L 217.286978 133.966864 
L 218.0348 133.482627 
L 218.782622 133.989916 
L 219.530444 133.650217 
L 220.278267 133.563432 
L 221.773911 133.828468 
L 222.521733 133.43301 
L 223.269556 133.688898 
L 224.017378 133.650988 
L 224.7652 134.252006 
L 225.513022 133.820732 
L 226.260844 134.051597 
L 227.008667 133.480981 
L 227.756489 133.990347 
L 228.504311 134.330612 
L 229.252133 133.665441 
L 229.999955 133.889293 
L 230.747778 140.240842 
L 231.4956 133.498469 
L 232.243422 133.176323 
L 232.991244 133.684574 
L 233.739066 133.206215 
L 234.486889 133.29223 
L 235.234711 133.88699 
L 236.730355 133.427509 
L 237.478177 133.934239 
L 238.226 133.665497 
L 238.973822 133.104288 
L 239.721644 133.864334 
L 240.469466 133.415379 
L 241.217288 133.711144 
L 241.965111 133.372538 
L 242.712933 133.215189 
L 243.460755 133.899506 
L 244.208577 133.538837 
L 244.956399 133.813391 
L 245.704222 132.966346 
L 246.452044 132.961864 
L 247.199866 134.295871 
L 247.947688 133.277064 
L 248.69551 133.543376 
L 249.443333 133.179349 
L 250.191155 133.349184 
L 250.938977 133.268565 
L 251.686799 133.032476 
L 252.434621 133.497332 
L 253.182444 133.316541 
L 254.678088 133.890624 
L 256.173732 132.903447 
L 256.921555 133.644472 
L 257.669377 133.326102 
L 258.417199 132.729248 
L 259.165021 132.853967 
L 259.912843 133.251888 
L 260.660666 132.733289 
L 261.408488 133.65981 
L 262.15631 133.232913 
L 262.904132 133.010723 
L 263.651954 133.728355 
L 264.399777 132.93466 
L 265.895421 133.596091 
L 266.643243 133.193717 
L 267.391065 132.934718 
L 268.138888 134.232531 
L 268.88671 133.324546 
L 269.634532 133.373315 
L 270.382354 133.082673 
L 271.130176 133.079138 
L 271.877999 132.545381 
L 272.625821 133.160971 
L 273.373643 133.143166 
L 274.121465 132.684771 
L 274.869287 133.751869 
L 275.61711 133.353571 
L 276.364932 133.549821 
L 277.860576 132.595424 
L 279.356221 133.33186 
L 280.104043 133.199429 
L 280.851865 133.316278 
L 281.599687 133.60503 
L 282.347509 132.866268 
L 283.095332 133.71372 
L 283.843154 133.575332 
L 284.590976 132.813803 
L 285.338798 133.171216 
L 286.086621 133.798025 
L 286.834443 133.482371 
L 287.582265 133.774257 
L 288.330087 132.749436 
L 289.077909 133.514317 
L 289.825732 133.537983 
L 290.573554 133.683477 
L 291.321376 133.071838 
L 292.069198 133.916919 
L 292.81702 133.474624 
L 295.060487 134.036497 
L 295.808309 134.0064 
L 296.556131 132.780783 
L 297.303954 133.287267 
L 298.051776 133.62545 
L 298.799598 133.610022 
L 299.54742 133.970954 
L 300.295242 133.558367 
L 301.043065 133.34325 
L 301.790887 133.244285 
L 302.538709 133.768286 
L 303.286531 133.479678 
L 304.034353 133.555452 
L 304.782176 133.48436 
L 306.27782 133.900309 
L 307.025642 135.72667 
L 307.773464 133.884958 
L 308.521287 133.491639 
L 309.269109 133.826273 
L 310.016931 133.319881 
L 310.764753 133.47153 
L 313.00822 133.540246 
L 313.756042 132.787295 
L 314.503864 133.984629 
L 315.999509 133.350517 
L 316.747331 133.545921 
L 317.495153 133.32566 
L 318.242975 133.535657 
L 318.990797 133.586628 
L 319.73862 133.794567 
L 320.486442 133.662639 
L 321.234264 133.360979 
L 321.982086 133.199686 
L 322.729908 133.867999 
L 323.477731 133.38763 
L 324.225553 133.674163 
L 324.973375 132.821758 
L 325.721197 134.072957 
L 326.469019 133.664242 
L 327.216842 133.958833 
L 327.964664 133.486243 
L 329.460308 134.305215 
L 330.20813 134.41568 
L 330.955953 134.40887 
L 332.451597 133.833724 
L 333.199419 134.414827 
L 333.947241 134.086782 
L 334.695064 134.172562 
L 335.442886 133.556387 
L 336.190708 134.220102 
L 336.93853 134.082735 
L 337.686352 134.137653 
L 338.434175 133.442246 
L 339.929819 134.114402 
L 340.677641 134.863096 
L 342.173286 133.967198 
L 342.921108 134.622517 
L 343.66893 134.541361 
L 344.416752 134.809818 
L 345.164574 134.202996 
L 345.912397 135.019549 
L 347.408041 133.763021 
L 348.155863 134.848658 
L 349.651508 134.338435 
L 350.39933 134.239417 
L 351.147152 134.879884 
L 351.894974 133.807139 
L 352.642797 134.054896 
L 353.390619 133.350379 
L 354.138441 133.637552 
L 354.886263 133.713796 
L 355.634085 133.567905 
L 356.381908 134.083434 
L 357.12973 134.285973 
L 357.877552 134.158972 
L 358.625374 133.476091 
L 359.373196 133.7344 
L 360.121019 134.98584 
L 360.868841 133.823813 
L 361.616663 133.769455 
L 362.364485 134.157408 
L 363.112307 134.338026 
L 363.86013 133.448314 
L 364.607952 133.833234 
L 367.599241 133.481097 
L 368.347063 133.838574 
L 369.094885 133.989791 
L 369.842707 133.125303 
L 371.338352 133.518568 
L 372.086174 133.803021 
L 372.833996 133.409775 
L 373.581818 133.682472 
L 373.581818 133.682472 
" style="fill:none;stroke:#0000ff;stroke-linecap:square;stroke-width:1.5;"/>
   </g>
   <g id="line2d_30">
    <path clip-path="url(#pfa638b3309)" d="M 69.218182 138.938811 
L 69.966004 137.978469 
L 70.713826 138.327325 
L 71.461648 150.930603 
L 72.209471 137.656365 
L 72.957293 138.757551 
L 73.705115 145.3171 
L 74.452937 138.342879 
L 75.200759 137.588169 
L 75.948582 137.307014 
L 76.696404 137.411869 
L 77.444226 138.021757 
L 78.192048 137.209515 
L 78.93987 139.409378 
L 79.687693 136.664744 
L 80.435515 138.087326 
L 81.183337 137.569535 
L 81.931159 138.088766 
L 82.678981 137.770668 
L 83.426804 139.779886 
L 84.174626 137.648129 
L 84.922448 138.356962 
L 85.67027 138.466538 
L 86.418092 139.687233 
L 87.165915 137.981482 
L 87.913737 138.243063 
L 88.661559 139.470497 
L 89.409381 140.227019 
L 90.157203 138.635605 
L 90.905026 137.995453 
L 91.652848 139.061784 
L 92.40067 138.284826 
L 93.148492 138.173565 
L 93.896314 138.75466 
L 94.644137 137.795058 
L 95.391959 138.189886 
L 96.139781 138.347494 
L 96.887603 139.015467 
L 97.635426 138.310938 
L 98.383248 139.454649 
L 99.13107 139.734214 
L 99.878892 139.632469 
L 100.626714 137.47427 
L 101.374537 138.33791 
L 102.122359 139.919047 
L 102.870181 137.549659 
L 103.618003 137.643537 
L 105.113648 139.179422 
L 105.86147 138.770948 
L 107.357114 138.63654 
L 108.104936 138.121333 
L 108.852759 138.455877 
L 109.600581 138.445118 
L 110.348403 139.060197 
L 111.096225 139.358525 
L 111.844047 138.161635 
L 112.59187 137.598417 
L 113.339692 138.627522 
L 114.087514 138.629114 
L 114.835336 137.833986 
L 115.583158 138.711859 
L 116.330981 139.144692 
L 117.078803 137.992925 
L 117.826625 143.222401 
L 118.574447 242.116364 
L 119.322269 138.246432 
L 120.070092 138.988327 
L 120.817914 139.206537 
L 121.565736 137.743328 
L 122.313558 138.659307 
L 123.06138 148.525393 
L 123.809203 138.19368 
L 124.557025 138.411507 
L 125.304847 139.262275 
L 126.052669 141.046169 
L 126.800491 139.33522 
L 127.548314 139.765969 
L 128.296136 138.51923 
L 129.043958 191.685174 
L 129.79178 139.533585 
L 130.539602 139.241116 
L 131.287425 141.511479 
L 132.035247 138.198945 
L 132.783069 138.611014 
L 133.530891 139.708531 
L 134.278713 138.022631 
L 135.026536 138.971784 
L 135.774358 138.267878 
L 136.52218 139.354186 
L 137.270002 141.016579 
L 138.017824 138.837232 
L 138.765647 139.363162 
L 139.513469 138.069851 
L 140.261291 138.891571 
L 141.009113 139.437555 
L 141.756935 139.214728 
L 142.504758 139.218977 
L 143.25258 140.04319 
L 144.000402 139.110488 
L 144.748224 140.349879 
L 145.496046 138.954602 
L 146.243869 138.800273 
L 146.991691 145.138976 
L 147.739513 138.195894 
L 148.487335 138.329563 
L 149.235157 138.297795 
L 150.730802 139.755805 
L 151.478624 138.921008 
L 152.226446 143.33289 
L 152.974268 140.527977 
L 153.722091 139.709059 
L 154.469913 139.360188 
L 155.217735 181.631074 
L 155.965557 139.148773 
L 156.713379 139.297192 
L 157.461202 138.685755 
L 158.209024 139.311286 
L 158.956846 139.43193 
L 159.704668 139.126788 
L 160.452491 139.198281 
L 161.200313 139.610464 
L 161.948135 138.429982 
L 162.695957 139.429683 
L 163.443779 138.819602 
L 164.191602 138.539023 
L 164.939424 138.9003 
L 165.687246 139.960451 
L 166.435068 138.837524 
L 167.18289 141.99181 
L 167.930713 138.761851 
L 168.678535 139.013383 
L 169.426357 142.782338 
L 170.174179 138.621815 
L 170.922001 139.20029 
L 171.669824 139.180086 
L 172.417646 139.507208 
L 173.165468 138.440301 
L 173.91329 138.808351 
L 174.661112 140.546244 
L 175.408935 137.995118 
L 176.156757 137.691211 
L 176.904579 139.185087 
L 177.652401 138.70935 
L 178.400223 139.382581 
L 179.148046 138.141543 
L 179.895868 139.878492 
L 180.64369 161.034319 
L 181.391512 138.935526 
L 182.139334 138.530125 
L 182.887157 138.733715 
L 184.382801 138.558903 
L 185.130623 138.991248 
L 185.878445 138.459141 
L 186.626268 138.341837 
L 187.37409 139.188438 
L 188.121912 137.953557 
L 188.869734 140.262214 
L 189.617556 138.295502 
L 190.365379 137.999632 
L 191.113201 138.880147 
L 191.861023 137.959308 
L 192.608845 138.458478 
L 193.356667 138.666063 
L 194.10449 137.795178 
L 194.852312 138.609267 
L 195.600134 138.287401 
L 196.347956 138.131762 
L 197.095778 138.375708 
L 197.843601 137.973523 
L 198.591423 138.296065 
L 200.087067 138.080377 
L 200.834889 138.197258 
L 201.582712 139.001085 
L 202.330534 155.219875 
L 203.078356 138.202632 
L 203.826178 138.698607 
L 204.574 138.597712 
L 205.321823 137.518421 
L 206.069645 139.458679 
L 206.817467 138.644189 
L 207.565289 138.295086 
L 208.313111 138.743845 
L 209.060934 138.542798 
L 209.808756 138.689624 
L 210.556578 139.268115 
L 211.3044 138.290384 
L 212.052222 139.992636 
L 212.800045 138.567185 
L 214.295689 138.491904 
L 215.043511 140.048525 
L 215.791333 138.081721 
L 216.539156 139.90793 
L 217.286978 138.981708 
L 218.0348 138.553352 
L 218.782622 139.405417 
L 219.530444 139.838841 
L 220.278267 139.906932 
L 221.026089 139.105943 
L 221.773911 139.675563 
L 222.521733 138.469866 
L 223.269556 139.906893 
L 224.017378 138.794757 
L 224.7652 140.095884 
L 225.513022 138.603051 
L 226.260844 139.127783 
L 227.008667 138.146014 
L 227.756489 138.836509 
L 228.504311 140.312315 
L 229.252133 138.456697 
L 229.999955 138.947916 
L 230.747778 206.377445 
L 231.4956 138.719187 
L 232.243422 138.069835 
L 232.991244 138.750044 
L 233.739066 138.23525 
L 234.486889 138.374851 
L 235.234711 139.307306 
L 235.982533 139.019984 
L 236.730355 138.485951 
L 237.478177 139.545797 
L 238.226 138.948261 
L 238.973822 138.190644 
L 239.721644 139.572621 
L 240.469466 138.348377 
L 241.217288 138.603705 
L 242.712933 137.935835 
L 243.460755 139.878825 
L 244.208577 138.633376 
L 244.956399 139.299237 
L 245.704222 137.837334 
L 246.452044 138.016105 
L 247.199866 141.605778 
L 247.947688 138.618877 
L 248.69551 139.170562 
L 249.443333 138.366459 
L 250.191155 138.865037 
L 250.938977 138.661057 
L 251.686799 138.215633 
L 252.434621 139.754779 
L 253.182444 138.514581 
L 253.930266 138.936109 
L 254.678088 140.633807 
L 255.42591 138.729928 
L 256.173732 138.858219 
L 256.921555 139.653899 
L 258.417199 138.22351 
L 259.912843 139.105066 
L 260.660666 138.163774 
L 261.408488 139.861289 
L 262.15631 138.543129 
L 262.904132 138.516062 
L 263.651954 141.44904 
L 264.399777 138.265376 
L 265.147599 138.879527 
L 265.895421 140.040887 
L 266.643243 138.945272 
L 267.391065 139.387146 
L 268.138888 142.228509 
L 268.88671 139.172042 
L 269.634532 138.858463 
L 270.382354 139.055229 
L 271.130176 138.841036 
L 271.877999 138.037572 
L 272.625821 138.946695 
L 273.373643 139.080616 
L 274.121465 138.165794 
L 274.869287 140.394499 
L 275.61711 139.621135 
L 276.364932 139.965445 
L 277.112754 138.974188 
L 277.860576 137.633366 
L 279.356221 139.111615 
L 280.104043 138.867561 
L 280.851865 138.83521 
L 281.599687 139.437671 
L 282.347509 138.207386 
L 283.095332 139.316857 
L 283.843154 139.134235 
L 284.590976 138.15546 
L 285.338798 138.428927 
L 286.086621 140.542019 
L 286.834443 138.852616 
L 287.582265 138.882694 
L 288.330087 137.836929 
L 289.077909 138.575227 
L 289.825732 138.988827 
L 290.573554 140.050953 
L 291.321376 137.866927 
L 292.069198 141.361756 
L 292.81702 138.431077 
L 293.564843 138.691297 
L 294.312665 139.353845 
L 295.060487 139.740271 
L 295.808309 139.779936 
L 296.556131 137.653291 
L 297.303954 138.442603 
L 298.051776 139.040824 
L 298.799598 138.628691 
L 299.54742 141.616571 
L 300.295242 138.774967 
L 301.043065 138.309433 
L 301.790887 138.714626 
L 302.538709 138.69607 
L 303.286531 138.212943 
L 304.034353 138.638246 
L 304.782176 138.384079 
L 305.529998 138.826085 
L 306.27782 139.927678 
L 307.025642 152.307406 
L 307.773464 139.199015 
L 308.521287 138.501184 
L 309.269109 139.188308 
L 310.016931 138.242833 
L 310.764753 138.293061 
L 311.512575 138.627615 
L 312.260398 138.280623 
L 313.00822 138.925238 
L 313.756042 137.643547 
L 314.503864 139.580964 
L 315.251686 138.705453 
L 315.999509 138.530763 
L 316.747331 138.896805 
L 317.495153 138.484089 
L 318.242975 138.307059 
L 318.990797 138.789416 
L 320.486442 140.180632 
L 321.234264 138.724156 
L 321.982086 138.448961 
L 322.729908 139.430564 
L 323.477731 138.558973 
L 324.225553 139.044975 
L 324.973375 138.400584 
L 325.721197 141.028588 
L 326.469019 139.217587 
L 327.216842 139.361356 
L 327.964664 138.824753 
L 328.712486 139.465839 
L 329.460308 139.815369 
L 330.20813 139.352247 
L 331.703775 139.085463 
L 332.451597 138.326885 
L 333.199419 140.30001 
L 333.947241 139.257667 
L 334.695064 139.009026 
L 335.442886 138.122775 
L 336.190708 138.764882 
L 336.93853 138.937468 
L 337.686352 138.935432 
L 338.434175 138.788206 
L 339.181997 138.033798 
L 339.929819 137.492267 
L 340.677641 139.467608 
L 341.425463 137.929567 
L 342.173286 137.334198 
L 342.921108 139.210745 
L 344.416752 139.062173 
L 345.164574 139.624151 
L 345.912397 141.192755 
L 346.660219 138.500072 
L 347.408041 137.658934 
L 348.155863 140.027132 
L 348.903686 139.268839 
L 349.651508 138.947417 
L 350.39933 138.341018 
L 351.147152 142.16526 
L 351.894974 137.899288 
L 352.642797 138.627064 
L 353.390619 137.616877 
L 354.886263 137.636687 
L 355.634085 137.880998 
L 357.12973 139.557357 
L 358.625374 137.638233 
L 359.373196 138.281518 
L 360.121019 141.27217 
L 360.868841 138.163938 
L 361.616663 138.281281 
L 362.364485 141.930513 
L 363.86013 137.585206 
L 364.607952 138.218905 
L 365.355774 138.356023 
L 366.103596 138.335105 
L 366.851418 137.825335 
L 367.599241 137.971159 
L 369.094885 139.134379 
L 369.842707 137.572672 
L 370.590529 137.7228 
L 371.338352 138.706377 
L 372.086174 139.88011 
L 372.833996 138.019128 
L 373.581818 138.300515 
L 373.581818 138.300515 
" style="fill:none;stroke:#008000;stroke-dasharray:9.6,2.4,1.5,2.4;stroke-dashoffset:0;stroke-width:1.5;"/>
   </g>
   <g id="line2d_31">
    <path clip-path="url(#pfa638b3309)" d="M 69.218182 130.515456 
L 69.966004 131.356648 
L 70.713826 131.467698 
L 71.461648 122.390331 
L 72.209471 131.286781 
L 72.957293 131.523149 
L 73.705115 125.203282 
L 74.452937 130.959528 
L 75.200759 131.104331 
L 75.948582 130.88515 
L 76.696404 130.977606 
L 77.444226 130.54968 
L 78.192048 130.843031 
L 78.93987 130.058954 
L 79.687693 130.678419 
L 80.435515 131.008947 
L 81.183337 130.955341 
L 81.931159 130.617499 
L 83.426804 130.95758 
L 84.922448 130.41883 
L 85.67027 129.41858 
L 86.418092 129.597092 
L 87.165915 130.121405 
L 87.913737 129.889034 
L 88.661559 130.184924 
L 89.409381 128.08558 
L 90.157203 129.577264 
L 90.905026 129.467755 
L 91.652848 128.311385 
L 92.40067 128.954634 
L 93.148492 128.553787 
L 93.896314 128.903746 
L 94.644137 128.696576 
L 95.391959 129.140835 
L 96.139781 128.797022 
L 96.887603 128.059087 
L 97.635426 129.061832 
L 98.383248 128.759081 
L 99.13107 128.135583 
L 99.878892 128.422157 
L 100.626714 128.9531 
L 101.374537 128.421479 
L 102.122359 127.660745 
L 102.870181 128.126965 
L 103.618003 128.230326 
L 104.365825 128.653705 
L 105.113648 128.196809 
L 105.86147 128.0405 
L 106.609292 128.068095 
L 107.357114 128.311611 
L 108.104936 128.28637 
L 108.852759 128.139888 
L 109.600581 128.144318 
L 110.348403 127.08191 
L 111.096225 128.06736 
L 112.59187 127.624587 
L 113.339692 127.344439 
L 114.087514 128.005921 
L 114.835336 128.128738 
L 116.330981 127.65588 
L 117.078803 128.062804 
L 117.826625 124.715381 
L 118.574447 44.443636 
L 119.322269 127.399392 
L 120.070092 128.028136 
L 121.565736 127.828291 
L 122.313558 127.556357 
L 123.06138 122.011699 
L 123.809203 128.834151 
L 124.557025 128.759984 
L 125.304847 128.834004 
L 126.052669 128.183623 
L 126.800491 128.896262 
L 127.548314 128.329258 
L 128.296136 128.915176 
L 129.043958 86.97376 
L 129.79178 128.735619 
L 130.539602 128.775681 
L 131.287425 126.624171 
L 132.035247 128.272216 
L 132.783069 128.363904 
L 133.530891 128.143712 
L 134.278713 128.424047 
L 135.026536 128.410846 
L 135.774358 128.187613 
L 136.52218 128.426818 
L 137.270002 126.743714 
L 138.017824 128.367613 
L 138.765647 128.655858 
L 139.513469 128.166988 
L 140.261291 128.75886 
L 141.756935 129.124916 
L 143.25258 128.714149 
L 144.000402 127.983903 
L 144.748224 128.32088 
L 145.496046 128.477572 
L 146.243869 128.945421 
L 146.991691 124.470086 
L 147.739513 128.387497 
L 148.487335 128.352009 
L 149.235157 128.634085 
L 150.730802 128.399805 
L 151.478624 129.070086 
L 152.226446 126.457787 
L 152.974268 128.828151 
L 153.722091 128.966554 
L 154.469913 128.986545 
L 155.217735 94.664403 
L 155.965557 128.837719 
L 156.713379 128.352941 
L 157.461202 128.636409 
L 158.209024 128.132849 
L 158.956846 128.930718 
L 159.704668 128.949029 
L 161.948135 129.381672 
L 162.695957 130.007519 
L 164.191602 129.562252 
L 164.939424 130.507586 
L 165.687246 130.149844 
L 166.435068 130.253056 
L 167.18289 127.337863 
L 167.930713 129.510662 
L 168.678535 129.566798 
L 169.426357 126.807646 
L 170.174179 129.781791 
L 170.922001 130.040255 
L 171.669824 129.955282 
L 172.417646 129.386291 
L 173.165468 129.812794 
L 173.91329 129.684948 
L 174.661112 128.766262 
L 175.408935 129.486766 
L 176.156757 129.412202 
L 176.904579 130.384224 
L 177.652401 129.685242 
L 178.400223 129.755152 
L 179.148046 129.39378 
L 179.895868 128.63848 
L 180.64369 113.673831 
L 181.391512 129.580854 
L 182.139334 129.584412 
L 182.887157 129.408851 
L 183.634979 128.780563 
L 184.382801 129.469114 
L 185.130623 128.790367 
L 185.878445 129.42566 
L 186.626268 129.526072 
L 187.37409 128.961958 
L 188.121912 129.212354 
L 188.869734 128.888977 
L 189.617556 129.253698 
L 190.365379 128.879517 
L 191.113201 128.906764 
L 191.861023 129.205923 
L 194.10449 128.886579 
L 194.852312 128.67848 
L 195.600134 128.298447 
L 196.347956 128.592801 
L 198.591423 127.985065 
L 199.339245 128.358237 
L 200.087067 128.581397 
L 200.834889 127.771544 
L 201.582712 129.477518 
L 202.330534 117.032807 
L 203.078356 129.147568 
L 203.826178 129.202739 
L 204.574 129.437675 
L 205.321823 129.05359 
L 206.069645 129.103578 
L 206.817467 128.739088 
L 207.565289 128.58155 
L 208.313111 128.862277 
L 209.060934 128.464627 
L 210.556578 129.005867 
L 211.3044 128.443053 
L 212.052222 128.245726 
L 212.800045 128.963299 
L 215.043511 128.351027 
L 215.791333 128.642543 
L 216.539156 128.7059 
L 217.286978 128.95202 
L 218.0348 128.411902 
L 218.782622 128.574416 
L 219.530444 127.461593 
L 220.278267 127.219932 
L 221.026089 128.276642 
L 221.773911 127.981372 
L 222.521733 128.396153 
L 223.269556 127.470903 
L 224.017378 128.507219 
L 224.7652 128.408128 
L 225.513022 129.038413 
L 227.008667 128.815948 
L 227.756489 129.144185 
L 228.504311 128.348909 
L 229.252133 128.874185 
L 229.999955 128.830669 
L 230.747778 74.104239 
L 231.4956 128.277752 
L 232.243422 128.28281 
L 232.991244 128.619105 
L 233.739066 128.17718 
L 234.486889 128.209608 
L 235.234711 128.466673 
L 235.982533 128.346106 
L 238.226 128.382733 
L 238.973822 128.017931 
L 239.721644 128.156047 
L 241.217288 128.818584 
L 241.965111 128.430044 
L 242.712933 128.494543 
L 243.460755 127.920186 
L 244.208577 128.444297 
L 244.956399 128.327545 
L 246.452044 127.907623 
L 247.199866 126.985963 
L 247.947688 127.93525 
L 251.686799 127.849318 
L 252.434621 127.239884 
L 253.182444 128.118501 
L 253.930266 128.261856 
L 254.678088 127.147441 
L 255.42591 128.110015 
L 256.173732 126.948674 
L 256.921555 127.635046 
L 257.669377 127.760922 
L 258.417199 127.234987 
L 259.165021 127.066366 
L 259.912843 127.398709 
L 260.660666 127.302804 
L 261.408488 127.458331 
L 262.15631 127.922696 
L 262.904132 127.505383 
L 263.651954 126.007669 
L 264.399777 127.603944 
L 265.147599 127.546173 
L 265.895421 127.151295 
L 266.643243 127.442162 
L 267.391065 126.482289 
L 268.138888 126.236553 
L 268.88671 127.47705 
L 269.634532 127.888167 
L 270.382354 127.110117 
L 271.130176 127.31724 
L 271.877999 127.05319 
L 272.625821 127.375248 
L 273.373643 127.205716 
L 274.869287 127.109238 
L 276.364932 127.134198 
L 277.112754 127.239326 
L 277.860576 127.557483 
L 278.608398 127.466935 
L 281.599687 127.772388 
L 282.347509 127.525149 
L 283.095332 128.110584 
L 283.843154 128.01643 
L 284.590976 127.472146 
L 285.338798 127.913506 
L 286.086621 127.054031 
L 286.834443 128.112126 
L 287.582265 128.665819 
L 288.330087 127.661943 
L 289.077909 128.453407 
L 289.825732 128.08714 
L 290.573554 127.316002 
L 291.321376 128.27675 
L 292.069198 126.472081 
L 292.81702 128.518171 
L 293.564843 128.686154 
L 294.312665 128.266966 
L 295.060487 128.332724 
L 295.808309 128.232863 
L 296.556131 127.908274 
L 297.303954 128.131931 
L 298.051776 128.210075 
L 298.799598 128.591353 
L 299.54742 126.325338 
L 300.295242 128.341767 
L 301.043065 128.377067 
L 301.790887 127.773944 
L 302.538709 128.840502 
L 303.286531 128.746413 
L 304.034353 128.472658 
L 305.529998 128.62587 
L 306.27782 127.87294 
L 307.025642 119.145935 
L 307.773464 128.570902 
L 310.016931 128.396928 
L 310.764753 128.649998 
L 311.512575 128.325599 
L 312.260398 128.69487 
L 313.00822 128.155255 
L 313.756042 127.931043 
L 314.503864 128.388293 
L 315.251686 128.506368 
L 315.999509 128.170271 
L 317.495153 128.16723 
L 318.242975 128.764255 
L 319.73862 128.116877 
L 320.486442 127.144646 
L 321.234264 127.997802 
L 321.982086 127.950411 
L 322.729908 128.305434 
L 323.477731 128.216287 
L 324.225553 128.303351 
L 324.973375 127.242931 
L 325.721197 127.117326 
L 326.469019 128.110897 
L 327.216842 128.55631 
L 327.964664 128.147733 
L 328.712486 128.376692 
L 329.460308 128.795061 
L 330.20813 129.479113 
L 330.955953 129.589403 
L 331.703775 129.137736 
L 332.451597 129.340563 
L 333.199419 128.529644 
L 334.695064 129.336097 
L 335.442886 128.99 
L 336.190708 129.675322 
L 336.93853 129.228003 
L 337.686352 129.339873 
L 338.434175 128.096285 
L 339.181997 129.55989 
L 339.929819 130.736537 
L 340.677641 130.258584 
L 341.425463 130.779472 
L 342.173286 130.600198 
L 342.921108 130.034288 
L 343.66893 129.901824 
L 344.416752 130.557462 
L 345.164574 128.781842 
L 345.912397 128.846342 
L 346.660219 130.188929 
L 347.408041 129.867108 
L 348.155863 129.670184 
L 348.903686 129.842772 
L 349.651508 129.729453 
L 350.39933 130.137815 
L 351.147152 127.594508 
L 351.894974 129.714989 
L 352.642797 129.482727 
L 353.390619 129.083881 
L 354.138441 129.608927 
L 354.886263 129.790905 
L 355.634085 129.254813 
L 356.381908 129.397799 
L 357.12973 129.014589 
L 357.877552 129.705062 
L 358.625374 129.31395 
L 359.373196 129.187282 
L 360.121019 128.699509 
L 360.868841 129.483687 
L 361.616663 129.257629 
L 362.364485 126.384303 
L 363.112307 128.854401 
L 363.86013 129.311421 
L 364.607952 129.447564 
L 365.355774 129.087746 
L 366.851418 129.083242 
L 367.599241 128.991036 
L 368.347063 129.158223 
L 369.094885 128.845202 
L 369.842707 128.677935 
L 370.590529 128.902576 
L 372.086174 127.725933 
L 372.833996 128.800421 
L 373.581818 129.064428 
L 373.581818 129.064428 
" style="fill:none;stroke:#008000;stroke-dasharray:9.6,2.4,1.5,2.4;stroke-dashoffset:0;stroke-width:1.5;"/>
   </g>
   <g id="line2d_32">
    <path clip-path="url(#pfa638b3309)" d="M 69.218182 122.549933 
L 69.966004 122.392621 
L 70.713826 122.483508 
L 71.461648 123.07635 
L 72.209471 123.250551 
L 72.957293 122.698202 
L 73.705115 122.727607 
L 74.452937 122.225207 
L 75.200759 122.920409 
L 75.948582 122.048863 
L 76.696404 122.870533 
L 77.444226 118.215271 
L 78.192048 122.794573 
L 78.93987 122.365068 
L 79.687693 122.53058 
L 80.435515 122.572724 
L 81.183337 122.377926 
L 81.931159 123.290832 
L 82.678981 122.634231 
L 83.426804 122.471403 
L 84.174626 123.156202 
L 84.922448 117.104824 
L 85.67027 119.284165 
L 86.418092 120.075191 
L 87.165915 121.63863 
L 87.913737 121.310132 
L 88.661559 119.685101 
L 89.409381 120.474097 
L 90.157203 119.468985 
L 91.652848 121.666265 
L 92.40067 119.335411 
L 93.148492 120.224456 
L 93.896314 119.393802 
L 94.644137 120.088665 
L 95.391959 121.015798 
L 96.139781 119.217612 
L 96.887603 119.5533 
L 97.635426 119.354779 
L 98.383248 121.143312 
L 99.13107 121.091306 
L 99.878892 121.815938 
L 100.626714 119.875117 
L 101.374537 119.603215 
L 102.870181 120.770765 
L 103.618003 119.361598 
L 104.365825 120.731849 
L 105.113648 119.743786 
L 105.86147 120.157655 
L 106.609292 119.484032 
L 107.357114 119.823852 
L 108.104936 119.863379 
L 108.852759 119.31072 
L 109.600581 120.113032 
L 110.348403 118.421032 
L 111.096225 119.818381 
L 111.844047 120.116305 
L 112.59187 119.327339 
L 113.339692 120.261013 
L 114.835336 119.231111 
L 115.583158 121.099679 
L 116.330981 119.64676 
L 117.078803 119.792548 
L 117.826625 117.407476 
L 118.574447 120.766431 
L 119.322269 116.799137 
L 120.070092 119.581383 
L 120.817914 120.039779 
L 121.565736 119.162217 
L 122.313558 119.20299 
L 123.06138 119.614349 
L 123.809203 119.253975 
L 124.557025 119.81302 
L 125.304847 119.495517 
L 126.052669 121.542243 
L 126.800491 119.794896 
L 127.548314 119.210598 
L 128.296136 119.249153 
L 129.043958 121.965572 
L 129.79178 119.168387 
L 131.287425 120.403007 
L 132.035247 119.377857 
L 132.783069 120.215737 
L 134.278713 119.220668 
L 135.026536 119.636372 
L 135.774358 119.468991 
L 136.52218 120.199401 
L 137.270002 120.534475 
L 138.017824 119.403258 
L 138.765647 120.04365 
L 139.513469 120.235387 
L 140.261291 120.62348 
L 141.009113 119.25252 
L 141.756935 119.433248 
L 142.504758 120.267568 
L 143.25258 119.445371 
L 144.000402 115.951214 
L 144.748224 120.457715 
L 145.496046 119.55083 
L 146.243869 119.297852 
L 146.991691 119.629749 
L 147.739513 118.425579 
L 148.487335 118.69815 
L 149.235157 119.622066 
L 149.98298 119.296204 
L 150.730802 119.89512 
L 151.478624 119.668859 
L 152.226446 120.734306 
L 152.974268 119.555574 
L 153.722091 120.36365 
L 154.469913 120.023445 
L 155.217735 120.42877 
L 155.965557 119.441701 
L 156.713379 119.604787 
L 157.461202 120.019607 
L 158.209024 119.576143 
L 158.956846 120.415092 
L 159.704668 120.844901 
L 160.452491 121.122691 
L 161.200313 121.030032 
L 161.948135 120.614147 
L 162.695957 121.223963 
L 163.443779 120.587301 
L 164.191602 120.45699 
L 164.939424 120.978122 
L 165.687246 120.747306 
L 166.435068 120.670093 
L 167.18289 118.296455 
L 167.930713 119.262924 
L 169.426357 118.468146 
L 170.174179 118.054214 
L 170.922001 118.707459 
L 172.417646 118.544155 
L 173.165468 118.118156 
L 173.91329 118.514021 
L 174.661112 118.473521 
L 175.408935 118.699132 
L 176.156757 118.790759 
L 176.904579 117.648361 
L 177.652401 117.803474 
L 179.148046 117.586963 
L 179.895868 119.40365 
L 180.64369 119.323848 
L 181.391512 119.486981 
L 182.139334 118.748337 
L 182.887157 120.067266 
L 183.634979 118.204271 
L 184.382801 119.34762 
L 185.130623 119.374598 
L 185.878445 116.79425 
L 186.626268 118.372577 
L 187.37409 118.330785 
L 188.121912 118.130002 
L 188.869734 118.080693 
L 189.617556 118.747174 
L 190.365379 118.039872 
L 191.113201 117.956422 
L 191.861023 119.756848 
L 192.608845 118.824301 
L 193.356667 117.531434 
L 194.10449 118.078047 
L 194.852312 118.019416 
L 195.600134 118.457338 
L 197.095778 117.793654 
L 197.843601 118.660387 
L 198.591423 117.940223 
L 199.339245 119.101575 
L 200.087067 118.928679 
L 200.834889 117.97494 
L 201.582712 118.512331 
L 202.330534 115.924105 
L 203.078356 116.394287 
L 203.826178 117.084469 
L 204.574 116.725627 
L 205.321823 116.730733 
L 206.069645 116.014462 
L 206.817467 116.134762 
L 208.313111 117.005858 
L 209.060934 116.003003 
L 209.808756 116.828006 
L 210.556578 116.21501 
L 212.052222 116.498455 
L 212.800045 116.252265 
L 213.547867 116.221521 
L 214.295689 117.07664 
L 215.043511 116.305474 
L 215.791333 116.261349 
L 216.539156 117.122374 
L 217.286978 117.602466 
L 218.0348 117.012855 
L 218.782622 116.235361 
L 219.530444 115.904546 
L 220.278267 116.411794 
L 221.026089 116.145953 
L 221.773911 116.926246 
L 222.521733 115.823158 
L 223.269556 115.937594 
L 224.017378 116.569518 
L 224.7652 115.858606 
L 225.513022 116.701418 
L 226.260844 116.137309 
L 227.008667 116.839519 
L 227.756489 116.182619 
L 228.504311 116.636655 
L 229.252133 116.155314 
L 229.999955 116.973433 
L 230.747778 116.235923 
L 231.4956 117.209341 
L 232.243422 117.68518 
L 232.991244 116.966603 
L 233.739066 116.427159 
L 234.486889 116.440678 
L 235.234711 116.851019 
L 235.982533 115.919215 
L 236.730355 115.746746 
L 237.478177 117.238687 
L 238.226 117.156146 
L 238.973822 116.854241 
L 239.721644 117.206084 
L 240.469466 116.338845 
L 241.217288 116.171957 
L 241.965111 117.08179 
L 242.712933 117.509948 
L 243.460755 117.13459 
L 244.208577 116.430174 
L 244.956399 115.979885 
L 245.704222 115.944996 
L 247.947688 116.475577 
L 248.69551 116.157569 
L 249.443333 117.096645 
L 250.191155 115.801479 
L 250.938977 115.879559 
L 251.686799 116.269852 
L 252.434621 116.155237 
L 253.182444 117.013792 
L 253.930266 116.588622 
L 254.678088 116.358643 
L 255.42591 117.3179 
L 256.173732 116.665038 
L 256.921555 116.846813 
L 257.669377 116.328564 
L 258.417199 116.36781 
L 259.165021 116.134948 
L 259.912843 116.501092 
L 260.660666 116.346546 
L 261.408488 115.860698 
L 262.15631 116.591846 
L 262.904132 116.464554 
L 263.651954 115.819767 
L 264.399777 116.64816 
L 265.147599 115.929687 
L 265.895421 117.022509 
L 267.391065 115.988 
L 268.138888 117.132175 
L 268.88671 116.517621 
L 269.634532 116.730234 
L 270.382354 115.211879 
L 271.877999 114.696274 
L 273.373643 115.373866 
L 274.121465 114.621955 
L 274.869287 115.074553 
L 275.61711 114.975736 
L 276.364932 114.712051 
L 277.112754 114.682206 
L 277.860576 116.213529 
L 278.608398 116.773894 
L 279.356221 117.131111 
L 280.104043 115.980065 
L 280.851865 117.016679 
L 281.599687 116.483196 
L 282.347509 116.751569 
L 283.095332 116.533812 
L 283.843154 116.561973 
L 284.590976 116.231168 
L 286.086621 116.720756 
L 286.834443 116.421484 
L 287.582265 116.494562 
L 288.330087 117.152912 
L 289.077909 117.096371 
L 289.825732 117.21778 
L 290.573554 116.057869 
L 291.321376 116.001526 
L 292.069198 118.077737 
L 292.81702 116.137376 
L 293.564843 116.122523 
L 295.060487 116.672234 
L 295.808309 116.047404 
L 296.556131 116.838265 
L 297.303954 116.949761 
L 298.051776 116.331022 
L 298.799598 116.58961 
L 299.54742 116.973367 
L 300.295242 116.379446 
L 301.043065 116.096799 
L 301.790887 114.969987 
L 302.538709 116.781611 
L 303.286531 116.953499 
L 304.034353 115.950146 
L 304.782176 116.203292 
L 306.27782 116.30436 
L 307.025642 115.993218 
L 308.521287 116.819882 
L 309.269109 116.635888 
L 310.016931 116.673697 
L 310.764753 117.302536 
L 311.512575 116.583321 
L 312.260398 116.146587 
L 313.00822 116.970323 
L 313.756042 116.389928 
L 314.503864 116.945544 
L 315.251686 116.283755 
L 315.999509 116.74446 
L 316.747331 116.270979 
L 317.495153 116.864853 
L 318.242975 116.282693 
L 319.73862 116.658782 
L 320.486442 116.468037 
L 321.234264 116.774841 
L 321.982086 117.246877 
L 322.729908 116.906259 
L 323.477731 116.877798 
L 324.225553 117.439245 
L 324.973375 116.759936 
L 325.721197 116.442149 
L 326.469019 116.823589 
L 327.216842 116.791613 
L 327.964664 116.46379 
L 328.712486 116.768186 
L 329.460308 115.991641 
L 330.20813 116.158529 
L 330.955953 117.432466 
L 331.703775 116.39011 
L 332.451597 116.102951 
L 333.199419 116.584512 
L 333.947241 116.398377 
L 334.695064 116.492341 
L 335.442886 116.119148 
L 336.190708 117.163226 
L 336.93853 116.161468 
L 337.686352 116.565726 
L 338.434175 115.808978 
L 339.181997 116.820306 
L 339.929819 116.579879 
L 340.677641 116.826704 
L 341.425463 117.412356 
L 342.173286 116.461737 
L 343.66893 116.037284 
L 344.416752 117.671315 
L 345.164574 116.031086 
L 345.912397 117.63246 
L 346.660219 116.506435 
L 347.408041 115.89287 
L 348.155863 117.210904 
L 348.903686 116.569849 
L 349.651508 117.283567 
L 350.39933 116.769108 
L 351.147152 117.051586 
L 351.894974 118.029543 
L 352.642797 116.516693 
L 354.138441 116.190463 
L 354.886263 116.977748 
L 355.634085 116.13489 
L 356.381908 117.198008 
L 357.12973 116.679485 
L 357.877552 116.439887 
L 358.625374 115.915928 
L 359.373196 116.130093 
L 360.121019 116.602227 
L 360.868841 116.132318 
L 361.616663 116.542592 
L 362.364485 115.763472 
L 363.112307 116.223143 
L 363.86013 116.449857 
L 364.607952 117.408747 
L 366.103596 116.06168 
L 366.851418 117.355984 
L 367.599241 116.254495 
L 368.347063 116.455024 
L 369.094885 116.434325 
L 369.842707 115.974464 
L 370.590529 115.896139 
L 371.338352 116.639784 
L 372.086174 116.179887 
L 372.833996 115.931949 
L 373.581818 117.785209 
L 373.581818 117.785209 
" style="fill:none;stroke:#ff0000;stroke-linecap:square;stroke-width:1.5;"/>
   </g>
   <g id="patch_3">
    <path d="M 54 252 
L 54 34.56 
" style="fill:none;stroke:#000000;stroke-linecap:square;stroke-linejoin:miter;stroke-width:0.8;"/>
   </g>
   <g id="patch_4">
    <path d="M 388.8 252 
L 388.8 34.56 
" style="fill:none;stroke:#000000;stroke-linecap:square;stroke-linejoin:miter;stroke-width:0.8;"/>
   </g>
   <g id="patch_5">
    <path d="M 54 252 
L 388.8 252 
" style="fill:none;stroke:#000000;stroke-linecap:square;stroke-linejoin:miter;stroke-width:0.8;"/>
   </g>
   <g id="patch_6">
    <path d="M 54 34.56 
L 388.8 34.56 
" style="fill:none;stroke:#000000;stroke-linecap:square;stroke-linejoin:miter;stroke-width:0.8;"/>
   </g>
   <g id="text_17">
    <!-- Population's average and best fitness -->
    <defs>
     <path d="M 19.671875 64.796875 
L 19.671875 37.40625 
L 32.078125 37.40625 
Q 38.96875 37.40625 42.71875 40.96875 
Q 46.484375 44.53125 46.484375 51.125 
Q 46.484375 57.671875 42.71875 61.234375 
Q 38.96875 64.796875 32.078125 64.796875 
z
M 9.8125 72.90625 
L 32.078125 72.90625 
Q 44.34375 72.90625 50.609375 67.359375 
Q 56.890625 61.8125 56.890625 51.125 
Q 56.890625 40.328125 50.609375 34.8125 
Q 44.34375 29.296875 32.078125 29.296875 
L 19.671875 29.296875 
L 19.671875 0 
L 9.8125 0 
z
" id="DejaVuSans-80"/>
     <path d="M 18.109375 8.203125 
L 18.109375 -20.796875 
L 9.078125 -20.796875 
L 9.078125 54.6875 
L 18.109375 54.6875 
L 18.109375 46.390625 
Q 20.953125 51.265625 25.265625 53.625 
Q 29.59375 56 35.59375 56 
Q 45.5625 56 51.78125 48.09375 
Q 58.015625 40.1875 58.015625 27.296875 
Q 58.015625 14.40625 51.78125 6.484375 
Q 45.5625 -1.421875 35.59375 -1.421875 
Q 29.59375 -1.421875 25.265625 0.953125 
Q 20.953125 3.328125 18.109375 8.203125 
z
M 48.6875 27.296875 
Q 48.6875 37.203125 44.609375 42.84375 
Q 40.53125 48.484375 33.40625 48.484375 
Q 26.265625 48.484375 22.1875 42.84375 
Q 18.109375 37.203125 18.109375 27.296875 
Q 18.109375 17.390625 22.1875 11.75 
Q 26.265625 6.109375 33.40625 6.109375 
Q 40.53125 6.109375 44.609375 11.75 
Q 48.6875 17.390625 48.6875 27.296875 
z
" id="DejaVuSans-112"/>
     <path d="M 8.5 21.578125 
L 8.5 54.6875 
L 17.484375 54.6875 
L 17.484375 21.921875 
Q 17.484375 14.15625 20.5 10.265625 
Q 23.53125 6.390625 29.59375 6.390625 
Q 36.859375 6.390625 41.078125 11.03125 
Q 45.3125 15.671875 45.3125 23.6875 
L 45.3125 54.6875 
L 54.296875 54.6875 
L 54.296875 0 
L 45.3125 0 
L 45.3125 8.40625 
Q 42.046875 3.421875 37.71875 1 
Q 33.40625 -1.421875 27.6875 -1.421875 
Q 18.265625 -1.421875 13.375 4.4375 
Q 8.5 10.296875 8.5 21.578125 
z
M 31.109375 56 
z
" id="DejaVuSans-117"/>
     <path d="M 9.421875 75.984375 
L 18.40625 75.984375 
L 18.40625 0 
L 9.421875 0 
z
" id="DejaVuSans-108"/>
     <path d="M 17.921875 72.90625 
L 17.921875 45.796875 
L 9.625 45.796875 
L 9.625 72.90625 
z
" id="DejaVuSans-39"/>
     <path id="DejaVuSans-32"/>
     <path d="M 2.984375 54.6875 
L 12.5 54.6875 
L 29.59375 8.796875 
L 46.6875 54.6875 
L 56.203125 54.6875 
L 35.6875 0 
L 23.484375 0 
z
" id="DejaVuSans-118"/>
     <path d="M 45.40625 27.984375 
Q 45.40625 37.75 41.375 43.109375 
Q 37.359375 48.484375 30.078125 48.484375 
Q 22.859375 48.484375 18.828125 43.109375 
Q 14.796875 37.75 14.796875 27.984375 
Q 14.796875 18.265625 18.828125 12.890625 
Q 22.859375 7.515625 30.078125 7.515625 
Q 37.359375 7.515625 41.375 12.890625 
Q 45.40625 18.265625 45.40625 27.984375 
z
M 54.390625 6.78125 
Q 54.390625 -7.171875 48.1875 -13.984375 
Q 42 -20.796875 29.203125 -20.796875 
Q 24.46875 -20.796875 20.265625 -20.09375 
Q 16.0625 -19.390625 12.109375 -17.921875 
L 12.109375 -9.1875 
Q 16.0625 -11.328125 19.921875 -12.34375 
Q 23.78125 -13.375 27.78125 -13.375 
Q 36.625 -13.375 41.015625 -8.765625 
Q 45.40625 -4.15625 45.40625 5.171875 
L 45.40625 9.625 
Q 42.625 4.78125 38.28125 2.390625 
Q 33.9375 0 27.875 0 
Q 17.828125 0 11.671875 7.65625 
Q 5.515625 15.328125 5.515625 27.984375 
Q 5.515625 40.671875 11.671875 48.328125 
Q 17.828125 56 27.875 56 
Q 33.9375 56 38.28125 53.609375 
Q 42.625 51.21875 45.40625 46.390625 
L 45.40625 54.6875 
L 54.390625 54.6875 
z
" id="DejaVuSans-103"/>
     <path d="M 45.40625 46.390625 
L 45.40625 75.984375 
L 54.390625 75.984375 
L 54.390625 0 
L 45.40625 0 
L 45.40625 8.203125 
Q 42.578125 3.328125 38.25 0.953125 
Q 33.9375 -1.421875 27.875 -1.421875 
Q 17.96875 -1.421875 11.734375 6.484375 
Q 5.515625 14.40625 5.515625 27.296875 
Q 5.515625 40.1875 11.734375 48.09375 
Q 17.96875 56 27.875 56 
Q 33.9375 56 38.25 53.625 
Q 42.578125 51.265625 45.40625 46.390625 
z
M 14.796875 27.296875 
Q 14.796875 17.390625 18.875 11.75 
Q 22.953125 6.109375 30.078125 6.109375 
Q 37.203125 6.109375 41.296875 11.75 
Q 45.40625 17.390625 45.40625 27.296875 
Q 45.40625 37.203125 41.296875 42.84375 
Q 37.203125 48.484375 30.078125 48.484375 
Q 22.953125 48.484375 18.875 42.84375 
Q 14.796875 37.203125 14.796875 27.296875 
z
" id="DejaVuSans-100"/>
     <path d="M 48.6875 27.296875 
Q 48.6875 37.203125 44.609375 42.84375 
Q 40.53125 48.484375 33.40625 48.484375 
Q 26.265625 48.484375 22.1875 42.84375 
Q 18.109375 37.203125 18.109375 27.296875 
Q 18.109375 17.390625 22.1875 11.75 
Q 26.265625 6.109375 33.40625 6.109375 
Q 40.53125 6.109375 44.609375 11.75 
Q 48.6875 17.390625 48.6875 27.296875 
z
M 18.109375 46.390625 
Q 20.953125 51.265625 25.265625 53.625 
Q 29.59375 56 35.59375 56 
Q 45.5625 56 51.78125 48.09375 
Q 58.015625 40.1875 58.015625 27.296875 
Q 58.015625 14.40625 51.78125 6.484375 
Q 45.5625 -1.421875 35.59375 -1.421875 
Q 29.59375 -1.421875 25.265625 0.953125 
Q 20.953125 3.328125 18.109375 8.203125 
L 18.109375 0 
L 9.078125 0 
L 9.078125 75.984375 
L 18.109375 75.984375 
z
" id="DejaVuSans-98"/>
     <path d="M 37.109375 75.984375 
L 37.109375 68.5 
L 28.515625 68.5 
Q 23.6875 68.5 21.796875 66.546875 
Q 19.921875 64.59375 19.921875 59.515625 
L 19.921875 54.6875 
L 34.71875 54.6875 
L 34.71875 47.703125 
L 19.921875 47.703125 
L 19.921875 0 
L 10.890625 0 
L 10.890625 47.703125 
L 2.296875 47.703125 
L 2.296875 54.6875 
L 10.890625 54.6875 
L 10.890625 58.5 
Q 10.890625 67.625 15.140625 71.796875 
Q 19.390625 75.984375 28.609375 75.984375 
z
" id="DejaVuSans-102"/>
    </defs>
    <g transform="translate(108.555 28.56)scale(0.12 -0.12)">
     <use xlink:href="#DejaVuSans-80"/>
     <use x="60.255859" xlink:href="#DejaVuSans-111"/>
     <use x="121.4375" xlink:href="#DejaVuSans-112"/>
     <use x="184.914062" xlink:href="#DejaVuSans-117"/>
     <use x="248.292969" xlink:href="#DejaVuSans-108"/>
     <use x="276.076172" xlink:href="#DejaVuSans-97"/>
     <use x="337.355469" xlink:href="#DejaVuSans-116"/>
     <use x="376.564453" xlink:href="#DejaVuSans-105"/>
     <use x="404.347656" xlink:href="#DejaVuSans-111"/>
     <use x="465.529297" xlink:href="#DejaVuSans-110"/>
     <use x="528.908203" xlink:href="#DejaVuSans-39"/>
     <use x="556.398438" xlink:href="#DejaVuSans-115"/>
     <use x="608.498047" xlink:href="#DejaVuSans-32"/>
     <use x="640.285156" xlink:href="#DejaVuSans-97"/>
     <use x="701.564453" xlink:href="#DejaVuSans-118"/>
     <use x="760.744141" xlink:href="#DejaVuSans-101"/>
     <use x="822.267578" xlink:href="#DejaVuSans-114"/>
     <use x="863.380859" xlink:href="#DejaVuSans-97"/>
     <use x="924.660156" xlink:href="#DejaVuSans-103"/>
     <use x="988.136719" xlink:href="#DejaVuSans-101"/>
     <use x="1049.660156" xlink:href="#DejaVuSans-32"/>
     <use x="1081.447266" xlink:href="#DejaVuSans-97"/>
     <use x="1142.726562" xlink:href="#DejaVuSans-110"/>
     <use x="1206.105469" xlink:href="#DejaVuSans-100"/>
     <use x="1269.582031" xlink:href="#DejaVuSans-32"/>
     <use x="1301.369141" xlink:href="#DejaVuSans-98"/>
     <use x="1364.845703" xlink:href="#DejaVuSans-101"/>
     <use x="1426.369141" xlink:href="#DejaVuSans-115"/>
     <use x="1478.46875" xlink:href="#DejaVuSans-116"/>
     <use x="1517.677734" xlink:href="#DejaVuSans-32"/>
     <use x="1549.464844" xlink:href="#DejaVuSans-102"/>
     <use x="1584.669922" xlink:href="#DejaVuSans-105"/>
     <use x="1612.453125" xlink:href="#DejaVuSans-116"/>
     <use x="1651.662109" xlink:href="#DejaVuSans-110"/>
     <use x="1715.041016" xlink:href="#DejaVuSans-101"/>
     <use x="1776.564453" xlink:href="#DejaVuSans-115"/>
     <use x="1828.664062" xlink:href="#DejaVuSans-115"/>
    </g>
   </g>
   <g id="legend_1">
    <g id="patch_7">
     <path d="M 308.859375 101.2725 
L 381.8 101.2725 
Q 383.8 101.2725 383.8 99.2725 
L 383.8 41.56 
Q 383.8 39.56 381.8 39.56 
L 308.859375 39.56 
Q 306.859375 39.56 306.859375 41.56 
L 306.859375 99.2725 
Q 306.859375 101.2725 308.859375 101.2725 
z
" style="fill:#ffffff;opacity:0.8;stroke:#cccccc;stroke-linejoin:miter;"/>
    </g>
    <g id="line2d_33">
     <path d="M 310.859375 47.658437 
L 330.859375 47.658437 
" style="fill:none;stroke:#0000ff;stroke-linecap:square;stroke-width:1.5;"/>
    </g>
    <g id="line2d_34"/>
    <g id="text_18">
     <!-- average -->
     <g transform="translate(338.859375 51.158437)scale(0.1 -0.1)">
      <use xlink:href="#DejaVuSans-97"/>
      <use x="61.279297" xlink:href="#DejaVuSans-118"/>
      <use x="120.458984" xlink:href="#DejaVuSans-101"/>
      <use x="181.982422" xlink:href="#DejaVuSans-114"/>
      <use x="223.095703" xlink:href="#DejaVuSans-97"/>
      <use x="284.375" xlink:href="#DejaVuSans-103"/>
      <use x="347.851562" xlink:href="#DejaVuSans-101"/>
     </g>
    </g>
    <g id="line2d_35">
     <path d="M 310.859375 62.336562 
L 330.859375 62.336562 
" style="fill:none;stroke:#008000;stroke-dasharray:9.6,2.4,1.5,2.4;stroke-dashoffset:0;stroke-width:1.5;"/>
    </g>
    <g id="line2d_36"/>
    <g id="text_19">
     <!-- -1 sd -->
     <defs>
      <path d="M 4.890625 31.390625 
L 31.203125 31.390625 
L 31.203125 23.390625 
L 4.890625 23.390625 
z
" id="DejaVuSans-45"/>
     </defs>
     <g transform="translate(338.859375 65.836562)scale(0.1 -0.1)">
      <use xlink:href="#DejaVuSans-45"/>
      <use x="36.083984" xlink:href="#DejaVuSans-49"/>
      <use x="99.707031" xlink:href="#DejaVuSans-32"/>
      <use x="131.494141" xlink:href="#DejaVuSans-115"/>
      <use x="183.59375" xlink:href="#DejaVuSans-100"/>
     </g>
    </g>
    <g id="line2d_37">
     <path d="M 310.859375 77.014687 
L 330.859375 77.014687 
" style="fill:none;stroke:#008000;stroke-dasharray:9.6,2.4,1.5,2.4;stroke-dashoffset:0;stroke-width:1.5;"/>
    </g>
    <g id="line2d_38"/>
    <g id="text_20">
     <!-- +1 sd -->
     <defs>
      <path d="M 46 62.703125 
L 46 35.5 
L 73.1875 35.5 
L 73.1875 27.203125 
L 46 27.203125 
L 46 0 
L 37.796875 0 
L 37.796875 27.203125 
L 10.59375 27.203125 
L 10.59375 35.5 
L 37.796875 35.5 
L 37.796875 62.703125 
z
" id="DejaVuSans-43"/>
     </defs>
     <g transform="translate(338.859375 80.514687)scale(0.1 -0.1)">
      <use xlink:href="#DejaVuSans-43"/>
      <use x="83.789062" xlink:href="#DejaVuSans-49"/>
      <use x="147.412109" xlink:href="#DejaVuSans-32"/>
      <use x="179.199219" xlink:href="#DejaVuSans-115"/>
      <use x="231.298828" xlink:href="#DejaVuSans-100"/>
     </g>
    </g>
    <g id="line2d_39">
     <path d="M 310.859375 91.692813 
L 330.859375 91.692813 
" style="fill:none;stroke:#ff0000;stroke-linecap:square;stroke-width:1.5;"/>
    </g>
    <g id="line2d_40"/>
    <g id="text_21">
     <!-- best -->
     <g transform="translate(338.859375 95.192813)scale(0.1 -0.1)">
      <use xlink:href="#DejaVuSans-98"/>
      <use x="63.476562" xlink:href="#DejaVuSans-101"/>
      <use x="125" xlink:href="#DejaVuSans-115"/>
      <use x="177.099609" xlink:href="#DejaVuSans-116"/>
     </g>
    </g>
   </g>
  </g>
 </g>
 <defs>
  <clipPath id="pfa638b3309">
   <rect height="217.44" width="334.8" x="54" y="34.56"/>
  </clipPath>
 </defs>
</svg>
