<?xml version="1.0" encoding="utf-8" standalone="no"?>
<!DOCTYPE svg PUBLIC "-//W3C//DTD SVG 1.1//EN"
  "http://www.w3.org/Graphics/SVG/1.1/DTD/svg11.dtd">
<!-- Created with matplotlib (https://matplotlib.org/) -->
<svg height="288pt" version="1.1" viewBox="0 0 432 288" width="432pt" xmlns="http://www.w3.org/2000/svg" xmlns:xlink="http://www.w3.org/1999/xlink">
 <defs>
  <style type="text/css">
*{stroke-linecap:butt;stroke-linejoin:round;}
  </style>
 </defs>
 <g id="figure_1">
  <g id="patch_1">
   <path d="M 0 288 
L 432 288 
L 432 0 
L 0 0 
z
" style="fill:#ffffff;"/>
  </g>
  <g id="axes_1">
   <g id="patch_2">
    <path d="M 54 252 
L 388.8 252 
L 388.8 34.56 
L 54 34.56 
z
" style="fill:#ffffff;"/>
   </g>
   <g id="matplotlib.axis_1">
    <g id="xtick_1">
     <g id="line2d_1">
      <path clip-path="url(#pa52b8da5c9)" d="M 69.218182 252 
L 69.218182 34.56 
" style="fill:none;stroke:#b0b0b0;stroke-linecap:square;stroke-width:0.8;"/>
     </g>
     <g id="line2d_2">
      <defs>
       <path d="M 0 0 
L 0 3.5 
" id="m44243b6015" style="stroke:#000000;stroke-width:0.8;"/>
      </defs>
      <g>
       <use style="stroke:#000000;stroke-width:0.8;" x="69.218182" xlink:href="#m44243b6015" y="252"/>
      </g>
     </g>
     <g id="text_1">
      <!-- 0 -->
      <defs>
       <path d="M 31.78125 66.40625 
Q 24.171875 66.40625 20.328125 58.90625 
Q 16.5 51.421875 16.5 36.375 
Q 16.5 21.390625 20.328125 13.890625 
Q 24.171875 6.390625 31.78125 6.390625 
Q 39.453125 6.390625 43.28125 13.890625 
Q 47.125 21.390625 47.125 36.375 
Q 47.125 51.421875 43.28125 58.90625 
Q 39.453125 66.40625 31.78125 66.40625 
z
M 31.78125 74.21875 
Q 44.046875 74.21875 50.515625 64.515625 
Q 56.984375 54.828125 56.984375 36.375 
Q 56.984375 17.96875 50.515625 8.265625 
Q 44.046875 -1.421875 31.78125 -1.421875 
Q 19.53125 -1.421875 13.0625 8.265625 
Q 6.59375 17.96875 6.59375 36.375 
Q 6.59375 54.828125 13.0625 64.515625 
Q 19.53125 74.21875 31.78125 74.21875 
z
" id="DejaVuSans-48"/>
      </defs>
      <g transform="translate(66.036932 266.598437)scale(0.1 -0.1)">
       <use xlink:href="#DejaVuSans-48"/>
      </g>
     </g>
    </g>
    <g id="xtick_2">
     <g id="line2d_3">
      <path clip-path="url(#pa52b8da5c9)" d="M 140.665045 252 
L 140.665045 34.56 
" style="fill:none;stroke:#b0b0b0;stroke-linecap:square;stroke-width:0.8;"/>
     </g>
     <g id="line2d_4">
      <g>
       <use style="stroke:#000000;stroke-width:0.8;" x="140.665045" xlink:href="#m44243b6015" y="252"/>
      </g>
     </g>
     <g id="text_2">
      <!-- 50 -->
      <defs>
       <path d="M 10.796875 72.90625 
L 49.515625 72.90625 
L 49.515625 64.59375 
L 19.828125 64.59375 
L 19.828125 46.734375 
Q 21.96875 47.46875 24.109375 47.828125 
Q 26.265625 48.1875 28.421875 48.1875 
Q 40.625 48.1875 47.75 41.5 
Q 54.890625 34.8125 54.890625 23.390625 
Q 54.890625 11.625 47.5625 5.09375 
Q 40.234375 -1.421875 26.90625 -1.421875 
Q 22.3125 -1.421875 17.546875 -0.640625 
Q 12.796875 0.140625 7.71875 1.703125 
L 7.71875 11.625 
Q 12.109375 9.234375 16.796875 8.0625 
Q 21.484375 6.890625 26.703125 6.890625 
Q 35.15625 6.890625 40.078125 11.328125 
Q 45.015625 15.765625 45.015625 23.390625 
Q 45.015625 31 40.078125 35.4375 
Q 35.15625 39.890625 26.703125 39.890625 
Q 22.75 39.890625 18.8125 39.015625 
Q 14.890625 38.140625 10.796875 36.28125 
z
" id="DejaVuSans-53"/>
      </defs>
      <g transform="translate(134.302545 266.598437)scale(0.1 -0.1)">
       <use xlink:href="#DejaVuSans-53"/>
       <use x="63.623047" xlink:href="#DejaVuSans-48"/>
      </g>
     </g>
    </g>
    <g id="xtick_3">
     <g id="line2d_5">
      <path clip-path="url(#pa52b8da5c9)" d="M 212.111908 252 
L 212.111908 34.56 
" style="fill:none;stroke:#b0b0b0;stroke-linecap:square;stroke-width:0.8;"/>
     </g>
     <g id="line2d_6">
      <g>
       <use style="stroke:#000000;stroke-width:0.8;" x="212.111908" xlink:href="#m44243b6015" y="252"/>
      </g>
     </g>
     <g id="text_3">
      <!-- 100 -->
      <defs>
       <path d="M 12.40625 8.296875 
L 28.515625 8.296875 
L 28.515625 63.921875 
L 10.984375 60.40625 
L 10.984375 69.390625 
L 28.421875 72.90625 
L 38.28125 72.90625 
L 38.28125 8.296875 
L 54.390625 8.296875 
L 54.390625 0 
L 12.40625 0 
z
" id="DejaVuSans-49"/>
      </defs>
      <g transform="translate(202.568158 266.598437)scale(0.1 -0.1)">
       <use xlink:href="#DejaVuSans-49"/>
       <use x="63.623047" xlink:href="#DejaVuSans-48"/>
       <use x="127.246094" xlink:href="#DejaVuSans-48"/>
      </g>
     </g>
    </g>
    <g id="xtick_4">
     <g id="line2d_7">
      <path clip-path="url(#pa52b8da5c9)" d="M 283.558771 252 
L 283.558771 34.56 
" style="fill:none;stroke:#b0b0b0;stroke-linecap:square;stroke-width:0.8;"/>
     </g>
     <g id="line2d_8">
      <g>
       <use style="stroke:#000000;stroke-width:0.8;" x="283.558771" xlink:href="#m44243b6015" y="252"/>
      </g>
     </g>
     <g id="text_4">
      <!-- 150 -->
      <g transform="translate(274.015021 266.598437)scale(0.1 -0.1)">
       <use xlink:href="#DejaVuSans-49"/>
       <use x="63.623047" xlink:href="#DejaVuSans-53"/>
       <use x="127.246094" xlink:href="#DejaVuSans-48"/>
      </g>
     </g>
    </g>
    <g id="xtick_5">
     <g id="line2d_9">
      <path clip-path="url(#pa52b8da5c9)" d="M 355.005634 252 
L 355.005634 34.56 
" style="fill:none;stroke:#b0b0b0;stroke-linecap:square;stroke-width:0.8;"/>
     </g>
     <g id="line2d_10">
      <g>
       <use style="stroke:#000000;stroke-width:0.8;" x="355.005634" xlink:href="#m44243b6015" y="252"/>
      </g>
     </g>
     <g id="text_5">
      <!-- 200 -->
      <defs>
       <path d="M 19.1875 8.296875 
L 53.609375 8.296875 
L 53.609375 0 
L 7.328125 0 
L 7.328125 8.296875 
Q 12.9375 14.109375 22.625 23.890625 
Q 32.328125 33.6875 34.8125 36.53125 
Q 39.546875 41.84375 41.421875 45.53125 
Q 43.3125 49.21875 43.3125 52.78125 
Q 43.3125 58.59375 39.234375 62.25 
Q 35.15625 65.921875 28.609375 65.921875 
Q 23.96875 65.921875 18.8125 64.3125 
Q 13.671875 62.703125 7.8125 59.421875 
L 7.8125 69.390625 
Q 13.765625 71.78125 18.9375 73 
Q 24.125 74.21875 28.421875 74.21875 
Q 39.75 74.21875 46.484375 68.546875 
Q 53.21875 62.890625 53.21875 53.421875 
Q 53.21875 48.921875 51.53125 44.890625 
Q 49.859375 40.875 45.40625 35.40625 
Q 44.1875 33.984375 37.640625 27.21875 
Q 31.109375 20.453125 19.1875 8.296875 
z
" id="DejaVuSans-50"/>
      </defs>
      <g transform="translate(345.461884 266.598437)scale(0.1 -0.1)">
       <use xlink:href="#DejaVuSans-50"/>
       <use x="63.623047" xlink:href="#DejaVuSans-48"/>
       <use x="127.246094" xlink:href="#DejaVuSans-48"/>
      </g>
     </g>
    </g>
    <g id="text_6">
     <!-- Generations -->
     <defs>
      <path d="M 59.515625 10.40625 
L 59.515625 29.984375 
L 43.40625 29.984375 
L 43.40625 38.09375 
L 69.28125 38.09375 
L 69.28125 6.78125 
Q 63.578125 2.734375 56.6875 0.65625 
Q 49.8125 -1.421875 42 -1.421875 
Q 24.90625 -1.421875 15.25 8.5625 
Q 5.609375 18.5625 5.609375 36.375 
Q 5.609375 54.25 15.25 64.234375 
Q 24.90625 74.21875 42 74.21875 
Q 49.125 74.21875 55.546875 72.453125 
Q 61.96875 70.703125 67.390625 67.28125 
L 67.390625 56.78125 
Q 61.921875 61.421875 55.765625 63.765625 
Q 49.609375 66.109375 42.828125 66.109375 
Q 29.4375 66.109375 22.71875 58.640625 
Q 16.015625 51.171875 16.015625 36.375 
Q 16.015625 21.625 22.71875 14.15625 
Q 29.4375 6.6875 42.828125 6.6875 
Q 48.046875 6.6875 52.140625 7.59375 
Q 56.25 8.5 59.515625 10.40625 
z
" id="DejaVuSans-71"/>
      <path d="M 56.203125 29.59375 
L 56.203125 25.203125 
L 14.890625 25.203125 
Q 15.484375 15.921875 20.484375 11.0625 
Q 25.484375 6.203125 34.421875 6.203125 
Q 39.59375 6.203125 44.453125 7.46875 
Q 49.3125 8.734375 54.109375 11.28125 
L 54.109375 2.78125 
Q 49.265625 0.734375 44.1875 -0.34375 
Q 39.109375 -1.421875 33.890625 -1.421875 
Q 20.796875 -1.421875 13.15625 6.1875 
Q 5.515625 13.8125 5.515625 26.8125 
Q 5.515625 40.234375 12.765625 48.109375 
Q 20.015625 56 32.328125 56 
Q 43.359375 56 49.78125 48.890625 
Q 56.203125 41.796875 56.203125 29.59375 
z
M 47.21875 32.234375 
Q 47.125 39.59375 43.09375 43.984375 
Q 39.0625 48.390625 32.421875 48.390625 
Q 24.90625 48.390625 20.390625 44.140625 
Q 15.875 39.890625 15.1875 32.171875 
z
" id="DejaVuSans-101"/>
      <path d="M 54.890625 33.015625 
L 54.890625 0 
L 45.90625 0 
L 45.90625 32.71875 
Q 45.90625 40.484375 42.875 44.328125 
Q 39.84375 48.1875 33.796875 48.1875 
Q 26.515625 48.1875 22.3125 43.546875 
Q 18.109375 38.921875 18.109375 30.90625 
L 18.109375 0 
L 9.078125 0 
L 9.078125 54.6875 
L 18.109375 54.6875 
L 18.109375 46.1875 
Q 21.34375 51.125 25.703125 53.5625 
Q 30.078125 56 35.796875 56 
Q 45.21875 56 50.046875 50.171875 
Q 54.890625 44.34375 54.890625 33.015625 
z
" id="DejaVuSans-110"/>
      <path d="M 41.109375 46.296875 
Q 39.59375 47.171875 37.8125 47.578125 
Q 36.03125 48 33.890625 48 
Q 26.265625 48 22.1875 43.046875 
Q 18.109375 38.09375 18.109375 28.8125 
L 18.109375 0 
L 9.078125 0 
L 9.078125 54.6875 
L 18.109375 54.6875 
L 18.109375 46.1875 
Q 20.953125 51.171875 25.484375 53.578125 
Q 30.03125 56 36.53125 56 
Q 37.453125 56 38.578125 55.875 
Q 39.703125 55.765625 41.0625 55.515625 
z
" id="DejaVuSans-114"/>
      <path d="M 34.28125 27.484375 
Q 23.390625 27.484375 19.1875 25 
Q 14.984375 22.515625 14.984375 16.5 
Q 14.984375 11.71875 18.140625 8.90625 
Q 21.296875 6.109375 26.703125 6.109375 
Q 34.1875 6.109375 38.703125 11.40625 
Q 43.21875 16.703125 43.21875 25.484375 
L 43.21875 27.484375 
z
M 52.203125 31.203125 
L 52.203125 0 
L 43.21875 0 
L 43.21875 8.296875 
Q 40.140625 3.328125 35.546875 0.953125 
Q 30.953125 -1.421875 24.3125 -1.421875 
Q 15.921875 -1.421875 10.953125 3.296875 
Q 6 8.015625 6 15.921875 
Q 6 25.140625 12.171875 29.828125 
Q 18.359375 34.515625 30.609375 34.515625 
L 43.21875 34.515625 
L 43.21875 35.40625 
Q 43.21875 41.609375 39.140625 45 
Q 35.0625 48.390625 27.6875 48.390625 
Q 23 48.390625 18.546875 47.265625 
Q 14.109375 46.140625 10.015625 43.890625 
L 10.015625 52.203125 
Q 14.9375 54.109375 19.578125 55.046875 
Q 24.21875 56 28.609375 56 
Q 40.484375 56 46.34375 49.84375 
Q 52.203125 43.703125 52.203125 31.203125 
z
" id="DejaVuSans-97"/>
      <path d="M 18.3125 70.21875 
L 18.3125 54.6875 
L 36.8125 54.6875 
L 36.8125 47.703125 
L 18.3125 47.703125 
L 18.3125 18.015625 
Q 18.3125 11.328125 20.140625 9.421875 
Q 21.96875 7.515625 27.59375 7.515625 
L 36.8125 7.515625 
L 36.8125 0 
L 27.59375 0 
Q 17.1875 0 13.234375 3.875 
Q 9.28125 7.765625 9.28125 18.015625 
L 9.28125 47.703125 
L 2.6875 47.703125 
L 2.6875 54.6875 
L 9.28125 54.6875 
L 9.28125 70.21875 
z
" id="DejaVuSans-116"/>
      <path d="M 9.421875 54.6875 
L 18.40625 54.6875 
L 18.40625 0 
L 9.421875 0 
z
M 9.421875 75.984375 
L 18.40625 75.984375 
L 18.40625 64.59375 
L 9.421875 64.59375 
z
" id="DejaVuSans-105"/>
      <path d="M 30.609375 48.390625 
Q 23.390625 48.390625 19.1875 42.75 
Q 14.984375 37.109375 14.984375 27.296875 
Q 14.984375 17.484375 19.15625 11.84375 
Q 23.34375 6.203125 30.609375 6.203125 
Q 37.796875 6.203125 41.984375 11.859375 
Q 46.1875 17.53125 46.1875 27.296875 
Q 46.1875 37.015625 41.984375 42.703125 
Q 37.796875 48.390625 30.609375 48.390625 
z
M 30.609375 56 
Q 42.328125 56 49.015625 48.375 
Q 55.71875 40.765625 55.71875 27.296875 
Q 55.71875 13.875 49.015625 6.21875 
Q 42.328125 -1.421875 30.609375 -1.421875 
Q 18.84375 -1.421875 12.171875 6.21875 
Q 5.515625 13.875 5.515625 27.296875 
Q 5.515625 40.765625 12.171875 48.375 
Q 18.84375 56 30.609375 56 
z
" id="DejaVuSans-111"/>
      <path d="M 44.28125 53.078125 
L 44.28125 44.578125 
Q 40.484375 46.53125 36.375 47.5 
Q 32.28125 48.484375 27.875 48.484375 
Q 21.1875 48.484375 17.84375 46.4375 
Q 14.5 44.390625 14.5 40.28125 
Q 14.5 37.15625 16.890625 35.375 
Q 19.28125 33.59375 26.515625 31.984375 
L 29.59375 31.296875 
Q 39.15625 29.25 43.1875 25.515625 
Q 47.21875 21.78125 47.21875 15.09375 
Q 47.21875 7.46875 41.1875 3.015625 
Q 35.15625 -1.421875 24.609375 -1.421875 
Q 20.21875 -1.421875 15.453125 -0.5625 
Q 10.6875 0.296875 5.421875 2 
L 5.421875 11.28125 
Q 10.40625 8.6875 15.234375 7.390625 
Q 20.0625 6.109375 24.8125 6.109375 
Q 31.15625 6.109375 34.5625 8.28125 
Q 37.984375 10.453125 37.984375 14.40625 
Q 37.984375 18.0625 35.515625 20.015625 
Q 33.0625 21.96875 24.703125 23.78125 
L 21.578125 24.515625 
Q 13.234375 26.265625 9.515625 29.90625 
Q 5.8125 33.546875 5.8125 39.890625 
Q 5.8125 47.609375 11.28125 51.796875 
Q 16.75 56 26.8125 56 
Q 31.78125 56 36.171875 55.265625 
Q 40.578125 54.546875 44.28125 53.078125 
z
" id="DejaVuSans-115"/>
     </defs>
     <g transform="translate(190.902344 280.276563)scale(0.1 -0.1)">
      <use xlink:href="#DejaVuSans-71"/>
      <use x="77.490234" xlink:href="#DejaVuSans-101"/>
      <use x="139.013672" xlink:href="#DejaVuSans-110"/>
      <use x="202.392578" xlink:href="#DejaVuSans-101"/>
      <use x="263.916016" xlink:href="#DejaVuSans-114"/>
      <use x="305.029297" xlink:href="#DejaVuSans-97"/>
      <use x="366.308594" xlink:href="#DejaVuSans-116"/>
      <use x="405.517578" xlink:href="#DejaVuSans-105"/>
      <use x="433.300781" xlink:href="#DejaVuSans-111"/>
      <use x="494.482422" xlink:href="#DejaVuSans-110"/>
      <use x="557.861328" xlink:href="#DejaVuSans-115"/>
     </g>
    </g>
   </g>
   <g id="matplotlib.axis_2">
    <g id="ytick_1">
     <g id="line2d_11">
      <path clip-path="url(#pa52b8da5c9)" d="M 54 216.292988 
L 388.8 216.292988 
" style="fill:none;stroke:#b0b0b0;stroke-linecap:square;stroke-width:0.8;"/>
     </g>
     <g id="line2d_12">
      <defs>
       <path d="M 0 0 
L -3.5 0 
" id="m27751ae76a" style="stroke:#000000;stroke-width:0.8;"/>
      </defs>
      <g>
       <use style="stroke:#000000;stroke-width:0.8;" x="54" xlink:href="#m27751ae76a" y="216.292988"/>
      </g>
     </g>
     <g id="text_7">
      <!-- −500 -->
      <defs>
       <path d="M 10.59375 35.5 
L 73.1875 35.5 
L 73.1875 27.203125 
L 10.59375 27.203125 
z
" id="DejaVuSans-8722"/>
      </defs>
      <g transform="translate(19.532812 220.092207)scale(0.1 -0.1)">
       <use xlink:href="#DejaVuSans-8722"/>
       <use x="83.789062" xlink:href="#DejaVuSans-53"/>
       <use x="147.412109" xlink:href="#DejaVuSans-48"/>
       <use x="211.035156" xlink:href="#DejaVuSans-48"/>
      </g>
     </g>
    </g>
    <g id="ytick_2">
     <g id="line2d_13">
      <path clip-path="url(#pa52b8da5c9)" d="M 54 176.651766 
L 388.8 176.651766 
" style="fill:none;stroke:#b0b0b0;stroke-linecap:square;stroke-width:0.8;"/>
     </g>
     <g id="line2d_14">
      <g>
       <use style="stroke:#000000;stroke-width:0.8;" x="54" xlink:href="#m27751ae76a" y="176.651766"/>
      </g>
     </g>
     <g id="text_8">
      <!-- 0 -->
      <g transform="translate(40.6375 180.450984)scale(0.1 -0.1)">
       <use xlink:href="#DejaVuSans-48"/>
      </g>
     </g>
    </g>
    <g id="ytick_3">
     <g id="line2d_15">
      <path clip-path="url(#pa52b8da5c9)" d="M 54 137.010543 
L 388.8 137.010543 
" style="fill:none;stroke:#b0b0b0;stroke-linecap:square;stroke-width:0.8;"/>
     </g>
     <g id="line2d_16">
      <g>
       <use style="stroke:#000000;stroke-width:0.8;" x="54" xlink:href="#m27751ae76a" y="137.010543"/>
      </g>
     </g>
     <g id="text_9">
      <!-- 500 -->
      <g transform="translate(27.9125 140.809762)scale(0.1 -0.1)">
       <use xlink:href="#DejaVuSans-53"/>
       <use x="63.623047" xlink:href="#DejaVuSans-48"/>
       <use x="127.246094" xlink:href="#DejaVuSans-48"/>
      </g>
     </g>
    </g>
    <g id="ytick_4">
     <g id="line2d_17">
      <path clip-path="url(#pa52b8da5c9)" d="M 54 97.369321 
L 388.8 97.369321 
" style="fill:none;stroke:#b0b0b0;stroke-linecap:square;stroke-width:0.8;"/>
     </g>
     <g id="line2d_18">
      <g>
       <use style="stroke:#000000;stroke-width:0.8;" x="54" xlink:href="#m27751ae76a" y="97.369321"/>
      </g>
     </g>
     <g id="text_10">
      <!-- 1000 -->
      <g transform="translate(21.55 101.16854)scale(0.1 -0.1)">
       <use xlink:href="#DejaVuSans-49"/>
       <use x="63.623047" xlink:href="#DejaVuSans-48"/>
       <use x="127.246094" xlink:href="#DejaVuSans-48"/>
       <use x="190.869141" xlink:href="#DejaVuSans-48"/>
      </g>
     </g>
    </g>
    <g id="ytick_5">
     <g id="line2d_19">
      <path clip-path="url(#pa52b8da5c9)" d="M 54 57.728099 
L 388.8 57.728099 
" style="fill:none;stroke:#b0b0b0;stroke-linecap:square;stroke-width:0.8;"/>
     </g>
     <g id="line2d_20">
      <g>
       <use style="stroke:#000000;stroke-width:0.8;" x="54" xlink:href="#m27751ae76a" y="57.728099"/>
      </g>
     </g>
     <g id="text_11">
      <!-- 1500 -->
      <g transform="translate(21.55 61.527317)scale(0.1 -0.1)">
       <use xlink:href="#DejaVuSans-49"/>
       <use x="63.623047" xlink:href="#DejaVuSans-53"/>
       <use x="127.246094" xlink:href="#DejaVuSans-48"/>
       <use x="190.869141" xlink:href="#DejaVuSans-48"/>
      </g>
     </g>
    </g>
    <g id="text_12">
     <!-- Fitness -->
     <defs>
      <path d="M 9.8125 72.90625 
L 51.703125 72.90625 
L 51.703125 64.59375 
L 19.671875 64.59375 
L 19.671875 43.109375 
L 48.578125 43.109375 
L 48.578125 34.8125 
L 19.671875 34.8125 
L 19.671875 0 
L 9.8125 0 
z
" id="DejaVuSans-70"/>
     </defs>
     <g transform="translate(13.453125 160.954219)rotate(-90)scale(0.1 -0.1)">
      <use xlink:href="#DejaVuSans-70"/>
      <use x="57.410156" xlink:href="#DejaVuSans-105"/>
      <use x="85.193359" xlink:href="#DejaVuSans-116"/>
      <use x="124.402344" xlink:href="#DejaVuSans-110"/>
      <use x="187.78125" xlink:href="#DejaVuSans-101"/>
      <use x="249.304688" xlink:href="#DejaVuSans-115"/>
      <use x="301.404297" xlink:href="#DejaVuSans-115"/>
     </g>
    </g>
   </g>
   <g id="line2d_21">
    <path clip-path="url(#pa52b8da5c9)" d="M 69.218182 207.503164 
L 70.647119 194.127478 
L 72.076056 185.737739 
L 73.504994 179.796663 
L 74.933931 163.151979 
L 76.362868 159.979214 
L 77.791805 150.682089 
L 79.220743 147.519808 
L 80.64968 145.296917 
L 82.078617 146.698611 
L 83.507554 143.779351 
L 84.936492 137.827076 
L 86.365429 136.166537 
L 87.794366 131.259615 
L 89.223303 127.063878 
L 90.652241 130.523839 
L 92.081178 132.074475 
L 93.510115 124.227365 
L 94.939052 128.325442 
L 96.36799 120.992989 
L 97.796927 126.969769 
L 99.225864 123.151743 
L 100.654802 123.064858 
L 102.083739 119.502749 
L 103.512676 123.438736 
L 104.941613 124.896309 
L 106.370551 117.334666 
L 107.799488 120.301838 
L 109.228425 120.150316 
L 110.657362 124.172815 
L 112.0863 124.095169 
L 113.515237 116.659308 
L 114.944174 116.172154 
L 116.373111 123.460393 
L 117.802049 120.442682 
L 119.230986 122.278521 
L 120.659923 129.719318 
L 122.08886 128.268982 
L 123.517798 115.505167 
L 126.375672 124.567026 
L 127.804609 134.850223 
L 129.233547 130.513715 
L 130.662484 117.716885 
L 132.091421 127.178677 
L 133.520359 123.55205 
L 134.949296 121.056258 
L 136.378233 133.683526 
L 137.80717 132.854298 
L 139.236108 128.008742 
L 140.665045 119.225526 
L 142.093982 125.645916 
L 143.522919 125.499482 
L 144.951857 122.863571 
L 146.380794 123.070894 
L 147.809731 130.452103 
L 149.238668 122.942733 
L 150.667606 125.634688 
L 152.096543 124.645969 
L 153.52548 124.780697 
L 154.954417 120.112797 
L 156.383355 119.147201 
L 157.812292 136.568308 
L 159.241229 122.598976 
L 160.670166 124.509465 
L 162.099104 123.408875 
L 163.528041 130.920235 
L 164.956978 124.589688 
L 166.385915 123.512754 
L 167.814853 129.64319 
L 169.24379 125.812749 
L 170.672727 131.857361 
L 172.101665 116.057812 
L 173.530602 129.928139 
L 174.959539 129.979302 
L 176.388476 128.36343 
L 177.817414 119.48966 
L 179.246351 123.08514 
L 180.675288 124.699816 
L 182.104225 119.83782 
L 183.533163 124.430691 
L 184.9621 121.219127 
L 186.391037 127.05617 
L 187.819974 133.377776 
L 189.248912 121.73843 
L 190.677849 129.042596 
L 192.106786 123.581643 
L 193.535723 121.437475 
L 194.964661 134.71529 
L 196.393598 139.416633 
L 197.822535 134.898797 
L 199.251472 128.585677 
L 200.68041 125.509197 
L 202.109347 128.537777 
L 203.538284 132.601667 
L 204.967222 131.739461 
L 206.396159 124.740118 
L 207.825096 128.514814 
L 209.254033 120.992142 
L 210.682971 138.278463 
L 212.111908 134.063793 
L 213.540845 129.124954 
L 214.969782 133.981059 
L 216.39872 132.309642 
L 217.827657 134.127137 
L 219.256594 117.213609 
L 220.685531 110.474329 
L 222.114469 117.234871 
L 223.543406 125.671689 
L 224.972343 126.855151 
L 226.40128 124.976626 
L 227.830218 125.195399 
L 229.259155 120.374426 
L 230.688092 111.253543 
L 232.117029 125.221265 
L 233.545967 104.011849 
L 234.974904 118.438792 
L 236.403841 122.254455 
L 237.832778 116.942591 
L 239.261716 104.2923 
L 240.690653 113.845301 
L 242.11959 119.329855 
L 243.548528 113.015441 
L 244.977465 114.316505 
L 246.406402 109.869489 
L 247.835339 110.385747 
L 249.264277 110.440665 
L 252.122151 119.947044 
L 253.551088 110.717432 
L 254.980026 113.969979 
L 256.408963 116.455593 
L 257.8379 109.661971 
L 259.266837 106.741718 
L 260.695775 118.900194 
L 262.124712 115.06047 
L 263.553649 106.415996 
L 264.982586 108.534986 
L 266.411524 116.775297 
L 267.840461 113.549444 
L 269.269398 109.766032 
L 270.698335 109.79128 
L 272.127273 112.201322 
L 273.55621 113.121267 
L 274.985147 116.72715 
L 276.414085 112.083545 
L 277.843022 108.014622 
L 279.271959 109.041447 
L 280.700896 109.71323 
L 282.129834 107.496913 
L 283.558771 109.812113 
L 284.987708 121.178049 
L 286.416645 109.231282 
L 287.845583 104.637941 
L 289.27452 101.900563 
L 290.703457 104.529223 
L 292.132394 112.399255 
L 293.561332 106.800254 
L 294.990269 115.08185 
L 296.419206 104.361975 
L 297.848143 114.272446 
L 299.277081 114.294773 
L 300.706018 105.364211 
L 302.134955 108.400949 
L 303.563892 105.794679 
L 304.99283 108.408515 
L 306.421767 121.340915 
L 307.850704 106.536016 
L 309.279641 117.426771 
L 310.708579 131.205174 
L 312.137516 108.467995 
L 313.566453 113.607759 
L 314.995391 102.887915 
L 316.424328 118.545106 
L 317.853265 104.899367 
L 319.282202 113.183019 
L 320.71114 117.465703 
L 322.140077 103.458203 
L 323.569014 107.578525 
L 324.997951 108.663438 
L 326.426889 103.288934 
L 327.855826 115.814494 
L 329.284763 107.852131 
L 330.7137 107.921179 
L 332.142638 101.9702 
L 333.571575 105.792677 
L 335.000512 104.13264 
L 336.429449 114.733682 
L 337.858387 107.306112 
L 339.287324 119.071777 
L 340.716261 109.617189 
L 342.145198 110.467061 
L 343.574136 111.692397 
L 345.003073 109.601752 
L 346.43201 110.011487 
L 347.860948 106.333562 
L 349.289885 105.697685 
L 350.718822 109.714913 
L 352.147759 114.246812 
L 353.576697 107.997384 
L 356.434571 99.725274 
L 357.863508 103.748349 
L 359.292446 109.404097 
L 360.721383 105.10049 
L 362.15032 102.611903 
L 363.579257 111.759269 
L 365.008195 102.061307 
L 366.437132 102.974333 
L 367.866069 107.635699 
L 369.295006 106.874215 
L 370.723944 106.955782 
L 372.152881 119.318934 
L 373.581818 109.635532 
L 373.581818 109.635532 
" style="fill:none;stroke:#0000ff;stroke-linecap:square;stroke-width:1.5;"/>
   </g>
   <g id="line2d_22">
    <path clip-path="url(#pa52b8da5c9)" d="M 69.218182 242.116364 
L 70.647119 218.586418 
L 72.076056 215.447473 
L 73.504994 210.27499 
L 74.933931 197.379152 
L 76.362868 198.967869 
L 77.791805 192.59136 
L 79.220743 191.042663 
L 80.64968 187.534624 
L 82.078617 189.594188 
L 83.507554 190.606684 
L 84.936492 182.425429 
L 86.365429 180.403378 
L 89.223303 163.631116 
L 90.652241 173.6001 
L 92.081178 172.539658 
L 93.510115 165.163452 
L 94.939052 171.715904 
L 96.36799 157.189568 
L 97.796927 171.067701 
L 99.225864 165.951922 
L 100.654802 162.590143 
L 102.083739 157.292248 
L 103.512676 164.796211 
L 104.941613 169.105252 
L 106.370551 153.056236 
L 107.799488 160.621559 
L 109.228425 161.875683 
L 110.657362 166.298422 
L 112.0863 163.313966 
L 113.515237 152.065408 
L 114.944174 154.266096 
L 116.373111 165.240286 
L 117.802049 159.224368 
L 119.230986 161.168673 
L 120.659923 175.359934 
L 122.08886 171.732816 
L 123.517798 150.099399 
L 124.946735 160.684197 
L 126.375672 169.73919 
L 127.804609 189.810947 
L 129.233547 177.589708 
L 130.662484 152.122215 
L 132.091421 170.318697 
L 133.520359 167.211816 
L 134.949296 158.919017 
L 136.378233 178.233036 
L 137.80717 180.489955 
L 139.236108 179.123209 
L 140.665045 153.397376 
L 142.093982 165.855962 
L 143.522919 167.609252 
L 144.951857 160.168764 
L 146.380794 165.475676 
L 147.809731 177.61162 
L 149.238668 161.981383 
L 150.667606 168.216068 
L 152.096543 167.049146 
L 153.52548 166.635545 
L 154.954417 158.595323 
L 156.383355 157.589963 
L 157.812292 191.077031 
L 159.241229 161.010953 
L 160.670166 167.745079 
L 162.099104 160.17974 
L 163.528041 175.464203 
L 164.956978 165.262608 
L 166.385915 165.753185 
L 167.814853 172.741101 
L 169.24379 167.013248 
L 170.672727 176.634774 
L 172.101665 151.204963 
L 173.530602 171.223586 
L 174.959539 172.706682 
L 176.388476 168.242731 
L 177.817414 157.82261 
L 180.675288 164.740562 
L 182.104225 159.598195 
L 183.533163 162.445791 
L 184.9621 160.774629 
L 186.391037 166.339773 
L 187.819974 175.126741 
L 189.248912 159.590219 
L 190.677849 170.60548 
L 192.106786 161.323648 
L 193.535723 159.743524 
L 194.964661 181.453867 
L 196.393598 185.774343 
L 197.822535 181.479533 
L 199.251472 170.656703 
L 200.68041 166.249421 
L 202.109347 171.270275 
L 203.538284 180.050578 
L 204.967222 176.336269 
L 206.396159 164.298696 
L 207.825096 170.687861 
L 209.254033 158.894417 
L 210.682971 184.689435 
L 212.111908 178.195824 
L 213.540845 170.802302 
L 214.969782 177.025695 
L 216.39872 175.756047 
L 217.827657 174.308563 
L 219.256594 148.979195 
L 220.685531 136.088874 
L 222.114469 146.710322 
L 223.543406 168.032031 
L 224.972343 165.398211 
L 226.40128 163.882357 
L 227.830218 161.250032 
L 229.259155 154.839599 
L 230.688092 137.881449 
L 232.117029 167.738339 
L 233.545967 115.784972 
L 234.974904 157.081834 
L 236.403841 160.15343 
L 237.832778 162.299571 
L 239.261716 125.133232 
L 240.690653 156.59182 
L 242.11959 158.010029 
L 243.548528 146.574504 
L 244.977465 144.037556 
L 246.406402 137.215178 
L 247.835339 138.628829 
L 249.264277 140.321956 
L 250.693214 154.098095 
L 252.122151 158.427376 
L 253.551088 141.956668 
L 254.980026 148.285286 
L 256.408963 157.576075 
L 257.8379 138.756071 
L 259.266837 135.490734 
L 260.695775 157.791618 
L 262.124712 149.719914 
L 263.553649 126.880274 
L 264.982586 132.939255 
L 266.411524 150.786653 
L 267.840461 148.266954 
L 269.269398 136.005673 
L 270.698335 133.79366 
L 272.127273 141.952862 
L 273.55621 137.592004 
L 274.985147 155.544953 
L 276.414085 139.337231 
L 277.843022 136.851375 
L 279.271959 135.217796 
L 280.700896 142.395324 
L 282.129834 129.240517 
L 283.558771 137.926928 
L 284.987708 162.587712 
L 286.416645 140.813349 
L 287.845583 125.89399 
L 289.27452 112.349944 
L 290.703457 120.26038 
L 292.132394 138.142429 
L 293.561332 128.289336 
L 294.990269 151.693478 
L 296.419206 123.60744 
L 297.848143 149.273668 
L 299.277081 147.592738 
L 300.706018 132.915598 
L 302.134955 134.977622 
L 303.563892 122.492057 
L 304.99283 136.385378 
L 306.421767 162.650162 
L 307.850704 125.250719 
L 309.279641 151.272155 
L 310.708579 217.966712 
L 312.137516 137.518228 
L 313.566453 153.443885 
L 314.995391 115.628844 
L 316.424328 154.859206 
L 317.853265 125.388567 
L 319.282202 141.58284 
L 320.71114 155.228039 
L 322.140077 128.428091 
L 323.569014 131.631098 
L 324.997951 132.404146 
L 326.426889 122.509119 
L 327.855826 152.515301 
L 329.284763 136.833703 
L 330.7137 137.799892 
L 332.142638 121.973321 
L 333.571575 122.408904 
L 335.000512 123.171798 
L 336.429449 147.329475 
L 337.858387 134.286934 
L 339.287324 158.174952 
L 340.716261 133.62767 
L 342.145198 147.04098 
L 343.574136 141.840002 
L 345.003073 141.911071 
L 346.43201 140.41004 
L 347.860948 128.429093 
L 349.289885 127.838957 
L 350.718822 141.471125 
L 352.147759 152.234904 
L 353.576697 134.327549 
L 355.005634 118.19185 
L 356.434571 106.76357 
L 357.863508 125.117681 
L 359.292446 137.595531 
L 360.721383 129.668368 
L 362.15032 117.691301 
L 363.579257 142.102475 
L 365.008195 120.817655 
L 366.437132 116.177665 
L 367.866069 135.082755 
L 369.295006 127.691952 
L 370.723944 130.114984 
L 372.152881 157.840372 
L 373.581818 141.342179 
L 373.581818 141.342179 
" style="fill:none;stroke:#008000;stroke-dasharray:9.6,2.4,1.5,2.4;stroke-dashoffset:0;stroke-width:1.5;"/>
   </g>
   <g id="line2d_23">
    <path clip-path="url(#pa52b8da5c9)" d="M 69.218182 172.889964 
L 70.647119 169.668539 
L 72.076056 156.028005 
L 73.504994 149.318337 
L 74.933931 128.924806 
L 76.362868 120.990558 
L 77.791805 108.772819 
L 79.220743 103.996954 
L 80.64968 103.059209 
L 82.078617 103.803034 
L 83.507554 96.952018 
L 84.936492 93.228724 
L 86.365429 91.929695 
L 87.794366 90.411894 
L 89.223303 90.49664 
L 90.652241 87.447578 
L 92.081178 91.609292 
L 93.510115 83.291278 
L 94.939052 84.934981 
L 96.36799 84.796411 
L 97.796927 82.871836 
L 99.225864 80.351564 
L 100.654802 83.539573 
L 102.083739 81.71325 
L 103.512676 82.081261 
L 104.941613 80.687367 
L 106.370551 81.613095 
L 109.228425 78.42495 
L 110.657362 82.047207 
L 112.0863 84.876371 
L 113.515237 81.253207 
L 114.944174 78.078212 
L 116.373111 81.6805 
L 117.802049 81.660997 
L 119.230986 83.388368 
L 122.08886 84.805148 
L 123.517798 80.910935 
L 124.946735 79.754801 
L 126.375672 79.394863 
L 127.804609 79.889499 
L 129.233547 83.437722 
L 130.662484 83.311556 
L 132.091421 84.038657 
L 133.520359 79.892283 
L 134.949296 83.193498 
L 136.378233 89.134017 
L 137.80717 85.218641 
L 139.236108 76.894275 
L 140.665045 85.053675 
L 142.093982 85.435871 
L 143.522919 83.389711 
L 144.951857 85.558378 
L 146.380794 80.666113 
L 147.809731 83.292586 
L 149.238668 83.904084 
L 152.096543 82.242792 
L 153.52548 82.925849 
L 154.954417 81.630271 
L 156.383355 80.704438 
L 157.812292 82.059585 
L 159.241229 84.186999 
L 160.670166 81.273851 
L 162.099104 86.638011 
L 163.528041 86.376268 
L 166.385915 81.272324 
L 167.814853 86.545279 
L 169.24379 84.61225 
L 170.672727 87.079948 
L 172.101665 80.910661 
L 173.530602 88.632692 
L 174.959539 87.251922 
L 176.388476 88.484129 
L 177.817414 81.15671 
L 179.246351 84.986131 
L 180.675288 84.65907 
L 182.104225 80.077444 
L 183.533163 86.415591 
L 184.9621 81.663626 
L 186.391037 87.772566 
L 187.819974 91.628812 
L 189.248912 83.886641 
L 190.677849 87.479713 
L 192.106786 85.839639 
L 193.535723 83.131427 
L 196.393598 93.058924 
L 197.822535 88.318062 
L 200.68041 84.768973 
L 202.109347 85.805279 
L 203.538284 85.152756 
L 204.967222 87.142653 
L 206.396159 85.181539 
L 207.825096 86.341767 
L 209.254033 83.089867 
L 210.682971 91.867491 
L 212.111908 89.931763 
L 213.540845 87.447606 
L 214.969782 90.936424 
L 216.39872 88.863237 
L 217.827657 93.945712 
L 219.256594 85.448023 
L 220.685531 84.859783 
L 222.114469 87.759421 
L 223.543406 83.311347 
L 224.972343 88.312091 
L 226.40128 86.070894 
L 227.830218 89.140765 
L 229.259155 85.909254 
L 230.688092 84.625637 
L 232.117029 82.704191 
L 233.545967 92.238727 
L 234.974904 79.79575 
L 236.403841 84.35548 
L 237.832778 71.585611 
L 239.261716 83.451369 
L 240.690653 71.098782 
L 242.11959 80.649681 
L 243.548528 79.456377 
L 244.977465 84.595454 
L 246.406402 82.5238 
L 247.835339 82.142665 
L 249.264277 80.559374 
L 250.693214 76.504312 
L 252.122151 81.466711 
L 253.551088 79.478197 
L 254.980026 79.654671 
L 256.408963 75.33511 
L 257.8379 80.567872 
L 259.266837 77.992703 
L 260.695775 80.008771 
L 262.124712 80.401026 
L 263.553649 85.951718 
L 264.982586 84.130717 
L 266.411524 82.76394 
L 267.840461 78.831933 
L 269.269398 83.52639 
L 270.698335 85.7889 
L 272.127273 82.449781 
L 273.55621 88.65053 
L 274.985147 77.909346 
L 276.414085 84.829859 
L 277.843022 79.177868 
L 279.271959 82.865098 
L 280.700896 77.031136 
L 282.129834 85.753309 
L 283.558771 81.697298 
L 284.987708 79.768386 
L 286.416645 77.649215 
L 287.845583 83.381892 
L 289.27452 91.451181 
L 290.703457 88.798066 
L 292.132394 86.65608 
L 293.561332 85.311173 
L 294.990269 78.470223 
L 296.419206 85.11651 
L 297.848143 79.271225 
L 299.277081 80.996808 
L 300.706018 77.812824 
L 302.134955 81.824276 
L 303.563892 89.0973 
L 304.99283 80.431652 
L 306.421767 80.031669 
L 307.850704 87.821314 
L 309.279641 83.581388 
L 310.708579 44.443636 
L 312.137516 79.417762 
L 313.566453 73.771632 
L 314.995391 90.146986 
L 316.424328 82.231007 
L 317.853265 84.410167 
L 319.282202 84.783199 
L 320.71114 79.703367 
L 322.140077 78.488315 
L 323.569014 83.525952 
L 324.997951 84.92273 
L 326.426889 84.068748 
L 327.855826 79.113688 
L 329.284763 78.870558 
L 330.7137 78.042466 
L 332.142638 81.96708 
L 333.571575 89.17645 
L 335.000512 85.093482 
L 336.429449 82.137888 
L 337.858387 80.325291 
L 339.287324 79.968602 
L 340.716261 85.606709 
L 342.145198 73.893141 
L 343.574136 81.544791 
L 345.003073 77.292433 
L 346.43201 79.612934 
L 347.860948 84.238032 
L 349.289885 83.556412 
L 350.718822 77.958702 
L 352.147759 76.25872 
L 353.576697 81.66722 
L 355.005634 89.197419 
L 356.434571 92.686979 
L 357.863508 82.379017 
L 359.292446 81.212663 
L 360.721383 80.532612 
L 362.15032 87.532505 
L 363.579257 81.416064 
L 365.008195 83.30496 
L 366.437132 89.771001 
L 367.866069 80.188643 
L 369.295006 86.056479 
L 370.723944 83.796579 
L 373.581818 77.928884 
L 373.581818 77.928884 
" style="fill:none;stroke:#008000;stroke-dasharray:9.6,2.4,1.5,2.4;stroke-dashoffset:0;stroke-width:1.5;"/>
   </g>
   <g id="line2d_24">
    <path clip-path="url(#pa52b8da5c9)" d="M 69.218182 113.709617 
L 70.647119 117.926862 
L 72.076056 98.052948 
L 74.933931 97.543449 
L 76.362868 96.812366 
L 77.791805 96.932276 
L 79.220743 97.260605 
L 80.64968 96.988363 
L 83.507554 96.733544 
L 84.936492 96.703987 
L 86.365429 96.948073 
L 87.794366 96.802225 
L 90.652241 96.977877 
L 92.081178 96.927285 
L 93.510115 97.230118 
L 94.939052 96.597875 
L 96.36799 96.99184 
L 97.796927 96.655762 
L 99.225864 96.484018 
L 100.654802 96.943833 
L 103.512676 96.785489 
L 104.941613 96.913085 
L 107.799488 96.687506 
L 110.657362 96.841805 
L 112.0863 96.80154 
L 113.515237 96.474854 
L 114.944174 96.754093 
L 116.373111 96.716829 
L 117.802049 96.861328 
L 119.230986 96.700124 
L 123.517798 96.919227 
L 124.946735 96.686083 
L 126.375672 96.690967 
L 127.804609 96.52984 
L 129.233547 96.814286 
L 130.662484 96.719632 
L 132.091421 96.792626 
L 133.520359 97.066497 
L 142.093982 96.827676 
L 143.522919 97.076738 
L 146.380794 96.638097 
L 147.809731 96.703033 
L 149.238668 96.945657 
L 152.096543 96.722931 
L 153.52548 96.892252 
L 154.954417 96.75031 
L 157.812292 96.923879 
L 159.241229 96.714696 
L 162.099104 97.126027 
L 163.528041 96.888504 
L 164.956978 96.861311 
L 166.385915 96.701113 
L 167.814853 96.951158 
L 169.24379 96.999622 
L 170.672727 96.803524 
L 173.530602 96.97221 
L 174.959539 96.608056 
L 176.388476 97.009497 
L 177.817414 96.803429 
L 179.246351 97.228675 
L 182.104225 96.706518 
L 183.533163 96.90051 
L 186.391037 97.060387 
L 187.819974 96.842188 
L 189.248912 97.077281 
L 190.677849 96.868384 
L 192.106786 96.959113 
L 193.535723 96.68568 
L 194.964661 96.839676 
L 196.393598 96.641878 
L 199.251472 96.624407 
L 200.68041 97.212262 
L 202.109347 96.638808 
L 203.538284 96.999759 
L 204.967222 96.769893 
L 206.396159 96.655232 
L 207.825096 96.999932 
L 209.254033 96.784321 
L 212.111908 96.929916 
L 214.969782 96.692936 
L 216.39872 96.875019 
L 217.827657 96.564947 
L 222.114469 96.895717 
L 224.972343 96.68941 
L 226.40128 96.737792 
L 227.830218 96.651049 
L 232.117029 96.942362 
L 233.545967 96.795137 
L 234.974904 97.050971 
L 237.832778 96.820393 
L 239.261716 96.884987 
L 240.690653 96.673383 
L 242.11959 96.774913 
L 243.548528 96.552093 
L 244.977465 96.766798 
L 246.406402 96.697682 
L 247.835339 97.020133 
L 249.264277 96.892854 
L 250.693214 96.903152 
L 252.122151 96.728726 
L 253.551088 96.828015 
L 254.980026 96.678539 
L 256.408963 96.753668 
L 257.8379 96.585687 
L 260.695775 96.929012 
L 262.124712 96.813067 
L 264.982586 96.947804 
L 267.840461 96.693039 
L 269.269398 96.621982 
L 272.127273 96.854642 
L 273.55621 96.663773 
L 274.985147 96.77678 
L 276.414085 96.61893 
L 277.843022 96.854362 
L 279.271959 96.739893 
L 280.700896 96.899202 
L 282.129834 96.774656 
L 283.558771 96.87221 
L 284.987708 96.715053 
L 289.27452 96.760998 
L 292.132394 96.864042 
L 293.561332 96.659182 
L 294.990269 96.795929 
L 296.419206 96.628766 
L 297.848143 96.832277 
L 299.277081 96.55466 
L 300.706018 96.776721 
L 303.563892 96.329311 
L 304.99283 96.785312 
L 307.850704 96.562102 
L 309.279641 96.807907 
L 312.137516 96.794102 
L 313.566453 96.542063 
L 314.995391 96.700149 
L 316.424328 96.645674 
L 317.853265 96.86151 
L 319.282202 96.928672 
L 320.71114 96.661476 
L 322.140077 96.659854 
L 323.569014 96.815009 
L 326.426889 96.747832 
L 327.855826 96.630964 
L 329.284763 96.85631 
L 333.571575 96.70416 
L 335.000512 96.985211 
L 336.429449 96.644849 
L 340.716261 96.89469 
L 342.145198 96.780904 
L 343.574136 96.852674 
L 347.860948 96.622734 
L 349.289885 96.716465 
L 350.718822 96.5731 
L 353.576697 96.733864 
L 355.005634 96.575379 
L 356.434571 96.909612 
L 357.863508 96.658686 
L 360.721383 96.955271 
L 362.15032 96.670927 
L 363.579257 96.787979 
L 365.008195 96.638623 
L 367.866069 96.715189 
L 372.152881 96.68251 
L 373.581818 96.594184 
L 373.581818 96.594184 
" style="fill:none;stroke:#ff0000;stroke-linecap:square;stroke-width:1.5;"/>
   </g>
   <g id="patch_3">
    <path d="M 54 252 
L 54 34.56 
" style="fill:none;stroke:#000000;stroke-linecap:square;stroke-linejoin:miter;stroke-width:0.8;"/>
   </g>
   <g id="patch_4">
    <path d="M 388.8 252 
L 388.8 34.56 
" style="fill:none;stroke:#000000;stroke-linecap:square;stroke-linejoin:miter;stroke-width:0.8;"/>
   </g>
   <g id="patch_5">
    <path d="M 54 252 
L 388.8 252 
" style="fill:none;stroke:#000000;stroke-linecap:square;stroke-linejoin:miter;stroke-width:0.8;"/>
   </g>
   <g id="patch_6">
    <path d="M 54 34.56 
L 388.8 34.56 
" style="fill:none;stroke:#000000;stroke-linecap:square;stroke-linejoin:miter;stroke-width:0.8;"/>
   </g>
   <g id="text_13">
    <!-- Population's average and best fitness -->
    <defs>
     <path d="M 19.671875 64.796875 
L 19.671875 37.40625 
L 32.078125 37.40625 
Q 38.96875 37.40625 42.71875 40.96875 
Q 46.484375 44.53125 46.484375 51.125 
Q 46.484375 57.671875 42.71875 61.234375 
Q 38.96875 64.796875 32.078125 64.796875 
z
M 9.8125 72.90625 
L 32.078125 72.90625 
Q 44.34375 72.90625 50.609375 67.359375 
Q 56.890625 61.8125 56.890625 51.125 
Q 56.890625 40.328125 50.609375 34.8125 
Q 44.34375 29.296875 32.078125 29.296875 
L 19.671875 29.296875 
L 19.671875 0 
L 9.8125 0 
z
" id="DejaVuSans-80"/>
     <path d="M 18.109375 8.203125 
L 18.109375 -20.796875 
L 9.078125 -20.796875 
L 9.078125 54.6875 
L 18.109375 54.6875 
L 18.109375 46.390625 
Q 20.953125 51.265625 25.265625 53.625 
Q 29.59375 56 35.59375 56 
Q 45.5625 56 51.78125 48.09375 
Q 58.015625 40.1875 58.015625 27.296875 
Q 58.015625 14.40625 51.78125 6.484375 
Q 45.5625 -1.421875 35.59375 -1.421875 
Q 29.59375 -1.421875 25.265625 0.953125 
Q 20.953125 3.328125 18.109375 8.203125 
z
M 48.6875 27.296875 
Q 48.6875 37.203125 44.609375 42.84375 
Q 40.53125 48.484375 33.40625 48.484375 
Q 26.265625 48.484375 22.1875 42.84375 
Q 18.109375 37.203125 18.109375 27.296875 
Q 18.109375 17.390625 22.1875 11.75 
Q 26.265625 6.109375 33.40625 6.109375 
Q 40.53125 6.109375 44.609375 11.75 
Q 48.6875 17.390625 48.6875 27.296875 
z
" id="DejaVuSans-112"/>
     <path d="M 8.5 21.578125 
L 8.5 54.6875 
L 17.484375 54.6875 
L 17.484375 21.921875 
Q 17.484375 14.15625 20.5 10.265625 
Q 23.53125 6.390625 29.59375 6.390625 
Q 36.859375 6.390625 41.078125 11.03125 
Q 45.3125 15.671875 45.3125 23.6875 
L 45.3125 54.6875 
L 54.296875 54.6875 
L 54.296875 0 
L 45.3125 0 
L 45.3125 8.40625 
Q 42.046875 3.421875 37.71875 1 
Q 33.40625 -1.421875 27.6875 -1.421875 
Q 18.265625 -1.421875 13.375 4.4375 
Q 8.5 10.296875 8.5 21.578125 
z
M 31.109375 56 
z
" id="DejaVuSans-117"/>
     <path d="M 9.421875 75.984375 
L 18.40625 75.984375 
L 18.40625 0 
L 9.421875 0 
z
" id="DejaVuSans-108"/>
     <path d="M 17.921875 72.90625 
L 17.921875 45.796875 
L 9.625 45.796875 
L 9.625 72.90625 
z
" id="DejaVuSans-39"/>
     <path id="DejaVuSans-32"/>
     <path d="M 2.984375 54.6875 
L 12.5 54.6875 
L 29.59375 8.796875 
L 46.6875 54.6875 
L 56.203125 54.6875 
L 35.6875 0 
L 23.484375 0 
z
" id="DejaVuSans-118"/>
     <path d="M 45.40625 27.984375 
Q 45.40625 37.75 41.375 43.109375 
Q 37.359375 48.484375 30.078125 48.484375 
Q 22.859375 48.484375 18.828125 43.109375 
Q 14.796875 37.75 14.796875 27.984375 
Q 14.796875 18.265625 18.828125 12.890625 
Q 22.859375 7.515625 30.078125 7.515625 
Q 37.359375 7.515625 41.375 12.890625 
Q 45.40625 18.265625 45.40625 27.984375 
z
M 54.390625 6.78125 
Q 54.390625 -7.171875 48.1875 -13.984375 
Q 42 -20.796875 29.203125 -20.796875 
Q 24.46875 -20.796875 20.265625 -20.09375 
Q 16.0625 -19.390625 12.109375 -17.921875 
L 12.109375 -9.1875 
Q 16.0625 -11.328125 19.921875 -12.34375 
Q 23.78125 -13.375 27.78125 -13.375 
Q 36.625 -13.375 41.015625 -8.765625 
Q 45.40625 -4.15625 45.40625 5.171875 
L 45.40625 9.625 
Q 42.625 4.78125 38.28125 2.390625 
Q 33.9375 0 27.875 0 
Q 17.828125 0 11.671875 7.65625 
Q 5.515625 15.328125 5.515625 27.984375 
Q 5.515625 40.671875 11.671875 48.328125 
Q 17.828125 56 27.875 56 
Q 33.9375 56 38.28125 53.609375 
Q 42.625 51.21875 45.40625 46.390625 
L 45.40625 54.6875 
L 54.390625 54.6875 
z
" id="DejaVuSans-103"/>
     <path d="M 45.40625 46.390625 
L 45.40625 75.984375 
L 54.390625 75.984375 
L 54.390625 0 
L 45.40625 0 
L 45.40625 8.203125 
Q 42.578125 3.328125 38.25 0.953125 
Q 33.9375 -1.421875 27.875 -1.421875 
Q 17.96875 -1.421875 11.734375 6.484375 
Q 5.515625 14.40625 5.515625 27.296875 
Q 5.515625 40.1875 11.734375 48.09375 
Q 17.96875 56 27.875 56 
Q 33.9375 56 38.25 53.625 
Q 42.578125 51.265625 45.40625 46.390625 
z
M 14.796875 27.296875 
Q 14.796875 17.390625 18.875 11.75 
Q 22.953125 6.109375 30.078125 6.109375 
Q 37.203125 6.109375 41.296875 11.75 
Q 45.40625 17.390625 45.40625 27.296875 
Q 45.40625 37.203125 41.296875 42.84375 
Q 37.203125 48.484375 30.078125 48.484375 
Q 22.953125 48.484375 18.875 42.84375 
Q 14.796875 37.203125 14.796875 27.296875 
z
" id="DejaVuSans-100"/>
     <path d="M 48.6875 27.296875 
Q 48.6875 37.203125 44.609375 42.84375 
Q 40.53125 48.484375 33.40625 48.484375 
Q 26.265625 48.484375 22.1875 42.84375 
Q 18.109375 37.203125 18.109375 27.296875 
Q 18.109375 17.390625 22.1875 11.75 
Q 26.265625 6.109375 33.40625 6.109375 
Q 40.53125 6.109375 44.609375 11.75 
Q 48.6875 17.390625 48.6875 27.296875 
z
M 18.109375 46.390625 
Q 20.953125 51.265625 25.265625 53.625 
Q 29.59375 56 35.59375 56 
Q 45.5625 56 51.78125 48.09375 
Q 58.015625 40.1875 58.015625 27.296875 
Q 58.015625 14.40625 51.78125 6.484375 
Q 45.5625 -1.421875 35.59375 -1.421875 
Q 29.59375 -1.421875 25.265625 0.953125 
Q 20.953125 3.328125 18.109375 8.203125 
L 18.109375 0 
L 9.078125 0 
L 9.078125 75.984375 
L 18.109375 75.984375 
z
" id="DejaVuSans-98"/>
     <path d="M 37.109375 75.984375 
L 37.109375 68.5 
L 28.515625 68.5 
Q 23.6875 68.5 21.796875 66.546875 
Q 19.921875 64.59375 19.921875 59.515625 
L 19.921875 54.6875 
L 34.71875 54.6875 
L 34.71875 47.703125 
L 19.921875 47.703125 
L 19.921875 0 
L 10.890625 0 
L 10.890625 47.703125 
L 2.296875 47.703125 
L 2.296875 54.6875 
L 10.890625 54.6875 
L 10.890625 58.5 
Q 10.890625 67.625 15.140625 71.796875 
Q 19.390625 75.984375 28.609375 75.984375 
z
" id="DejaVuSans-102"/>
    </defs>
    <g transform="translate(108.555 28.56)scale(0.12 -0.12)">
     <use xlink:href="#DejaVuSans-80"/>
     <use x="60.255859" xlink:href="#DejaVuSans-111"/>
     <use x="121.4375" xlink:href="#DejaVuSans-112"/>
     <use x="184.914062" xlink:href="#DejaVuSans-117"/>
     <use x="248.292969" xlink:href="#DejaVuSans-108"/>
     <use x="276.076172" xlink:href="#DejaVuSans-97"/>
     <use x="337.355469" xlink:href="#DejaVuSans-116"/>
     <use x="376.564453" xlink:href="#DejaVuSans-105"/>
     <use x="404.347656" xlink:href="#DejaVuSans-111"/>
     <use x="465.529297" xlink:href="#DejaVuSans-110"/>
     <use x="528.908203" xlink:href="#DejaVuSans-39"/>
     <use x="556.398438" xlink:href="#DejaVuSans-115"/>
     <use x="608.498047" xlink:href="#DejaVuSans-32"/>
     <use x="640.285156" xlink:href="#DejaVuSans-97"/>
     <use x="701.564453" xlink:href="#DejaVuSans-118"/>
     <use x="760.744141" xlink:href="#DejaVuSans-101"/>
     <use x="822.267578" xlink:href="#DejaVuSans-114"/>
     <use x="863.380859" xlink:href="#DejaVuSans-97"/>
     <use x="924.660156" xlink:href="#DejaVuSans-103"/>
     <use x="988.136719" xlink:href="#DejaVuSans-101"/>
     <use x="1049.660156" xlink:href="#DejaVuSans-32"/>
     <use x="1081.447266" xlink:href="#DejaVuSans-97"/>
     <use x="1142.726562" xlink:href="#DejaVuSans-110"/>
     <use x="1206.105469" xlink:href="#DejaVuSans-100"/>
     <use x="1269.582031" xlink:href="#DejaVuSans-32"/>
     <use x="1301.369141" xlink:href="#DejaVuSans-98"/>
     <use x="1364.845703" xlink:href="#DejaVuSans-101"/>
     <use x="1426.369141" xlink:href="#DejaVuSans-115"/>
     <use x="1478.46875" xlink:href="#DejaVuSans-116"/>
     <use x="1517.677734" xlink:href="#DejaVuSans-32"/>
     <use x="1549.464844" xlink:href="#DejaVuSans-102"/>
     <use x="1584.669922" xlink:href="#DejaVuSans-105"/>
     <use x="1612.453125" xlink:href="#DejaVuSans-116"/>
     <use x="1651.662109" xlink:href="#DejaVuSans-110"/>
     <use x="1715.041016" xlink:href="#DejaVuSans-101"/>
     <use x="1776.564453" xlink:href="#DejaVuSans-115"/>
     <use x="1828.664062" xlink:href="#DejaVuSans-115"/>
    </g>
   </g>
   <g id="legend_1">
    <g id="patch_7">
     <path d="M 308.859375 247 
L 381.8 247 
Q 383.8 247 383.8 245 
L 383.8 187.2875 
Q 383.8 185.2875 381.8 185.2875 
L 308.859375 185.2875 
Q 306.859375 185.2875 306.859375 187.2875 
L 306.859375 245 
Q 306.859375 247 308.859375 247 
z
" style="fill:#ffffff;opacity:0.8;stroke:#cccccc;stroke-linejoin:miter;"/>
    </g>
    <g id="line2d_25">
     <path d="M 310.859375 193.385938 
L 330.859375 193.385938 
" style="fill:none;stroke:#0000ff;stroke-linecap:square;stroke-width:1.5;"/>
    </g>
    <g id="line2d_26"/>
    <g id="text_14">
     <!-- average -->
     <g transform="translate(338.859375 196.885938)scale(0.1 -0.1)">
      <use xlink:href="#DejaVuSans-97"/>
      <use x="61.279297" xlink:href="#DejaVuSans-118"/>
      <use x="120.458984" xlink:href="#DejaVuSans-101"/>
      <use x="181.982422" xlink:href="#DejaVuSans-114"/>
      <use x="223.095703" xlink:href="#DejaVuSans-97"/>
      <use x="284.375" xlink:href="#DejaVuSans-103"/>
      <use x="347.851562" xlink:href="#DejaVuSans-101"/>
     </g>
    </g>
    <g id="line2d_27">
     <path d="M 310.859375 208.064063 
L 330.859375 208.064063 
" style="fill:none;stroke:#008000;stroke-dasharray:9.6,2.4,1.5,2.4;stroke-dashoffset:0;stroke-width:1.5;"/>
    </g>
    <g id="line2d_28"/>
    <g id="text_15">
     <!-- -1 sd -->
     <defs>
      <path d="M 4.890625 31.390625 
L 31.203125 31.390625 
L 31.203125 23.390625 
L 4.890625 23.390625 
z
" id="DejaVuSans-45"/>
     </defs>
     <g transform="translate(338.859375 211.564063)scale(0.1 -0.1)">
      <use xlink:href="#DejaVuSans-45"/>
      <use x="36.083984" xlink:href="#DejaVuSans-49"/>
      <use x="99.707031" xlink:href="#DejaVuSans-32"/>
      <use x="131.494141" xlink:href="#DejaVuSans-115"/>
      <use x="183.59375" xlink:href="#DejaVuSans-100"/>
     </g>
    </g>
    <g id="line2d_29">
     <path d="M 310.859375 222.742188 
L 330.859375 222.742188 
" style="fill:none;stroke:#008000;stroke-dasharray:9.6,2.4,1.5,2.4;stroke-dashoffset:0;stroke-width:1.5;"/>
    </g>
    <g id="line2d_30"/>
    <g id="text_16">
     <!-- +1 sd -->
     <defs>
      <path d="M 46 62.703125 
L 46 35.5 
L 73.1875 35.5 
L 73.1875 27.203125 
L 46 27.203125 
L 46 0 
L 37.796875 0 
L 37.796875 27.203125 
L 10.59375 27.203125 
L 10.59375 35.5 
L 37.796875 35.5 
L 37.796875 62.703125 
z
" id="DejaVuSans-43"/>
     </defs>
     <g transform="translate(338.859375 226.242188)scale(0.1 -0.1)">
      <use xlink:href="#DejaVuSans-43"/>
      <use x="83.789062" xlink:href="#DejaVuSans-49"/>
      <use x="147.412109" xlink:href="#DejaVuSans-32"/>
      <use x="179.199219" xlink:href="#DejaVuSans-115"/>
      <use x="231.298828" xlink:href="#DejaVuSans-100"/>
     </g>
    </g>
    <g id="line2d_31">
     <path d="M 310.859375 237.420312 
L 330.859375 237.420312 
" style="fill:none;stroke:#ff0000;stroke-linecap:square;stroke-width:1.5;"/>
    </g>
    <g id="line2d_32"/>
    <g id="text_17">
     <!-- best -->
     <g transform="translate(338.859375 240.920312)scale(0.1 -0.1)">
      <use xlink:href="#DejaVuSans-98"/>
      <use x="63.476562" xlink:href="#DejaVuSans-101"/>
      <use x="125" xlink:href="#DejaVuSans-115"/>
      <use x="177.099609" xlink:href="#DejaVuSans-116"/>
     </g>
    </g>
   </g>
  </g>
 </g>
 <defs>
  <clipPath id="pa52b8da5c9">
   <rect height="217.44" width="334.8" x="54" y="34.56"/>
  </clipPath>
 </defs>
</svg>
