<?xml version="1.0" encoding="utf-8" standalone="no"?>
<!DOCTYPE svg PUBLIC "-//W3C//DTD SVG 1.1//EN"
  "http://www.w3.org/Graphics/SVG/1.1/DTD/svg11.dtd">
<!-- Created with matplotlib (https://matplotlib.org/) -->
<svg height="288pt" version="1.1" viewBox="0 0 432 288" width="432pt" xmlns="http://www.w3.org/2000/svg" xmlns:xlink="http://www.w3.org/1999/xlink">
 <defs>
  <style type="text/css">
*{stroke-linecap:butt;stroke-linejoin:round;}
  </style>
 </defs>
 <g id="figure_1">
  <g id="patch_1">
   <path d="M 0 288 
L 432 288 
L 432 0 
L 0 0 
z
" style="fill:#ffffff;"/>
  </g>
  <g id="axes_1">
   <g id="patch_2">
    <path d="M 54 252 
L 388.8 252 
L 388.8 34.56 
L 54 34.56 
z
" style="fill:#ffffff;"/>
   </g>
   <g id="matplotlib.axis_1">
    <g id="xtick_1">
     <g id="line2d_1">
      <path clip-path="url(#p81c518ae8b)" d="M 69.218182 252 
L 69.218182 34.56 
" style="fill:none;stroke:#b0b0b0;stroke-linecap:square;stroke-width:0.8;"/>
     </g>
     <g id="line2d_2">
      <defs>
       <path d="M 0 0 
L 0 3.5 
" id="m65e6935777" style="stroke:#000000;stroke-width:0.8;"/>
      </defs>
      <g>
       <use style="stroke:#000000;stroke-width:0.8;" x="69.218182" xlink:href="#m65e6935777" y="252"/>
      </g>
     </g>
     <g id="text_1">
      <!-- 0 -->
      <defs>
       <path d="M 31.78125 66.40625 
Q 24.171875 66.40625 20.328125 58.90625 
Q 16.5 51.421875 16.5 36.375 
Q 16.5 21.390625 20.328125 13.890625 
Q 24.171875 6.390625 31.78125 6.390625 
Q 39.453125 6.390625 43.28125 13.890625 
Q 47.125 21.390625 47.125 36.375 
Q 47.125 51.421875 43.28125 58.90625 
Q 39.453125 66.40625 31.78125 66.40625 
z
M 31.78125 74.21875 
Q 44.046875 74.21875 50.515625 64.515625 
Q 56.984375 54.828125 56.984375 36.375 
Q 56.984375 17.96875 50.515625 8.265625 
Q 44.046875 -1.421875 31.78125 -1.421875 
Q 19.53125 -1.421875 13.0625 8.265625 
Q 6.59375 17.96875 6.59375 36.375 
Q 6.59375 54.828125 13.0625 64.515625 
Q 19.53125 74.21875 31.78125 74.21875 
z
" id="DejaVuSans-48"/>
      </defs>
      <g transform="translate(66.036932 266.598437)scale(0.1 -0.1)">
       <use xlink:href="#DejaVuSans-48"/>
      </g>
     </g>
    </g>
    <g id="xtick_2">
     <g id="line2d_3">
      <path clip-path="url(#p81c518ae8b)" d="M 130.151843 252 
L 130.151843 34.56 
" style="fill:none;stroke:#b0b0b0;stroke-linecap:square;stroke-width:0.8;"/>
     </g>
     <g id="line2d_4">
      <g>
       <use style="stroke:#000000;stroke-width:0.8;" x="130.151843" xlink:href="#m65e6935777" y="252"/>
      </g>
     </g>
     <g id="text_2">
      <!-- 200 -->
      <defs>
       <path d="M 19.1875 8.296875 
L 53.609375 8.296875 
L 53.609375 0 
L 7.328125 0 
L 7.328125 8.296875 
Q 12.9375 14.109375 22.625 23.890625 
Q 32.328125 33.6875 34.8125 36.53125 
Q 39.546875 41.84375 41.421875 45.53125 
Q 43.3125 49.21875 43.3125 52.78125 
Q 43.3125 58.59375 39.234375 62.25 
Q 35.15625 65.921875 28.609375 65.921875 
Q 23.96875 65.921875 18.8125 64.3125 
Q 13.671875 62.703125 7.8125 59.421875 
L 7.8125 69.390625 
Q 13.765625 71.78125 18.9375 73 
Q 24.125 74.21875 28.421875 74.21875 
Q 39.75 74.21875 46.484375 68.546875 
Q 53.21875 62.890625 53.21875 53.421875 
Q 53.21875 48.921875 51.53125 44.890625 
Q 49.859375 40.875 45.40625 35.40625 
Q 44.1875 33.984375 37.640625 27.21875 
Q 31.109375 20.453125 19.1875 8.296875 
z
" id="DejaVuSans-50"/>
      </defs>
      <g transform="translate(120.608093 266.598437)scale(0.1 -0.1)">
       <use xlink:href="#DejaVuSans-50"/>
       <use x="63.623047" xlink:href="#DejaVuSans-48"/>
       <use x="127.246094" xlink:href="#DejaVuSans-48"/>
      </g>
     </g>
    </g>
    <g id="xtick_3">
     <g id="line2d_5">
      <path clip-path="url(#p81c518ae8b)" d="M 191.085504 252 
L 191.085504 34.56 
" style="fill:none;stroke:#b0b0b0;stroke-linecap:square;stroke-width:0.8;"/>
     </g>
     <g id="line2d_6">
      <g>
       <use style="stroke:#000000;stroke-width:0.8;" x="191.085504" xlink:href="#m65e6935777" y="252"/>
      </g>
     </g>
     <g id="text_3">
      <!-- 400 -->
      <defs>
       <path d="M 37.796875 64.3125 
L 12.890625 25.390625 
L 37.796875 25.390625 
z
M 35.203125 72.90625 
L 47.609375 72.90625 
L 47.609375 25.390625 
L 58.015625 25.390625 
L 58.015625 17.1875 
L 47.609375 17.1875 
L 47.609375 0 
L 37.796875 0 
L 37.796875 17.1875 
L 4.890625 17.1875 
L 4.890625 26.703125 
z
" id="DejaVuSans-52"/>
      </defs>
      <g transform="translate(181.541754 266.598437)scale(0.1 -0.1)">
       <use xlink:href="#DejaVuSans-52"/>
       <use x="63.623047" xlink:href="#DejaVuSans-48"/>
       <use x="127.246094" xlink:href="#DejaVuSans-48"/>
      </g>
     </g>
    </g>
    <g id="xtick_4">
     <g id="line2d_7">
      <path clip-path="url(#p81c518ae8b)" d="M 252.019165 252 
L 252.019165 34.56 
" style="fill:none;stroke:#b0b0b0;stroke-linecap:square;stroke-width:0.8;"/>
     </g>
     <g id="line2d_8">
      <g>
       <use style="stroke:#000000;stroke-width:0.8;" x="252.019165" xlink:href="#m65e6935777" y="252"/>
      </g>
     </g>
     <g id="text_4">
      <!-- 600 -->
      <defs>
       <path d="M 33.015625 40.375 
Q 26.375 40.375 22.484375 35.828125 
Q 18.609375 31.296875 18.609375 23.390625 
Q 18.609375 15.53125 22.484375 10.953125 
Q 26.375 6.390625 33.015625 6.390625 
Q 39.65625 6.390625 43.53125 10.953125 
Q 47.40625 15.53125 47.40625 23.390625 
Q 47.40625 31.296875 43.53125 35.828125 
Q 39.65625 40.375 33.015625 40.375 
z
M 52.59375 71.296875 
L 52.59375 62.3125 
Q 48.875 64.0625 45.09375 64.984375 
Q 41.3125 65.921875 37.59375 65.921875 
Q 27.828125 65.921875 22.671875 59.328125 
Q 17.53125 52.734375 16.796875 39.40625 
Q 19.671875 43.65625 24.015625 45.921875 
Q 28.375 48.1875 33.59375 48.1875 
Q 44.578125 48.1875 50.953125 41.515625 
Q 57.328125 34.859375 57.328125 23.390625 
Q 57.328125 12.15625 50.6875 5.359375 
Q 44.046875 -1.421875 33.015625 -1.421875 
Q 20.359375 -1.421875 13.671875 8.265625 
Q 6.984375 17.96875 6.984375 36.375 
Q 6.984375 53.65625 15.1875 63.9375 
Q 23.390625 74.21875 37.203125 74.21875 
Q 40.921875 74.21875 44.703125 73.484375 
Q 48.484375 72.75 52.59375 71.296875 
z
" id="DejaVuSans-54"/>
      </defs>
      <g transform="translate(242.475415 266.598437)scale(0.1 -0.1)">
       <use xlink:href="#DejaVuSans-54"/>
       <use x="63.623047" xlink:href="#DejaVuSans-48"/>
       <use x="127.246094" xlink:href="#DejaVuSans-48"/>
      </g>
     </g>
    </g>
    <g id="xtick_5">
     <g id="line2d_9">
      <path clip-path="url(#p81c518ae8b)" d="M 312.952826 252 
L 312.952826 34.56 
" style="fill:none;stroke:#b0b0b0;stroke-linecap:square;stroke-width:0.8;"/>
     </g>
     <g id="line2d_10">
      <g>
       <use style="stroke:#000000;stroke-width:0.8;" x="312.952826" xlink:href="#m65e6935777" y="252"/>
      </g>
     </g>
     <g id="text_5">
      <!-- 800 -->
      <defs>
       <path d="M 31.78125 34.625 
Q 24.75 34.625 20.71875 30.859375 
Q 16.703125 27.09375 16.703125 20.515625 
Q 16.703125 13.921875 20.71875 10.15625 
Q 24.75 6.390625 31.78125 6.390625 
Q 38.8125 6.390625 42.859375 10.171875 
Q 46.921875 13.96875 46.921875 20.515625 
Q 46.921875 27.09375 42.890625 30.859375 
Q 38.875 34.625 31.78125 34.625 
z
M 21.921875 38.8125 
Q 15.578125 40.375 12.03125 44.71875 
Q 8.5 49.078125 8.5 55.328125 
Q 8.5 64.0625 14.71875 69.140625 
Q 20.953125 74.21875 31.78125 74.21875 
Q 42.671875 74.21875 48.875 69.140625 
Q 55.078125 64.0625 55.078125 55.328125 
Q 55.078125 49.078125 51.53125 44.71875 
Q 48 40.375 41.703125 38.8125 
Q 48.828125 37.15625 52.796875 32.3125 
Q 56.78125 27.484375 56.78125 20.515625 
Q 56.78125 9.90625 50.3125 4.234375 
Q 43.84375 -1.421875 31.78125 -1.421875 
Q 19.734375 -1.421875 13.25 4.234375 
Q 6.78125 9.90625 6.78125 20.515625 
Q 6.78125 27.484375 10.78125 32.3125 
Q 14.796875 37.15625 21.921875 38.8125 
z
M 18.3125 54.390625 
Q 18.3125 48.734375 21.84375 45.5625 
Q 25.390625 42.390625 31.78125 42.390625 
Q 38.140625 42.390625 41.71875 45.5625 
Q 45.3125 48.734375 45.3125 54.390625 
Q 45.3125 60.0625 41.71875 63.234375 
Q 38.140625 66.40625 31.78125 66.40625 
Q 25.390625 66.40625 21.84375 63.234375 
Q 18.3125 60.0625 18.3125 54.390625 
z
" id="DejaVuSans-56"/>
      </defs>
      <g transform="translate(303.409076 266.598437)scale(0.1 -0.1)">
       <use xlink:href="#DejaVuSans-56"/>
       <use x="63.623047" xlink:href="#DejaVuSans-48"/>
       <use x="127.246094" xlink:href="#DejaVuSans-48"/>
      </g>
     </g>
    </g>
    <g id="xtick_6">
     <g id="line2d_11">
      <path clip-path="url(#p81c518ae8b)" d="M 373.886486 252 
L 373.886486 34.56 
" style="fill:none;stroke:#b0b0b0;stroke-linecap:square;stroke-width:0.8;"/>
     </g>
     <g id="line2d_12">
      <g>
       <use style="stroke:#000000;stroke-width:0.8;" x="373.886486" xlink:href="#m65e6935777" y="252"/>
      </g>
     </g>
     <g id="text_6">
      <!-- 1000 -->
      <defs>
       <path d="M 12.40625 8.296875 
L 28.515625 8.296875 
L 28.515625 63.921875 
L 10.984375 60.40625 
L 10.984375 69.390625 
L 28.421875 72.90625 
L 38.28125 72.90625 
L 38.28125 8.296875 
L 54.390625 8.296875 
L 54.390625 0 
L 12.40625 0 
z
" id="DejaVuSans-49"/>
      </defs>
      <g transform="translate(361.161486 266.598437)scale(0.1 -0.1)">
       <use xlink:href="#DejaVuSans-49"/>
       <use x="63.623047" xlink:href="#DejaVuSans-48"/>
       <use x="127.246094" xlink:href="#DejaVuSans-48"/>
       <use x="190.869141" xlink:href="#DejaVuSans-48"/>
      </g>
     </g>
    </g>
    <g id="text_7">
     <!-- Generations -->
     <defs>
      <path d="M 59.515625 10.40625 
L 59.515625 29.984375 
L 43.40625 29.984375 
L 43.40625 38.09375 
L 69.28125 38.09375 
L 69.28125 6.78125 
Q 63.578125 2.734375 56.6875 0.65625 
Q 49.8125 -1.421875 42 -1.421875 
Q 24.90625 -1.421875 15.25 8.5625 
Q 5.609375 18.5625 5.609375 36.375 
Q 5.609375 54.25 15.25 64.234375 
Q 24.90625 74.21875 42 74.21875 
Q 49.125 74.21875 55.546875 72.453125 
Q 61.96875 70.703125 67.390625 67.28125 
L 67.390625 56.78125 
Q 61.921875 61.421875 55.765625 63.765625 
Q 49.609375 66.109375 42.828125 66.109375 
Q 29.4375 66.109375 22.71875 58.640625 
Q 16.015625 51.171875 16.015625 36.375 
Q 16.015625 21.625 22.71875 14.15625 
Q 29.4375 6.6875 42.828125 6.6875 
Q 48.046875 6.6875 52.140625 7.59375 
Q 56.25 8.5 59.515625 10.40625 
z
" id="DejaVuSans-71"/>
      <path d="M 56.203125 29.59375 
L 56.203125 25.203125 
L 14.890625 25.203125 
Q 15.484375 15.921875 20.484375 11.0625 
Q 25.484375 6.203125 34.421875 6.203125 
Q 39.59375 6.203125 44.453125 7.46875 
Q 49.3125 8.734375 54.109375 11.28125 
L 54.109375 2.78125 
Q 49.265625 0.734375 44.1875 -0.34375 
Q 39.109375 -1.421875 33.890625 -1.421875 
Q 20.796875 -1.421875 13.15625 6.1875 
Q 5.515625 13.8125 5.515625 26.8125 
Q 5.515625 40.234375 12.765625 48.109375 
Q 20.015625 56 32.328125 56 
Q 43.359375 56 49.78125 48.890625 
Q 56.203125 41.796875 56.203125 29.59375 
z
M 47.21875 32.234375 
Q 47.125 39.59375 43.09375 43.984375 
Q 39.0625 48.390625 32.421875 48.390625 
Q 24.90625 48.390625 20.390625 44.140625 
Q 15.875 39.890625 15.1875 32.171875 
z
" id="DejaVuSans-101"/>
      <path d="M 54.890625 33.015625 
L 54.890625 0 
L 45.90625 0 
L 45.90625 32.71875 
Q 45.90625 40.484375 42.875 44.328125 
Q 39.84375 48.1875 33.796875 48.1875 
Q 26.515625 48.1875 22.3125 43.546875 
Q 18.109375 38.921875 18.109375 30.90625 
L 18.109375 0 
L 9.078125 0 
L 9.078125 54.6875 
L 18.109375 54.6875 
L 18.109375 46.1875 
Q 21.34375 51.125 25.703125 53.5625 
Q 30.078125 56 35.796875 56 
Q 45.21875 56 50.046875 50.171875 
Q 54.890625 44.34375 54.890625 33.015625 
z
" id="DejaVuSans-110"/>
      <path d="M 41.109375 46.296875 
Q 39.59375 47.171875 37.8125 47.578125 
Q 36.03125 48 33.890625 48 
Q 26.265625 48 22.1875 43.046875 
Q 18.109375 38.09375 18.109375 28.8125 
L 18.109375 0 
L 9.078125 0 
L 9.078125 54.6875 
L 18.109375 54.6875 
L 18.109375 46.1875 
Q 20.953125 51.171875 25.484375 53.578125 
Q 30.03125 56 36.53125 56 
Q 37.453125 56 38.578125 55.875 
Q 39.703125 55.765625 41.0625 55.515625 
z
" id="DejaVuSans-114"/>
      <path d="M 34.28125 27.484375 
Q 23.390625 27.484375 19.1875 25 
Q 14.984375 22.515625 14.984375 16.5 
Q 14.984375 11.71875 18.140625 8.90625 
Q 21.296875 6.109375 26.703125 6.109375 
Q 34.1875 6.109375 38.703125 11.40625 
Q 43.21875 16.703125 43.21875 25.484375 
L 43.21875 27.484375 
z
M 52.203125 31.203125 
L 52.203125 0 
L 43.21875 0 
L 43.21875 8.296875 
Q 40.140625 3.328125 35.546875 0.953125 
Q 30.953125 -1.421875 24.3125 -1.421875 
Q 15.921875 -1.421875 10.953125 3.296875 
Q 6 8.015625 6 15.921875 
Q 6 25.140625 12.171875 29.828125 
Q 18.359375 34.515625 30.609375 34.515625 
L 43.21875 34.515625 
L 43.21875 35.40625 
Q 43.21875 41.609375 39.140625 45 
Q 35.0625 48.390625 27.6875 48.390625 
Q 23 48.390625 18.546875 47.265625 
Q 14.109375 46.140625 10.015625 43.890625 
L 10.015625 52.203125 
Q 14.9375 54.109375 19.578125 55.046875 
Q 24.21875 56 28.609375 56 
Q 40.484375 56 46.34375 49.84375 
Q 52.203125 43.703125 52.203125 31.203125 
z
" id="DejaVuSans-97"/>
      <path d="M 18.3125 70.21875 
L 18.3125 54.6875 
L 36.8125 54.6875 
L 36.8125 47.703125 
L 18.3125 47.703125 
L 18.3125 18.015625 
Q 18.3125 11.328125 20.140625 9.421875 
Q 21.96875 7.515625 27.59375 7.515625 
L 36.8125 7.515625 
L 36.8125 0 
L 27.59375 0 
Q 17.1875 0 13.234375 3.875 
Q 9.28125 7.765625 9.28125 18.015625 
L 9.28125 47.703125 
L 2.6875 47.703125 
L 2.6875 54.6875 
L 9.28125 54.6875 
L 9.28125 70.21875 
z
" id="DejaVuSans-116"/>
      <path d="M 9.421875 54.6875 
L 18.40625 54.6875 
L 18.40625 0 
L 9.421875 0 
z
M 9.421875 75.984375 
L 18.40625 75.984375 
L 18.40625 64.59375 
L 9.421875 64.59375 
z
" id="DejaVuSans-105"/>
      <path d="M 30.609375 48.390625 
Q 23.390625 48.390625 19.1875 42.75 
Q 14.984375 37.109375 14.984375 27.296875 
Q 14.984375 17.484375 19.15625 11.84375 
Q 23.34375 6.203125 30.609375 6.203125 
Q 37.796875 6.203125 41.984375 11.859375 
Q 46.1875 17.53125 46.1875 27.296875 
Q 46.1875 37.015625 41.984375 42.703125 
Q 37.796875 48.390625 30.609375 48.390625 
z
M 30.609375 56 
Q 42.328125 56 49.015625 48.375 
Q 55.71875 40.765625 55.71875 27.296875 
Q 55.71875 13.875 49.015625 6.21875 
Q 42.328125 -1.421875 30.609375 -1.421875 
Q 18.84375 -1.421875 12.171875 6.21875 
Q 5.515625 13.875 5.515625 27.296875 
Q 5.515625 40.765625 12.171875 48.375 
Q 18.84375 56 30.609375 56 
z
" id="DejaVuSans-111"/>
      <path d="M 44.28125 53.078125 
L 44.28125 44.578125 
Q 40.484375 46.53125 36.375 47.5 
Q 32.28125 48.484375 27.875 48.484375 
Q 21.1875 48.484375 17.84375 46.4375 
Q 14.5 44.390625 14.5 40.28125 
Q 14.5 37.15625 16.890625 35.375 
Q 19.28125 33.59375 26.515625 31.984375 
L 29.59375 31.296875 
Q 39.15625 29.25 43.1875 25.515625 
Q 47.21875 21.78125 47.21875 15.09375 
Q 47.21875 7.46875 41.1875 3.015625 
Q 35.15625 -1.421875 24.609375 -1.421875 
Q 20.21875 -1.421875 15.453125 -0.5625 
Q 10.6875 0.296875 5.421875 2 
L 5.421875 11.28125 
Q 10.40625 8.6875 15.234375 7.390625 
Q 20.0625 6.109375 24.8125 6.109375 
Q 31.15625 6.109375 34.5625 8.28125 
Q 37.984375 10.453125 37.984375 14.40625 
Q 37.984375 18.0625 35.515625 20.015625 
Q 33.0625 21.96875 24.703125 23.78125 
L 21.578125 24.515625 
Q 13.234375 26.265625 9.515625 29.90625 
Q 5.8125 33.546875 5.8125 39.890625 
Q 5.8125 47.609375 11.28125 51.796875 
Q 16.75 56 26.8125 56 
Q 31.78125 56 36.171875 55.265625 
Q 40.578125 54.546875 44.28125 53.078125 
z
" id="DejaVuSans-115"/>
     </defs>
     <g transform="translate(190.902344 280.276563)scale(0.1 -0.1)">
      <use xlink:href="#DejaVuSans-71"/>
      <use x="77.490234" xlink:href="#DejaVuSans-101"/>
      <use x="139.013672" xlink:href="#DejaVuSans-110"/>
      <use x="202.392578" xlink:href="#DejaVuSans-101"/>
      <use x="263.916016" xlink:href="#DejaVuSans-114"/>
      <use x="305.029297" xlink:href="#DejaVuSans-97"/>
      <use x="366.308594" xlink:href="#DejaVuSans-116"/>
      <use x="405.517578" xlink:href="#DejaVuSans-105"/>
      <use x="433.300781" xlink:href="#DejaVuSans-111"/>
      <use x="494.482422" xlink:href="#DejaVuSans-110"/>
      <use x="557.861328" xlink:href="#DejaVuSans-115"/>
     </g>
    </g>
   </g>
   <g id="matplotlib.axis_2">
    <g id="ytick_1">
     <g id="line2d_13">
      <path clip-path="url(#p81c518ae8b)" d="M 54 244.726043 
L 388.8 244.726043 
" style="fill:none;stroke:#b0b0b0;stroke-linecap:square;stroke-width:0.8;"/>
     </g>
     <g id="line2d_14">
      <defs>
       <path d="M 0 0 
L -3.5 0 
" id="m0d393ee792" style="stroke:#000000;stroke-width:0.8;"/>
      </defs>
      <g>
       <use style="stroke:#000000;stroke-width:0.8;" x="54" xlink:href="#m0d393ee792" y="244.726043"/>
      </g>
     </g>
     <g id="text_8">
      <!-- 0 -->
      <g transform="translate(40.6375 248.525262)scale(0.1 -0.1)">
       <use xlink:href="#DejaVuSans-48"/>
      </g>
     </g>
    </g>
    <g id="ytick_2">
     <g id="line2d_15">
      <path clip-path="url(#p81c518ae8b)" d="M 54 204.669562 
L 388.8 204.669562 
" style="fill:none;stroke:#b0b0b0;stroke-linecap:square;stroke-width:0.8;"/>
     </g>
     <g id="line2d_16">
      <g>
       <use style="stroke:#000000;stroke-width:0.8;" x="54" xlink:href="#m0d393ee792" y="204.669562"/>
      </g>
     </g>
     <g id="text_9">
      <!-- 200 -->
      <g transform="translate(27.9125 208.468781)scale(0.1 -0.1)">
       <use xlink:href="#DejaVuSans-50"/>
       <use x="63.623047" xlink:href="#DejaVuSans-48"/>
       <use x="127.246094" xlink:href="#DejaVuSans-48"/>
      </g>
     </g>
    </g>
    <g id="ytick_3">
     <g id="line2d_17">
      <path clip-path="url(#p81c518ae8b)" d="M 54 164.613081 
L 388.8 164.613081 
" style="fill:none;stroke:#b0b0b0;stroke-linecap:square;stroke-width:0.8;"/>
     </g>
     <g id="line2d_18">
      <g>
       <use style="stroke:#000000;stroke-width:0.8;" x="54" xlink:href="#m0d393ee792" y="164.613081"/>
      </g>
     </g>
     <g id="text_10">
      <!-- 400 -->
      <g transform="translate(27.9125 168.412299)scale(0.1 -0.1)">
       <use xlink:href="#DejaVuSans-52"/>
       <use x="63.623047" xlink:href="#DejaVuSans-48"/>
       <use x="127.246094" xlink:href="#DejaVuSans-48"/>
      </g>
     </g>
    </g>
    <g id="ytick_4">
     <g id="line2d_19">
      <path clip-path="url(#p81c518ae8b)" d="M 54 124.556599 
L 388.8 124.556599 
" style="fill:none;stroke:#b0b0b0;stroke-linecap:square;stroke-width:0.8;"/>
     </g>
     <g id="line2d_20">
      <g>
       <use style="stroke:#000000;stroke-width:0.8;" x="54" xlink:href="#m0d393ee792" y="124.556599"/>
      </g>
     </g>
     <g id="text_11">
      <!-- 600 -->
      <g transform="translate(27.9125 128.355818)scale(0.1 -0.1)">
       <use xlink:href="#DejaVuSans-54"/>
       <use x="63.623047" xlink:href="#DejaVuSans-48"/>
       <use x="127.246094" xlink:href="#DejaVuSans-48"/>
      </g>
     </g>
    </g>
    <g id="ytick_5">
     <g id="line2d_21">
      <path clip-path="url(#p81c518ae8b)" d="M 54 84.500118 
L 388.8 84.500118 
" style="fill:none;stroke:#b0b0b0;stroke-linecap:square;stroke-width:0.8;"/>
     </g>
     <g id="line2d_22">
      <g>
       <use style="stroke:#000000;stroke-width:0.8;" x="54" xlink:href="#m0d393ee792" y="84.500118"/>
      </g>
     </g>
     <g id="text_12">
      <!-- 800 -->
      <g transform="translate(27.9125 88.299337)scale(0.1 -0.1)">
       <use xlink:href="#DejaVuSans-56"/>
       <use x="63.623047" xlink:href="#DejaVuSans-48"/>
       <use x="127.246094" xlink:href="#DejaVuSans-48"/>
      </g>
     </g>
    </g>
    <g id="ytick_6">
     <g id="line2d_23">
      <path clip-path="url(#p81c518ae8b)" d="M 54 44.443636 
L 388.8 44.443636 
" style="fill:none;stroke:#b0b0b0;stroke-linecap:square;stroke-width:0.8;"/>
     </g>
     <g id="line2d_24">
      <g>
       <use style="stroke:#000000;stroke-width:0.8;" x="54" xlink:href="#m0d393ee792" y="44.443636"/>
      </g>
     </g>
     <g id="text_13">
      <!-- 1000 -->
      <g transform="translate(21.55 48.242855)scale(0.1 -0.1)">
       <use xlink:href="#DejaVuSans-49"/>
       <use x="63.623047" xlink:href="#DejaVuSans-48"/>
       <use x="127.246094" xlink:href="#DejaVuSans-48"/>
       <use x="190.869141" xlink:href="#DejaVuSans-48"/>
      </g>
     </g>
    </g>
    <g id="text_14">
     <!-- Fitness -->
     <defs>
      <path d="M 9.8125 72.90625 
L 51.703125 72.90625 
L 51.703125 64.59375 
L 19.671875 64.59375 
L 19.671875 43.109375 
L 48.578125 43.109375 
L 48.578125 34.8125 
L 19.671875 34.8125 
L 19.671875 0 
L 9.8125 0 
z
" id="DejaVuSans-70"/>
     </defs>
     <g transform="translate(15.470312 160.954219)rotate(-90)scale(0.1 -0.1)">
      <use xlink:href="#DejaVuSans-70"/>
      <use x="57.410156" xlink:href="#DejaVuSans-105"/>
      <use x="85.193359" xlink:href="#DejaVuSans-116"/>
      <use x="124.402344" xlink:href="#DejaVuSans-110"/>
      <use x="187.78125" xlink:href="#DejaVuSans-101"/>
      <use x="249.304688" xlink:href="#DejaVuSans-115"/>
      <use x="301.404297" xlink:href="#DejaVuSans-115"/>
     </g>
    </g>
   </g>
   <g id="line2d_25">
    <path clip-path="url(#p81c518ae8b)" d="M 69.218182 242.116364 
L 69.52285 241.032836 
L 69.827518 241.114952 
L 70.436855 240.414914 
L 71.046192 239.919266 
L 71.35086 239.138164 
L 71.655528 239.406543 
L 72.569533 237.399386 
L 72.874201 238.196428 
L 73.17887 237.930461 
L 73.483538 238.377877 
L 73.788206 238.000874 
L 74.092875 237.840606 
L 74.397543 237.5442 
L 74.702211 236.9759 
L 75.00688 237.41877 
L 75.311548 237.49544 
L 75.920885 237.221584 
L 76.225553 236.344838 
L 76.530221 236.420101 
L 76.834889 235.858094 
L 77.139558 236.262186 
L 77.444226 236.372264 
L 77.748894 235.647858 
L 78.053563 235.764387 
L 78.358231 234.772961 
L 78.662899 235.285281 
L 78.967568 234.374814 
L 79.576904 235.098876 
L 79.881572 233.535755 
L 80.186241 233.7319 
L 80.795577 233.241926 
L 81.100246 233.542655 
L 81.709582 232.942438 
L 82.014251 233.013374 
L 82.318919 232.707154 
L 82.623587 231.250732 
L 82.928256 231.871379 
L 83.232924 230.588802 
L 83.537592 232.003342 
L 83.84226 230.939296 
L 84.146929 232.129234 
L 84.451597 230.991292 
L 84.756265 231.408217 
L 85.060934 230.059209 
L 85.365602 229.550799 
L 85.67027 229.777346 
L 85.974939 229.477619 
L 86.279607 228.087048 
L 86.584275 229.560971 
L 86.888943 229.428745 
L 87.193612 229.81181 
L 87.49828 227.801208 
L 88.107617 228.870995 
L 88.412285 227.660396 
L 88.716953 228.80855 
L 89.021622 228.562075 
L 89.32629 227.967118 
L 89.630958 228.159547 
L 89.935627 228.677925 
L 90.240295 227.202324 
L 90.544963 224.82225 
L 90.849631 226.796841 
L 91.1543 227.688294 
L 91.458968 226.218393 
L 91.763636 226.436889 
L 92.068305 227.103155 
L 92.372973 224.948156 
L 92.677641 224.018413 
L 92.98231 226.006719 
L 93.286978 225.128599 
L 93.591646 225.59812 
L 93.896314 224.862391 
L 94.200983 225.643367 
L 94.505651 225.56962 
L 94.810319 224.13819 
L 95.114988 225.214722 
L 95.419656 225.703066 
L 95.724324 224.775582 
L 96.028993 224.37427 
L 96.333661 225.08855 
L 96.638329 224.577633 
L 96.942998 224.31491 
L 97.247666 223.842227 
L 97.552334 222.506594 
L 97.857002 223.752781 
L 98.161671 222.15957 
L 98.466339 223.581377 
L 99.075676 221.070466 
L 99.380344 222.096095 
L 99.685012 220.592967 
L 99.989681 220.333233 
L 100.294349 221.62162 
L 100.599017 222.115521 
L 100.903686 222.043116 
L 101.208354 219.664964 
L 101.513022 220.374059 
L 101.81769 219.060442 
L 102.122359 220.466837 
L 102.731695 219.721854 
L 103.036364 220.370132 
L 103.341032 219.950156 
L 103.6457 218.895446 
L 103.950369 219.019207 
L 104.255037 218.264489 
L 104.559705 218.87989 
L 105.169042 219.372987 
L 105.47371 218.060994 
L 105.778378 216.026753 
L 106.083047 220.684597 
L 106.387715 219.292103 
L 106.692383 219.156008 
L 106.997052 218.841927 
L 107.30172 220.073635 
L 107.606388 219.337303 
L 107.911057 220.259469 
L 108.215725 222.393564 
L 108.520393 222.069335 
L 108.825061 219.540035 
L 109.12973 221.455135 
L 109.434398 218.537601 
L 110.348403 220.561874 
L 110.653071 219.210858 
L 110.95774 219.070637 
L 111.262408 219.185079 
L 111.567076 220.150797 
L 111.871744 218.854269 
L 112.176413 219.31794 
L 112.481081 218.375162 
L 112.785749 216.334009 
L 113.090418 218.196328 
L 113.395086 218.031838 
L 113.699754 215.409706 
L 114.004423 216.849112 
L 114.309091 216.77683 
L 114.613759 216.062325 
L 114.918428 217.367467 
L 115.223096 216.126101 
L 115.527764 216.825316 
L 115.832432 213.285711 
L 116.137101 215.301862 
L 116.441769 215.042604 
L 116.746437 216.548312 
L 117.051106 216.001731 
L 117.355774 216.049965 
L 117.660442 215.542586 
L 117.965111 212.318347 
L 118.269779 213.678265 
L 118.574447 216.634433 
L 118.879115 214.58955 
L 119.183784 214.981245 
L 119.488452 216.081732 
L 119.79312 213.396719 
L 120.097789 212.833549 
L 120.402457 210.770164 
L 120.707125 213.438362 
L 121.011794 210.134694 
L 121.316462 215.226756 
L 121.62113 212.618025 
L 121.925799 213.144257 
L 122.230467 213.102607 
L 122.535135 210.923925 
L 122.839803 212.538911 
L 123.144472 212.406471 
L 123.44914 214.549513 
L 123.753808 213.325768 
L 124.058477 214.875953 
L 124.363145 213.702299 
L 124.667813 215.244473 
L 124.972482 210.946413 
L 125.27715 210.763592 
L 125.581818 214.25139 
L 126.191155 213.835885 
L 126.495823 212.506613 
L 126.800491 210.60925 
L 127.10516 212.288305 
L 127.409828 211.63939 
L 127.714496 211.801619 
L 128.019165 213.511155 
L 128.323833 212.244243 
L 128.93317 212.308333 
L 129.237838 210.475807 
L 129.542506 210.996483 
L 129.847174 211.026 
L 130.151843 208.030301 
L 130.456511 208.145051 
L 130.761179 209.299167 
L 131.065848 209.958207 
L 131.370516 207.772928 
L 131.675184 209.585404 
L 131.979853 209.136054 
L 132.284521 207.802693 
L 132.589189 208.731058 
L 132.893857 207.876044 
L 133.198526 206.62039 
L 133.503194 207.81321 
L 133.807862 207.139044 
L 134.112531 209.189936 
L 134.417199 207.013461 
L 134.721867 207.213743 
L 135.026536 206.349158 
L 135.331204 209.509396 
L 135.635872 208.698773 
L 135.940541 212.950469 
L 136.245209 210.660702 
L 136.549877 215.04657 
L 136.854545 213.291523 
L 137.159214 209.650585 
L 137.463882 208.740007 
L 137.76855 210.275486 
L 138.073219 212.8276 
L 138.377887 212.737248 
L 138.682555 208.816586 
L 138.987224 208.195326 
L 139.291892 205.292663 
L 139.901229 204.560497 
L 140.510565 206.711276 
L 140.815233 205.034076 
L 141.119902 207.543615 
L 141.42457 203.219032 
L 141.729238 205.310466 
L 142.033907 204.988011 
L 142.338575 205.26446 
L 142.643243 203.106133 
L 142.947912 204.381778 
L 143.25258 206.719978 
L 144.166585 204.631885 
L 144.471253 207.002263 
L 144.775921 206.872668 
L 145.08059 205.24881 
L 145.385258 208.034306 
L 145.689926 207.685579 
L 146.299263 209.670732 
L 146.603931 208.496959 
L 146.9086 209.992754 
L 147.213268 205.859475 
L 147.517936 210.141277 
L 147.822604 207.281011 
L 148.127273 209.620543 
L 148.431941 208.506345 
L 148.736609 205.662963 
L 149.041278 209.057567 
L 149.345946 208.661049 
L 149.650614 210.23125 
L 150.259951 202.739389 
L 150.564619 205.260294 
L 150.869287 204.44124 
L 151.173956 203.289839 
L 151.478624 203.960562 
L 151.783292 203.167444 
L 152.087961 200.762011 
L 152.392629 203.102647 
L 152.697297 203.213509 
L 153.001966 208.455292 
L 153.306634 204.909901 
L 153.611302 206.591503 
L 154.220639 207.105689 
L 154.525307 203.61176 
L 154.829975 207.628019 
L 155.134644 206.246543 
L 155.439312 206.720531 
L 155.74398 206.558764 
L 156.048649 204.577124 
L 156.353317 206.857409 
L 156.657985 202.89451 
L 156.962654 204.025257 
L 157.267322 204.575089 
L 157.57199 209.317625 
L 157.876658 209.968462 
L 158.181327 208.410074 
L 158.485995 207.571767 
L 158.790663 209.645809 
L 159.095332 213.00054 
L 159.4 212.42613 
L 159.704668 209.390504 
L 160.009337 210.346798 
L 160.314005 215.950174 
L 160.923342 215.482886 
L 161.22801 211.561973 
L 161.532678 214.105725 
L 161.837346 213.661288 
L 162.142015 211.086157 
L 162.446683 215.054848 
L 162.751351 212.572134 
L 163.05602 212.659876 
L 163.360688 213.90735 
L 163.665356 213.215593 
L 164.274693 210.596014 
L 164.579361 210.107706 
L 164.884029 211.585981 
L 165.188698 210.819186 
L 165.493366 209.728123 
L 165.798034 211.003493 
L 166.102703 211.165514 
L 166.407371 209.45345 
L 167.016708 207.267511 
L 167.321376 207.190097 
L 167.626044 205.827385 
L 167.930713 206.736628 
L 168.235381 205.767336 
L 168.540049 205.596102 
L 168.844717 206.586551 
L 169.149386 204.642601 
L 169.454054 205.801928 
L 169.758722 207.561018 
L 170.063391 206.155467 
L 170.368059 207.743127 
L 170.672727 205.120197 
L 170.977396 208.598178 
L 171.282064 207.753522 
L 171.586732 207.987702 
L 171.8914 204.265108 
L 172.196069 207.250344 
L 172.500737 204.907152 
L 172.805405 203.781181 
L 173.110074 205.085835 
L 173.414742 201.150875 
L 173.71941 201.720305 
L 174.024079 209.546341 
L 174.328747 204.613172 
L 174.633415 208.484745 
L 174.938084 208.541689 
L 175.242752 213.333263 
L 175.54742 212.296002 
L 175.852088 208.121955 
L 176.156757 207.818001 
L 176.461425 209.573564 
L 176.766093 206.698165 
L 177.37543 211.342972 
L 177.680098 211.419464 
L 177.984767 213.795051 
L 178.289435 207.922693 
L 178.594103 211.374161 
L 179.20344 208.693418 
L 179.812776 211.448052 
L 180.422113 207.938171 
L 181.03145 206.850415 
L 181.336118 207.70156 
L 181.640786 210.341638 
L 181.945455 208.469037 
L 182.250123 208.667278 
L 182.554791 206.872668 
L 183.468796 206.295384 
L 183.773464 212.871418 
L 184.078133 212.990205 
L 184.382801 211.210157 
L 184.992138 213.980691 
L 185.296806 212.511688 
L 185.601474 213.421903 
L 186.820147 202.055976 
L 187.124816 202.651029 
L 187.429484 207.232399 
L 187.734152 205.932729 
L 188.038821 208.030737 
L 188.343489 206.971818 
L 188.648157 204.807757 
L 188.952826 207.934951 
L 189.257494 207.193509 
L 189.86683 204.983466 
L 190.171499 204.515947 
L 190.476167 202.354533 
L 190.780835 206.059641 
L 191.390172 201.432675 
L 191.69484 202.569513 
L 191.999509 202.254275 
L 192.304177 207.245744 
L 192.913514 205.446658 
L 193.218182 203.269588 
L 193.52285 205.03871 
L 193.827518 205.524768 
L 194.132187 205.433384 
L 194.436855 203.087331 
L 194.741523 203.64066 
L 195.046192 205.087974 
L 195.35086 200.585015 
L 195.655528 204.794228 
L 195.960197 207.082673 
L 196.264865 207.384281 
L 196.569533 208.646303 
L 196.874201 211.311938 
L 197.17887 211.870006 
L 197.483538 214.117836 
L 197.788206 213.747068 
L 198.397543 210.896342 
L 198.702211 210.914011 
L 199.00688 212.841481 
L 199.311548 215.861581 
L 199.616216 213.506022 
L 199.920885 214.394165 
L 200.225553 214.249407 
L 200.530221 215.714548 
L 200.834889 213.063398 
L 201.139558 214.624776 
L 201.444226 219.058924 
L 201.748894 221.612264 
L 202.053563 221.370339 
L 202.358231 220.063818 
L 202.662899 223.238012 
L 202.967568 221.854189 
L 203.272236 223.12158 
L 203.576904 218.199531 
L 203.881572 217.16874 
L 204.186241 218.088483 
L 204.490909 218.57655 
L 205.100246 213.538378 
L 205.404914 213.595019 
L 205.709582 212.702889 
L 206.014251 212.238651 
L 206.318919 212.785957 
L 206.623587 216.239877 
L 206.928256 217.77517 
L 207.232924 215.367815 
L 207.537592 215.775418 
L 207.84226 215.592807 
L 208.146929 217.22452 
L 208.451597 214.277169 
L 208.756265 216.172911 
L 209.060934 216.155758 
L 209.365602 214.014739 
L 209.67027 216.896607 
L 209.974939 215.409458 
L 210.279607 216.02022 
L 210.888943 209.86699 
L 211.193612 211.488982 
L 211.49828 210.436517 
L 211.802948 210.872483 
L 212.412285 207.055279 
L 213.021622 211.602109 
L 213.32629 208.185411 
L 213.630958 208.734117 
L 213.935627 206.794558 
L 214.240295 207.112222 
L 214.544963 208.861748 
L 214.849631 207.628189 
L 215.1543 204.596191 
L 215.458968 206.51573 
L 215.763636 204.819774 
L 216.068305 207.832021 
L 216.372973 207.803982 
L 216.677641 205.933344 
L 216.98231 206.333294 
L 217.591646 199.718026 
L 217.896314 205.390579 
L 218.810319 200.475413 
L 219.114988 203.852568 
L 219.419656 199.884597 
L 219.724324 201.679071 
L 220.028993 204.54265 
L 220.333661 193.906813 
L 220.638329 200.369381 
L 220.942998 209.602007 
L 221.247666 208.011529 
L 221.552334 204.812338 
L 221.857002 209.244329 
L 222.161671 205.242919 
L 222.466339 207.907791 
L 222.771007 205.821682 
L 223.075676 208.402276 
L 223.380344 206.434427 
L 223.685012 206.766637 
L 223.989681 204.164929 
L 224.294349 206.119131 
L 224.599017 206.904396 
L 224.903686 206.136978 
L 225.208354 202.943599 
L 225.513022 203.513476 
L 225.81769 206.729329 
L 226.122359 203.045272 
L 226.427027 202.474387 
L 226.731695 200.966263 
L 227.036364 208.877456 
L 227.341032 204.644036 
L 227.6457 212.599556 
L 228.255037 207.457652 
L 228.559705 207.894109 
L 228.864373 211.406512 
L 229.169042 209.140572 
L 229.47371 208.451132 
L 230.083047 210.032025 
L 230.387715 211.619956 
L 230.692383 208.157976 
L 231.30172 207.143639 
L 231.606388 207.495329 
L 231.911057 207.499042 
L 232.215725 206.862946 
L 232.520393 208.889373 
L 232.825061 212.405723 
L 233.12973 213.928618 
L 233.434398 214.615625 
L 233.739066 213.654231 
L 234.043735 219.431193 
L 234.348403 220.103089 
L 234.95774 216.111438 
L 235.262408 215.290479 
L 235.567076 212.934682 
L 235.871744 213.245655 
L 236.176413 214.987023 
L 236.481081 214.838803 
L 236.785749 214.233524 
L 237.090418 216.172911 
L 237.395086 212.877214 
L 237.699754 213.440753 
L 238.004423 214.679716 
L 238.309091 215.224445 
L 238.613759 214.363623 
L 238.918428 214.064988 
L 239.223096 214.560737 
L 239.527764 215.782261 
L 239.832432 212.811736 
L 240.137101 214.125614 
L 240.441769 211.46915 
L 241.051106 214.477509 
L 241.355774 214.396148 
L 241.660442 211.975943 
L 241.965111 216.099679 
L 242.269779 216.945695 
L 242.574447 216.964899 
L 242.879115 212.794744 
L 243.183784 215.14119 
L 243.488452 214.816543 
L 243.79312 216.480275 
L 244.097789 214.673767 
L 244.402457 213.618102 
L 245.011794 217.988342 
L 245.316462 216.930851 
L 245.62113 215.201244 
L 245.925799 212.801821 
L 246.230467 215.033195 
L 246.535135 214.084818 
L 246.839803 213.979719 
L 247.144472 210.206781 
L 247.44914 211.792477 
L 247.753808 211.280845 
L 248.058477 215.384671 
L 248.363145 211.072708 
L 248.667813 213.097132 
L 248.972482 212.841084 
L 249.27715 212.851396 
L 249.581818 210.090932 
L 249.886486 211.070821 
L 250.191155 209.602732 
L 250.495823 212.92003 
L 250.800491 209.847451 
L 251.10516 211.292626 
L 251.409828 211.486942 
L 251.714496 211.193913 
L 252.019165 209.020026 
L 252.323833 209.027222 
L 252.628501 207.866226 
L 252.93317 208.139802 
L 253.237838 210.78887 
L 253.542506 209.993901 
L 253.847174 208.790224 
L 254.456511 209.130221 
L 254.761179 208.242917 
L 255.370516 210.252434 
L 255.675184 210.145244 
L 255.979853 210.632872 
L 256.284521 210.874428 
L 256.589189 209.989685 
L 256.893857 207.384281 
L 257.198526 210.33834 
L 257.503194 209.042719 
L 258.112531 207.739891 
L 258.417199 210.640727 
L 258.721867 208.098397 
L 259.026536 210.853038 
L 259.331204 212.076045 
L 259.635872 210.844269 
L 260.245209 205.828058 
L 260.549877 210.610612 
L 260.854545 208.857646 
L 261.159214 211.436796 
L 261.463882 207.449953 
L 261.76855 207.292678 
L 262.073219 209.598512 
L 262.682555 209.985969 
L 262.987224 206.330156 
L 263.291892 208.496959 
L 263.59656 206.099301 
L 263.901229 207.996583 
L 264.205897 208.715671 
L 264.510565 205.021515 
L 264.815233 209.115435 
L 265.42457 208.686991 
L 265.729238 207.35963 
L 266.033907 207.463793 
L 266.338575 209.531864 
L 266.643243 208.414843 
L 266.947912 208.724785 
L 267.25258 207.605702 
L 267.557248 209.017693 
L 267.861916 204.97296 
L 268.166585 210.240162 
L 268.471253 209.038467 
L 268.775921 213.067812 
L 269.08059 207.890103 
L 269.385258 210.860645 
L 269.689926 211.352252 
L 269.994595 211.204266 
L 270.299263 213.614174 
L 270.603931 210.030182 
L 270.9086 209.439032 
L 271.517936 212.019926 
L 271.822604 212.863469 
L 272.127273 210.319529 
L 272.431941 212.182196 
L 272.736609 210.555862 
L 273.041278 211.887821 
L 273.345946 212.468909 
L 273.650614 208.842112 
L 273.955283 213.044116 
L 274.259951 212.960865 
L 274.564619 212.727984 
L 274.869287 211.706669 
L 275.173956 211.805624 
L 275.478624 211.354235 
L 275.783292 213.106701 
L 276.087961 212.27831 
L 276.392629 212.943974 
L 276.697297 208.775351 
L 277.001966 216.622416 
L 277.306634 218.524392 
L 277.611302 218.141499 
L 278.220639 215.494727 
L 278.525307 217.128714 
L 278.829975 216.818005 
L 279.134644 216.323995 
L 279.439312 217.400384 
L 280.048649 215.209176 
L 280.353317 215.207193 
L 280.657985 214.564703 
L 280.962654 216.447786 
L 281.267322 215.862043 
L 281.57199 214.122106 
L 282.181327 216.196495 
L 282.485995 216.755231 
L 282.790663 216.326776 
L 283.095332 217.155796 
L 283.4 217.507272 
L 283.704668 216.613855 
L 284.009337 216.260415 
L 284.314005 215.374853 
L 284.923342 215.455645 
L 285.22801 215.198133 
L 285.532678 217.118183 
L 286.142015 215.064612 
L 286.446683 217.849763 
L 286.751351 217.580837 
L 287.05602 215.987521 
L 287.360688 216.209363 
L 287.665356 216.237388 
L 287.970025 216.540846 
L 288.579361 214.546234 
L 288.884029 215.294645 
L 289.188698 215.23193 
L 289.493366 216.216537 
L 289.798034 218.20665 
L 290.102703 217.627227 
L 290.407371 218.163336 
L 290.712039 216.073521 
L 291.016708 215.429832 
L 291.321376 212.593607 
L 291.626044 213.332758 
L 291.930713 215.329491 
L 292.235381 212.626236 
L 292.540049 211.238825 
L 292.844717 213.745726 
L 293.149386 211.064718 
L 293.454054 209.557643 
L 293.758722 213.142896 
L 294.368059 210.101221 
L 294.672727 213.233152 
L 294.977396 205.693005 
L 295.282064 207.166011 
L 295.8914 208.808732 
L 296.196069 212.551383 
L 296.500737 212.955245 
L 296.805405 211.372082 
L 297.110074 214.100507 
L 297.414742 212.023068 
L 298.024079 213.782412 
L 298.633415 214.354505 
L 298.938084 214.214393 
L 299.242752 212.557154 
L 299.54742 213.460389 
L 299.852088 211.689264 
L 300.461425 212.857578 
L 300.766093 212.843464 
L 301.070762 208.535798 
L 301.37543 210.263858 
L 301.680098 206.071539 
L 301.984767 204.842082 
L 302.289435 204.905895 
L 302.594103 200.66187 
L 302.898771 203.013762 
L 303.20344 199.957035 
L 303.508108 204.891234 
L 303.812776 203.193695 
L 304.117445 199.313495 
L 304.422113 199.454287 
L 305.03145 197.210024 
L 305.336118 198.847627 
L 305.640786 206.482118 
L 305.945455 204.575429 
L 306.250123 203.604694 
L 306.554791 205.070127 
L 306.859459 204.725952 
L 307.164128 203.708984 
L 307.468796 202.207267 
L 307.773464 204.692896 
L 308.078133 205.647411 
L 308.382801 205.663196 
L 308.687469 203.759368 
L 308.992138 200.634169 
L 309.296806 199.288505 
L 309.601474 204.988458 
L 309.906143 204.264951 
L 310.210811 201.749444 
L 310.515479 202.531253 
L 310.820147 206.079317 
L 311.429484 199.92624 
L 311.734152 200.537522 
L 312.038821 200.652247 
L 312.343489 199.71057 
L 312.952826 201.004199 
L 313.562162 198.357692 
L 313.86683 200.840162 
L 314.171499 198.977863 
L 314.476167 204.035004 
L 314.780835 200.217924 
L 315.085504 202.139261 
L 315.390172 198.808773 
L 315.69484 197.539901 
L 315.999509 197.370161 
L 316.304177 200.630533 
L 316.608845 207.451703 
L 316.913514 209.291921 
L 317.218182 211.828171 
L 317.827518 209.300334 
L 318.132187 205.594867 
L 318.436855 206.309129 
L 318.741523 206.430461 
L 319.046192 209.014302 
L 319.35086 206.758782 
L 319.655528 205.83358 
L 319.960197 212.604751 
L 320.264865 211.367006 
L 320.569533 208.835436 
L 320.874201 208.046323 
L 321.17887 208.360481 
L 321.483538 209.859058 
L 321.788206 205.66903 
L 322.092875 206.085284 
L 322.397543 208.34926 
L 322.702211 206.987682 
L 323.00688 204.581438 
L 323.311548 207.212363 
L 323.616216 207.481527 
L 323.920885 208.533834 
L 324.225553 207.361593 
L 324.530221 202.64671 
L 324.834889 202.577503 
L 325.139558 208.645757 
L 325.444226 206.470101 
L 325.748894 206.644347 
L 326.053563 203.648705 
L 326.358231 205.358533 
L 326.662899 203.832738 
L 326.967568 208.08638 
L 327.272236 206.768522 
L 327.881572 209.322122 
L 328.186241 203.700195 
L 328.490909 211.349569 
L 328.795577 208.233411 
L 329.100246 211.271103 
L 329.404914 209.486255 
L 329.709582 202.208091 
L 330.014251 209.692645 
L 330.318919 212.534652 
L 330.623587 211.485172 
L 330.928256 215.98653 
L 331.232924 214.334675 
L 331.537592 215.895292 
L 331.84226 213.475979 
L 332.146929 214.56151 
L 332.451597 213.315416 
L 332.756265 214.352522 
L 333.060934 217.44758 
L 333.365602 215.637969 
L 333.67027 209.796792 
L 333.974939 216.731014 
L 334.279607 212.839498 
L 334.584275 214.433329 
L 334.888943 214.451355 
L 335.193612 215.258493 
L 335.49828 216.424751 
L 335.802948 213.321762 
L 336.412285 215.32336 
L 336.716953 214.659886 
L 337.021622 211.133779 
L 337.32629 211.440334 
L 337.630958 212.658378 
L 337.935627 213.063398 
L 338.544963 212.136954 
L 338.849631 212.581689 
L 339.1543 212.716202 
L 339.458968 214.102471 
L 339.763636 213.33128 
L 340.068305 209.378162 
L 340.372973 209.393871 
L 340.677641 209.248018 
L 341.286978 211.108945 
L 341.591646 212.967262 
L 341.896314 212.350392 
L 342.200983 210.404381 
L 342.505651 211.589319 
L 342.810319 207.158786 
L 343.114988 205.002685 
L 343.724324 209.629133 
L 344.028993 210.430747 
L 344.333661 207.054743 
L 344.638329 209.430275 
L 344.942998 210.241419 
L 345.247666 209.167905 
L 345.552334 202.962204 
L 345.857002 209.553677 
L 346.466339 216.135234 
L 346.771007 218.449388 
L 347.380344 216.70237 
L 347.685012 216.087662 
L 347.989681 218.001232 
L 348.294349 219.153351 
L 348.599017 216.690472 
L 348.903686 216.462661 
L 349.208354 217.275215 
L 349.513022 218.754769 
L 349.81769 216.494399 
L 350.122359 215.385703 
L 350.427027 216.506054 
L 350.731695 215.00814 
L 351.036364 214.654229 
L 351.341032 214.475546 
L 351.6457 215.561391 
L 351.950369 214.100861 
L 352.255037 211.705746 
L 352.559705 213.279742 
L 352.864373 211.981833 
L 353.778378 213.275815 
L 354.083047 213.442717 
L 354.387715 215.037122 
L 354.692383 212.928733 
L 354.997052 212.441746 
L 355.30172 215.970345 
L 355.606388 212.666839 
L 355.911057 212.484663 
L 356.215725 212.764471 
L 356.520393 213.523631 
L 356.825061 213.324904 
L 357.12973 213.932128 
L 357.434398 213.204369 
L 357.739066 214.665657 
L 358.043735 210.842623 
L 358.348403 209.969034 
L 358.653071 207.307625 
L 358.95774 215.290479 
L 359.262408 216.093513 
L 359.567076 212.480576 
L 359.871744 213.992512 
L 360.176413 212.181164 
L 360.481081 213.672052 
L 360.785749 213.763939 
L 361.090418 209.240363 
L 361.395086 218.346273 
L 361.699754 216.816787 
L 362.004423 217.73308 
L 362.309091 214.207764 
L 362.613759 212.572863 
L 362.918428 214.418603 
L 363.223096 213.28988 
L 363.527764 215.513979 
L 363.832432 209.268125 
L 364.137101 208.885507 
L 364.441769 209.834845 
L 364.746437 208.060202 
L 365.051106 214.900149 
L 365.355774 216.760611 
L 365.660442 215.600976 
L 365.965111 214.933014 
L 366.269779 215.699256 
L 366.574447 217.361458 
L 366.879115 216.496042 
L 367.183784 213.039364 
L 367.488452 213.087432 
L 367.79312 213.440753 
L 368.097789 217.04191 
L 368.402457 209.769683 
L 368.707125 214.560276 
L 369.011794 209.506686 
L 369.316462 214.753087 
L 369.62113 210.832708 
L 369.925799 212.41712 
L 370.230467 209.634138 
L 370.535135 214.190057 
L 370.839803 210.369599 
L 371.144472 213.545444 
L 371.44914 209.340795 
L 371.753808 208.181585 
L 372.058477 209.212602 
L 372.363145 211.149987 
L 372.667813 211.265137 
L 372.972482 212.470758 
L 373.27715 208.502417 
L 373.581818 211.956605 
L 373.581818 211.956605 
" style="fill:none;stroke:#0000ff;stroke-linecap:square;stroke-width:1.5;"/>
   </g>
   <g id="line2d_26">
    <path clip-path="url(#p81c518ae8b)" d="M 69.218182 237.115312 
L 69.52285 237.115312 
L 69.827518 234.912205 
L 70.132187 234.912205 
L 70.436855 227.101192 
L 70.741523 227.101192 
L 71.046192 225.699215 
L 71.655528 225.699215 
L 71.960197 220.892437 
L 72.264865 220.892437 
L 72.569533 219.089895 
L 73.788206 219.089895 
L 74.092875 213.481988 
L 75.920885 213.481988 
L 76.225553 207.473516 
L 78.053563 207.473516 
L 78.358231 204.869844 
L 79.576904 204.869844 
L 79.881572 196.658266 
L 80.186241 196.658266 
L 80.795577 176.830307 
L 82.318919 176.830307 
L 82.623587 174.026354 
L 82.928256 172.824659 
L 85.974939 172.824659 
L 86.279607 156.401502 
L 105.47371 156.401502 
L 105.778378 133.369025 
L 113.395086 133.369025 
L 113.699754 97.318192 
L 115.832432 97.318192 
L 116.137101 62.469053 
L 122.535135 62.469053 
L 122.839803 59.264534 
L 128.93317 59.264534 
L 129.237838 44.443636 
L 373.581818 44.443636 
L 373.581818 44.443636 
" style="fill:none;stroke:#ff0000;stroke-linecap:square;stroke-width:1.5;"/>
   </g>
   <g id="patch_3">
    <path d="M 54 252 
L 54 34.56 
" style="fill:none;stroke:#000000;stroke-linecap:square;stroke-linejoin:miter;stroke-width:0.8;"/>
   </g>
   <g id="patch_4">
    <path d="M 388.8 252 
L 388.8 34.56 
" style="fill:none;stroke:#000000;stroke-linecap:square;stroke-linejoin:miter;stroke-width:0.8;"/>
   </g>
   <g id="patch_5">
    <path d="M 54 252 
L 388.8 252 
" style="fill:none;stroke:#000000;stroke-linecap:square;stroke-linejoin:miter;stroke-width:0.8;"/>
   </g>
   <g id="patch_6">
    <path d="M 54 34.56 
L 388.8 34.56 
" style="fill:none;stroke:#000000;stroke-linecap:square;stroke-linejoin:miter;stroke-width:0.8;"/>
   </g>
   <g id="text_15">
    <!-- Population's average and best fitness -->
    <defs>
     <path d="M 19.671875 64.796875 
L 19.671875 37.40625 
L 32.078125 37.40625 
Q 38.96875 37.40625 42.71875 40.96875 
Q 46.484375 44.53125 46.484375 51.125 
Q 46.484375 57.671875 42.71875 61.234375 
Q 38.96875 64.796875 32.078125 64.796875 
z
M 9.8125 72.90625 
L 32.078125 72.90625 
Q 44.34375 72.90625 50.609375 67.359375 
Q 56.890625 61.8125 56.890625 51.125 
Q 56.890625 40.328125 50.609375 34.8125 
Q 44.34375 29.296875 32.078125 29.296875 
L 19.671875 29.296875 
L 19.671875 0 
L 9.8125 0 
z
" id="DejaVuSans-80"/>
     <path d="M 18.109375 8.203125 
L 18.109375 -20.796875 
L 9.078125 -20.796875 
L 9.078125 54.6875 
L 18.109375 54.6875 
L 18.109375 46.390625 
Q 20.953125 51.265625 25.265625 53.625 
Q 29.59375 56 35.59375 56 
Q 45.5625 56 51.78125 48.09375 
Q 58.015625 40.1875 58.015625 27.296875 
Q 58.015625 14.40625 51.78125 6.484375 
Q 45.5625 -1.421875 35.59375 -1.421875 
Q 29.59375 -1.421875 25.265625 0.953125 
Q 20.953125 3.328125 18.109375 8.203125 
z
M 48.6875 27.296875 
Q 48.6875 37.203125 44.609375 42.84375 
Q 40.53125 48.484375 33.40625 48.484375 
Q 26.265625 48.484375 22.1875 42.84375 
Q 18.109375 37.203125 18.109375 27.296875 
Q 18.109375 17.390625 22.1875 11.75 
Q 26.265625 6.109375 33.40625 6.109375 
Q 40.53125 6.109375 44.609375 11.75 
Q 48.6875 17.390625 48.6875 27.296875 
z
" id="DejaVuSans-112"/>
     <path d="M 8.5 21.578125 
L 8.5 54.6875 
L 17.484375 54.6875 
L 17.484375 21.921875 
Q 17.484375 14.15625 20.5 10.265625 
Q 23.53125 6.390625 29.59375 6.390625 
Q 36.859375 6.390625 41.078125 11.03125 
Q 45.3125 15.671875 45.3125 23.6875 
L 45.3125 54.6875 
L 54.296875 54.6875 
L 54.296875 0 
L 45.3125 0 
L 45.3125 8.40625 
Q 42.046875 3.421875 37.71875 1 
Q 33.40625 -1.421875 27.6875 -1.421875 
Q 18.265625 -1.421875 13.375 4.4375 
Q 8.5 10.296875 8.5 21.578125 
z
M 31.109375 56 
z
" id="DejaVuSans-117"/>
     <path d="M 9.421875 75.984375 
L 18.40625 75.984375 
L 18.40625 0 
L 9.421875 0 
z
" id="DejaVuSans-108"/>
     <path d="M 17.921875 72.90625 
L 17.921875 45.796875 
L 9.625 45.796875 
L 9.625 72.90625 
z
" id="DejaVuSans-39"/>
     <path id="DejaVuSans-32"/>
     <path d="M 2.984375 54.6875 
L 12.5 54.6875 
L 29.59375 8.796875 
L 46.6875 54.6875 
L 56.203125 54.6875 
L 35.6875 0 
L 23.484375 0 
z
" id="DejaVuSans-118"/>
     <path d="M 45.40625 27.984375 
Q 45.40625 37.75 41.375 43.109375 
Q 37.359375 48.484375 30.078125 48.484375 
Q 22.859375 48.484375 18.828125 43.109375 
Q 14.796875 37.75 14.796875 27.984375 
Q 14.796875 18.265625 18.828125 12.890625 
Q 22.859375 7.515625 30.078125 7.515625 
Q 37.359375 7.515625 41.375 12.890625 
Q 45.40625 18.265625 45.40625 27.984375 
z
M 54.390625 6.78125 
Q 54.390625 -7.171875 48.1875 -13.984375 
Q 42 -20.796875 29.203125 -20.796875 
Q 24.46875 -20.796875 20.265625 -20.09375 
Q 16.0625 -19.390625 12.109375 -17.921875 
L 12.109375 -9.1875 
Q 16.0625 -11.328125 19.921875 -12.34375 
Q 23.78125 -13.375 27.78125 -13.375 
Q 36.625 -13.375 41.015625 -8.765625 
Q 45.40625 -4.15625 45.40625 5.171875 
L 45.40625 9.625 
Q 42.625 4.78125 38.28125 2.390625 
Q 33.9375 0 27.875 0 
Q 17.828125 0 11.671875 7.65625 
Q 5.515625 15.328125 5.515625 27.984375 
Q 5.515625 40.671875 11.671875 48.328125 
Q 17.828125 56 27.875 56 
Q 33.9375 56 38.28125 53.609375 
Q 42.625 51.21875 45.40625 46.390625 
L 45.40625 54.6875 
L 54.390625 54.6875 
z
" id="DejaVuSans-103"/>
     <path d="M 45.40625 46.390625 
L 45.40625 75.984375 
L 54.390625 75.984375 
L 54.390625 0 
L 45.40625 0 
L 45.40625 8.203125 
Q 42.578125 3.328125 38.25 0.953125 
Q 33.9375 -1.421875 27.875 -1.421875 
Q 17.96875 -1.421875 11.734375 6.484375 
Q 5.515625 14.40625 5.515625 27.296875 
Q 5.515625 40.1875 11.734375 48.09375 
Q 17.96875 56 27.875 56 
Q 33.9375 56 38.25 53.625 
Q 42.578125 51.265625 45.40625 46.390625 
z
M 14.796875 27.296875 
Q 14.796875 17.390625 18.875 11.75 
Q 22.953125 6.109375 30.078125 6.109375 
Q 37.203125 6.109375 41.296875 11.75 
Q 45.40625 17.390625 45.40625 27.296875 
Q 45.40625 37.203125 41.296875 42.84375 
Q 37.203125 48.484375 30.078125 48.484375 
Q 22.953125 48.484375 18.875 42.84375 
Q 14.796875 37.203125 14.796875 27.296875 
z
" id="DejaVuSans-100"/>
     <path d="M 48.6875 27.296875 
Q 48.6875 37.203125 44.609375 42.84375 
Q 40.53125 48.484375 33.40625 48.484375 
Q 26.265625 48.484375 22.1875 42.84375 
Q 18.109375 37.203125 18.109375 27.296875 
Q 18.109375 17.390625 22.1875 11.75 
Q 26.265625 6.109375 33.40625 6.109375 
Q 40.53125 6.109375 44.609375 11.75 
Q 48.6875 17.390625 48.6875 27.296875 
z
M 18.109375 46.390625 
Q 20.953125 51.265625 25.265625 53.625 
Q 29.59375 56 35.59375 56 
Q 45.5625 56 51.78125 48.09375 
Q 58.015625 40.1875 58.015625 27.296875 
Q 58.015625 14.40625 51.78125 6.484375 
Q 45.5625 -1.421875 35.59375 -1.421875 
Q 29.59375 -1.421875 25.265625 0.953125 
Q 20.953125 3.328125 18.109375 8.203125 
L 18.109375 0 
L 9.078125 0 
L 9.078125 75.984375 
L 18.109375 75.984375 
z
" id="DejaVuSans-98"/>
     <path d="M 37.109375 75.984375 
L 37.109375 68.5 
L 28.515625 68.5 
Q 23.6875 68.5 21.796875 66.546875 
Q 19.921875 64.59375 19.921875 59.515625 
L 19.921875 54.6875 
L 34.71875 54.6875 
L 34.71875 47.703125 
L 19.921875 47.703125 
L 19.921875 0 
L 10.890625 0 
L 10.890625 47.703125 
L 2.296875 47.703125 
L 2.296875 54.6875 
L 10.890625 54.6875 
L 10.890625 58.5 
Q 10.890625 67.625 15.140625 71.796875 
Q 19.390625 75.984375 28.609375 75.984375 
z
" id="DejaVuSans-102"/>
    </defs>
    <g transform="translate(108.555 28.56)scale(0.12 -0.12)">
     <use xlink:href="#DejaVuSans-80"/>
     <use x="60.255859" xlink:href="#DejaVuSans-111"/>
     <use x="121.4375" xlink:href="#DejaVuSans-112"/>
     <use x="184.914062" xlink:href="#DejaVuSans-117"/>
     <use x="248.292969" xlink:href="#DejaVuSans-108"/>
     <use x="276.076172" xlink:href="#DejaVuSans-97"/>
     <use x="337.355469" xlink:href="#DejaVuSans-116"/>
     <use x="376.564453" xlink:href="#DejaVuSans-105"/>
     <use x="404.347656" xlink:href="#DejaVuSans-111"/>
     <use x="465.529297" xlink:href="#DejaVuSans-110"/>
     <use x="528.908203" xlink:href="#DejaVuSans-39"/>
     <use x="556.398438" xlink:href="#DejaVuSans-115"/>
     <use x="608.498047" xlink:href="#DejaVuSans-32"/>
     <use x="640.285156" xlink:href="#DejaVuSans-97"/>
     <use x="701.564453" xlink:href="#DejaVuSans-118"/>
     <use x="760.744141" xlink:href="#DejaVuSans-101"/>
     <use x="822.267578" xlink:href="#DejaVuSans-114"/>
     <use x="863.380859" xlink:href="#DejaVuSans-97"/>
     <use x="924.660156" xlink:href="#DejaVuSans-103"/>
     <use x="988.136719" xlink:href="#DejaVuSans-101"/>
     <use x="1049.660156" xlink:href="#DejaVuSans-32"/>
     <use x="1081.447266" xlink:href="#DejaVuSans-97"/>
     <use x="1142.726562" xlink:href="#DejaVuSans-110"/>
     <use x="1206.105469" xlink:href="#DejaVuSans-100"/>
     <use x="1269.582031" xlink:href="#DejaVuSans-32"/>
     <use x="1301.369141" xlink:href="#DejaVuSans-98"/>
     <use x="1364.845703" xlink:href="#DejaVuSans-101"/>
     <use x="1426.369141" xlink:href="#DejaVuSans-115"/>
     <use x="1478.46875" xlink:href="#DejaVuSans-116"/>
     <use x="1517.677734" xlink:href="#DejaVuSans-32"/>
     <use x="1549.464844" xlink:href="#DejaVuSans-102"/>
     <use x="1584.669922" xlink:href="#DejaVuSans-105"/>
     <use x="1612.453125" xlink:href="#DejaVuSans-116"/>
     <use x="1651.662109" xlink:href="#DejaVuSans-110"/>
     <use x="1715.041016" xlink:href="#DejaVuSans-101"/>
     <use x="1776.564453" xlink:href="#DejaVuSans-115"/>
     <use x="1828.664062" xlink:href="#DejaVuSans-115"/>
    </g>
   </g>
   <g id="legend_1">
    <g id="patch_7">
     <path d="M 308.859375 159.458125 
L 381.8 159.458125 
Q 383.8 159.458125 383.8 157.458125 
L 383.8 129.101875 
Q 383.8 127.101875 381.8 127.101875 
L 308.859375 127.101875 
Q 306.859375 127.101875 306.859375 129.101875 
L 306.859375 157.458125 
Q 306.859375 159.458125 308.859375 159.458125 
z
" style="fill:#ffffff;opacity:0.8;stroke:#cccccc;stroke-linejoin:miter;"/>
    </g>
    <g id="line2d_27">
     <path d="M 310.859375 135.200312 
L 330.859375 135.200312 
" style="fill:none;stroke:#0000ff;stroke-linecap:square;stroke-width:1.5;"/>
    </g>
    <g id="line2d_28"/>
    <g id="text_16">
     <!-- average -->
     <g transform="translate(338.859375 138.700312)scale(0.1 -0.1)">
      <use xlink:href="#DejaVuSans-97"/>
      <use x="61.279297" xlink:href="#DejaVuSans-118"/>
      <use x="120.458984" xlink:href="#DejaVuSans-101"/>
      <use x="181.982422" xlink:href="#DejaVuSans-114"/>
      <use x="223.095703" xlink:href="#DejaVuSans-97"/>
      <use x="284.375" xlink:href="#DejaVuSans-103"/>
      <use x="347.851562" xlink:href="#DejaVuSans-101"/>
     </g>
    </g>
    <g id="line2d_29">
     <path d="M 310.859375 149.878437 
L 330.859375 149.878437 
" style="fill:none;stroke:#ff0000;stroke-linecap:square;stroke-width:1.5;"/>
    </g>
    <g id="line2d_30"/>
    <g id="text_17">
     <!-- best -->
     <g transform="translate(338.859375 153.378437)scale(0.1 -0.1)">
      <use xlink:href="#DejaVuSans-98"/>
      <use x="63.476562" xlink:href="#DejaVuSans-101"/>
      <use x="125" xlink:href="#DejaVuSans-115"/>
      <use x="177.099609" xlink:href="#DejaVuSans-116"/>
     </g>
    </g>
   </g>
  </g>
 </g>
 <defs>
  <clipPath id="p81c518ae8b">
   <rect height="217.44" width="334.8" x="54" y="34.56"/>
  </clipPath>
 </defs>
</svg>
