<?xml version="1.0" encoding="utf-8" standalone="no"?>
<!DOCTYPE svg PUBLIC "-//W3C//DTD SVG 1.1//EN"
  "http://www.w3.org/Graphics/SVG/1.1/DTD/svg11.dtd">
<!-- Created with matplotlib (https://matplotlib.org/) -->
<svg height="288pt" version="1.1" viewBox="0 0 432 288" width="432pt" xmlns="http://www.w3.org/2000/svg" xmlns:xlink="http://www.w3.org/1999/xlink">
 <defs>
  <style type="text/css">
*{stroke-linecap:butt;stroke-linejoin:round;}
  </style>
 </defs>
 <g id="figure_1">
  <g id="patch_1">
   <path d="M 0 288 
L 432 288 
L 432 0 
L 0 0 
z
" style="fill:#ffffff;"/>
  </g>
  <g id="axes_1">
   <g id="patch_2">
    <path d="M 54 252 
L 388.8 252 
L 388.8 34.56 
L 54 34.56 
z
" style="fill:#ffffff;"/>
   </g>
   <g id="matplotlib.axis_1">
    <g id="xtick_1">
     <g id="line2d_1">
      <path clip-path="url(#p9471df7190)" d="M 69.218182 252 
L 69.218182 34.56 
" style="fill:none;stroke:#b0b0b0;stroke-linecap:square;stroke-width:0.8;"/>
     </g>
     <g id="line2d_2">
      <defs>
       <path d="M 0 0 
L 0 3.5 
" id="m5e79ba1c5d" style="stroke:#000000;stroke-width:0.8;"/>
      </defs>
      <g>
       <use style="stroke:#000000;stroke-width:0.8;" x="69.218182" xlink:href="#m5e79ba1c5d" y="252"/>
      </g>
     </g>
     <g id="text_1">
      <!-- 0 -->
      <defs>
       <path d="M 31.78125 66.40625 
Q 24.171875 66.40625 20.328125 58.90625 
Q 16.5 51.421875 16.5 36.375 
Q 16.5 21.390625 20.328125 13.890625 
Q 24.171875 6.390625 31.78125 6.390625 
Q 39.453125 6.390625 43.28125 13.890625 
Q 47.125 21.390625 47.125 36.375 
Q 47.125 51.421875 43.28125 58.90625 
Q 39.453125 66.40625 31.78125 66.40625 
z
M 31.78125 74.21875 
Q 44.046875 74.21875 50.515625 64.515625 
Q 56.984375 54.828125 56.984375 36.375 
Q 56.984375 17.96875 50.515625 8.265625 
Q 44.046875 -1.421875 31.78125 -1.421875 
Q 19.53125 -1.421875 13.0625 8.265625 
Q 6.59375 17.96875 6.59375 36.375 
Q 6.59375 54.828125 13.0625 64.515625 
Q 19.53125 74.21875 31.78125 74.21875 
z
" id="DejaVuSans-48"/>
      </defs>
      <g transform="translate(66.036932 266.598437)scale(0.1 -0.1)">
       <use xlink:href="#DejaVuSans-48"/>
      </g>
     </g>
    </g>
    <g id="xtick_2">
     <g id="line2d_3">
      <path clip-path="url(#p9471df7190)" d="M 114.7816 252 
L 114.7816 34.56 
" style="fill:none;stroke:#b0b0b0;stroke-linecap:square;stroke-width:0.8;"/>
     </g>
     <g id="line2d_4">
      <g>
       <use style="stroke:#000000;stroke-width:0.8;" x="114.7816" xlink:href="#m5e79ba1c5d" y="252"/>
      </g>
     </g>
     <g id="text_2">
      <!-- 25 -->
      <defs>
       <path d="M 19.1875 8.296875 
L 53.609375 8.296875 
L 53.609375 0 
L 7.328125 0 
L 7.328125 8.296875 
Q 12.9375 14.109375 22.625 23.890625 
Q 32.328125 33.6875 34.8125 36.53125 
Q 39.546875 41.84375 41.421875 45.53125 
Q 43.3125 49.21875 43.3125 52.78125 
Q 43.3125 58.59375 39.234375 62.25 
Q 35.15625 65.921875 28.609375 65.921875 
Q 23.96875 65.921875 18.8125 64.3125 
Q 13.671875 62.703125 7.8125 59.421875 
L 7.8125 69.390625 
Q 13.765625 71.78125 18.9375 73 
Q 24.125 74.21875 28.421875 74.21875 
Q 39.75 74.21875 46.484375 68.546875 
Q 53.21875 62.890625 53.21875 53.421875 
Q 53.21875 48.921875 51.53125 44.890625 
Q 49.859375 40.875 45.40625 35.40625 
Q 44.1875 33.984375 37.640625 27.21875 
Q 31.109375 20.453125 19.1875 8.296875 
z
" id="DejaVuSans-50"/>
       <path d="M 10.796875 72.90625 
L 49.515625 72.90625 
L 49.515625 64.59375 
L 19.828125 64.59375 
L 19.828125 46.734375 
Q 21.96875 47.46875 24.109375 47.828125 
Q 26.265625 48.1875 28.421875 48.1875 
Q 40.625 48.1875 47.75 41.5 
Q 54.890625 34.8125 54.890625 23.390625 
Q 54.890625 11.625 47.5625 5.09375 
Q 40.234375 -1.421875 26.90625 -1.421875 
Q 22.3125 -1.421875 17.546875 -0.640625 
Q 12.796875 0.140625 7.71875 1.703125 
L 7.71875 11.625 
Q 12.109375 9.234375 16.796875 8.0625 
Q 21.484375 6.890625 26.703125 6.890625 
Q 35.15625 6.890625 40.078125 11.328125 
Q 45.015625 15.765625 45.015625 23.390625 
Q 45.015625 31 40.078125 35.4375 
Q 35.15625 39.890625 26.703125 39.890625 
Q 22.75 39.890625 18.8125 39.015625 
Q 14.890625 38.140625 10.796875 36.28125 
z
" id="DejaVuSans-53"/>
      </defs>
      <g transform="translate(108.4191 266.598437)scale(0.1 -0.1)">
       <use xlink:href="#DejaVuSans-50"/>
       <use x="63.623047" xlink:href="#DejaVuSans-53"/>
      </g>
     </g>
    </g>
    <g id="xtick_3">
     <g id="line2d_5">
      <path clip-path="url(#p9471df7190)" d="M 160.345019 252 
L 160.345019 34.56 
" style="fill:none;stroke:#b0b0b0;stroke-linecap:square;stroke-width:0.8;"/>
     </g>
     <g id="line2d_6">
      <g>
       <use style="stroke:#000000;stroke-width:0.8;" x="160.345019" xlink:href="#m5e79ba1c5d" y="252"/>
      </g>
     </g>
     <g id="text_3">
      <!-- 50 -->
      <g transform="translate(153.982519 266.598437)scale(0.1 -0.1)">
       <use xlink:href="#DejaVuSans-53"/>
       <use x="63.623047" xlink:href="#DejaVuSans-48"/>
      </g>
     </g>
    </g>
    <g id="xtick_4">
     <g id="line2d_7">
      <path clip-path="url(#p9471df7190)" d="M 205.908438 252 
L 205.908438 34.56 
" style="fill:none;stroke:#b0b0b0;stroke-linecap:square;stroke-width:0.8;"/>
     </g>
     <g id="line2d_8">
      <g>
       <use style="stroke:#000000;stroke-width:0.8;" x="205.908438" xlink:href="#m5e79ba1c5d" y="252"/>
      </g>
     </g>
     <g id="text_4">
      <!-- 75 -->
      <defs>
       <path d="M 8.203125 72.90625 
L 55.078125 72.90625 
L 55.078125 68.703125 
L 28.609375 0 
L 18.3125 0 
L 43.21875 64.59375 
L 8.203125 64.59375 
z
" id="DejaVuSans-55"/>
      </defs>
      <g transform="translate(199.545938 266.598437)scale(0.1 -0.1)">
       <use xlink:href="#DejaVuSans-55"/>
       <use x="63.623047" xlink:href="#DejaVuSans-53"/>
      </g>
     </g>
    </g>
    <g id="xtick_5">
     <g id="line2d_9">
      <path clip-path="url(#p9471df7190)" d="M 251.471856 252 
L 251.471856 34.56 
" style="fill:none;stroke:#b0b0b0;stroke-linecap:square;stroke-width:0.8;"/>
     </g>
     <g id="line2d_10">
      <g>
       <use style="stroke:#000000;stroke-width:0.8;" x="251.471856" xlink:href="#m5e79ba1c5d" y="252"/>
      </g>
     </g>
     <g id="text_5">
      <!-- 100 -->
      <defs>
       <path d="M 12.40625 8.296875 
L 28.515625 8.296875 
L 28.515625 63.921875 
L 10.984375 60.40625 
L 10.984375 69.390625 
L 28.421875 72.90625 
L 38.28125 72.90625 
L 38.28125 8.296875 
L 54.390625 8.296875 
L 54.390625 0 
L 12.40625 0 
z
" id="DejaVuSans-49"/>
      </defs>
      <g transform="translate(241.928106 266.598437)scale(0.1 -0.1)">
       <use xlink:href="#DejaVuSans-49"/>
       <use x="63.623047" xlink:href="#DejaVuSans-48"/>
       <use x="127.246094" xlink:href="#DejaVuSans-48"/>
      </g>
     </g>
    </g>
    <g id="xtick_6">
     <g id="line2d_11">
      <path clip-path="url(#p9471df7190)" d="M 297.035275 252 
L 297.035275 34.56 
" style="fill:none;stroke:#b0b0b0;stroke-linecap:square;stroke-width:0.8;"/>
     </g>
     <g id="line2d_12">
      <g>
       <use style="stroke:#000000;stroke-width:0.8;" x="297.035275" xlink:href="#m5e79ba1c5d" y="252"/>
      </g>
     </g>
     <g id="text_6">
      <!-- 125 -->
      <g transform="translate(287.491525 266.598437)scale(0.1 -0.1)">
       <use xlink:href="#DejaVuSans-49"/>
       <use x="63.623047" xlink:href="#DejaVuSans-50"/>
       <use x="127.246094" xlink:href="#DejaVuSans-53"/>
      </g>
     </g>
    </g>
    <g id="xtick_7">
     <g id="line2d_13">
      <path clip-path="url(#p9471df7190)" d="M 342.598694 252 
L 342.598694 34.56 
" style="fill:none;stroke:#b0b0b0;stroke-linecap:square;stroke-width:0.8;"/>
     </g>
     <g id="line2d_14">
      <g>
       <use style="stroke:#000000;stroke-width:0.8;" x="342.598694" xlink:href="#m5e79ba1c5d" y="252"/>
      </g>
     </g>
     <g id="text_7">
      <!-- 150 -->
      <g transform="translate(333.054944 266.598437)scale(0.1 -0.1)">
       <use xlink:href="#DejaVuSans-49"/>
       <use x="63.623047" xlink:href="#DejaVuSans-53"/>
       <use x="127.246094" xlink:href="#DejaVuSans-48"/>
      </g>
     </g>
    </g>
    <g id="xtick_8">
     <g id="line2d_15">
      <path clip-path="url(#p9471df7190)" d="M 388.162112 252 
L 388.162112 34.56 
" style="fill:none;stroke:#b0b0b0;stroke-linecap:square;stroke-width:0.8;"/>
     </g>
     <g id="line2d_16">
      <g>
       <use style="stroke:#000000;stroke-width:0.8;" x="388.162112" xlink:href="#m5e79ba1c5d" y="252"/>
      </g>
     </g>
     <g id="text_8">
      <!-- 175 -->
      <g transform="translate(378.618362 266.598437)scale(0.1 -0.1)">
       <use xlink:href="#DejaVuSans-49"/>
       <use x="63.623047" xlink:href="#DejaVuSans-55"/>
       <use x="127.246094" xlink:href="#DejaVuSans-53"/>
      </g>
     </g>
    </g>
    <g id="text_9">
     <!-- Generations -->
     <defs>
      <path d="M 59.515625 10.40625 
L 59.515625 29.984375 
L 43.40625 29.984375 
L 43.40625 38.09375 
L 69.28125 38.09375 
L 69.28125 6.78125 
Q 63.578125 2.734375 56.6875 0.65625 
Q 49.8125 -1.421875 42 -1.421875 
Q 24.90625 -1.421875 15.25 8.5625 
Q 5.609375 18.5625 5.609375 36.375 
Q 5.609375 54.25 15.25 64.234375 
Q 24.90625 74.21875 42 74.21875 
Q 49.125 74.21875 55.546875 72.453125 
Q 61.96875 70.703125 67.390625 67.28125 
L 67.390625 56.78125 
Q 61.921875 61.421875 55.765625 63.765625 
Q 49.609375 66.109375 42.828125 66.109375 
Q 29.4375 66.109375 22.71875 58.640625 
Q 16.015625 51.171875 16.015625 36.375 
Q 16.015625 21.625 22.71875 14.15625 
Q 29.4375 6.6875 42.828125 6.6875 
Q 48.046875 6.6875 52.140625 7.59375 
Q 56.25 8.5 59.515625 10.40625 
z
" id="DejaVuSans-71"/>
      <path d="M 56.203125 29.59375 
L 56.203125 25.203125 
L 14.890625 25.203125 
Q 15.484375 15.921875 20.484375 11.0625 
Q 25.484375 6.203125 34.421875 6.203125 
Q 39.59375 6.203125 44.453125 7.46875 
Q 49.3125 8.734375 54.109375 11.28125 
L 54.109375 2.78125 
Q 49.265625 0.734375 44.1875 -0.34375 
Q 39.109375 -1.421875 33.890625 -1.421875 
Q 20.796875 -1.421875 13.15625 6.1875 
Q 5.515625 13.8125 5.515625 26.8125 
Q 5.515625 40.234375 12.765625 48.109375 
Q 20.015625 56 32.328125 56 
Q 43.359375 56 49.78125 48.890625 
Q 56.203125 41.796875 56.203125 29.59375 
z
M 47.21875 32.234375 
Q 47.125 39.59375 43.09375 43.984375 
Q 39.0625 48.390625 32.421875 48.390625 
Q 24.90625 48.390625 20.390625 44.140625 
Q 15.875 39.890625 15.1875 32.171875 
z
" id="DejaVuSans-101"/>
      <path d="M 54.890625 33.015625 
L 54.890625 0 
L 45.90625 0 
L 45.90625 32.71875 
Q 45.90625 40.484375 42.875 44.328125 
Q 39.84375 48.1875 33.796875 48.1875 
Q 26.515625 48.1875 22.3125 43.546875 
Q 18.109375 38.921875 18.109375 30.90625 
L 18.109375 0 
L 9.078125 0 
L 9.078125 54.6875 
L 18.109375 54.6875 
L 18.109375 46.1875 
Q 21.34375 51.125 25.703125 53.5625 
Q 30.078125 56 35.796875 56 
Q 45.21875 56 50.046875 50.171875 
Q 54.890625 44.34375 54.890625 33.015625 
z
" id="DejaVuSans-110"/>
      <path d="M 41.109375 46.296875 
Q 39.59375 47.171875 37.8125 47.578125 
Q 36.03125 48 33.890625 48 
Q 26.265625 48 22.1875 43.046875 
Q 18.109375 38.09375 18.109375 28.8125 
L 18.109375 0 
L 9.078125 0 
L 9.078125 54.6875 
L 18.109375 54.6875 
L 18.109375 46.1875 
Q 20.953125 51.171875 25.484375 53.578125 
Q 30.03125 56 36.53125 56 
Q 37.453125 56 38.578125 55.875 
Q 39.703125 55.765625 41.0625 55.515625 
z
" id="DejaVuSans-114"/>
      <path d="M 34.28125 27.484375 
Q 23.390625 27.484375 19.1875 25 
Q 14.984375 22.515625 14.984375 16.5 
Q 14.984375 11.71875 18.140625 8.90625 
Q 21.296875 6.109375 26.703125 6.109375 
Q 34.1875 6.109375 38.703125 11.40625 
Q 43.21875 16.703125 43.21875 25.484375 
L 43.21875 27.484375 
z
M 52.203125 31.203125 
L 52.203125 0 
L 43.21875 0 
L 43.21875 8.296875 
Q 40.140625 3.328125 35.546875 0.953125 
Q 30.953125 -1.421875 24.3125 -1.421875 
Q 15.921875 -1.421875 10.953125 3.296875 
Q 6 8.015625 6 15.921875 
Q 6 25.140625 12.171875 29.828125 
Q 18.359375 34.515625 30.609375 34.515625 
L 43.21875 34.515625 
L 43.21875 35.40625 
Q 43.21875 41.609375 39.140625 45 
Q 35.0625 48.390625 27.6875 48.390625 
Q 23 48.390625 18.546875 47.265625 
Q 14.109375 46.140625 10.015625 43.890625 
L 10.015625 52.203125 
Q 14.9375 54.109375 19.578125 55.046875 
Q 24.21875 56 28.609375 56 
Q 40.484375 56 46.34375 49.84375 
Q 52.203125 43.703125 52.203125 31.203125 
z
" id="DejaVuSans-97"/>
      <path d="M 18.3125 70.21875 
L 18.3125 54.6875 
L 36.8125 54.6875 
L 36.8125 47.703125 
L 18.3125 47.703125 
L 18.3125 18.015625 
Q 18.3125 11.328125 20.140625 9.421875 
Q 21.96875 7.515625 27.59375 7.515625 
L 36.8125 7.515625 
L 36.8125 0 
L 27.59375 0 
Q 17.1875 0 13.234375 3.875 
Q 9.28125 7.765625 9.28125 18.015625 
L 9.28125 47.703125 
L 2.6875 47.703125 
L 2.6875 54.6875 
L 9.28125 54.6875 
L 9.28125 70.21875 
z
" id="DejaVuSans-116"/>
      <path d="M 9.421875 54.6875 
L 18.40625 54.6875 
L 18.40625 0 
L 9.421875 0 
z
M 9.421875 75.984375 
L 18.40625 75.984375 
L 18.40625 64.59375 
L 9.421875 64.59375 
z
" id="DejaVuSans-105"/>
      <path d="M 30.609375 48.390625 
Q 23.390625 48.390625 19.1875 42.75 
Q 14.984375 37.109375 14.984375 27.296875 
Q 14.984375 17.484375 19.15625 11.84375 
Q 23.34375 6.203125 30.609375 6.203125 
Q 37.796875 6.203125 41.984375 11.859375 
Q 46.1875 17.53125 46.1875 27.296875 
Q 46.1875 37.015625 41.984375 42.703125 
Q 37.796875 48.390625 30.609375 48.390625 
z
M 30.609375 56 
Q 42.328125 56 49.015625 48.375 
Q 55.71875 40.765625 55.71875 27.296875 
Q 55.71875 13.875 49.015625 6.21875 
Q 42.328125 -1.421875 30.609375 -1.421875 
Q 18.84375 -1.421875 12.171875 6.21875 
Q 5.515625 13.875 5.515625 27.296875 
Q 5.515625 40.765625 12.171875 48.375 
Q 18.84375 56 30.609375 56 
z
" id="DejaVuSans-111"/>
      <path d="M 44.28125 53.078125 
L 44.28125 44.578125 
Q 40.484375 46.53125 36.375 47.5 
Q 32.28125 48.484375 27.875 48.484375 
Q 21.1875 48.484375 17.84375 46.4375 
Q 14.5 44.390625 14.5 40.28125 
Q 14.5 37.15625 16.890625 35.375 
Q 19.28125 33.59375 26.515625 31.984375 
L 29.59375 31.296875 
Q 39.15625 29.25 43.1875 25.515625 
Q 47.21875 21.78125 47.21875 15.09375 
Q 47.21875 7.46875 41.1875 3.015625 
Q 35.15625 -1.421875 24.609375 -1.421875 
Q 20.21875 -1.421875 15.453125 -0.5625 
Q 10.6875 0.296875 5.421875 2 
L 5.421875 11.28125 
Q 10.40625 8.6875 15.234375 7.390625 
Q 20.0625 6.109375 24.8125 6.109375 
Q 31.15625 6.109375 34.5625 8.28125 
Q 37.984375 10.453125 37.984375 14.40625 
Q 37.984375 18.0625 35.515625 20.015625 
Q 33.0625 21.96875 24.703125 23.78125 
L 21.578125 24.515625 
Q 13.234375 26.265625 9.515625 29.90625 
Q 5.8125 33.546875 5.8125 39.890625 
Q 5.8125 47.609375 11.28125 51.796875 
Q 16.75 56 26.8125 56 
Q 31.78125 56 36.171875 55.265625 
Q 40.578125 54.546875 44.28125 53.078125 
z
" id="DejaVuSans-115"/>
     </defs>
     <g transform="translate(190.902344 280.276563)scale(0.1 -0.1)">
      <use xlink:href="#DejaVuSans-71"/>
      <use x="77.490234" xlink:href="#DejaVuSans-101"/>
      <use x="139.013672" xlink:href="#DejaVuSans-110"/>
      <use x="202.392578" xlink:href="#DejaVuSans-101"/>
      <use x="263.916016" xlink:href="#DejaVuSans-114"/>
      <use x="305.029297" xlink:href="#DejaVuSans-97"/>
      <use x="366.308594" xlink:href="#DejaVuSans-116"/>
      <use x="405.517578" xlink:href="#DejaVuSans-105"/>
      <use x="433.300781" xlink:href="#DejaVuSans-111"/>
      <use x="494.482422" xlink:href="#DejaVuSans-110"/>
      <use x="557.861328" xlink:href="#DejaVuSans-115"/>
     </g>
    </g>
   </g>
   <g id="matplotlib.axis_2">
    <g id="ytick_1">
     <g id="line2d_17">
      <path clip-path="url(#p9471df7190)" d="M 54 216.210541 
L 388.8 216.210541 
" style="fill:none;stroke:#b0b0b0;stroke-linecap:square;stroke-width:0.8;"/>
     </g>
     <g id="line2d_18">
      <defs>
       <path d="M 0 0 
L -3.5 0 
" id="m5251fd96d5" style="stroke:#000000;stroke-width:0.8;"/>
      </defs>
      <g>
       <use style="stroke:#000000;stroke-width:0.8;" x="54" xlink:href="#m5251fd96d5" y="216.210541"/>
      </g>
     </g>
     <g id="text_10">
      <!-- 100 -->
      <g transform="translate(27.9125 220.00976)scale(0.1 -0.1)">
       <use xlink:href="#DejaVuSans-49"/>
       <use x="63.623047" xlink:href="#DejaVuSans-48"/>
       <use x="127.246094" xlink:href="#DejaVuSans-48"/>
      </g>
     </g>
    </g>
    <g id="ytick_2">
     <g id="line2d_19">
      <path clip-path="url(#p9471df7190)" d="M 54 175.674493 
L 388.8 175.674493 
" style="fill:none;stroke:#b0b0b0;stroke-linecap:square;stroke-width:0.8;"/>
     </g>
     <g id="line2d_20">
      <g>
       <use style="stroke:#000000;stroke-width:0.8;" x="54" xlink:href="#m5251fd96d5" y="175.674493"/>
      </g>
     </g>
     <g id="text_11">
      <!-- 200 -->
      <g transform="translate(27.9125 179.473711)scale(0.1 -0.1)">
       <use xlink:href="#DejaVuSans-50"/>
       <use x="63.623047" xlink:href="#DejaVuSans-48"/>
       <use x="127.246094" xlink:href="#DejaVuSans-48"/>
      </g>
     </g>
    </g>
    <g id="ytick_3">
     <g id="line2d_21">
      <path clip-path="url(#p9471df7190)" d="M 54 135.138444 
L 388.8 135.138444 
" style="fill:none;stroke:#b0b0b0;stroke-linecap:square;stroke-width:0.8;"/>
     </g>
     <g id="line2d_22">
      <g>
       <use style="stroke:#000000;stroke-width:0.8;" x="54" xlink:href="#m5251fd96d5" y="135.138444"/>
      </g>
     </g>
     <g id="text_12">
      <!-- 300 -->
      <defs>
       <path d="M 40.578125 39.3125 
Q 47.65625 37.796875 51.625 33 
Q 55.609375 28.21875 55.609375 21.1875 
Q 55.609375 10.40625 48.1875 4.484375 
Q 40.765625 -1.421875 27.09375 -1.421875 
Q 22.515625 -1.421875 17.65625 -0.515625 
Q 12.796875 0.390625 7.625 2.203125 
L 7.625 11.71875 
Q 11.71875 9.328125 16.59375 8.109375 
Q 21.484375 6.890625 26.8125 6.890625 
Q 36.078125 6.890625 40.9375 10.546875 
Q 45.796875 14.203125 45.796875 21.1875 
Q 45.796875 27.640625 41.28125 31.265625 
Q 36.765625 34.90625 28.71875 34.90625 
L 20.21875 34.90625 
L 20.21875 43.015625 
L 29.109375 43.015625 
Q 36.375 43.015625 40.234375 45.921875 
Q 44.09375 48.828125 44.09375 54.296875 
Q 44.09375 59.90625 40.109375 62.90625 
Q 36.140625 65.921875 28.71875 65.921875 
Q 24.65625 65.921875 20.015625 65.03125 
Q 15.375 64.15625 9.8125 62.3125 
L 9.8125 71.09375 
Q 15.4375 72.65625 20.34375 73.4375 
Q 25.25 74.21875 29.59375 74.21875 
Q 40.828125 74.21875 47.359375 69.109375 
Q 53.90625 64.015625 53.90625 55.328125 
Q 53.90625 49.265625 50.4375 45.09375 
Q 46.96875 40.921875 40.578125 39.3125 
z
" id="DejaVuSans-51"/>
      </defs>
      <g transform="translate(27.9125 138.937663)scale(0.1 -0.1)">
       <use xlink:href="#DejaVuSans-51"/>
       <use x="63.623047" xlink:href="#DejaVuSans-48"/>
       <use x="127.246094" xlink:href="#DejaVuSans-48"/>
      </g>
     </g>
    </g>
    <g id="ytick_4">
     <g id="line2d_23">
      <path clip-path="url(#p9471df7190)" d="M 54 94.602395 
L 388.8 94.602395 
" style="fill:none;stroke:#b0b0b0;stroke-linecap:square;stroke-width:0.8;"/>
     </g>
     <g id="line2d_24">
      <g>
       <use style="stroke:#000000;stroke-width:0.8;" x="54" xlink:href="#m5251fd96d5" y="94.602395"/>
      </g>
     </g>
     <g id="text_13">
      <!-- 400 -->
      <defs>
       <path d="M 37.796875 64.3125 
L 12.890625 25.390625 
L 37.796875 25.390625 
z
M 35.203125 72.90625 
L 47.609375 72.90625 
L 47.609375 25.390625 
L 58.015625 25.390625 
L 58.015625 17.1875 
L 47.609375 17.1875 
L 47.609375 0 
L 37.796875 0 
L 37.796875 17.1875 
L 4.890625 17.1875 
L 4.890625 26.703125 
z
" id="DejaVuSans-52"/>
      </defs>
      <g transform="translate(27.9125 98.401614)scale(0.1 -0.1)">
       <use xlink:href="#DejaVuSans-52"/>
       <use x="63.623047" xlink:href="#DejaVuSans-48"/>
       <use x="127.246094" xlink:href="#DejaVuSans-48"/>
      </g>
     </g>
    </g>
    <g id="ytick_5">
     <g id="line2d_25">
      <path clip-path="url(#p9471df7190)" d="M 54 54.066347 
L 388.8 54.066347 
" style="fill:none;stroke:#b0b0b0;stroke-linecap:square;stroke-width:0.8;"/>
     </g>
     <g id="line2d_26">
      <g>
       <use style="stroke:#000000;stroke-width:0.8;" x="54" xlink:href="#m5251fd96d5" y="54.066347"/>
      </g>
     </g>
     <g id="text_14">
      <!-- 500 -->
      <g transform="translate(27.9125 57.865566)scale(0.1 -0.1)">
       <use xlink:href="#DejaVuSans-53"/>
       <use x="63.623047" xlink:href="#DejaVuSans-48"/>
       <use x="127.246094" xlink:href="#DejaVuSans-48"/>
      </g>
     </g>
    </g>
    <g id="text_15">
     <!-- Fitness -->
     <defs>
      <path d="M 9.8125 72.90625 
L 51.703125 72.90625 
L 51.703125 64.59375 
L 19.671875 64.59375 
L 19.671875 43.109375 
L 48.578125 43.109375 
L 48.578125 34.8125 
L 19.671875 34.8125 
L 19.671875 0 
L 9.8125 0 
z
" id="DejaVuSans-70"/>
     </defs>
     <g transform="translate(21.832812 160.954219)rotate(-90)scale(0.1 -0.1)">
      <use xlink:href="#DejaVuSans-70"/>
      <use x="57.410156" xlink:href="#DejaVuSans-105"/>
      <use x="85.193359" xlink:href="#DejaVuSans-116"/>
      <use x="124.402344" xlink:href="#DejaVuSans-110"/>
      <use x="187.78125" xlink:href="#DejaVuSans-101"/>
      <use x="249.304688" xlink:href="#DejaVuSans-115"/>
      <use x="301.404297" xlink:href="#DejaVuSans-115"/>
     </g>
    </g>
   </g>
   <g id="line2d_27">
    <path clip-path="url(#p9471df7190)" d="M 69.218182 217.818622 
L 71.040719 218.938847 
L 72.863255 216.079614 
L 74.685792 220.134769 
L 76.508329 212.787233 
L 78.330866 209.833007 
L 80.153402 199.053662 
L 81.975939 197.094243 
L 83.798476 189.366047 
L 85.621013 199.311464 
L 87.443549 201.715633 
L 89.266086 198.730615 
L 91.088623 200.689235 
L 92.911159 204.605769 
L 94.733696 192.902107 
L 96.556233 202.049141 
L 98.37877 201.752631 
L 100.201306 200.077517 
L 102.023843 198.752281 
L 103.84638 203.252139 
L 105.668917 203.985659 
L 107.491453 197.803418 
L 109.31399 199.698572 
L 111.136527 195.372863 
L 112.959064 200.042464 
L 114.7816 197.998187 
L 116.604137 202.515875 
L 118.426674 202.076203 
L 120.249211 200.761261 
L 122.071747 205.059825 
L 123.894284 201.53192 
L 125.716821 203.79655 
L 127.539358 196.263784 
L 129.361894 201.959186 
L 131.184431 200.335204 
L 133.006968 199.811808 
L 134.829505 198.083135 
L 136.652041 201.758323 
L 138.474578 200.136898 
L 140.297115 199.874109 
L 142.119652 205.317844 
L 143.942188 203.935202 
L 145.764725 206.528587 
L 147.587262 201.368496 
L 149.409799 200.501677 
L 151.232335 200.936632 
L 153.054872 198.156506 
L 154.877409 196.637246 
L 156.699946 201.090307 
L 158.522482 194.08461 
L 160.345019 200.586226 
L 162.167556 196.220079 
L 163.990093 200.075693 
L 165.812629 196.354625 
L 167.635166 204.075945 
L 169.457703 200.545898 
L 171.28024 201.013455 
L 173.102776 199.828357 
L 174.925313 198.78361 
L 176.74785 191.828942 
L 180.392923 186.714371 
L 182.21546 192.701118 
L 184.037997 196.556168 
L 185.860533 185.146747 
L 187.68307 179.315614 
L 189.505607 179.485674 
L 191.328144 184.230366 
L 193.15068 183.992287 
L 194.973217 169.306782 
L 196.795754 170.658367 
L 198.618291 176.101939 
L 200.440827 178.854771 
L 202.263364 182.714954 
L 204.085901 177.40358 
L 205.908438 182.943858 
L 207.730974 177.035623 
L 209.553511 179.604771 
L 211.376048 185.982895 
L 213.198585 177.848835 
L 215.021121 177.126363 
L 218.666195 173.003159 
L 220.488732 169.142503 
L 222.311268 174.004296 
L 224.133805 173.208473 
L 225.956342 171.140625 
L 227.778879 170.300152 
L 229.601415 175.287216 
L 231.423952 175.021865 
L 233.246489 170.883979 
L 235.069026 178.933406 
L 236.891562 174.292969 
L 238.714099 173.051878 
L 240.536636 172.360473 
L 242.359173 174.683572 
L 244.181709 181.848947 
L 246.004246 173.950753 
L 247.826783 173.929382 
L 249.64932 172.166502 
L 251.471856 177.271461 
L 255.11693 175.858755 
L 256.939467 177.820987 
L 258.762003 168.977895 
L 260.58454 173.214245 
L 262.407077 178.316125 
L 264.229614 166.790597 
L 266.05215 174.949516 
L 267.874687 186.307605 
L 269.697224 184.670622 
L 271.51976 185.340043 
L 273.342297 181.542979 
L 275.164834 184.67024 
L 276.987371 179.08806 
L 278.809907 177.849586 
L 280.632444 172.206118 
L 282.454981 179.89565 
L 284.277518 180.433428 
L 286.100054 172.191846 
L 287.922591 175.514881 
L 289.745128 164.020025 
L 291.567665 168.282607 
L 293.390201 162.909362 
L 295.212738 168.040884 
L 297.035275 169.040322 
L 298.857812 172.922304 
L 300.680348 167.557488 
L 302.502885 169.788665 
L 304.325422 190.61078 
L 306.147959 174.452071 
L 307.970495 165.806081 
L 309.793032 169.337582 
L 311.615569 162.642172 
L 313.438106 167.399747 
L 315.260642 161.216778 
L 317.083179 176.11816 
L 318.905716 170.069352 
L 320.728253 178.00245 
L 322.550789 157.928382 
L 324.373326 173.545256 
L 326.195863 142.59878 
L 328.0184 162.815495 
L 329.840936 147.456658 
L 331.663473 160.092639 
L 333.48601 157.7049 
L 335.308547 161.406642 
L 337.131083 169.295694 
L 338.95362 162.969214 
L 340.776157 158.431851 
L 342.598694 157.192448 
L 344.42123 152.394719 
L 346.243767 165.432981 
L 348.066304 155.651281 
L 349.888841 156.294907 
L 351.711377 163.228208 
L 353.533914 174.441663 
L 355.356451 162.445715 
L 357.178987 154.882497 
L 359.001524 163.705495 
L 360.824061 159.240967 
L 362.646598 170.113774 
L 364.469134 151.934881 
L 366.291671 158.487119 
L 368.114208 161.075069 
L 369.936745 156.686157 
L 371.759281 147.233316 
L 373.581818 146.405368 
L 373.581818 146.405368 
" style="fill:none;stroke:#0000ff;stroke-linecap:square;stroke-width:1.5;"/>
   </g>
   <g id="line2d_28">
    <path clip-path="url(#p9471df7190)" d="M 69.218182 220.568016 
L 71.040719 222.172323 
L 72.863255 223.223273 
L 74.685792 227.490104 
L 76.508329 228.171229 
L 78.330866 231.64103 
L 80.153402 232.605782 
L 81.975939 225.513946 
L 83.798476 223.442008 
L 85.621013 232.966891 
L 87.443549 235.332192 
L 89.266086 242.116364 
L 91.088623 231.472078 
L 92.911159 234.651682 
L 94.733696 235.715817 
L 96.556233 234.728904 
L 98.37877 231.846796 
L 100.201306 232.346891 
L 102.023843 233.6055 
L 103.84638 232.170381 
L 105.668917 234.846825 
L 107.491453 238.653722 
L 109.31399 234.296904 
L 111.136527 233.693488 
L 112.959064 232.629192 
L 114.7816 234.77144 
L 116.604137 234.080335 
L 118.426674 232.514374 
L 120.249211 230.440626 
L 122.071747 232.48333 
L 123.894284 237.612686 
L 125.716821 233.955984 
L 127.539358 233.270155 
L 129.361894 233.219535 
L 131.184431 230.587397 
L 133.006968 231.231716 
L 136.652041 235.885663 
L 138.474578 234.421833 
L 140.297115 232.674456 
L 142.119652 232.865175 
L 143.942188 232.802299 
L 145.764725 237.18109 
L 147.587262 230.991894 
L 149.409799 231.413475 
L 151.232335 232.026674 
L 153.054872 231.811099 
L 154.877409 233.315855 
L 156.699946 231.955785 
L 158.522482 230.146579 
L 160.345019 233.354869 
L 162.167556 233.194328 
L 163.990093 231.477936 
L 167.635166 231.883005 
L 169.457703 231.376264 
L 171.28024 231.182423 
L 173.102776 234.590815 
L 174.925313 234.587489 
L 176.74785 225.983739 
L 178.570386 224.388602 
L 180.392923 221.781302 
L 182.21546 229.349749 
L 184.037997 234.242729 
L 185.860533 222.414466 
L 187.68307 226.995128 
L 189.505607 218.548547 
L 191.328144 226.262367 
L 193.15068 221.732701 
L 194.973217 205.068997 
L 200.440827 221.652284 
L 202.263364 229.675452 
L 204.085901 218.260214 
L 205.908438 228.491054 
L 207.730974 220.166971 
L 209.553511 220.564336 
L 211.376048 226.197713 
L 213.198585 218.330632 
L 215.021121 218.356039 
L 216.843658 216.140563 
L 218.666195 215.998649 
L 220.488732 211.554148 
L 222.311268 213.913916 
L 224.133805 216.481648 
L 225.956342 212.323482 
L 227.778879 213.935782 
L 229.601415 218.771287 
L 231.423952 217.789934 
L 233.246489 213.460752 
L 235.069026 221.317742 
L 236.891562 215.728764 
L 238.714099 219.774658 
L 240.536636 215.505519 
L 242.359173 214.077259 
L 244.181709 223.992723 
L 246.004246 218.040299 
L 247.826783 218.522776 
L 249.64932 213.047098 
L 251.471856 222.669875 
L 253.294393 219.66299 
L 255.11693 217.679169 
L 256.939467 221.054166 
L 258.762003 214.161076 
L 260.58454 215.491472 
L 262.407077 223.579921 
L 264.229614 212.626357 
L 266.05215 214.565943 
L 267.874687 226.470431 
L 269.697224 224.515843 
L 271.51976 224.77011 
L 273.342297 221.330741 
L 275.164834 224.283952 
L 276.987371 219.482665 
L 278.809907 220.821982 
L 280.632444 215.041896 
L 282.454981 223.684916 
L 284.277518 220.818569 
L 286.100054 215.161444 
L 287.922591 214.089438 
L 289.745128 202.25202 
L 291.567665 206.90089 
L 293.390201 206.110311 
L 295.212738 207.503333 
L 297.035275 207.685471 
L 298.857812 213.933827 
L 300.680348 211.121777 
L 302.502885 212.067309 
L 304.325422 231.097077 
L 306.147959 214.742092 
L 307.970495 209.308437 
L 309.793032 207.619674 
L 311.615569 204.238827 
L 313.438106 216.193571 
L 315.260642 205.403127 
L 317.083179 221.179688 
L 318.905716 213.145888 
L 320.728253 225.476144 
L 322.550789 191.32572 
L 324.373326 208.253235 
L 326.195863 179.288498 
L 328.0184 204.112028 
L 329.840936 180.548197 
L 331.663473 199.761916 
L 333.48601 196.44249 
L 335.308547 195.744829 
L 337.131083 212.961979 
L 338.95362 200.896725 
L 340.776157 203.077162 
L 342.598694 192.916138 
L 344.42123 195.372973 
L 346.243767 200.526804 
L 348.066304 196.690537 
L 349.888841 196.246439 
L 351.711377 202.643401 
L 353.533914 216.818266 
L 355.356451 203.635419 
L 357.178987 191.533991 
L 359.001524 199.772992 
L 360.824061 199.157516 
L 362.646598 212.377704 
L 364.469134 190.259545 
L 366.291671 200.992015 
L 368.114208 198.499372 
L 369.936745 192.072089 
L 371.759281 191.743782 
L 373.581818 185.735191 
L 373.581818 185.735191 
" style="fill:none;stroke:#008000;stroke-dasharray:9.6,2.4,1.5,2.4;stroke-dashoffset:0;stroke-width:1.5;"/>
   </g>
   <g id="line2d_29">
    <path clip-path="url(#p9471df7190)" d="M 69.218182 215.069227 
L 71.040719 215.70537 
L 72.863255 208.935955 
L 74.685792 212.779434 
L 76.508329 197.403236 
L 78.330866 188.024983 
L 80.153402 165.501542 
L 81.975939 168.674541 
L 83.798476 155.290086 
L 85.621013 165.656036 
L 87.443549 168.099074 
L 89.266086 155.344867 
L 91.088623 169.906392 
L 92.911159 174.559855 
L 94.733696 150.088397 
L 96.556233 169.369379 
L 98.37877 171.658466 
L 102.023843 163.899062 
L 103.84638 174.333897 
L 105.668917 173.124493 
L 107.491453 156.953114 
L 109.31399 165.10024 
L 111.136527 157.052239 
L 112.959064 167.455736 
L 114.7816 161.224933 
L 116.604137 170.951415 
L 118.426674 171.638032 
L 120.249211 171.081896 
L 122.071747 177.63632 
L 123.894284 165.451153 
L 125.716821 173.637116 
L 127.539358 159.257412 
L 129.361894 170.698837 
L 131.184431 170.083011 
L 133.006968 168.391901 
L 134.829505 162.560317 
L 136.652041 167.630982 
L 138.474578 165.851964 
L 140.297115 167.073762 
L 142.119652 177.770512 
L 143.942188 175.068104 
L 145.764725 175.876084 
L 147.587262 171.745098 
L 149.409799 169.589879 
L 151.232335 169.84659 
L 153.054872 164.501913 
L 154.877409 159.958636 
L 156.699946 170.224828 
L 158.522482 158.022641 
L 160.345019 167.817582 
L 162.167556 159.24583 
L 163.990093 168.673449 
L 165.812629 161.011228 
L 167.635166 176.268885 
L 169.457703 169.715531 
L 171.28024 170.844488 
L 173.102776 165.065898 
L 174.925313 162.979732 
L 176.74785 157.674146 
L 178.570386 153.965788 
L 180.392923 151.647439 
L 182.21546 156.052487 
L 184.037997 158.869607 
L 185.860533 147.879028 
L 187.68307 131.6361 
L 189.505607 140.422802 
L 191.328144 142.198365 
L 193.15068 146.251873 
L 194.973217 133.544567 
L 196.795754 130.67501 
L 198.618291 135.776321 
L 200.440827 136.057258 
L 202.263364 135.754456 
L 205.908438 137.396662 
L 207.730974 133.904276 
L 209.553511 138.645206 
L 211.376048 145.768076 
L 213.198585 137.367037 
L 215.021121 135.896687 
L 216.843658 134.080036 
L 218.666195 130.00767 
L 220.488732 126.730858 
L 222.311268 134.094676 
L 224.133805 129.935297 
L 225.956342 129.957769 
L 227.778879 126.664522 
L 229.601415 131.803144 
L 231.423952 132.253796 
L 233.246489 128.307206 
L 235.069026 136.549071 
L 236.891562 132.857173 
L 238.714099 126.329098 
L 240.536636 129.215428 
L 242.359173 135.289884 
L 244.181709 139.705172 
L 246.004246 129.861207 
L 247.826783 129.335988 
L 249.64932 131.285905 
L 251.471856 131.873047 
L 253.294393 133.493406 
L 256.939467 134.587808 
L 258.762003 123.794714 
L 260.58454 130.937017 
L 262.407077 133.05233 
L 264.229614 120.954836 
L 266.05215 135.333088 
L 267.874687 146.144779 
L 269.697224 144.825401 
L 271.51976 145.909976 
L 273.342297 141.755216 
L 275.164834 145.056528 
L 276.987371 138.693454 
L 278.809907 134.87719 
L 280.632444 129.370339 
L 282.454981 136.106385 
L 284.277518 140.048288 
L 286.100054 129.222248 
L 287.922591 136.940324 
L 289.745128 125.78803 
L 291.567665 129.664324 
L 293.390201 119.708414 
L 295.212738 128.578435 
L 297.035275 130.395174 
L 298.857812 131.910782 
L 300.680348 123.993198 
L 302.502885 127.510021 
L 304.325422 150.124483 
L 306.147959 134.16205 
L 307.970495 122.303725 
L 309.793032 131.055489 
L 311.615569 121.045517 
L 313.438106 118.605924 
L 315.260642 117.030428 
L 317.083179 131.056632 
L 318.905716 126.992817 
L 320.728253 130.528756 
L 322.550789 124.531045 
L 324.373326 138.837277 
L 326.195863 105.909062 
L 328.0184 121.518962 
L 329.840936 114.365119 
L 331.663473 120.423362 
L 333.48601 118.96731 
L 335.308547 127.068454 
L 337.131083 125.629409 
L 338.95362 125.041703 
L 340.776157 113.78654 
L 342.598694 121.468758 
L 344.42123 109.416464 
L 346.243767 130.339159 
L 348.066304 114.612025 
L 349.888841 116.343375 
L 351.711377 123.813016 
L 353.533914 132.06506 
L 355.356451 121.25601 
L 357.178987 118.231003 
L 359.001524 127.637997 
L 360.824061 119.324417 
L 362.646598 127.849844 
L 364.469134 113.610217 
L 366.291671 115.982223 
L 368.114208 123.650765 
L 369.936745 121.300225 
L 371.759281 102.72285 
L 373.581818 107.075545 
L 373.581818 107.075545 
" style="fill:none;stroke:#008000;stroke-dasharray:9.6,2.4,1.5,2.4;stroke-dashoffset:0;stroke-width:1.5;"/>
   </g>
   <g id="line2d_30">
    <path clip-path="url(#p9471df7190)" d="M 69.218182 209.611484 
L 71.040719 208.623415 
L 72.863255 191.574464 
L 74.685792 200.117453 
L 76.508329 166.243561 
L 78.330866 154.968778 
L 80.153402 128.486442 
L 81.975939 139.344808 
L 83.798476 133.074742 
L 85.621013 130.735086 
L 87.443549 111.879458 
L 89.266086 63.788314 
L 91.088623 143.663226 
L 92.911159 134.467652 
L 94.733696 67.8539 
L 96.556233 135.684461 
L 98.37877 135.136401 
L 100.201306 110.473792 
L 102.023843 120.391074 
L 103.84638 142.458075 
L 105.668917 124.847671 
L 107.491453 88.228903 
L 109.31399 124.949785 
L 111.136527 106.525014 
L 112.959064 135.177624 
L 114.7816 92.784565 
L 116.604137 138.191857 
L 118.426674 135.779866 
L 120.249211 136.54118 
L 122.071747 134.2085 
L 123.894284 114.596736 
L 125.716821 138.383741 
L 127.539358 93.220117 
L 129.361894 127.37127 
L 131.184431 129.080566 
L 133.006968 132.22004 
L 134.829505 121.294825 
L 136.652041 100.971822 
L 138.474578 115.680138 
L 140.297115 134.896728 
L 142.119652 134.740509 
L 143.942188 136.874346 
L 145.764725 131.051736 
L 147.587262 138.714807 
L 149.409799 134.113041 
L 151.232335 135.926749 
L 153.054872 130.592247 
L 154.877409 117.369273 
L 156.699946 134.147957 
L 158.522482 115.326558 
L 160.345019 127.013738 
L 162.167556 124.768455 
L 163.990093 133.39423 
L 165.812629 125.090758 
L 167.635166 133.550131 
L 169.457703 134.505511 
L 171.28024 135.586988 
L 173.102776 122.553925 
L 174.925313 126.50066 
L 176.74785 133.726362 
L 178.570386 136.570667 
L 180.392923 131.226454 
L 182.21546 131.719357 
L 184.037997 134.993894 
L 185.860533 113.405915 
L 187.68307 64.430087 
L 189.505607 128.514063 
L 191.328144 115.978437 
L 193.15068 132.286779 
L 194.973217 129.544141 
L 196.795754 133.973646 
L 198.618291 130.243169 
L 200.440827 127.751563 
L 202.263364 68.795505 
L 204.085901 118.836975 
L 205.908438 78.199017 
L 207.730974 109.282868 
L 209.553511 127.915132 
L 211.376048 115.726791 
L 213.198585 118.375358 
L 215.021121 118.270967 
L 216.843658 109.938009 
L 218.666195 105.62434 
L 220.488732 103.893847 
L 222.311268 121.695312 
L 224.133805 115.515711 
L 225.956342 111.388594 
L 227.778879 113.462655 
L 229.601415 105.27108 
L 231.423952 107.814395 
L 233.246489 107.359417 
L 235.069026 97.019949 
L 236.891562 113.814782 
L 238.714099 70.386799 
L 240.536636 119.617073 
L 242.359173 121.157979 
L 244.181709 116.367452 
L 246.004246 105.33298 
L 247.826783 116.592538 
L 249.64932 118.347881 
L 251.471856 79.621776 
L 253.294393 110.390997 
L 255.11693 121.47688 
L 258.762003 97.011243 
L 260.58454 109.055354 
L 262.407077 103.492061 
L 264.229614 89.943064 
L 266.05215 123.67027 
L 267.874687 118.843298 
L 269.697224 106.20848 
L 271.51976 116.458095 
L 273.342297 118.980349 
L 275.164834 113.063457 
L 276.987371 110.778926 
L 278.809907 111.263685 
L 280.632444 106.210793 
L 282.454981 91.20527 
L 284.277518 110.918442 
L 286.100054 122.65896 
L 287.922591 120.144132 
L 289.745128 115.568203 
L 291.567665 120.12913 
L 293.390201 87.186459 
L 295.212738 119.698189 
L 297.035275 119.807487 
L 298.857812 115.164616 
L 300.680348 105.102461 
L 302.502885 97.573935 
L 304.325422 108.221537 
L 306.147959 127.156701 
L 307.970495 86.482531 
L 309.793032 102.224627 
L 311.615569 94.377397 
L 313.438106 99.392658 
L 315.260642 92.970912 
L 317.083179 111.823672 
L 318.905716 103.799578 
L 320.728253 94.261924 
L 322.550789 116.743393 
L 324.373326 122.886396 
L 326.195863 84.160567 
L 328.0184 98.609366 
L 329.840936 99.531589 
L 331.663473 111.811851 
L 333.48601 82.21013 
L 335.308547 122.591896 
L 337.131083 101.951991 
L 338.95362 114.262459 
L 340.776157 79.530927 
L 342.598694 108.949188 
L 344.42123 78.145954 
L 346.243767 119.487068 
L 348.066304 111.872355 
L 349.888841 98.070416 
L 351.711377 100.433779 
L 353.533914 103.257637 
L 355.356451 96.662191 
L 357.178987 117.483924 
L 359.001524 119.975227 
L 360.824061 114.164935 
L 362.646598 98.110645 
L 364.469134 86.244942 
L 366.291671 96.868596 
L 368.114208 109.732159 
L 369.936745 120.282978 
L 371.759281 65.323695 
L 373.581818 44.443636 
L 373.581818 44.443636 
" style="fill:none;stroke:#ff0000;stroke-linecap:square;stroke-width:1.5;"/>
   </g>
   <g id="patch_3">
    <path d="M 54 252 
L 54 34.56 
" style="fill:none;stroke:#000000;stroke-linecap:square;stroke-linejoin:miter;stroke-width:0.8;"/>
   </g>
   <g id="patch_4">
    <path d="M 388.8 252 
L 388.8 34.56 
" style="fill:none;stroke:#000000;stroke-linecap:square;stroke-linejoin:miter;stroke-width:0.8;"/>
   </g>
   <g id="patch_5">
    <path d="M 54 252 
L 388.8 252 
" style="fill:none;stroke:#000000;stroke-linecap:square;stroke-linejoin:miter;stroke-width:0.8;"/>
   </g>
   <g id="patch_6">
    <path d="M 54 34.56 
L 388.8 34.56 
" style="fill:none;stroke:#000000;stroke-linecap:square;stroke-linejoin:miter;stroke-width:0.8;"/>
   </g>
   <g id="text_16">
    <!-- Population's average and best fitness -->
    <defs>
     <path d="M 19.671875 64.796875 
L 19.671875 37.40625 
L 32.078125 37.40625 
Q 38.96875 37.40625 42.71875 40.96875 
Q 46.484375 44.53125 46.484375 51.125 
Q 46.484375 57.671875 42.71875 61.234375 
Q 38.96875 64.796875 32.078125 64.796875 
z
M 9.8125 72.90625 
L 32.078125 72.90625 
Q 44.34375 72.90625 50.609375 67.359375 
Q 56.890625 61.8125 56.890625 51.125 
Q 56.890625 40.328125 50.609375 34.8125 
Q 44.34375 29.296875 32.078125 29.296875 
L 19.671875 29.296875 
L 19.671875 0 
L 9.8125 0 
z
" id="DejaVuSans-80"/>
     <path d="M 18.109375 8.203125 
L 18.109375 -20.796875 
L 9.078125 -20.796875 
L 9.078125 54.6875 
L 18.109375 54.6875 
L 18.109375 46.390625 
Q 20.953125 51.265625 25.265625 53.625 
Q 29.59375 56 35.59375 56 
Q 45.5625 56 51.78125 48.09375 
Q 58.015625 40.1875 58.015625 27.296875 
Q 58.015625 14.40625 51.78125 6.484375 
Q 45.5625 -1.421875 35.59375 -1.421875 
Q 29.59375 -1.421875 25.265625 0.953125 
Q 20.953125 3.328125 18.109375 8.203125 
z
M 48.6875 27.296875 
Q 48.6875 37.203125 44.609375 42.84375 
Q 40.53125 48.484375 33.40625 48.484375 
Q 26.265625 48.484375 22.1875 42.84375 
Q 18.109375 37.203125 18.109375 27.296875 
Q 18.109375 17.390625 22.1875 11.75 
Q 26.265625 6.109375 33.40625 6.109375 
Q 40.53125 6.109375 44.609375 11.75 
Q 48.6875 17.390625 48.6875 27.296875 
z
" id="DejaVuSans-112"/>
     <path d="M 8.5 21.578125 
L 8.5 54.6875 
L 17.484375 54.6875 
L 17.484375 21.921875 
Q 17.484375 14.15625 20.5 10.265625 
Q 23.53125 6.390625 29.59375 6.390625 
Q 36.859375 6.390625 41.078125 11.03125 
Q 45.3125 15.671875 45.3125 23.6875 
L 45.3125 54.6875 
L 54.296875 54.6875 
L 54.296875 0 
L 45.3125 0 
L 45.3125 8.40625 
Q 42.046875 3.421875 37.71875 1 
Q 33.40625 -1.421875 27.6875 -1.421875 
Q 18.265625 -1.421875 13.375 4.4375 
Q 8.5 10.296875 8.5 21.578125 
z
M 31.109375 56 
z
" id="DejaVuSans-117"/>
     <path d="M 9.421875 75.984375 
L 18.40625 75.984375 
L 18.40625 0 
L 9.421875 0 
z
" id="DejaVuSans-108"/>
     <path d="M 17.921875 72.90625 
L 17.921875 45.796875 
L 9.625 45.796875 
L 9.625 72.90625 
z
" id="DejaVuSans-39"/>
     <path id="DejaVuSans-32"/>
     <path d="M 2.984375 54.6875 
L 12.5 54.6875 
L 29.59375 8.796875 
L 46.6875 54.6875 
L 56.203125 54.6875 
L 35.6875 0 
L 23.484375 0 
z
" id="DejaVuSans-118"/>
     <path d="M 45.40625 27.984375 
Q 45.40625 37.75 41.375 43.109375 
Q 37.359375 48.484375 30.078125 48.484375 
Q 22.859375 48.484375 18.828125 43.109375 
Q 14.796875 37.75 14.796875 27.984375 
Q 14.796875 18.265625 18.828125 12.890625 
Q 22.859375 7.515625 30.078125 7.515625 
Q 37.359375 7.515625 41.375 12.890625 
Q 45.40625 18.265625 45.40625 27.984375 
z
M 54.390625 6.78125 
Q 54.390625 -7.171875 48.1875 -13.984375 
Q 42 -20.796875 29.203125 -20.796875 
Q 24.46875 -20.796875 20.265625 -20.09375 
Q 16.0625 -19.390625 12.109375 -17.921875 
L 12.109375 -9.1875 
Q 16.0625 -11.328125 19.921875 -12.34375 
Q 23.78125 -13.375 27.78125 -13.375 
Q 36.625 -13.375 41.015625 -8.765625 
Q 45.40625 -4.15625 45.40625 5.171875 
L 45.40625 9.625 
Q 42.625 4.78125 38.28125 2.390625 
Q 33.9375 0 27.875 0 
Q 17.828125 0 11.671875 7.65625 
Q 5.515625 15.328125 5.515625 27.984375 
Q 5.515625 40.671875 11.671875 48.328125 
Q 17.828125 56 27.875 56 
Q 33.9375 56 38.28125 53.609375 
Q 42.625 51.21875 45.40625 46.390625 
L 45.40625 54.6875 
L 54.390625 54.6875 
z
" id="DejaVuSans-103"/>
     <path d="M 45.40625 46.390625 
L 45.40625 75.984375 
L 54.390625 75.984375 
L 54.390625 0 
L 45.40625 0 
L 45.40625 8.203125 
Q 42.578125 3.328125 38.25 0.953125 
Q 33.9375 -1.421875 27.875 -1.421875 
Q 17.96875 -1.421875 11.734375 6.484375 
Q 5.515625 14.40625 5.515625 27.296875 
Q 5.515625 40.1875 11.734375 48.09375 
Q 17.96875 56 27.875 56 
Q 33.9375 56 38.25 53.625 
Q 42.578125 51.265625 45.40625 46.390625 
z
M 14.796875 27.296875 
Q 14.796875 17.390625 18.875 11.75 
Q 22.953125 6.109375 30.078125 6.109375 
Q 37.203125 6.109375 41.296875 11.75 
Q 45.40625 17.390625 45.40625 27.296875 
Q 45.40625 37.203125 41.296875 42.84375 
Q 37.203125 48.484375 30.078125 48.484375 
Q 22.953125 48.484375 18.875 42.84375 
Q 14.796875 37.203125 14.796875 27.296875 
z
" id="DejaVuSans-100"/>
     <path d="M 48.6875 27.296875 
Q 48.6875 37.203125 44.609375 42.84375 
Q 40.53125 48.484375 33.40625 48.484375 
Q 26.265625 48.484375 22.1875 42.84375 
Q 18.109375 37.203125 18.109375 27.296875 
Q 18.109375 17.390625 22.1875 11.75 
Q 26.265625 6.109375 33.40625 6.109375 
Q 40.53125 6.109375 44.609375 11.75 
Q 48.6875 17.390625 48.6875 27.296875 
z
M 18.109375 46.390625 
Q 20.953125 51.265625 25.265625 53.625 
Q 29.59375 56 35.59375 56 
Q 45.5625 56 51.78125 48.09375 
Q 58.015625 40.1875 58.015625 27.296875 
Q 58.015625 14.40625 51.78125 6.484375 
Q 45.5625 -1.421875 35.59375 -1.421875 
Q 29.59375 -1.421875 25.265625 0.953125 
Q 20.953125 3.328125 18.109375 8.203125 
L 18.109375 0 
L 9.078125 0 
L 9.078125 75.984375 
L 18.109375 75.984375 
z
" id="DejaVuSans-98"/>
     <path d="M 37.109375 75.984375 
L 37.109375 68.5 
L 28.515625 68.5 
Q 23.6875 68.5 21.796875 66.546875 
Q 19.921875 64.59375 19.921875 59.515625 
L 19.921875 54.6875 
L 34.71875 54.6875 
L 34.71875 47.703125 
L 19.921875 47.703125 
L 19.921875 0 
L 10.890625 0 
L 10.890625 47.703125 
L 2.296875 47.703125 
L 2.296875 54.6875 
L 10.890625 54.6875 
L 10.890625 58.5 
Q 10.890625 67.625 15.140625 71.796875 
Q 19.390625 75.984375 28.609375 75.984375 
z
" id="DejaVuSans-102"/>
    </defs>
    <g transform="translate(108.555 28.56)scale(0.12 -0.12)">
     <use xlink:href="#DejaVuSans-80"/>
     <use x="60.255859" xlink:href="#DejaVuSans-111"/>
     <use x="121.4375" xlink:href="#DejaVuSans-112"/>
     <use x="184.914062" xlink:href="#DejaVuSans-117"/>
     <use x="248.292969" xlink:href="#DejaVuSans-108"/>
     <use x="276.076172" xlink:href="#DejaVuSans-97"/>
     <use x="337.355469" xlink:href="#DejaVuSans-116"/>
     <use x="376.564453" xlink:href="#DejaVuSans-105"/>
     <use x="404.347656" xlink:href="#DejaVuSans-111"/>
     <use x="465.529297" xlink:href="#DejaVuSans-110"/>
     <use x="528.908203" xlink:href="#DejaVuSans-39"/>
     <use x="556.398438" xlink:href="#DejaVuSans-115"/>
     <use x="608.498047" xlink:href="#DejaVuSans-32"/>
     <use x="640.285156" xlink:href="#DejaVuSans-97"/>
     <use x="701.564453" xlink:href="#DejaVuSans-118"/>
     <use x="760.744141" xlink:href="#DejaVuSans-101"/>
     <use x="822.267578" xlink:href="#DejaVuSans-114"/>
     <use x="863.380859" xlink:href="#DejaVuSans-97"/>
     <use x="924.660156" xlink:href="#DejaVuSans-103"/>
     <use x="988.136719" xlink:href="#DejaVuSans-101"/>
     <use x="1049.660156" xlink:href="#DejaVuSans-32"/>
     <use x="1081.447266" xlink:href="#DejaVuSans-97"/>
     <use x="1142.726562" xlink:href="#DejaVuSans-110"/>
     <use x="1206.105469" xlink:href="#DejaVuSans-100"/>
     <use x="1269.582031" xlink:href="#DejaVuSans-32"/>
     <use x="1301.369141" xlink:href="#DejaVuSans-98"/>
     <use x="1364.845703" xlink:href="#DejaVuSans-101"/>
     <use x="1426.369141" xlink:href="#DejaVuSans-115"/>
     <use x="1478.46875" xlink:href="#DejaVuSans-116"/>
     <use x="1517.677734" xlink:href="#DejaVuSans-32"/>
     <use x="1549.464844" xlink:href="#DejaVuSans-102"/>
     <use x="1584.669922" xlink:href="#DejaVuSans-105"/>
     <use x="1612.453125" xlink:href="#DejaVuSans-116"/>
     <use x="1651.662109" xlink:href="#DejaVuSans-110"/>
     <use x="1715.041016" xlink:href="#DejaVuSans-101"/>
     <use x="1776.564453" xlink:href="#DejaVuSans-115"/>
     <use x="1828.664062" xlink:href="#DejaVuSans-115"/>
    </g>
   </g>
   <g id="legend_1">
    <g id="patch_7">
     <path d="M 61 101.2725 
L 133.940625 101.2725 
Q 135.940625 101.2725 135.940625 99.2725 
L 135.940625 41.56 
Q 135.940625 39.56 133.940625 39.56 
L 61 39.56 
Q 59 39.56 59 41.56 
L 59 99.2725 
Q 59 101.2725 61 101.2725 
z
" style="fill:#ffffff;opacity:0.8;stroke:#cccccc;stroke-linejoin:miter;"/>
    </g>
    <g id="line2d_31">
     <path d="M 63 47.658437 
L 83 47.658437 
" style="fill:none;stroke:#0000ff;stroke-linecap:square;stroke-width:1.5;"/>
    </g>
    <g id="line2d_32"/>
    <g id="text_17">
     <!-- average -->
     <g transform="translate(91 51.158437)scale(0.1 -0.1)">
      <use xlink:href="#DejaVuSans-97"/>
      <use x="61.279297" xlink:href="#DejaVuSans-118"/>
      <use x="120.458984" xlink:href="#DejaVuSans-101"/>
      <use x="181.982422" xlink:href="#DejaVuSans-114"/>
      <use x="223.095703" xlink:href="#DejaVuSans-97"/>
      <use x="284.375" xlink:href="#DejaVuSans-103"/>
      <use x="347.851562" xlink:href="#DejaVuSans-101"/>
     </g>
    </g>
    <g id="line2d_33">
     <path d="M 63 62.336562 
L 83 62.336562 
" style="fill:none;stroke:#008000;stroke-dasharray:9.6,2.4,1.5,2.4;stroke-dashoffset:0;stroke-width:1.5;"/>
    </g>
    <g id="line2d_34"/>
    <g id="text_18">
     <!-- -1 sd -->
     <defs>
      <path d="M 4.890625 31.390625 
L 31.203125 31.390625 
L 31.203125 23.390625 
L 4.890625 23.390625 
z
" id="DejaVuSans-45"/>
     </defs>
     <g transform="translate(91 65.836562)scale(0.1 -0.1)">
      <use xlink:href="#DejaVuSans-45"/>
      <use x="36.083984" xlink:href="#DejaVuSans-49"/>
      <use x="99.707031" xlink:href="#DejaVuSans-32"/>
      <use x="131.494141" xlink:href="#DejaVuSans-115"/>
      <use x="183.59375" xlink:href="#DejaVuSans-100"/>
     </g>
    </g>
    <g id="line2d_35">
     <path d="M 63 77.014687 
L 83 77.014687 
" style="fill:none;stroke:#008000;stroke-dasharray:9.6,2.4,1.5,2.4;stroke-dashoffset:0;stroke-width:1.5;"/>
    </g>
    <g id="line2d_36"/>
    <g id="text_19">
     <!-- +1 sd -->
     <defs>
      <path d="M 46 62.703125 
L 46 35.5 
L 73.1875 35.5 
L 73.1875 27.203125 
L 46 27.203125 
L 46 0 
L 37.796875 0 
L 37.796875 27.203125 
L 10.59375 27.203125 
L 10.59375 35.5 
L 37.796875 35.5 
L 37.796875 62.703125 
z
" id="DejaVuSans-43"/>
     </defs>
     <g transform="translate(91 80.514687)scale(0.1 -0.1)">
      <use xlink:href="#DejaVuSans-43"/>
      <use x="83.789062" xlink:href="#DejaVuSans-49"/>
      <use x="147.412109" xlink:href="#DejaVuSans-32"/>
      <use x="179.199219" xlink:href="#DejaVuSans-115"/>
      <use x="231.298828" xlink:href="#DejaVuSans-100"/>
     </g>
    </g>
    <g id="line2d_37">
     <path d="M 63 91.692813 
L 83 91.692813 
" style="fill:none;stroke:#ff0000;stroke-linecap:square;stroke-width:1.5;"/>
    </g>
    <g id="line2d_38"/>
    <g id="text_20">
     <!-- best -->
     <g transform="translate(91 95.192813)scale(0.1 -0.1)">
      <use xlink:href="#DejaVuSans-98"/>
      <use x="63.476562" xlink:href="#DejaVuSans-101"/>
      <use x="125" xlink:href="#DejaVuSans-115"/>
      <use x="177.099609" xlink:href="#DejaVuSans-116"/>
     </g>
    </g>
   </g>
  </g>
 </g>
 <defs>
  <clipPath id="p9471df7190">
   <rect height="217.44" width="334.8" x="54" y="34.56"/>
  </clipPath>
 </defs>
</svg>
