<?xml version="1.0" encoding="utf-8" standalone="no"?>
<!DOCTYPE svg PUBLIC "-//W3C//DTD SVG 1.1//EN"
  "http://www.w3.org/Graphics/SVG/1.1/DTD/svg11.dtd">
<!-- Created with matplotlib (https://matplotlib.org/) -->
<svg height="288pt" version="1.1" viewBox="0 0 432 288" width="432pt" xmlns="http://www.w3.org/2000/svg" xmlns:xlink="http://www.w3.org/1999/xlink">
 <defs>
  <style type="text/css">
*{stroke-linecap:butt;stroke-linejoin:round;}
  </style>
 </defs>
 <g id="figure_1">
  <g id="patch_1">
   <path d="M 0 288 
L 432 288 
L 432 0 
L 0 0 
z
" style="fill:#ffffff;"/>
  </g>
  <g id="axes_1">
   <g id="patch_2">
    <path d="M 54 252 
L 388.8 252 
L 388.8 34.56 
L 54 34.56 
z
" style="fill:#ffffff;"/>
   </g>
   <g id="matplotlib.axis_1">
    <g id="xtick_1">
     <g id="line2d_1">
      <path clip-path="url(#p33bfd594d9)" d="M 69.218182 252 
L 69.218182 34.56 
" style="fill:none;stroke:#b0b0b0;stroke-linecap:square;stroke-width:0.8;"/>
     </g>
     <g id="line2d_2">
      <defs>
       <path d="M 0 0 
L 0 3.5 
" id="md7a2dae946" style="stroke:#000000;stroke-width:0.8;"/>
      </defs>
      <g>
       <use style="stroke:#000000;stroke-width:0.8;" x="69.218182" xlink:href="#md7a2dae946" y="252"/>
      </g>
     </g>
     <g id="text_1">
      <!-- 0 -->
      <defs>
       <path d="M 31.78125 66.40625 
Q 24.171875 66.40625 20.328125 58.90625 
Q 16.5 51.421875 16.5 36.375 
Q 16.5 21.390625 20.328125 13.890625 
Q 24.171875 6.390625 31.78125 6.390625 
Q 39.453125 6.390625 43.28125 13.890625 
Q 47.125 21.390625 47.125 36.375 
Q 47.125 51.421875 43.28125 58.90625 
Q 39.453125 66.40625 31.78125 66.40625 
z
M 31.78125 74.21875 
Q 44.046875 74.21875 50.515625 64.515625 
Q 56.984375 54.828125 56.984375 36.375 
Q 56.984375 17.96875 50.515625 8.265625 
Q 44.046875 -1.421875 31.78125 -1.421875 
Q 19.53125 -1.421875 13.0625 8.265625 
Q 6.59375 17.96875 6.59375 36.375 
Q 6.59375 54.828125 13.0625 64.515625 
Q 19.53125 74.21875 31.78125 74.21875 
z
" id="DejaVuSans-48"/>
      </defs>
      <g transform="translate(66.036932 266.598437)scale(0.1 -0.1)">
       <use xlink:href="#DejaVuSans-48"/>
      </g>
     </g>
    </g>
    <g id="xtick_2">
     <g id="line2d_3">
      <path clip-path="url(#p33bfd594d9)" d="M 106.563413 252 
L 106.563413 34.56 
" style="fill:none;stroke:#b0b0b0;stroke-linecap:square;stroke-width:0.8;"/>
     </g>
     <g id="line2d_4">
      <g>
       <use style="stroke:#000000;stroke-width:0.8;" x="106.563413" xlink:href="#md7a2dae946" y="252"/>
      </g>
     </g>
     <g id="text_2">
      <!-- 20 -->
      <defs>
       <path d="M 19.1875 8.296875 
L 53.609375 8.296875 
L 53.609375 0 
L 7.328125 0 
L 7.328125 8.296875 
Q 12.9375 14.109375 22.625 23.890625 
Q 32.328125 33.6875 34.8125 36.53125 
Q 39.546875 41.84375 41.421875 45.53125 
Q 43.3125 49.21875 43.3125 52.78125 
Q 43.3125 58.59375 39.234375 62.25 
Q 35.15625 65.921875 28.609375 65.921875 
Q 23.96875 65.921875 18.8125 64.3125 
Q 13.671875 62.703125 7.8125 59.421875 
L 7.8125 69.390625 
Q 13.765625 71.78125 18.9375 73 
Q 24.125 74.21875 28.421875 74.21875 
Q 39.75 74.21875 46.484375 68.546875 
Q 53.21875 62.890625 53.21875 53.421875 
Q 53.21875 48.921875 51.53125 44.890625 
Q 49.859375 40.875 45.40625 35.40625 
Q 44.1875 33.984375 37.640625 27.21875 
Q 31.109375 20.453125 19.1875 8.296875 
z
" id="DejaVuSans-50"/>
      </defs>
      <g transform="translate(100.200913 266.598437)scale(0.1 -0.1)">
       <use xlink:href="#DejaVuSans-50"/>
       <use x="63.623047" xlink:href="#DejaVuSans-48"/>
      </g>
     </g>
    </g>
    <g id="xtick_3">
     <g id="line2d_5">
      <path clip-path="url(#p33bfd594d9)" d="M 143.908645 252 
L 143.908645 34.56 
" style="fill:none;stroke:#b0b0b0;stroke-linecap:square;stroke-width:0.8;"/>
     </g>
     <g id="line2d_6">
      <g>
       <use style="stroke:#000000;stroke-width:0.8;" x="143.908645" xlink:href="#md7a2dae946" y="252"/>
      </g>
     </g>
     <g id="text_3">
      <!-- 40 -->
      <defs>
       <path d="M 37.796875 64.3125 
L 12.890625 25.390625 
L 37.796875 25.390625 
z
M 35.203125 72.90625 
L 47.609375 72.90625 
L 47.609375 25.390625 
L 58.015625 25.390625 
L 58.015625 17.1875 
L 47.609375 17.1875 
L 47.609375 0 
L 37.796875 0 
L 37.796875 17.1875 
L 4.890625 17.1875 
L 4.890625 26.703125 
z
" id="DejaVuSans-52"/>
      </defs>
      <g transform="translate(137.546145 266.598437)scale(0.1 -0.1)">
       <use xlink:href="#DejaVuSans-52"/>
       <use x="63.623047" xlink:href="#DejaVuSans-48"/>
      </g>
     </g>
    </g>
    <g id="xtick_4">
     <g id="line2d_7">
      <path clip-path="url(#p33bfd594d9)" d="M 181.253876 252 
L 181.253876 34.56 
" style="fill:none;stroke:#b0b0b0;stroke-linecap:square;stroke-width:0.8;"/>
     </g>
     <g id="line2d_8">
      <g>
       <use style="stroke:#000000;stroke-width:0.8;" x="181.253876" xlink:href="#md7a2dae946" y="252"/>
      </g>
     </g>
     <g id="text_4">
      <!-- 60 -->
      <defs>
       <path d="M 33.015625 40.375 
Q 26.375 40.375 22.484375 35.828125 
Q 18.609375 31.296875 18.609375 23.390625 
Q 18.609375 15.53125 22.484375 10.953125 
Q 26.375 6.390625 33.015625 6.390625 
Q 39.65625 6.390625 43.53125 10.953125 
Q 47.40625 15.53125 47.40625 23.390625 
Q 47.40625 31.296875 43.53125 35.828125 
Q 39.65625 40.375 33.015625 40.375 
z
M 52.59375 71.296875 
L 52.59375 62.3125 
Q 48.875 64.0625 45.09375 64.984375 
Q 41.3125 65.921875 37.59375 65.921875 
Q 27.828125 65.921875 22.671875 59.328125 
Q 17.53125 52.734375 16.796875 39.40625 
Q 19.671875 43.65625 24.015625 45.921875 
Q 28.375 48.1875 33.59375 48.1875 
Q 44.578125 48.1875 50.953125 41.515625 
Q 57.328125 34.859375 57.328125 23.390625 
Q 57.328125 12.15625 50.6875 5.359375 
Q 44.046875 -1.421875 33.015625 -1.421875 
Q 20.359375 -1.421875 13.671875 8.265625 
Q 6.984375 17.96875 6.984375 36.375 
Q 6.984375 53.65625 15.1875 63.9375 
Q 23.390625 74.21875 37.203125 74.21875 
Q 40.921875 74.21875 44.703125 73.484375 
Q 48.484375 72.75 52.59375 71.296875 
z
" id="DejaVuSans-54"/>
      </defs>
      <g transform="translate(174.891376 266.598437)scale(0.1 -0.1)">
       <use xlink:href="#DejaVuSans-54"/>
       <use x="63.623047" xlink:href="#DejaVuSans-48"/>
      </g>
     </g>
    </g>
    <g id="xtick_5">
     <g id="line2d_9">
      <path clip-path="url(#p33bfd594d9)" d="M 218.599108 252 
L 218.599108 34.56 
" style="fill:none;stroke:#b0b0b0;stroke-linecap:square;stroke-width:0.8;"/>
     </g>
     <g id="line2d_10">
      <g>
       <use style="stroke:#000000;stroke-width:0.8;" x="218.599108" xlink:href="#md7a2dae946" y="252"/>
      </g>
     </g>
     <g id="text_5">
      <!-- 80 -->
      <defs>
       <path d="M 31.78125 34.625 
Q 24.75 34.625 20.71875 30.859375 
Q 16.703125 27.09375 16.703125 20.515625 
Q 16.703125 13.921875 20.71875 10.15625 
Q 24.75 6.390625 31.78125 6.390625 
Q 38.8125 6.390625 42.859375 10.171875 
Q 46.921875 13.96875 46.921875 20.515625 
Q 46.921875 27.09375 42.890625 30.859375 
Q 38.875 34.625 31.78125 34.625 
z
M 21.921875 38.8125 
Q 15.578125 40.375 12.03125 44.71875 
Q 8.5 49.078125 8.5 55.328125 
Q 8.5 64.0625 14.71875 69.140625 
Q 20.953125 74.21875 31.78125 74.21875 
Q 42.671875 74.21875 48.875 69.140625 
Q 55.078125 64.0625 55.078125 55.328125 
Q 55.078125 49.078125 51.53125 44.71875 
Q 48 40.375 41.703125 38.8125 
Q 48.828125 37.15625 52.796875 32.3125 
Q 56.78125 27.484375 56.78125 20.515625 
Q 56.78125 9.90625 50.3125 4.234375 
Q 43.84375 -1.421875 31.78125 -1.421875 
Q 19.734375 -1.421875 13.25 4.234375 
Q 6.78125 9.90625 6.78125 20.515625 
Q 6.78125 27.484375 10.78125 32.3125 
Q 14.796875 37.15625 21.921875 38.8125 
z
M 18.3125 54.390625 
Q 18.3125 48.734375 21.84375 45.5625 
Q 25.390625 42.390625 31.78125 42.390625 
Q 38.140625 42.390625 41.71875 45.5625 
Q 45.3125 48.734375 45.3125 54.390625 
Q 45.3125 60.0625 41.71875 63.234375 
Q 38.140625 66.40625 31.78125 66.40625 
Q 25.390625 66.40625 21.84375 63.234375 
Q 18.3125 60.0625 18.3125 54.390625 
z
" id="DejaVuSans-56"/>
      </defs>
      <g transform="translate(212.236608 266.598437)scale(0.1 -0.1)">
       <use xlink:href="#DejaVuSans-56"/>
       <use x="63.623047" xlink:href="#DejaVuSans-48"/>
      </g>
     </g>
    </g>
    <g id="xtick_6">
     <g id="line2d_11">
      <path clip-path="url(#p33bfd594d9)" d="M 255.944339 252 
L 255.944339 34.56 
" style="fill:none;stroke:#b0b0b0;stroke-linecap:square;stroke-width:0.8;"/>
     </g>
     <g id="line2d_12">
      <g>
       <use style="stroke:#000000;stroke-width:0.8;" x="255.944339" xlink:href="#md7a2dae946" y="252"/>
      </g>
     </g>
     <g id="text_6">
      <!-- 100 -->
      <defs>
       <path d="M 12.40625 8.296875 
L 28.515625 8.296875 
L 28.515625 63.921875 
L 10.984375 60.40625 
L 10.984375 69.390625 
L 28.421875 72.90625 
L 38.28125 72.90625 
L 38.28125 8.296875 
L 54.390625 8.296875 
L 54.390625 0 
L 12.40625 0 
z
" id="DejaVuSans-49"/>
      </defs>
      <g transform="translate(246.400589 266.598437)scale(0.1 -0.1)">
       <use xlink:href="#DejaVuSans-49"/>
       <use x="63.623047" xlink:href="#DejaVuSans-48"/>
       <use x="127.246094" xlink:href="#DejaVuSans-48"/>
      </g>
     </g>
    </g>
    <g id="xtick_7">
     <g id="line2d_13">
      <path clip-path="url(#p33bfd594d9)" d="M 293.289571 252 
L 293.289571 34.56 
" style="fill:none;stroke:#b0b0b0;stroke-linecap:square;stroke-width:0.8;"/>
     </g>
     <g id="line2d_14">
      <g>
       <use style="stroke:#000000;stroke-width:0.8;" x="293.289571" xlink:href="#md7a2dae946" y="252"/>
      </g>
     </g>
     <g id="text_7">
      <!-- 120 -->
      <g transform="translate(283.745821 266.598437)scale(0.1 -0.1)">
       <use xlink:href="#DejaVuSans-49"/>
       <use x="63.623047" xlink:href="#DejaVuSans-50"/>
       <use x="127.246094" xlink:href="#DejaVuSans-48"/>
      </g>
     </g>
    </g>
    <g id="xtick_8">
     <g id="line2d_15">
      <path clip-path="url(#p33bfd594d9)" d="M 330.634802 252 
L 330.634802 34.56 
" style="fill:none;stroke:#b0b0b0;stroke-linecap:square;stroke-width:0.8;"/>
     </g>
     <g id="line2d_16">
      <g>
       <use style="stroke:#000000;stroke-width:0.8;" x="330.634802" xlink:href="#md7a2dae946" y="252"/>
      </g>
     </g>
     <g id="text_8">
      <!-- 140 -->
      <g transform="translate(321.091052 266.598437)scale(0.1 -0.1)">
       <use xlink:href="#DejaVuSans-49"/>
       <use x="63.623047" xlink:href="#DejaVuSans-52"/>
       <use x="127.246094" xlink:href="#DejaVuSans-48"/>
      </g>
     </g>
    </g>
    <g id="xtick_9">
     <g id="line2d_17">
      <path clip-path="url(#p33bfd594d9)" d="M 367.980033 252 
L 367.980033 34.56 
" style="fill:none;stroke:#b0b0b0;stroke-linecap:square;stroke-width:0.8;"/>
     </g>
     <g id="line2d_18">
      <g>
       <use style="stroke:#000000;stroke-width:0.8;" x="367.980033" xlink:href="#md7a2dae946" y="252"/>
      </g>
     </g>
     <g id="text_9">
      <!-- 160 -->
      <g transform="translate(358.436283 266.598437)scale(0.1 -0.1)">
       <use xlink:href="#DejaVuSans-49"/>
       <use x="63.623047" xlink:href="#DejaVuSans-54"/>
       <use x="127.246094" xlink:href="#DejaVuSans-48"/>
      </g>
     </g>
    </g>
    <g id="text_10">
     <!-- Generations -->
     <defs>
      <path d="M 59.515625 10.40625 
L 59.515625 29.984375 
L 43.40625 29.984375 
L 43.40625 38.09375 
L 69.28125 38.09375 
L 69.28125 6.78125 
Q 63.578125 2.734375 56.6875 0.65625 
Q 49.8125 -1.421875 42 -1.421875 
Q 24.90625 -1.421875 15.25 8.5625 
Q 5.609375 18.5625 5.609375 36.375 
Q 5.609375 54.25 15.25 64.234375 
Q 24.90625 74.21875 42 74.21875 
Q 49.125 74.21875 55.546875 72.453125 
Q 61.96875 70.703125 67.390625 67.28125 
L 67.390625 56.78125 
Q 61.921875 61.421875 55.765625 63.765625 
Q 49.609375 66.109375 42.828125 66.109375 
Q 29.4375 66.109375 22.71875 58.640625 
Q 16.015625 51.171875 16.015625 36.375 
Q 16.015625 21.625 22.71875 14.15625 
Q 29.4375 6.6875 42.828125 6.6875 
Q 48.046875 6.6875 52.140625 7.59375 
Q 56.25 8.5 59.515625 10.40625 
z
" id="DejaVuSans-71"/>
      <path d="M 56.203125 29.59375 
L 56.203125 25.203125 
L 14.890625 25.203125 
Q 15.484375 15.921875 20.484375 11.0625 
Q 25.484375 6.203125 34.421875 6.203125 
Q 39.59375 6.203125 44.453125 7.46875 
Q 49.3125 8.734375 54.109375 11.28125 
L 54.109375 2.78125 
Q 49.265625 0.734375 44.1875 -0.34375 
Q 39.109375 -1.421875 33.890625 -1.421875 
Q 20.796875 -1.421875 13.15625 6.1875 
Q 5.515625 13.8125 5.515625 26.8125 
Q 5.515625 40.234375 12.765625 48.109375 
Q 20.015625 56 32.328125 56 
Q 43.359375 56 49.78125 48.890625 
Q 56.203125 41.796875 56.203125 29.59375 
z
M 47.21875 32.234375 
Q 47.125 39.59375 43.09375 43.984375 
Q 39.0625 48.390625 32.421875 48.390625 
Q 24.90625 48.390625 20.390625 44.140625 
Q 15.875 39.890625 15.1875 32.171875 
z
" id="DejaVuSans-101"/>
      <path d="M 54.890625 33.015625 
L 54.890625 0 
L 45.90625 0 
L 45.90625 32.71875 
Q 45.90625 40.484375 42.875 44.328125 
Q 39.84375 48.1875 33.796875 48.1875 
Q 26.515625 48.1875 22.3125 43.546875 
Q 18.109375 38.921875 18.109375 30.90625 
L 18.109375 0 
L 9.078125 0 
L 9.078125 54.6875 
L 18.109375 54.6875 
L 18.109375 46.1875 
Q 21.34375 51.125 25.703125 53.5625 
Q 30.078125 56 35.796875 56 
Q 45.21875 56 50.046875 50.171875 
Q 54.890625 44.34375 54.890625 33.015625 
z
" id="DejaVuSans-110"/>
      <path d="M 41.109375 46.296875 
Q 39.59375 47.171875 37.8125 47.578125 
Q 36.03125 48 33.890625 48 
Q 26.265625 48 22.1875 43.046875 
Q 18.109375 38.09375 18.109375 28.8125 
L 18.109375 0 
L 9.078125 0 
L 9.078125 54.6875 
L 18.109375 54.6875 
L 18.109375 46.1875 
Q 20.953125 51.171875 25.484375 53.578125 
Q 30.03125 56 36.53125 56 
Q 37.453125 56 38.578125 55.875 
Q 39.703125 55.765625 41.0625 55.515625 
z
" id="DejaVuSans-114"/>
      <path d="M 34.28125 27.484375 
Q 23.390625 27.484375 19.1875 25 
Q 14.984375 22.515625 14.984375 16.5 
Q 14.984375 11.71875 18.140625 8.90625 
Q 21.296875 6.109375 26.703125 6.109375 
Q 34.1875 6.109375 38.703125 11.40625 
Q 43.21875 16.703125 43.21875 25.484375 
L 43.21875 27.484375 
z
M 52.203125 31.203125 
L 52.203125 0 
L 43.21875 0 
L 43.21875 8.296875 
Q 40.140625 3.328125 35.546875 0.953125 
Q 30.953125 -1.421875 24.3125 -1.421875 
Q 15.921875 -1.421875 10.953125 3.296875 
Q 6 8.015625 6 15.921875 
Q 6 25.140625 12.171875 29.828125 
Q 18.359375 34.515625 30.609375 34.515625 
L 43.21875 34.515625 
L 43.21875 35.40625 
Q 43.21875 41.609375 39.140625 45 
Q 35.0625 48.390625 27.6875 48.390625 
Q 23 48.390625 18.546875 47.265625 
Q 14.109375 46.140625 10.015625 43.890625 
L 10.015625 52.203125 
Q 14.9375 54.109375 19.578125 55.046875 
Q 24.21875 56 28.609375 56 
Q 40.484375 56 46.34375 49.84375 
Q 52.203125 43.703125 52.203125 31.203125 
z
" id="DejaVuSans-97"/>
      <path d="M 18.3125 70.21875 
L 18.3125 54.6875 
L 36.8125 54.6875 
L 36.8125 47.703125 
L 18.3125 47.703125 
L 18.3125 18.015625 
Q 18.3125 11.328125 20.140625 9.421875 
Q 21.96875 7.515625 27.59375 7.515625 
L 36.8125 7.515625 
L 36.8125 0 
L 27.59375 0 
Q 17.1875 0 13.234375 3.875 
Q 9.28125 7.765625 9.28125 18.015625 
L 9.28125 47.703125 
L 2.6875 47.703125 
L 2.6875 54.6875 
L 9.28125 54.6875 
L 9.28125 70.21875 
z
" id="DejaVuSans-116"/>
      <path d="M 9.421875 54.6875 
L 18.40625 54.6875 
L 18.40625 0 
L 9.421875 0 
z
M 9.421875 75.984375 
L 18.40625 75.984375 
L 18.40625 64.59375 
L 9.421875 64.59375 
z
" id="DejaVuSans-105"/>
      <path d="M 30.609375 48.390625 
Q 23.390625 48.390625 19.1875 42.75 
Q 14.984375 37.109375 14.984375 27.296875 
Q 14.984375 17.484375 19.15625 11.84375 
Q 23.34375 6.203125 30.609375 6.203125 
Q 37.796875 6.203125 41.984375 11.859375 
Q 46.1875 17.53125 46.1875 27.296875 
Q 46.1875 37.015625 41.984375 42.703125 
Q 37.796875 48.390625 30.609375 48.390625 
z
M 30.609375 56 
Q 42.328125 56 49.015625 48.375 
Q 55.71875 40.765625 55.71875 27.296875 
Q 55.71875 13.875 49.015625 6.21875 
Q 42.328125 -1.421875 30.609375 -1.421875 
Q 18.84375 -1.421875 12.171875 6.21875 
Q 5.515625 13.875 5.515625 27.296875 
Q 5.515625 40.765625 12.171875 48.375 
Q 18.84375 56 30.609375 56 
z
" id="DejaVuSans-111"/>
      <path d="M 44.28125 53.078125 
L 44.28125 44.578125 
Q 40.484375 46.53125 36.375 47.5 
Q 32.28125 48.484375 27.875 48.484375 
Q 21.1875 48.484375 17.84375 46.4375 
Q 14.5 44.390625 14.5 40.28125 
Q 14.5 37.15625 16.890625 35.375 
Q 19.28125 33.59375 26.515625 31.984375 
L 29.59375 31.296875 
Q 39.15625 29.25 43.1875 25.515625 
Q 47.21875 21.78125 47.21875 15.09375 
Q 47.21875 7.46875 41.1875 3.015625 
Q 35.15625 -1.421875 24.609375 -1.421875 
Q 20.21875 -1.421875 15.453125 -0.5625 
Q 10.6875 0.296875 5.421875 2 
L 5.421875 11.28125 
Q 10.40625 8.6875 15.234375 7.390625 
Q 20.0625 6.109375 24.8125 6.109375 
Q 31.15625 6.109375 34.5625 8.28125 
Q 37.984375 10.453125 37.984375 14.40625 
Q 37.984375 18.0625 35.515625 20.015625 
Q 33.0625 21.96875 24.703125 23.78125 
L 21.578125 24.515625 
Q 13.234375 26.265625 9.515625 29.90625 
Q 5.8125 33.546875 5.8125 39.890625 
Q 5.8125 47.609375 11.28125 51.796875 
Q 16.75 56 26.8125 56 
Q 31.78125 56 36.171875 55.265625 
Q 40.578125 54.546875 44.28125 53.078125 
z
" id="DejaVuSans-115"/>
     </defs>
     <g transform="translate(190.902344 280.276563)scale(0.1 -0.1)">
      <use xlink:href="#DejaVuSans-71"/>
      <use x="77.490234" xlink:href="#DejaVuSans-101"/>
      <use x="139.013672" xlink:href="#DejaVuSans-110"/>
      <use x="202.392578" xlink:href="#DejaVuSans-101"/>
      <use x="263.916016" xlink:href="#DejaVuSans-114"/>
      <use x="305.029297" xlink:href="#DejaVuSans-97"/>
      <use x="366.308594" xlink:href="#DejaVuSans-116"/>
      <use x="405.517578" xlink:href="#DejaVuSans-105"/>
      <use x="433.300781" xlink:href="#DejaVuSans-111"/>
      <use x="494.482422" xlink:href="#DejaVuSans-110"/>
      <use x="557.861328" xlink:href="#DejaVuSans-115"/>
     </g>
    </g>
   </g>
   <g id="matplotlib.axis_2">
    <g id="ytick_1">
     <g id="line2d_19">
      <path clip-path="url(#p33bfd594d9)" d="M 54 239.710685 
L 388.8 239.710685 
" style="fill:none;stroke:#b0b0b0;stroke-linecap:square;stroke-width:0.8;"/>
     </g>
     <g id="line2d_20">
      <defs>
       <path d="M 0 0 
L -3.5 0 
" id="m8385093926" style="stroke:#000000;stroke-width:0.8;"/>
      </defs>
      <g>
       <use style="stroke:#000000;stroke-width:0.8;" x="54" xlink:href="#m8385093926" y="239.710685"/>
      </g>
     </g>
     <g id="text_11">
      <!-- −1500 -->
      <defs>
       <path d="M 10.59375 35.5 
L 73.1875 35.5 
L 73.1875 27.203125 
L 10.59375 27.203125 
z
" id="DejaVuSans-8722"/>
       <path d="M 10.796875 72.90625 
L 49.515625 72.90625 
L 49.515625 64.59375 
L 19.828125 64.59375 
L 19.828125 46.734375 
Q 21.96875 47.46875 24.109375 47.828125 
Q 26.265625 48.1875 28.421875 48.1875 
Q 40.625 48.1875 47.75 41.5 
Q 54.890625 34.8125 54.890625 23.390625 
Q 54.890625 11.625 47.5625 5.09375 
Q 40.234375 -1.421875 26.90625 -1.421875 
Q 22.3125 -1.421875 17.546875 -0.640625 
Q 12.796875 0.140625 7.71875 1.703125 
L 7.71875 11.625 
Q 12.109375 9.234375 16.796875 8.0625 
Q 21.484375 6.890625 26.703125 6.890625 
Q 35.15625 6.890625 40.078125 11.328125 
Q 45.015625 15.765625 45.015625 23.390625 
Q 45.015625 31 40.078125 35.4375 
Q 35.15625 39.890625 26.703125 39.890625 
Q 22.75 39.890625 18.8125 39.015625 
Q 14.890625 38.140625 10.796875 36.28125 
z
" id="DejaVuSans-53"/>
      </defs>
      <g transform="translate(13.170313 243.509904)scale(0.1 -0.1)">
       <use xlink:href="#DejaVuSans-8722"/>
       <use x="83.789062" xlink:href="#DejaVuSans-49"/>
       <use x="147.412109" xlink:href="#DejaVuSans-53"/>
       <use x="211.035156" xlink:href="#DejaVuSans-48"/>
       <use x="274.658203" xlink:href="#DejaVuSans-48"/>
      </g>
     </g>
    </g>
    <g id="ytick_2">
     <g id="line2d_21">
      <path clip-path="url(#p33bfd594d9)" d="M 54 208.637793 
L 388.8 208.637793 
" style="fill:none;stroke:#b0b0b0;stroke-linecap:square;stroke-width:0.8;"/>
     </g>
     <g id="line2d_22">
      <g>
       <use style="stroke:#000000;stroke-width:0.8;" x="54" xlink:href="#m8385093926" y="208.637793"/>
      </g>
     </g>
     <g id="text_12">
      <!-- −1000 -->
      <g transform="translate(13.170313 212.437012)scale(0.1 -0.1)">
       <use xlink:href="#DejaVuSans-8722"/>
       <use x="83.789062" xlink:href="#DejaVuSans-49"/>
       <use x="147.412109" xlink:href="#DejaVuSans-48"/>
       <use x="211.035156" xlink:href="#DejaVuSans-48"/>
       <use x="274.658203" xlink:href="#DejaVuSans-48"/>
      </g>
     </g>
    </g>
    <g id="ytick_3">
     <g id="line2d_23">
      <path clip-path="url(#p33bfd594d9)" d="M 54 177.564901 
L 388.8 177.564901 
" style="fill:none;stroke:#b0b0b0;stroke-linecap:square;stroke-width:0.8;"/>
     </g>
     <g id="line2d_24">
      <g>
       <use style="stroke:#000000;stroke-width:0.8;" x="54" xlink:href="#m8385093926" y="177.564901"/>
      </g>
     </g>
     <g id="text_13">
      <!-- −500 -->
      <g transform="translate(19.532812 181.36412)scale(0.1 -0.1)">
       <use xlink:href="#DejaVuSans-8722"/>
       <use x="83.789062" xlink:href="#DejaVuSans-53"/>
       <use x="147.412109" xlink:href="#DejaVuSans-48"/>
       <use x="211.035156" xlink:href="#DejaVuSans-48"/>
      </g>
     </g>
    </g>
    <g id="ytick_4">
     <g id="line2d_25">
      <path clip-path="url(#p33bfd594d9)" d="M 54 146.492009 
L 388.8 146.492009 
" style="fill:none;stroke:#b0b0b0;stroke-linecap:square;stroke-width:0.8;"/>
     </g>
     <g id="line2d_26">
      <g>
       <use style="stroke:#000000;stroke-width:0.8;" x="54" xlink:href="#m8385093926" y="146.492009"/>
      </g>
     </g>
     <g id="text_14">
      <!-- 0 -->
      <g transform="translate(40.6375 150.291228)scale(0.1 -0.1)">
       <use xlink:href="#DejaVuSans-48"/>
      </g>
     </g>
    </g>
    <g id="ytick_5">
     <g id="line2d_27">
      <path clip-path="url(#p33bfd594d9)" d="M 54 115.419117 
L 388.8 115.419117 
" style="fill:none;stroke:#b0b0b0;stroke-linecap:square;stroke-width:0.8;"/>
     </g>
     <g id="line2d_28">
      <g>
       <use style="stroke:#000000;stroke-width:0.8;" x="54" xlink:href="#m8385093926" y="115.419117"/>
      </g>
     </g>
     <g id="text_15">
      <!-- 500 -->
      <g transform="translate(27.9125 119.218336)scale(0.1 -0.1)">
       <use xlink:href="#DejaVuSans-53"/>
       <use x="63.623047" xlink:href="#DejaVuSans-48"/>
       <use x="127.246094" xlink:href="#DejaVuSans-48"/>
      </g>
     </g>
    </g>
    <g id="ytick_6">
     <g id="line2d_29">
      <path clip-path="url(#p33bfd594d9)" d="M 54 84.346225 
L 388.8 84.346225 
" style="fill:none;stroke:#b0b0b0;stroke-linecap:square;stroke-width:0.8;"/>
     </g>
     <g id="line2d_30">
      <g>
       <use style="stroke:#000000;stroke-width:0.8;" x="54" xlink:href="#m8385093926" y="84.346225"/>
      </g>
     </g>
     <g id="text_16">
      <!-- 1000 -->
      <g transform="translate(21.55 88.145444)scale(0.1 -0.1)">
       <use xlink:href="#DejaVuSans-49"/>
       <use x="63.623047" xlink:href="#DejaVuSans-48"/>
       <use x="127.246094" xlink:href="#DejaVuSans-48"/>
       <use x="190.869141" xlink:href="#DejaVuSans-48"/>
      </g>
     </g>
    </g>
    <g id="ytick_7">
     <g id="line2d_31">
      <path clip-path="url(#p33bfd594d9)" d="M 54 53.273333 
L 388.8 53.273333 
" style="fill:none;stroke:#b0b0b0;stroke-linecap:square;stroke-width:0.8;"/>
     </g>
     <g id="line2d_32">
      <g>
       <use style="stroke:#000000;stroke-width:0.8;" x="54" xlink:href="#m8385093926" y="53.273333"/>
      </g>
     </g>
     <g id="text_17">
      <!-- 1500 -->
      <g transform="translate(21.55 57.072552)scale(0.1 -0.1)">
       <use xlink:href="#DejaVuSans-49"/>
       <use x="63.623047" xlink:href="#DejaVuSans-53"/>
       <use x="127.246094" xlink:href="#DejaVuSans-48"/>
       <use x="190.869141" xlink:href="#DejaVuSans-48"/>
      </g>
     </g>
    </g>
    <g id="text_18">
     <!-- Fitness -->
     <defs>
      <path d="M 9.8125 72.90625 
L 51.703125 72.90625 
L 51.703125 64.59375 
L 19.671875 64.59375 
L 19.671875 43.109375 
L 48.578125 43.109375 
L 48.578125 34.8125 
L 19.671875 34.8125 
L 19.671875 0 
L 9.8125 0 
z
" id="DejaVuSans-70"/>
     </defs>
     <g transform="translate(7.090625 160.954219)rotate(-90)scale(0.1 -0.1)">
      <use xlink:href="#DejaVuSans-70"/>
      <use x="57.410156" xlink:href="#DejaVuSans-105"/>
      <use x="85.193359" xlink:href="#DejaVuSans-116"/>
      <use x="124.402344" xlink:href="#DejaVuSans-110"/>
      <use x="187.78125" xlink:href="#DejaVuSans-101"/>
      <use x="249.304688" xlink:href="#DejaVuSans-115"/>
      <use x="301.404297" xlink:href="#DejaVuSans-115"/>
     </g>
    </g>
   </g>
   <g id="line2d_33">
    <path clip-path="url(#p33bfd594d9)" d="M 69.218182 142.261602 
L 71.085443 140.323491 
L 72.952705 141.573393 
L 74.819967 146.008006 
L 76.687228 136.300376 
L 78.55449 136.788031 
L 80.421751 136.190409 
L 82.289013 136.463362 
L 84.156274 135.865216 
L 86.023536 134.642279 
L 87.890798 135.441921 
L 89.758059 135.953499 
L 91.625321 133.660375 
L 93.492582 135.457992 
L 95.359844 134.220865 
L 97.227105 133.216871 
L 99.094367 133.850102 
L 100.961629 135.450521 
L 102.82889 134.971899 
L 104.696152 134.31186 
L 106.563413 138.346077 
L 108.430675 133.885205 
L 110.297936 133.030424 
L 112.165198 133.181462 
L 114.03246 133.847294 
L 115.899721 135.072239 
L 117.766983 133.992015 
L 119.634244 133.944793 
L 121.501506 134.304114 
L 123.368767 133.204579 
L 125.236029 134.238985 
L 127.103291 134.094485 
L 128.970552 134.174952 
L 130.837814 133.553994 
L 132.705075 133.387306 
L 134.572337 134.124268 
L 136.439598 134.343787 
L 138.30686 133.135752 
L 140.174122 133.714248 
L 142.041383 133.700201 
L 143.908645 133.080992 
L 145.775906 134.762684 
L 147.643168 133.232754 
L 149.510429 143.28 
L 151.377691 133.676534 
L 153.244953 133.918377 
L 155.112214 133.198102 
L 156.979476 133.220525 
L 158.846737 132.37333 
L 160.713999 133.857519 
L 162.58126 133.870638 
L 164.448522 133.649099 
L 166.315784 138.343289 
L 168.183045 133.164246 
L 170.050307 133.400744 
L 171.917568 132.357174 
L 173.78483 133.010471 
L 175.652091 133.195887 
L 177.519353 134.304492 
L 179.386615 132.98439 
L 183.121138 133.332522 
L 184.988399 133.795478 
L 186.855661 133.758996 
L 188.722922 132.59369 
L 190.590184 132.85786 
L 192.457446 133.940521 
L 194.324707 133.151707 
L 196.191969 132.578258 
L 198.05923 133.643421 
L 199.926492 132.995169 
L 201.793753 134.977007 
L 203.661015 134.357683 
L 205.528277 134.378152 
L 207.395538 134.825893 
L 209.2628 134.845955 
L 211.130061 133.204077 
L 212.997323 134.608363 
L 214.864584 133.62374 
L 216.731846 135.380348 
L 218.599108 133.767933 
L 220.466369 134.032593 
L 222.333631 134.917536 
L 224.200892 134.272132 
L 226.068154 134.049363 
L 229.802677 134.936536 
L 233.5372 134.154251 
L 235.404462 134.013941 
L 237.271723 135.335603 
L 239.138985 133.787805 
L 241.006247 134.211283 
L 242.873508 134.023828 
L 244.74077 133.446521 
L 246.608031 133.68249 
L 248.475293 134.163953 
L 250.342554 134.27627 
L 252.209816 133.841445 
L 254.077078 133.786211 
L 255.944339 134.277142 
L 257.811601 133.483797 
L 259.678862 133.801753 
L 261.546124 133.921083 
L 263.413385 133.602958 
L 265.280647 133.139921 
L 267.147909 133.395931 
L 269.01517 133.24149 
L 270.882432 133.504496 
L 272.749693 134.021738 
L 274.616955 133.761419 
L 276.484216 134.495225 
L 278.351478 133.174644 
L 280.21874 133.617458 
L 282.086001 133.454698 
L 283.953263 133.480577 
L 285.820524 134.111135 
L 287.687786 133.896586 
L 289.555047 133.377772 
L 291.422309 133.373495 
L 293.289571 133.81024 
L 295.156832 134.013516 
L 297.024094 134.536156 
L 298.891355 133.124094 
L 300.758617 133.634094 
L 302.625878 133.620098 
L 304.49314 132.641058 
L 306.360402 132.932778 
L 308.227663 132.892245 
L 310.094925 133.203437 
L 311.962186 133.70962 
L 315.696709 133.199697 
L 317.563971 133.786979 
L 319.431233 133.228931 
L 321.298494 133.537445 
L 323.165756 133.35848 
L 325.033017 133.594821 
L 326.900279 133.661878 
L 328.76754 133.443856 
L 330.634802 139.4524 
L 332.502064 133.859943 
L 334.369325 137.934419 
L 336.236587 133.443067 
L 338.103848 133.471433 
L 339.97111 133.887186 
L 341.838371 133.295028 
L 343.705633 133.727739 
L 345.572895 133.695317 
L 347.440156 132.913936 
L 349.307418 133.724771 
L 351.174679 134.082904 
L 353.041941 132.88596 
L 354.909202 133.275798 
L 356.776464 132.420941 
L 358.643726 131.886278 
L 360.510987 132.783339 
L 362.378249 132.432945 
L 364.24551 133.11899 
L 366.112772 135.618814 
L 367.980033 133.941137 
L 369.847295 133.735057 
L 373.581818 133.641825 
L 373.581818 133.641825 
" style="fill:none;stroke:#0000ff;stroke-linecap:square;stroke-width:1.5;"/>
   </g>
   <g id="line2d_34">
    <path clip-path="url(#p33bfd594d9)" d="M 69.218182 157.109954 
L 71.085443 154.817226 
L 72.952705 197.089454 
L 74.819967 227.388891 
L 76.687228 147.170306 
L 78.55449 149.59592 
L 80.421751 146.06669 
L 82.289013 146.425594 
L 84.156274 144.915399 
L 86.023536 138.840468 
L 87.890798 146.475757 
L 89.758059 149.813336 
L 91.625321 138.954764 
L 93.492582 146.301921 
L 95.359844 140.513197 
L 97.227105 137.553366 
L 99.094367 137.850919 
L 100.961629 143.777261 
L 102.82889 147.555416 
L 104.696152 142.647908 
L 106.563413 176.713047 
L 108.430675 137.381961 
L 110.297936 138.098039 
L 112.165198 137.472854 
L 114.03246 137.67248 
L 115.899721 148.268747 
L 117.766983 141.660729 
L 119.634244 138.818551 
L 121.501506 141.050229 
L 123.368767 137.005745 
L 125.236029 137.935577 
L 127.103291 140.117572 
L 128.970552 144.036054 
L 130.837814 136.52333 
L 132.705075 137.685217 
L 134.572337 140.809614 
L 136.439598 146.129119 
L 138.30686 136.988657 
L 140.174122 137.220871 
L 142.041383 138.461444 
L 143.908645 137.079915 
L 145.775906 150.732907 
L 147.643168 137.332003 
L 149.510429 242.116364 
L 151.377691 137.188654 
L 153.244953 137.533676 
L 155.112214 137.296555 
L 156.979476 136.825903 
L 158.846737 136.554631 
L 160.713999 137.201598 
L 162.58126 139.002197 
L 164.448522 137.997767 
L 166.315784 193.101772 
L 168.183045 136.754264 
L 170.050307 137.084529 
L 171.917568 136.524873 
L 173.78483 137.451272 
L 175.652091 136.424685 
L 177.519353 148.691683 
L 179.386615 136.962722 
L 181.253876 137.840767 
L 183.121138 137.050734 
L 184.988399 139.71106 
L 186.855661 139.385557 
L 188.722922 136.869512 
L 190.590184 137.030868 
L 192.457446 138.942588 
L 194.324707 137.075474 
L 196.191969 137.10535 
L 198.05923 137.790982 
L 199.926492 136.405158 
L 201.793753 145.672109 
L 203.661015 144.210973 
L 205.528277 145.343406 
L 207.395538 148.606734 
L 209.2628 150.323419 
L 211.130061 138.399522 
L 212.997323 146.283494 
L 214.864584 140.432007 
L 216.731846 147.360225 
L 218.599108 144.792714 
L 222.333631 145.863087 
L 224.200892 146.026795 
L 226.068154 144.550843 
L 227.935416 145.007921 
L 229.802677 146.145967 
L 231.669939 144.240367 
L 233.5372 139.986024 
L 235.404462 139.50083 
L 237.271723 146.959915 
L 239.138985 139.228761 
L 241.006247 140.595078 
L 242.873508 138.058611 
L 244.74077 137.826487 
L 246.608031 139.536501 
L 248.475293 141.017394 
L 250.342554 140.727504 
L 252.209816 142.696362 
L 254.077078 140.149041 
L 255.944339 140.276571 
L 257.811601 139.895639 
L 259.678862 140.095368 
L 261.546124 140.627972 
L 263.413385 140.076169 
L 265.280647 139.348371 
L 267.147909 139.885343 
L 269.01517 140.81076 
L 270.882432 140.845616 
L 272.749693 141.473373 
L 274.616955 141.381902 
L 276.484216 141.4064 
L 278.351478 140.940813 
L 280.21874 141.164881 
L 282.086001 141.102051 
L 283.953263 141.171359 
L 285.820524 141.558964 
L 287.687786 141.405773 
L 289.555047 141.097885 
L 291.422309 141.332127 
L 293.289571 141.000545 
L 295.156832 141.836543 
L 297.024094 141.758279 
L 298.891355 140.498908 
L 300.758617 144.110953 
L 302.625878 140.355348 
L 304.49314 137.307711 
L 306.360402 137.381712 
L 308.227663 137.275962 
L 310.094925 136.946102 
L 311.962186 140.317117 
L 313.829448 138.118767 
L 315.696709 137.549991 
L 317.563971 138.400439 
L 319.431233 137.547642 
L 321.298494 137.913229 
L 323.165756 137.970395 
L 325.033017 138.406708 
L 326.900279 138.089092 
L 328.76754 138.104807 
L 330.634802 199.039949 
L 332.502064 137.835523 
L 334.369325 183.6297 
L 336.236587 137.828735 
L 338.103848 142.709149 
L 339.97111 142.067238 
L 341.838371 137.761256 
L 343.705633 138.423256 
L 345.572895 138.075524 
L 347.440156 139.800927 
L 349.307418 139.071846 
L 351.174679 139.363111 
L 353.041941 137.281001 
L 356.776464 136.991761 
L 358.643726 137.77624 
L 360.510987 137.965035 
L 362.378249 137.307881 
L 364.24551 137.776212 
L 366.112772 151.712526 
L 367.980033 141.551655 
L 369.847295 137.936313 
L 371.714557 138.560213 
L 373.581818 138.123683 
L 373.581818 138.123683 
" style="fill:none;stroke:#008000;stroke-dasharray:9.6,2.4,1.5,2.4;stroke-dashoffset:0;stroke-width:1.5;"/>
   </g>
   <g id="line2d_35">
    <path clip-path="url(#p33bfd594d9)" d="M 69.218182 127.41325 
L 71.085443 125.829756 
L 72.952705 86.057332 
L 74.819967 64.62712 
L 76.687228 125.430445 
L 78.55449 123.980142 
L 80.421751 126.314127 
L 82.289013 126.50113 
L 84.156274 126.815033 
L 86.023536 130.44409 
L 87.890798 124.408086 
L 89.758059 122.093661 
L 91.625321 128.365985 
L 93.492582 124.614062 
L 95.359844 127.928534 
L 99.094367 129.849285 
L 100.961629 127.123781 
L 102.82889 122.388382 
L 104.696152 125.975812 
L 106.563413 99.979108 
L 108.430675 130.388449 
L 110.297936 127.962809 
L 112.165198 128.890071 
L 114.03246 130.022107 
L 115.899721 121.875732 
L 117.766983 126.3233 
L 119.634244 129.071035 
L 121.501506 127.558 
L 123.368767 129.403412 
L 125.236029 130.542394 
L 127.103291 128.071399 
L 128.970552 124.313851 
L 130.837814 130.584658 
L 132.705075 129.089395 
L 134.572337 127.438922 
L 136.439598 122.558454 
L 138.30686 129.282847 
L 140.174122 130.207626 
L 142.041383 128.938958 
L 143.908645 129.082068 
L 145.775906 118.792462 
L 147.643168 129.133505 
L 149.510429 44.443636 
L 151.377691 130.164414 
L 153.244953 130.303078 
L 155.112214 129.099649 
L 156.979476 129.615148 
L 158.846737 128.192029 
L 160.713999 130.51344 
L 162.58126 128.73908 
L 164.448522 129.30043 
L 166.315784 83.584806 
L 168.183045 129.574228 
L 170.050307 129.716959 
L 171.917568 128.189475 
L 173.78483 128.56967 
L 175.652091 129.967089 
L 177.519353 119.9173 
L 179.386615 129.006057 
L 181.253876 128.48043 
L 183.121138 129.61431 
L 184.988399 127.879896 
L 194.324707 129.227941 
L 196.191969 128.051167 
L 198.05923 129.495861 
L 199.926492 129.585181 
L 201.793753 124.281905 
L 203.661015 124.504393 
L 205.528277 123.412897 
L 207.395538 121.045053 
L 209.2628 119.368491 
L 211.130061 128.008632 
L 212.997323 122.933232 
L 214.864584 126.815473 
L 216.731846 123.400471 
L 218.599108 122.743152 
L 220.466369 122.770443 
L 222.333631 123.971986 
L 224.200892 122.517469 
L 226.068154 123.547883 
L 227.935416 123.949754 
L 229.802677 123.727104 
L 231.669939 124.740889 
L 233.5372 128.322478 
L 235.404462 128.527052 
L 237.271723 123.711291 
L 239.138985 128.34685 
L 241.006247 127.827489 
L 242.873508 129.989046 
L 244.74077 129.066555 
L 246.608031 127.828479 
L 248.475293 127.310512 
L 250.342554 127.825035 
L 252.209816 124.986528 
L 254.077078 127.423381 
L 255.944339 128.277714 
L 257.811601 127.071956 
L 259.678862 127.508137 
L 261.546124 127.214194 
L 263.413385 127.129748 
L 265.280647 126.931472 
L 267.147909 126.906519 
L 269.01517 125.672221 
L 272.749693 126.570103 
L 274.616955 126.140937 
L 276.484216 127.584051 
L 278.351478 125.408474 
L 280.21874 126.070034 
L 282.086001 125.807344 
L 283.953263 125.789794 
L 285.820524 126.663305 
L 287.687786 126.387399 
L 289.555047 125.657658 
L 291.422309 125.414863 
L 293.289571 126.619936 
L 295.156832 126.190488 
L 297.024094 127.314034 
L 298.891355 125.749281 
L 300.758617 123.157235 
L 302.625878 126.884847 
L 304.49314 127.974406 
L 306.360402 128.483844 
L 308.227663 128.508527 
L 310.094925 129.460771 
L 311.962186 127.102124 
L 313.829448 128.876494 
L 315.696709 128.849402 
L 317.563971 129.173519 
L 319.431233 128.910219 
L 321.298494 129.16166 
L 323.165756 128.746566 
L 325.033017 128.782933 
L 326.900279 129.234664 
L 328.76754 128.782905 
L 330.634802 79.86485 
L 332.502064 129.884364 
L 334.369325 92.239138 
L 336.236587 129.0574 
L 338.103848 124.233716 
L 339.97111 125.707135 
L 341.838371 128.828801 
L 345.572895 129.31511 
L 347.440156 126.026944 
L 349.307418 128.377696 
L 351.174679 128.802697 
L 353.041941 128.490919 
L 354.909202 129.375084 
L 356.776464 127.850121 
L 358.643726 125.996316 
L 360.510987 127.601642 
L 362.378249 127.558009 
L 364.24551 128.461767 
L 366.112772 119.525102 
L 367.980033 126.330619 
L 369.847295 129.533801 
L 371.714557 128.743186 
L 373.581818 129.159967 
L 373.581818 129.159967 
" style="fill:none;stroke:#008000;stroke-dasharray:9.6,2.4,1.5,2.4;stroke-dashoffset:0;stroke-width:1.5;"/>
   </g>
   <g id="line2d_36">
    <path clip-path="url(#p33bfd594d9)" d="M 69.218182 122.374124 
L 71.085443 120.206868 
L 72.952705 122.240888 
L 74.819967 123.23489 
L 76.687228 122.928735 
L 78.55449 121.061787 
L 80.421751 122.799612 
L 82.289013 119.142352 
L 84.156274 121.541877 
L 86.023536 127.021725 
L 87.890798 116.908073 
L 89.758059 125.365718 
L 91.625321 121.951213 
L 93.492582 115.695897 
L 95.359844 118.194839 
L 97.227105 114.555561 
L 99.094367 117.93338 
L 100.961629 123.657699 
L 102.82889 120.724412 
L 104.696152 123.037779 
L 106.563413 119.327048 
L 108.430675 124.227658 
L 110.297936 113.376396 
L 112.165198 121.544545 
L 114.03246 123.07731 
L 115.899721 115.686584 
L 117.766983 118.677293 
L 119.634244 123.89625 
L 121.501506 119.765749 
L 123.368767 121.376474 
L 125.236029 117.652703 
L 127.103291 114.579599 
L 128.970552 118.807749 
L 130.837814 122.344754 
L 132.705075 114.268344 
L 134.572337 123.657964 
L 136.439598 116.568353 
L 138.30686 120.563581 
L 140.174122 119.777006 
L 142.041383 121.048796 
L 143.908645 120.587222 
L 145.775906 123.958591 
L 147.643168 121.688909 
L 149.510429 123.038691 
L 151.377691 123.914629 
L 153.244953 123.930672 
L 155.112214 119.960945 
L 156.979476 123.487795 
L 158.846737 120.31926 
L 160.713999 125.520943 
L 162.58126 124.596783 
L 164.448522 120.18356 
L 166.315784 118.89091 
L 168.183045 121.526847 
L 170.050307 120.391211 
L 171.917568 117.724301 
L 173.78483 117.745331 
L 175.652091 126.402624 
L 177.519353 121.032494 
L 179.386615 119.868983 
L 181.253876 112.0602 
L 183.121138 122.894291 
L 184.988399 123.254633 
L 186.855661 117.172834 
L 188.722922 119.613023 
L 190.590184 118.344191 
L 192.457446 125.250064 
L 194.324707 118.760858 
L 196.191969 118.00558 
L 198.05923 120.4951 
L 199.926492 119.194323 
L 201.793753 120.105041 
L 203.661015 120.230718 
L 205.528277 101.262795 
L 207.395538 116.429743 
L 209.2628 120.398399 
L 211.130061 118.76665 
L 214.864584 115.911191 
L 216.731846 122.803075 
L 220.466369 114.662648 
L 222.333631 117.891142 
L 224.200892 117.523588 
L 226.068154 120.933303 
L 227.935416 121.606501 
L 229.802677 112.816045 
L 231.669939 116.218878 
L 233.5372 115.984287 
L 235.404462 120.757643 
L 237.271723 119.064608 
L 239.138985 110.807789 
L 241.006247 114.815762 
L 242.873508 120.503675 
L 244.74077 115.055816 
L 246.608031 116.835819 
L 250.342554 119.449583 
L 252.209816 117.396515 
L 254.077078 122.877761 
L 255.944339 116.720659 
L 257.811601 117.475799 
L 259.678862 121.571042 
L 261.546124 115.048597 
L 263.413385 117.604821 
L 265.280647 119.847641 
L 267.147909 114.939529 
L 269.01517 114.646539 
L 270.882432 117.093038 
L 272.749693 118.893257 
L 274.616955 117.543312 
L 276.484216 122.156588 
L 278.351478 116.035313 
L 280.21874 119.150168 
L 282.086001 113.194934 
L 283.953263 111.115835 
L 285.820524 118.394203 
L 287.687786 117.33362 
L 289.555047 118.851018 
L 291.422309 115.555239 
L 293.289571 117.13891 
L 295.156832 108.790756 
L 297.024094 119.902734 
L 298.891355 119.563407 
L 300.758617 120.395078 
L 302.625878 115.918294 
L 304.49314 118.68229 
L 306.360402 116.08495 
L 308.227663 118.178465 
L 310.094925 120.743324 
L 311.962186 115.141164 
L 313.829448 120.05741 
L 315.696709 123.040582 
L 317.563971 118.31855 
L 319.431233 119.836607 
L 321.298494 119.330699 
L 323.165756 118.560944 
L 325.033017 113.830684 
L 326.900279 118.157442 
L 328.76754 116.27307 
L 332.502064 122.662856 
L 334.369325 119.810849 
L 336.236587 120.340699 
L 338.103848 121.290746 
L 339.97111 117.676487 
L 341.838371 121.755398 
L 343.705633 118.276025 
L 345.572895 120.788851 
L 347.440156 84.91994 
L 349.307418 119.22471 
L 351.174679 117.070815 
L 353.041941 118.448514 
L 354.909202 122.36435 
L 356.776464 119.204542 
L 358.643726 104.975135 
L 360.510987 109.031321 
L 362.378249 116.438799 
L 364.24551 119.946329 
L 366.112772 119.744449 
L 367.980033 120.653404 
L 369.847295 118.79531 
L 371.714557 112.588768 
L 373.581818 117.415304 
L 373.581818 117.415304 
" style="fill:none;stroke:#ff0000;stroke-linecap:square;stroke-width:1.5;"/>
   </g>
   <g id="patch_3">
    <path d="M 54 252 
L 54 34.56 
" style="fill:none;stroke:#000000;stroke-linecap:square;stroke-linejoin:miter;stroke-width:0.8;"/>
   </g>
   <g id="patch_4">
    <path d="M 388.8 252 
L 388.8 34.56 
" style="fill:none;stroke:#000000;stroke-linecap:square;stroke-linejoin:miter;stroke-width:0.8;"/>
   </g>
   <g id="patch_5">
    <path d="M 54 252 
L 388.8 252 
" style="fill:none;stroke:#000000;stroke-linecap:square;stroke-linejoin:miter;stroke-width:0.8;"/>
   </g>
   <g id="patch_6">
    <path d="M 54 34.56 
L 388.8 34.56 
" style="fill:none;stroke:#000000;stroke-linecap:square;stroke-linejoin:miter;stroke-width:0.8;"/>
   </g>
   <g id="text_19">
    <!-- Population's average and best fitness -->
    <defs>
     <path d="M 19.671875 64.796875 
L 19.671875 37.40625 
L 32.078125 37.40625 
Q 38.96875 37.40625 42.71875 40.96875 
Q 46.484375 44.53125 46.484375 51.125 
Q 46.484375 57.671875 42.71875 61.234375 
Q 38.96875 64.796875 32.078125 64.796875 
z
M 9.8125 72.90625 
L 32.078125 72.90625 
Q 44.34375 72.90625 50.609375 67.359375 
Q 56.890625 61.8125 56.890625 51.125 
Q 56.890625 40.328125 50.609375 34.8125 
Q 44.34375 29.296875 32.078125 29.296875 
L 19.671875 29.296875 
L 19.671875 0 
L 9.8125 0 
z
" id="DejaVuSans-80"/>
     <path d="M 18.109375 8.203125 
L 18.109375 -20.796875 
L 9.078125 -20.796875 
L 9.078125 54.6875 
L 18.109375 54.6875 
L 18.109375 46.390625 
Q 20.953125 51.265625 25.265625 53.625 
Q 29.59375 56 35.59375 56 
Q 45.5625 56 51.78125 48.09375 
Q 58.015625 40.1875 58.015625 27.296875 
Q 58.015625 14.40625 51.78125 6.484375 
Q 45.5625 -1.421875 35.59375 -1.421875 
Q 29.59375 -1.421875 25.265625 0.953125 
Q 20.953125 3.328125 18.109375 8.203125 
z
M 48.6875 27.296875 
Q 48.6875 37.203125 44.609375 42.84375 
Q 40.53125 48.484375 33.40625 48.484375 
Q 26.265625 48.484375 22.1875 42.84375 
Q 18.109375 37.203125 18.109375 27.296875 
Q 18.109375 17.390625 22.1875 11.75 
Q 26.265625 6.109375 33.40625 6.109375 
Q 40.53125 6.109375 44.609375 11.75 
Q 48.6875 17.390625 48.6875 27.296875 
z
" id="DejaVuSans-112"/>
     <path d="M 8.5 21.578125 
L 8.5 54.6875 
L 17.484375 54.6875 
L 17.484375 21.921875 
Q 17.484375 14.15625 20.5 10.265625 
Q 23.53125 6.390625 29.59375 6.390625 
Q 36.859375 6.390625 41.078125 11.03125 
Q 45.3125 15.671875 45.3125 23.6875 
L 45.3125 54.6875 
L 54.296875 54.6875 
L 54.296875 0 
L 45.3125 0 
L 45.3125 8.40625 
Q 42.046875 3.421875 37.71875 1 
Q 33.40625 -1.421875 27.6875 -1.421875 
Q 18.265625 -1.421875 13.375 4.4375 
Q 8.5 10.296875 8.5 21.578125 
z
M 31.109375 56 
z
" id="DejaVuSans-117"/>
     <path d="M 9.421875 75.984375 
L 18.40625 75.984375 
L 18.40625 0 
L 9.421875 0 
z
" id="DejaVuSans-108"/>
     <path d="M 17.921875 72.90625 
L 17.921875 45.796875 
L 9.625 45.796875 
L 9.625 72.90625 
z
" id="DejaVuSans-39"/>
     <path id="DejaVuSans-32"/>
     <path d="M 2.984375 54.6875 
L 12.5 54.6875 
L 29.59375 8.796875 
L 46.6875 54.6875 
L 56.203125 54.6875 
L 35.6875 0 
L 23.484375 0 
z
" id="DejaVuSans-118"/>
     <path d="M 45.40625 27.984375 
Q 45.40625 37.75 41.375 43.109375 
Q 37.359375 48.484375 30.078125 48.484375 
Q 22.859375 48.484375 18.828125 43.109375 
Q 14.796875 37.75 14.796875 27.984375 
Q 14.796875 18.265625 18.828125 12.890625 
Q 22.859375 7.515625 30.078125 7.515625 
Q 37.359375 7.515625 41.375 12.890625 
Q 45.40625 18.265625 45.40625 27.984375 
z
M 54.390625 6.78125 
Q 54.390625 -7.171875 48.1875 -13.984375 
Q 42 -20.796875 29.203125 -20.796875 
Q 24.46875 -20.796875 20.265625 -20.09375 
Q 16.0625 -19.390625 12.109375 -17.921875 
L 12.109375 -9.1875 
Q 16.0625 -11.328125 19.921875 -12.34375 
Q 23.78125 -13.375 27.78125 -13.375 
Q 36.625 -13.375 41.015625 -8.765625 
Q 45.40625 -4.15625 45.40625 5.171875 
L 45.40625 9.625 
Q 42.625 4.78125 38.28125 2.390625 
Q 33.9375 0 27.875 0 
Q 17.828125 0 11.671875 7.65625 
Q 5.515625 15.328125 5.515625 27.984375 
Q 5.515625 40.671875 11.671875 48.328125 
Q 17.828125 56 27.875 56 
Q 33.9375 56 38.28125 53.609375 
Q 42.625 51.21875 45.40625 46.390625 
L 45.40625 54.6875 
L 54.390625 54.6875 
z
" id="DejaVuSans-103"/>
     <path d="M 45.40625 46.390625 
L 45.40625 75.984375 
L 54.390625 75.984375 
L 54.390625 0 
L 45.40625 0 
L 45.40625 8.203125 
Q 42.578125 3.328125 38.25 0.953125 
Q 33.9375 -1.421875 27.875 -1.421875 
Q 17.96875 -1.421875 11.734375 6.484375 
Q 5.515625 14.40625 5.515625 27.296875 
Q 5.515625 40.1875 11.734375 48.09375 
Q 17.96875 56 27.875 56 
Q 33.9375 56 38.25 53.625 
Q 42.578125 51.265625 45.40625 46.390625 
z
M 14.796875 27.296875 
Q 14.796875 17.390625 18.875 11.75 
Q 22.953125 6.109375 30.078125 6.109375 
Q 37.203125 6.109375 41.296875 11.75 
Q 45.40625 17.390625 45.40625 27.296875 
Q 45.40625 37.203125 41.296875 42.84375 
Q 37.203125 48.484375 30.078125 48.484375 
Q 22.953125 48.484375 18.875 42.84375 
Q 14.796875 37.203125 14.796875 27.296875 
z
" id="DejaVuSans-100"/>
     <path d="M 48.6875 27.296875 
Q 48.6875 37.203125 44.609375 42.84375 
Q 40.53125 48.484375 33.40625 48.484375 
Q 26.265625 48.484375 22.1875 42.84375 
Q 18.109375 37.203125 18.109375 27.296875 
Q 18.109375 17.390625 22.1875 11.75 
Q 26.265625 6.109375 33.40625 6.109375 
Q 40.53125 6.109375 44.609375 11.75 
Q 48.6875 17.390625 48.6875 27.296875 
z
M 18.109375 46.390625 
Q 20.953125 51.265625 25.265625 53.625 
Q 29.59375 56 35.59375 56 
Q 45.5625 56 51.78125 48.09375 
Q 58.015625 40.1875 58.015625 27.296875 
Q 58.015625 14.40625 51.78125 6.484375 
Q 45.5625 -1.421875 35.59375 -1.421875 
Q 29.59375 -1.421875 25.265625 0.953125 
Q 20.953125 3.328125 18.109375 8.203125 
L 18.109375 0 
L 9.078125 0 
L 9.078125 75.984375 
L 18.109375 75.984375 
z
" id="DejaVuSans-98"/>
     <path d="M 37.109375 75.984375 
L 37.109375 68.5 
L 28.515625 68.5 
Q 23.6875 68.5 21.796875 66.546875 
Q 19.921875 64.59375 19.921875 59.515625 
L 19.921875 54.6875 
L 34.71875 54.6875 
L 34.71875 47.703125 
L 19.921875 47.703125 
L 19.921875 0 
L 10.890625 0 
L 10.890625 47.703125 
L 2.296875 47.703125 
L 2.296875 54.6875 
L 10.890625 54.6875 
L 10.890625 58.5 
Q 10.890625 67.625 15.140625 71.796875 
Q 19.390625 75.984375 28.609375 75.984375 
z
" id="DejaVuSans-102"/>
    </defs>
    <g transform="translate(108.555 28.56)scale(0.12 -0.12)">
     <use xlink:href="#DejaVuSans-80"/>
     <use x="60.255859" xlink:href="#DejaVuSans-111"/>
     <use x="121.4375" xlink:href="#DejaVuSans-112"/>
     <use x="184.914062" xlink:href="#DejaVuSans-117"/>
     <use x="248.292969" xlink:href="#DejaVuSans-108"/>
     <use x="276.076172" xlink:href="#DejaVuSans-97"/>
     <use x="337.355469" xlink:href="#DejaVuSans-116"/>
     <use x="376.564453" xlink:href="#DejaVuSans-105"/>
     <use x="404.347656" xlink:href="#DejaVuSans-111"/>
     <use x="465.529297" xlink:href="#DejaVuSans-110"/>
     <use x="528.908203" xlink:href="#DejaVuSans-39"/>
     <use x="556.398438" xlink:href="#DejaVuSans-115"/>
     <use x="608.498047" xlink:href="#DejaVuSans-32"/>
     <use x="640.285156" xlink:href="#DejaVuSans-97"/>
     <use x="701.564453" xlink:href="#DejaVuSans-118"/>
     <use x="760.744141" xlink:href="#DejaVuSans-101"/>
     <use x="822.267578" xlink:href="#DejaVuSans-114"/>
     <use x="863.380859" xlink:href="#DejaVuSans-97"/>
     <use x="924.660156" xlink:href="#DejaVuSans-103"/>
     <use x="988.136719" xlink:href="#DejaVuSans-101"/>
     <use x="1049.660156" xlink:href="#DejaVuSans-32"/>
     <use x="1081.447266" xlink:href="#DejaVuSans-97"/>
     <use x="1142.726562" xlink:href="#DejaVuSans-110"/>
     <use x="1206.105469" xlink:href="#DejaVuSans-100"/>
     <use x="1269.582031" xlink:href="#DejaVuSans-32"/>
     <use x="1301.369141" xlink:href="#DejaVuSans-98"/>
     <use x="1364.845703" xlink:href="#DejaVuSans-101"/>
     <use x="1426.369141" xlink:href="#DejaVuSans-115"/>
     <use x="1478.46875" xlink:href="#DejaVuSans-116"/>
     <use x="1517.677734" xlink:href="#DejaVuSans-32"/>
     <use x="1549.464844" xlink:href="#DejaVuSans-102"/>
     <use x="1584.669922" xlink:href="#DejaVuSans-105"/>
     <use x="1612.453125" xlink:href="#DejaVuSans-116"/>
     <use x="1651.662109" xlink:href="#DejaVuSans-110"/>
     <use x="1715.041016" xlink:href="#DejaVuSans-101"/>
     <use x="1776.564453" xlink:href="#DejaVuSans-115"/>
     <use x="1828.664062" xlink:href="#DejaVuSans-115"/>
    </g>
   </g>
   <g id="legend_1">
    <g id="patch_7">
     <path d="M 184.929688 247 
L 257.870313 247 
Q 259.870313 247 259.870313 245 
L 259.870313 187.2875 
Q 259.870313 185.2875 257.870313 185.2875 
L 184.929688 185.2875 
Q 182.929688 185.2875 182.929688 187.2875 
L 182.929688 245 
Q 182.929688 247 184.929688 247 
z
" style="fill:#ffffff;opacity:0.8;stroke:#cccccc;stroke-linejoin:miter;"/>
    </g>
    <g id="line2d_37">
     <path d="M 186.929688 193.385938 
L 206.929688 193.385938 
" style="fill:none;stroke:#0000ff;stroke-linecap:square;stroke-width:1.5;"/>
    </g>
    <g id="line2d_38"/>
    <g id="text_20">
     <!-- average -->
     <g transform="translate(214.929688 196.885938)scale(0.1 -0.1)">
      <use xlink:href="#DejaVuSans-97"/>
      <use x="61.279297" xlink:href="#DejaVuSans-118"/>
      <use x="120.458984" xlink:href="#DejaVuSans-101"/>
      <use x="181.982422" xlink:href="#DejaVuSans-114"/>
      <use x="223.095703" xlink:href="#DejaVuSans-97"/>
      <use x="284.375" xlink:href="#DejaVuSans-103"/>
      <use x="347.851562" xlink:href="#DejaVuSans-101"/>
     </g>
    </g>
    <g id="line2d_39">
     <path d="M 186.929688 208.064063 
L 206.929688 208.064063 
" style="fill:none;stroke:#008000;stroke-dasharray:9.6,2.4,1.5,2.4;stroke-dashoffset:0;stroke-width:1.5;"/>
    </g>
    <g id="line2d_40"/>
    <g id="text_21">
     <!-- -1 sd -->
     <defs>
      <path d="M 4.890625 31.390625 
L 31.203125 31.390625 
L 31.203125 23.390625 
L 4.890625 23.390625 
z
" id="DejaVuSans-45"/>
     </defs>
     <g transform="translate(214.929688 211.564063)scale(0.1 -0.1)">
      <use xlink:href="#DejaVuSans-45"/>
      <use x="36.083984" xlink:href="#DejaVuSans-49"/>
      <use x="99.707031" xlink:href="#DejaVuSans-32"/>
      <use x="131.494141" xlink:href="#DejaVuSans-115"/>
      <use x="183.59375" xlink:href="#DejaVuSans-100"/>
     </g>
    </g>
    <g id="line2d_41">
     <path d="M 186.929688 222.742188 
L 206.929688 222.742188 
" style="fill:none;stroke:#008000;stroke-dasharray:9.6,2.4,1.5,2.4;stroke-dashoffset:0;stroke-width:1.5;"/>
    </g>
    <g id="line2d_42"/>
    <g id="text_22">
     <!-- +1 sd -->
     <defs>
      <path d="M 46 62.703125 
L 46 35.5 
L 73.1875 35.5 
L 73.1875 27.203125 
L 46 27.203125 
L 46 0 
L 37.796875 0 
L 37.796875 27.203125 
L 10.59375 27.203125 
L 10.59375 35.5 
L 37.796875 35.5 
L 37.796875 62.703125 
z
" id="DejaVuSans-43"/>
     </defs>
     <g transform="translate(214.929688 226.242188)scale(0.1 -0.1)">
      <use xlink:href="#DejaVuSans-43"/>
      <use x="83.789062" xlink:href="#DejaVuSans-49"/>
      <use x="147.412109" xlink:href="#DejaVuSans-32"/>
      <use x="179.199219" xlink:href="#DejaVuSans-115"/>
      <use x="231.298828" xlink:href="#DejaVuSans-100"/>
     </g>
    </g>
    <g id="line2d_43">
     <path d="M 186.929688 237.420312 
L 206.929688 237.420312 
" style="fill:none;stroke:#ff0000;stroke-linecap:square;stroke-width:1.5;"/>
    </g>
    <g id="line2d_44"/>
    <g id="text_23">
     <!-- best -->
     <g transform="translate(214.929688 240.920312)scale(0.1 -0.1)">
      <use xlink:href="#DejaVuSans-98"/>
      <use x="63.476562" xlink:href="#DejaVuSans-101"/>
      <use x="125" xlink:href="#DejaVuSans-115"/>
      <use x="177.099609" xlink:href="#DejaVuSans-116"/>
     </g>
    </g>
   </g>
  </g>
 </g>
 <defs>
  <clipPath id="p33bfd594d9">
   <rect height="217.44" width="334.8" x="54" y="34.56"/>
  </clipPath>
 </defs>
</svg>
