<?xml version="1.0" encoding="utf-8" standalone="no"?>
<!DOCTYPE svg PUBLIC "-//W3C//DTD SVG 1.1//EN"
  "http://www.w3.org/Graphics/SVG/1.1/DTD/svg11.dtd">
<!-- Created with matplotlib (https://matplotlib.org/) -->
<svg height="288pt" version="1.1" viewBox="0 0 432 288" width="432pt" xmlns="http://www.w3.org/2000/svg" xmlns:xlink="http://www.w3.org/1999/xlink">
 <defs>
  <style type="text/css">
*{stroke-linecap:butt;stroke-linejoin:round;}
  </style>
 </defs>
 <g id="figure_1">
  <g id="patch_1">
   <path d="M 0 288 
L 432 288 
L 432 0 
L 0 0 
z
" style="fill:#ffffff;"/>
  </g>
  <g id="axes_1">
   <g id="patch_2">
    <path d="M 54 252 
L 388.8 252 
L 388.8 34.56 
L 54 34.56 
z
" style="fill:#ffffff;"/>
   </g>
   <g id="matplotlib.axis_1">
    <g id="xtick_1">
     <g id="line2d_1">
      <path clip-path="url(#p95a1ca5ce2)" d="M 69.218182 252 
L 69.218182 34.56 
" style="fill:none;stroke:#b0b0b0;stroke-linecap:square;stroke-width:0.8;"/>
     </g>
     <g id="line2d_2">
      <defs>
       <path d="M 0 0 
L 0 3.5 
" id="m5fb2f5f377" style="stroke:#000000;stroke-width:0.8;"/>
      </defs>
      <g>
       <use style="stroke:#000000;stroke-width:0.8;" x="69.218182" xlink:href="#m5fb2f5f377" y="252"/>
      </g>
     </g>
     <g id="text_1">
      <!-- 0 -->
      <defs>
       <path d="M 31.78125 66.40625 
Q 24.171875 66.40625 20.328125 58.90625 
Q 16.5 51.421875 16.5 36.375 
Q 16.5 21.390625 20.328125 13.890625 
Q 24.171875 6.390625 31.78125 6.390625 
Q 39.453125 6.390625 43.28125 13.890625 
Q 47.125 21.390625 47.125 36.375 
Q 47.125 51.421875 43.28125 58.90625 
Q 39.453125 66.40625 31.78125 66.40625 
z
M 31.78125 74.21875 
Q 44.046875 74.21875 50.515625 64.515625 
Q 56.984375 54.828125 56.984375 36.375 
Q 56.984375 17.96875 50.515625 8.265625 
Q 44.046875 -1.421875 31.78125 -1.421875 
Q 19.53125 -1.421875 13.0625 8.265625 
Q 6.59375 17.96875 6.59375 36.375 
Q 6.59375 54.828125 13.0625 64.515625 
Q 19.53125 74.21875 31.78125 74.21875 
z
" id="DejaVuSans-48"/>
      </defs>
      <g transform="translate(66.036932 266.598437)scale(0.1 -0.1)">
       <use xlink:href="#DejaVuSans-48"/>
      </g>
     </g>
    </g>
    <g id="xtick_2">
     <g id="line2d_3">
      <path clip-path="url(#p95a1ca5ce2)" d="M 129.848388 252 
L 129.848388 34.56 
" style="fill:none;stroke:#b0b0b0;stroke-linecap:square;stroke-width:0.8;"/>
     </g>
     <g id="line2d_4">
      <g>
       <use style="stroke:#000000;stroke-width:0.8;" x="129.848388" xlink:href="#m5fb2f5f377" y="252"/>
      </g>
     </g>
     <g id="text_2">
      <!-- 50 -->
      <defs>
       <path d="M 10.796875 72.90625 
L 49.515625 72.90625 
L 49.515625 64.59375 
L 19.828125 64.59375 
L 19.828125 46.734375 
Q 21.96875 47.46875 24.109375 47.828125 
Q 26.265625 48.1875 28.421875 48.1875 
Q 40.625 48.1875 47.75 41.5 
Q 54.890625 34.8125 54.890625 23.390625 
Q 54.890625 11.625 47.5625 5.09375 
Q 40.234375 -1.421875 26.90625 -1.421875 
Q 22.3125 -1.421875 17.546875 -0.640625 
Q 12.796875 0.140625 7.71875 1.703125 
L 7.71875 11.625 
Q 12.109375 9.234375 16.796875 8.0625 
Q 21.484375 6.890625 26.703125 6.890625 
Q 35.15625 6.890625 40.078125 11.328125 
Q 45.015625 15.765625 45.015625 23.390625 
Q 45.015625 31 40.078125 35.4375 
Q 35.15625 39.890625 26.703125 39.890625 
Q 22.75 39.890625 18.8125 39.015625 
Q 14.890625 38.140625 10.796875 36.28125 
z
" id="DejaVuSans-53"/>
      </defs>
      <g transform="translate(123.485888 266.598437)scale(0.1 -0.1)">
       <use xlink:href="#DejaVuSans-53"/>
       <use x="63.623047" xlink:href="#DejaVuSans-48"/>
      </g>
     </g>
    </g>
    <g id="xtick_3">
     <g id="line2d_5">
      <path clip-path="url(#p95a1ca5ce2)" d="M 190.478595 252 
L 190.478595 34.56 
" style="fill:none;stroke:#b0b0b0;stroke-linecap:square;stroke-width:0.8;"/>
     </g>
     <g id="line2d_6">
      <g>
       <use style="stroke:#000000;stroke-width:0.8;" x="190.478595" xlink:href="#m5fb2f5f377" y="252"/>
      </g>
     </g>
     <g id="text_3">
      <!-- 100 -->
      <defs>
       <path d="M 12.40625 8.296875 
L 28.515625 8.296875 
L 28.515625 63.921875 
L 10.984375 60.40625 
L 10.984375 69.390625 
L 28.421875 72.90625 
L 38.28125 72.90625 
L 38.28125 8.296875 
L 54.390625 8.296875 
L 54.390625 0 
L 12.40625 0 
z
" id="DejaVuSans-49"/>
      </defs>
      <g transform="translate(180.934845 266.598437)scale(0.1 -0.1)">
       <use xlink:href="#DejaVuSans-49"/>
       <use x="63.623047" xlink:href="#DejaVuSans-48"/>
       <use x="127.246094" xlink:href="#DejaVuSans-48"/>
      </g>
     </g>
    </g>
    <g id="xtick_4">
     <g id="line2d_7">
      <path clip-path="url(#p95a1ca5ce2)" d="M 251.108801 252 
L 251.108801 34.56 
" style="fill:none;stroke:#b0b0b0;stroke-linecap:square;stroke-width:0.8;"/>
     </g>
     <g id="line2d_8">
      <g>
       <use style="stroke:#000000;stroke-width:0.8;" x="251.108801" xlink:href="#m5fb2f5f377" y="252"/>
      </g>
     </g>
     <g id="text_4">
      <!-- 150 -->
      <g transform="translate(241.565051 266.598437)scale(0.1 -0.1)">
       <use xlink:href="#DejaVuSans-49"/>
       <use x="63.623047" xlink:href="#DejaVuSans-53"/>
       <use x="127.246094" xlink:href="#DejaVuSans-48"/>
      </g>
     </g>
    </g>
    <g id="xtick_5">
     <g id="line2d_9">
      <path clip-path="url(#p95a1ca5ce2)" d="M 311.739008 252 
L 311.739008 34.56 
" style="fill:none;stroke:#b0b0b0;stroke-linecap:square;stroke-width:0.8;"/>
     </g>
     <g id="line2d_10">
      <g>
       <use style="stroke:#000000;stroke-width:0.8;" x="311.739008" xlink:href="#m5fb2f5f377" y="252"/>
      </g>
     </g>
     <g id="text_5">
      <!-- 200 -->
      <defs>
       <path d="M 19.1875 8.296875 
L 53.609375 8.296875 
L 53.609375 0 
L 7.328125 0 
L 7.328125 8.296875 
Q 12.9375 14.109375 22.625 23.890625 
Q 32.328125 33.6875 34.8125 36.53125 
Q 39.546875 41.84375 41.421875 45.53125 
Q 43.3125 49.21875 43.3125 52.78125 
Q 43.3125 58.59375 39.234375 62.25 
Q 35.15625 65.921875 28.609375 65.921875 
Q 23.96875 65.921875 18.8125 64.3125 
Q 13.671875 62.703125 7.8125 59.421875 
L 7.8125 69.390625 
Q 13.765625 71.78125 18.9375 73 
Q 24.125 74.21875 28.421875 74.21875 
Q 39.75 74.21875 46.484375 68.546875 
Q 53.21875 62.890625 53.21875 53.421875 
Q 53.21875 48.921875 51.53125 44.890625 
Q 49.859375 40.875 45.40625 35.40625 
Q 44.1875 33.984375 37.640625 27.21875 
Q 31.109375 20.453125 19.1875 8.296875 
z
" id="DejaVuSans-50"/>
      </defs>
      <g transform="translate(302.195258 266.598437)scale(0.1 -0.1)">
       <use xlink:href="#DejaVuSans-50"/>
       <use x="63.623047" xlink:href="#DejaVuSans-48"/>
       <use x="127.246094" xlink:href="#DejaVuSans-48"/>
      </g>
     </g>
    </g>
    <g id="xtick_6">
     <g id="line2d_11">
      <path clip-path="url(#p95a1ca5ce2)" d="M 372.369214 252 
L 372.369214 34.56 
" style="fill:none;stroke:#b0b0b0;stroke-linecap:square;stroke-width:0.8;"/>
     </g>
     <g id="line2d_12">
      <g>
       <use style="stroke:#000000;stroke-width:0.8;" x="372.369214" xlink:href="#m5fb2f5f377" y="252"/>
      </g>
     </g>
     <g id="text_6">
      <!-- 250 -->
      <g transform="translate(362.825464 266.598437)scale(0.1 -0.1)">
       <use xlink:href="#DejaVuSans-50"/>
       <use x="63.623047" xlink:href="#DejaVuSans-53"/>
       <use x="127.246094" xlink:href="#DejaVuSans-48"/>
      </g>
     </g>
    </g>
    <g id="text_7">
     <!-- Generations -->
     <defs>
      <path d="M 59.515625 10.40625 
L 59.515625 29.984375 
L 43.40625 29.984375 
L 43.40625 38.09375 
L 69.28125 38.09375 
L 69.28125 6.78125 
Q 63.578125 2.734375 56.6875 0.65625 
Q 49.8125 -1.421875 42 -1.421875 
Q 24.90625 -1.421875 15.25 8.5625 
Q 5.609375 18.5625 5.609375 36.375 
Q 5.609375 54.25 15.25 64.234375 
Q 24.90625 74.21875 42 74.21875 
Q 49.125 74.21875 55.546875 72.453125 
Q 61.96875 70.703125 67.390625 67.28125 
L 67.390625 56.78125 
Q 61.921875 61.421875 55.765625 63.765625 
Q 49.609375 66.109375 42.828125 66.109375 
Q 29.4375 66.109375 22.71875 58.640625 
Q 16.015625 51.171875 16.015625 36.375 
Q 16.015625 21.625 22.71875 14.15625 
Q 29.4375 6.6875 42.828125 6.6875 
Q 48.046875 6.6875 52.140625 7.59375 
Q 56.25 8.5 59.515625 10.40625 
z
" id="DejaVuSans-71"/>
      <path d="M 56.203125 29.59375 
L 56.203125 25.203125 
L 14.890625 25.203125 
Q 15.484375 15.921875 20.484375 11.0625 
Q 25.484375 6.203125 34.421875 6.203125 
Q 39.59375 6.203125 44.453125 7.46875 
Q 49.3125 8.734375 54.109375 11.28125 
L 54.109375 2.78125 
Q 49.265625 0.734375 44.1875 -0.34375 
Q 39.109375 -1.421875 33.890625 -1.421875 
Q 20.796875 -1.421875 13.15625 6.1875 
Q 5.515625 13.8125 5.515625 26.8125 
Q 5.515625 40.234375 12.765625 48.109375 
Q 20.015625 56 32.328125 56 
Q 43.359375 56 49.78125 48.890625 
Q 56.203125 41.796875 56.203125 29.59375 
z
M 47.21875 32.234375 
Q 47.125 39.59375 43.09375 43.984375 
Q 39.0625 48.390625 32.421875 48.390625 
Q 24.90625 48.390625 20.390625 44.140625 
Q 15.875 39.890625 15.1875 32.171875 
z
" id="DejaVuSans-101"/>
      <path d="M 54.890625 33.015625 
L 54.890625 0 
L 45.90625 0 
L 45.90625 32.71875 
Q 45.90625 40.484375 42.875 44.328125 
Q 39.84375 48.1875 33.796875 48.1875 
Q 26.515625 48.1875 22.3125 43.546875 
Q 18.109375 38.921875 18.109375 30.90625 
L 18.109375 0 
L 9.078125 0 
L 9.078125 54.6875 
L 18.109375 54.6875 
L 18.109375 46.1875 
Q 21.34375 51.125 25.703125 53.5625 
Q 30.078125 56 35.796875 56 
Q 45.21875 56 50.046875 50.171875 
Q 54.890625 44.34375 54.890625 33.015625 
z
" id="DejaVuSans-110"/>
      <path d="M 41.109375 46.296875 
Q 39.59375 47.171875 37.8125 47.578125 
Q 36.03125 48 33.890625 48 
Q 26.265625 48 22.1875 43.046875 
Q 18.109375 38.09375 18.109375 28.8125 
L 18.109375 0 
L 9.078125 0 
L 9.078125 54.6875 
L 18.109375 54.6875 
L 18.109375 46.1875 
Q 20.953125 51.171875 25.484375 53.578125 
Q 30.03125 56 36.53125 56 
Q 37.453125 56 38.578125 55.875 
Q 39.703125 55.765625 41.0625 55.515625 
z
" id="DejaVuSans-114"/>
      <path d="M 34.28125 27.484375 
Q 23.390625 27.484375 19.1875 25 
Q 14.984375 22.515625 14.984375 16.5 
Q 14.984375 11.71875 18.140625 8.90625 
Q 21.296875 6.109375 26.703125 6.109375 
Q 34.1875 6.109375 38.703125 11.40625 
Q 43.21875 16.703125 43.21875 25.484375 
L 43.21875 27.484375 
z
M 52.203125 31.203125 
L 52.203125 0 
L 43.21875 0 
L 43.21875 8.296875 
Q 40.140625 3.328125 35.546875 0.953125 
Q 30.953125 -1.421875 24.3125 -1.421875 
Q 15.921875 -1.421875 10.953125 3.296875 
Q 6 8.015625 6 15.921875 
Q 6 25.140625 12.171875 29.828125 
Q 18.359375 34.515625 30.609375 34.515625 
L 43.21875 34.515625 
L 43.21875 35.40625 
Q 43.21875 41.609375 39.140625 45 
Q 35.0625 48.390625 27.6875 48.390625 
Q 23 48.390625 18.546875 47.265625 
Q 14.109375 46.140625 10.015625 43.890625 
L 10.015625 52.203125 
Q 14.9375 54.109375 19.578125 55.046875 
Q 24.21875 56 28.609375 56 
Q 40.484375 56 46.34375 49.84375 
Q 52.203125 43.703125 52.203125 31.203125 
z
" id="DejaVuSans-97"/>
      <path d="M 18.3125 70.21875 
L 18.3125 54.6875 
L 36.8125 54.6875 
L 36.8125 47.703125 
L 18.3125 47.703125 
L 18.3125 18.015625 
Q 18.3125 11.328125 20.140625 9.421875 
Q 21.96875 7.515625 27.59375 7.515625 
L 36.8125 7.515625 
L 36.8125 0 
L 27.59375 0 
Q 17.1875 0 13.234375 3.875 
Q 9.28125 7.765625 9.28125 18.015625 
L 9.28125 47.703125 
L 2.6875 47.703125 
L 2.6875 54.6875 
L 9.28125 54.6875 
L 9.28125 70.21875 
z
" id="DejaVuSans-116"/>
      <path d="M 9.421875 54.6875 
L 18.40625 54.6875 
L 18.40625 0 
L 9.421875 0 
z
M 9.421875 75.984375 
L 18.40625 75.984375 
L 18.40625 64.59375 
L 9.421875 64.59375 
z
" id="DejaVuSans-105"/>
      <path d="M 30.609375 48.390625 
Q 23.390625 48.390625 19.1875 42.75 
Q 14.984375 37.109375 14.984375 27.296875 
Q 14.984375 17.484375 19.15625 11.84375 
Q 23.34375 6.203125 30.609375 6.203125 
Q 37.796875 6.203125 41.984375 11.859375 
Q 46.1875 17.53125 46.1875 27.296875 
Q 46.1875 37.015625 41.984375 42.703125 
Q 37.796875 48.390625 30.609375 48.390625 
z
M 30.609375 56 
Q 42.328125 56 49.015625 48.375 
Q 55.71875 40.765625 55.71875 27.296875 
Q 55.71875 13.875 49.015625 6.21875 
Q 42.328125 -1.421875 30.609375 -1.421875 
Q 18.84375 -1.421875 12.171875 6.21875 
Q 5.515625 13.875 5.515625 27.296875 
Q 5.515625 40.765625 12.171875 48.375 
Q 18.84375 56 30.609375 56 
z
" id="DejaVuSans-111"/>
      <path d="M 44.28125 53.078125 
L 44.28125 44.578125 
Q 40.484375 46.53125 36.375 47.5 
Q 32.28125 48.484375 27.875 48.484375 
Q 21.1875 48.484375 17.84375 46.4375 
Q 14.5 44.390625 14.5 40.28125 
Q 14.5 37.15625 16.890625 35.375 
Q 19.28125 33.59375 26.515625 31.984375 
L 29.59375 31.296875 
Q 39.15625 29.25 43.1875 25.515625 
Q 47.21875 21.78125 47.21875 15.09375 
Q 47.21875 7.46875 41.1875 3.015625 
Q 35.15625 -1.421875 24.609375 -1.421875 
Q 20.21875 -1.421875 15.453125 -0.5625 
Q 10.6875 0.296875 5.421875 2 
L 5.421875 11.28125 
Q 10.40625 8.6875 15.234375 7.390625 
Q 20.0625 6.109375 24.8125 6.109375 
Q 31.15625 6.109375 34.5625 8.28125 
Q 37.984375 10.453125 37.984375 14.40625 
Q 37.984375 18.0625 35.515625 20.015625 
Q 33.0625 21.96875 24.703125 23.78125 
L 21.578125 24.515625 
Q 13.234375 26.265625 9.515625 29.90625 
Q 5.8125 33.546875 5.8125 39.890625 
Q 5.8125 47.609375 11.28125 51.796875 
Q 16.75 56 26.8125 56 
Q 31.78125 56 36.171875 55.265625 
Q 40.578125 54.546875 44.28125 53.078125 
z
" id="DejaVuSans-115"/>
     </defs>
     <g transform="translate(190.902344 280.276563)scale(0.1 -0.1)">
      <use xlink:href="#DejaVuSans-71"/>
      <use x="77.490234" xlink:href="#DejaVuSans-101"/>
      <use x="139.013672" xlink:href="#DejaVuSans-110"/>
      <use x="202.392578" xlink:href="#DejaVuSans-101"/>
      <use x="263.916016" xlink:href="#DejaVuSans-114"/>
      <use x="305.029297" xlink:href="#DejaVuSans-97"/>
      <use x="366.308594" xlink:href="#DejaVuSans-116"/>
      <use x="405.517578" xlink:href="#DejaVuSans-105"/>
      <use x="433.300781" xlink:href="#DejaVuSans-111"/>
      <use x="494.482422" xlink:href="#DejaVuSans-110"/>
      <use x="557.861328" xlink:href="#DejaVuSans-115"/>
     </g>
    </g>
   </g>
   <g id="matplotlib.axis_2">
    <g id="ytick_1">
     <g id="line2d_13">
      <path clip-path="url(#p95a1ca5ce2)" d="M 54 247.469853 
L 388.8 247.469853 
" style="fill:none;stroke:#b0b0b0;stroke-linecap:square;stroke-width:0.8;"/>
     </g>
     <g id="line2d_14">
      <defs>
       <path d="M 0 0 
L -3.5 0 
" id="m9346b9d2c1" style="stroke:#000000;stroke-width:0.8;"/>
      </defs>
      <g>
       <use style="stroke:#000000;stroke-width:0.8;" x="54" xlink:href="#m9346b9d2c1" y="247.469853"/>
      </g>
     </g>
     <g id="text_8">
      <!-- −6000 -->
      <defs>
       <path d="M 10.59375 35.5 
L 73.1875 35.5 
L 73.1875 27.203125 
L 10.59375 27.203125 
z
" id="DejaVuSans-8722"/>
       <path d="M 33.015625 40.375 
Q 26.375 40.375 22.484375 35.828125 
Q 18.609375 31.296875 18.609375 23.390625 
Q 18.609375 15.53125 22.484375 10.953125 
Q 26.375 6.390625 33.015625 6.390625 
Q 39.65625 6.390625 43.53125 10.953125 
Q 47.40625 15.53125 47.40625 23.390625 
Q 47.40625 31.296875 43.53125 35.828125 
Q 39.65625 40.375 33.015625 40.375 
z
M 52.59375 71.296875 
L 52.59375 62.3125 
Q 48.875 64.0625 45.09375 64.984375 
Q 41.3125 65.921875 37.59375 65.921875 
Q 27.828125 65.921875 22.671875 59.328125 
Q 17.53125 52.734375 16.796875 39.40625 
Q 19.671875 43.65625 24.015625 45.921875 
Q 28.375 48.1875 33.59375 48.1875 
Q 44.578125 48.1875 50.953125 41.515625 
Q 57.328125 34.859375 57.328125 23.390625 
Q 57.328125 12.15625 50.6875 5.359375 
Q 44.046875 -1.421875 33.015625 -1.421875 
Q 20.359375 -1.421875 13.671875 8.265625 
Q 6.984375 17.96875 6.984375 36.375 
Q 6.984375 53.65625 15.1875 63.9375 
Q 23.390625 74.21875 37.203125 74.21875 
Q 40.921875 74.21875 44.703125 73.484375 
Q 48.484375 72.75 52.59375 71.296875 
z
" id="DejaVuSans-54"/>
      </defs>
      <g transform="translate(13.170313 251.269072)scale(0.1 -0.1)">
       <use xlink:href="#DejaVuSans-8722"/>
       <use x="83.789062" xlink:href="#DejaVuSans-54"/>
       <use x="147.412109" xlink:href="#DejaVuSans-48"/>
       <use x="211.035156" xlink:href="#DejaVuSans-48"/>
       <use x="274.658203" xlink:href="#DejaVuSans-48"/>
      </g>
     </g>
    </g>
    <g id="ytick_2">
     <g id="line2d_15">
      <path clip-path="url(#p95a1ca5ce2)" d="M 54 210.686167 
L 388.8 210.686167 
" style="fill:none;stroke:#b0b0b0;stroke-linecap:square;stroke-width:0.8;"/>
     </g>
     <g id="line2d_16">
      <g>
       <use style="stroke:#000000;stroke-width:0.8;" x="54" xlink:href="#m9346b9d2c1" y="210.686167"/>
      </g>
     </g>
     <g id="text_9">
      <!-- −4000 -->
      <defs>
       <path d="M 37.796875 64.3125 
L 12.890625 25.390625 
L 37.796875 25.390625 
z
M 35.203125 72.90625 
L 47.609375 72.90625 
L 47.609375 25.390625 
L 58.015625 25.390625 
L 58.015625 17.1875 
L 47.609375 17.1875 
L 47.609375 0 
L 37.796875 0 
L 37.796875 17.1875 
L 4.890625 17.1875 
L 4.890625 26.703125 
z
" id="DejaVuSans-52"/>
      </defs>
      <g transform="translate(13.170313 214.485386)scale(0.1 -0.1)">
       <use xlink:href="#DejaVuSans-8722"/>
       <use x="83.789062" xlink:href="#DejaVuSans-52"/>
       <use x="147.412109" xlink:href="#DejaVuSans-48"/>
       <use x="211.035156" xlink:href="#DejaVuSans-48"/>
       <use x="274.658203" xlink:href="#DejaVuSans-48"/>
      </g>
     </g>
    </g>
    <g id="ytick_3">
     <g id="line2d_17">
      <path clip-path="url(#p95a1ca5ce2)" d="M 54 173.90248 
L 388.8 173.90248 
" style="fill:none;stroke:#b0b0b0;stroke-linecap:square;stroke-width:0.8;"/>
     </g>
     <g id="line2d_18">
      <g>
       <use style="stroke:#000000;stroke-width:0.8;" x="54" xlink:href="#m9346b9d2c1" y="173.90248"/>
      </g>
     </g>
     <g id="text_10">
      <!-- −2000 -->
      <g transform="translate(13.170313 177.701699)scale(0.1 -0.1)">
       <use xlink:href="#DejaVuSans-8722"/>
       <use x="83.789062" xlink:href="#DejaVuSans-50"/>
       <use x="147.412109" xlink:href="#DejaVuSans-48"/>
       <use x="211.035156" xlink:href="#DejaVuSans-48"/>
       <use x="274.658203" xlink:href="#DejaVuSans-48"/>
      </g>
     </g>
    </g>
    <g id="ytick_4">
     <g id="line2d_19">
      <path clip-path="url(#p95a1ca5ce2)" d="M 54 137.118794 
L 388.8 137.118794 
" style="fill:none;stroke:#b0b0b0;stroke-linecap:square;stroke-width:0.8;"/>
     </g>
     <g id="line2d_20">
      <g>
       <use style="stroke:#000000;stroke-width:0.8;" x="54" xlink:href="#m9346b9d2c1" y="137.118794"/>
      </g>
     </g>
     <g id="text_11">
      <!-- 0 -->
      <g transform="translate(40.6375 140.918013)scale(0.1 -0.1)">
       <use xlink:href="#DejaVuSans-48"/>
      </g>
     </g>
    </g>
    <g id="ytick_5">
     <g id="line2d_21">
      <path clip-path="url(#p95a1ca5ce2)" d="M 54 100.335107 
L 388.8 100.335107 
" style="fill:none;stroke:#b0b0b0;stroke-linecap:square;stroke-width:0.8;"/>
     </g>
     <g id="line2d_22">
      <g>
       <use style="stroke:#000000;stroke-width:0.8;" x="54" xlink:href="#m9346b9d2c1" y="100.335107"/>
      </g>
     </g>
     <g id="text_12">
      <!-- 2000 -->
      <g transform="translate(21.55 104.134326)scale(0.1 -0.1)">
       <use xlink:href="#DejaVuSans-50"/>
       <use x="63.623047" xlink:href="#DejaVuSans-48"/>
       <use x="127.246094" xlink:href="#DejaVuSans-48"/>
       <use x="190.869141" xlink:href="#DejaVuSans-48"/>
      </g>
     </g>
    </g>
    <g id="ytick_6">
     <g id="line2d_23">
      <path clip-path="url(#p95a1ca5ce2)" d="M 54 63.551421 
L 388.8 63.551421 
" style="fill:none;stroke:#b0b0b0;stroke-linecap:square;stroke-width:0.8;"/>
     </g>
     <g id="line2d_24">
      <g>
       <use style="stroke:#000000;stroke-width:0.8;" x="54" xlink:href="#m9346b9d2c1" y="63.551421"/>
      </g>
     </g>
     <g id="text_13">
      <!-- 4000 -->
      <g transform="translate(21.55 67.350639)scale(0.1 -0.1)">
       <use xlink:href="#DejaVuSans-52"/>
       <use x="63.623047" xlink:href="#DejaVuSans-48"/>
       <use x="127.246094" xlink:href="#DejaVuSans-48"/>
       <use x="190.869141" xlink:href="#DejaVuSans-48"/>
      </g>
     </g>
    </g>
    <g id="text_14">
     <!-- Fitness -->
     <defs>
      <path d="M 9.8125 72.90625 
L 51.703125 72.90625 
L 51.703125 64.59375 
L 19.671875 64.59375 
L 19.671875 43.109375 
L 48.578125 43.109375 
L 48.578125 34.8125 
L 19.671875 34.8125 
L 19.671875 0 
L 9.8125 0 
z
" id="DejaVuSans-70"/>
     </defs>
     <g transform="translate(7.090625 160.954219)rotate(-90)scale(0.1 -0.1)">
      <use xlink:href="#DejaVuSans-70"/>
      <use x="57.410156" xlink:href="#DejaVuSans-105"/>
      <use x="85.193359" xlink:href="#DejaVuSans-116"/>
      <use x="124.402344" xlink:href="#DejaVuSans-110"/>
      <use x="187.78125" xlink:href="#DejaVuSans-101"/>
      <use x="249.304688" xlink:href="#DejaVuSans-115"/>
      <use x="301.404297" xlink:href="#DejaVuSans-115"/>
     </g>
    </g>
   </g>
   <g id="line2d_25">
    <path clip-path="url(#p95a1ca5ce2)" d="M 69.218182 137.857434 
L 70.430786 134.360928 
L 71.64339 135.384254 
L 72.855994 135.448695 
L 74.068598 134.481371 
L 75.281202 133.859362 
L 76.493807 134.048752 
L 77.706411 133.955366 
L 78.919015 133.707467 
L 80.131619 133.689097 
L 81.344223 133.536839 
L 82.556827 133.760954 
L 83.769431 133.475656 
L 84.982035 135.100713 
L 86.19464 133.544668 
L 87.407244 133.733456 
L 88.619848 133.722965 
L 89.832452 133.453696 
L 91.045056 133.315048 
L 93.470264 133.303937 
L 94.682869 133.407994 
L 98.320681 133.204186 
L 99.533285 133.397459 
L 100.745889 133.708836 
L 101.958493 143.28 
L 103.171097 133.078436 
L 106.80891 133.466999 
L 108.021514 133.255033 
L 109.234118 133.255742 
L 110.446722 133.389468 
L 111.659326 133.171655 
L 112.87193 133.417363 
L 114.084535 133.206091 
L 115.297139 133.461116 
L 116.509743 133.249621 
L 122.572763 133.117578 
L 123.785368 133.304629 
L 126.210576 133.309283 
L 127.42318 133.213645 
L 133.486201 133.299792 
L 134.698805 133.214541 
L 135.911409 133.415499 
L 137.124013 133.302445 
L 138.336617 133.424593 
L 139.549221 133.120834 
L 140.761825 133.229042 
L 141.97443 133.452932 
L 143.187034 133.302569 
L 146.824846 133.442733 
L 148.03745 133.215996 
L 149.250054 133.490466 
L 150.462658 133.609805 
L 151.675263 133.306084 
L 152.887867 133.807334 
L 155.313075 133.315745 
L 158.950887 133.385863 
L 160.163491 133.146238 
L 161.376096 135.825315 
L 162.5887 133.085482 
L 163.801304 133.079637 
L 165.013908 133.574097 
L 166.226512 133.19218 
L 167.439116 133.038447 
L 168.65172 133.221254 
L 169.864325 133.282195 
L 173.502137 133.135406 
L 174.714741 133.270534 
L 175.927345 133.28788 
L 177.139949 133.180644 
L 178.352553 133.361965 
L 179.565158 133.022225 
L 180.777762 133.260719 
L 181.990366 133.213972 
L 183.20297 133.496815 
L 185.628178 133.477739 
L 186.840782 133.185484 
L 188.053386 134.844797 
L 189.265991 133.224097 
L 190.478595 133.475559 
L 191.691199 133.890717 
L 192.903803 133.358211 
L 194.116407 133.693145 
L 195.329011 133.249002 
L 196.541615 133.324198 
L 200.179428 133.158371 
L 201.392032 133.737513 
L 202.604636 133.372212 
L 203.81724 133.785628 
L 205.029844 133.197091 
L 208.667657 133.345613 
L 211.092865 133.340304 
L 212.305469 133.2693 
L 213.518073 133.050226 
L 214.730677 133.679378 
L 215.943281 133.280717 
L 217.155886 133.34172 
L 218.36849 133.218096 
L 219.581094 133.312549 
L 220.793698 133.191045 
L 222.006302 133.232472 
L 223.218906 133.150236 
L 224.43151 133.325048 
L 226.856719 133.076739 
L 228.069323 133.353313 
L 229.281927 133.318565 
L 230.494531 133.081827 
L 234.132343 133.580922 
L 236.557552 133.20404 
L 237.770156 133.529951 
L 238.98276 133.253694 
L 240.195364 133.55107 
L 241.407968 133.355725 
L 243.833176 133.627786 
L 245.045781 133.393384 
L 246.258385 133.62264 
L 248.683593 133.383722 
L 249.896197 133.640879 
L 251.108801 133.413914 
L 255.959218 133.384098 
L 258.384426 133.517957 
L 259.59703 133.679224 
L 262.022238 133.223319 
L 263.234842 133.489611 
L 264.447447 133.272087 
L 265.660051 133.519966 
L 266.872655 133.56955 
L 268.085259 133.269892 
L 269.297863 133.297628 
L 270.510467 133.558534 
L 272.935675 133.332319 
L 274.14828 133.470617 
L 275.360884 133.742277 
L 276.573488 134.897665 
L 278.998696 133.526176 
L 280.2113 133.412422 
L 281.423904 133.658616 
L 282.636509 134.120086 
L 283.849113 134.43202 
L 285.061717 133.90915 
L 286.274321 134.737401 
L 287.486925 133.717698 
L 288.699529 133.612074 
L 289.912133 133.962363 
L 292.337342 133.924032 
L 293.549946 134.706332 
L 294.76255 133.654441 
L 295.975154 133.609121 
L 297.187758 133.367927 
L 298.400362 133.826768 
L 299.612966 133.363363 
L 300.82557 133.456465 
L 303.250779 133.241562 
L 304.463383 134.330984 
L 305.675987 133.353133 
L 306.888591 133.128777 
L 308.101195 133.371403 
L 309.313799 133.171618 
L 310.526403 133.399119 
L 311.739008 133.155039 
L 312.951612 133.350293 
L 314.164216 132.98206 
L 315.37682 133.283203 
L 317.802028 133.32573 
L 320.227237 133.199367 
L 321.439841 133.328712 
L 322.652445 133.170628 
L 325.077653 133.449952 
L 327.502861 133.367516 
L 328.715465 133.51426 
L 331.140674 133.535379 
L 332.353278 133.247127 
L 333.565882 133.22208 
L 334.778486 133.645479 
L 337.203694 133.243711 
L 339.628903 133.500091 
L 342.054111 133.402632 
L 343.266715 133.468344 
L 344.479319 133.325623 
L 345.691923 133.686973 
L 346.904527 133.36654 
L 349.329736 133.261268 
L 350.54234 133.184929 
L 351.754944 133.264041 
L 352.967548 133.218701 
L 355.392756 133.353572 
L 356.60536 133.369092 
L 357.817965 133.235799 
L 359.030569 133.519391 
L 363.880985 133.426431 
L 366.306193 133.422725 
L 368.731402 133.071967 
L 369.944006 133.452224 
L 371.15661 133.363502 
L 372.369214 134.581362 
L 373.581818 133.247165 
L 373.581818 133.247165 
" style="fill:none;stroke:#0000ff;stroke-linecap:square;stroke-width:1.5;"/>
   </g>
   <g id="line2d_26">
    <path clip-path="url(#p95a1ca5ce2)" d="M 69.218182 149.618888 
L 70.430786 137.020851 
L 71.64339 140.598523 
L 72.855994 147.315833 
L 74.068598 139.150234 
L 75.281202 135.128769 
L 76.493807 137.428524 
L 77.706411 136.376217 
L 78.919015 135.526392 
L 80.131619 137.068014 
L 81.344223 134.773553 
L 82.556827 137.460943 
L 83.769431 134.635007 
L 84.982035 144.892193 
L 86.19464 136.286558 
L 87.407244 136.175074 
L 88.619848 137.853851 
L 89.832452 135.150473 
L 91.045056 134.594502 
L 92.25766 135.154572 
L 93.470264 134.626092 
L 95.895473 134.635458 
L 97.108077 134.451 
L 98.320681 134.43963 
L 99.533285 135.888456 
L 100.745889 138.47942 
L 101.958493 242.116364 
L 103.171097 134.272552 
L 104.383702 134.414201 
L 106.80891 134.492756 
L 109.234118 134.709758 
L 110.446722 134.523263 
L 112.87193 134.799622 
L 114.084535 134.476194 
L 115.297139 134.616983 
L 116.509743 134.484832 
L 117.722347 134.530928 
L 118.934951 134.368299 
L 121.360159 134.50717 
L 122.572763 134.218112 
L 123.785368 134.518368 
L 124.997972 134.411577 
L 126.210576 134.616907 
L 127.42318 134.430243 
L 129.848388 134.435071 
L 134.698805 134.407952 
L 135.911409 134.657794 
L 137.124013 135.478423 
L 138.336617 135.523156 
L 140.761825 134.354487 
L 141.97443 134.972414 
L 143.187034 134.620108 
L 145.612242 134.535422 
L 146.824846 134.617143 
L 148.03745 134.515045 
L 149.250054 135.185691 
L 150.462658 135.604411 
L 151.675263 134.316482 
L 152.887867 137.193813 
L 154.100471 134.593837 
L 156.525679 134.545559 
L 157.738283 134.481789 
L 158.950887 134.612001 
L 160.163491 134.564781 
L 161.376096 161.515238 
L 162.5887 134.307147 
L 163.801304 134.850487 
L 165.013908 137.053511 
L 166.226512 134.338693 
L 167.439116 134.276327 
L 168.65172 134.982898 
L 169.864325 134.387278 
L 171.076929 134.723924 
L 172.289533 134.493167 
L 173.502137 134.894409 
L 174.714741 135.61164 
L 175.927345 134.617528 
L 177.139949 134.69198 
L 178.352553 134.954741 
L 179.565158 134.95951 
L 180.777762 134.557115 
L 181.990366 134.298831 
L 183.20297 135.741423 
L 184.415574 135.61395 
L 185.628178 134.632569 
L 186.840782 134.391624 
L 188.053386 147.020479 
L 189.265991 134.648468 
L 190.478595 135.973041 
L 191.691199 141.614941 
L 192.903803 135.72535 
L 194.116407 138.646401 
L 195.329011 134.43612 
L 196.541615 134.886985 
L 197.754219 134.460331 
L 200.179428 134.472756 
L 201.392032 137.49717 
L 202.604636 134.536868 
L 203.81724 138.886318 
L 205.029844 135.269765 
L 206.242448 134.435179 
L 213.518073 134.45122 
L 214.730677 136.46457 
L 215.943281 134.274791 
L 217.155886 134.643509 
L 218.36849 134.317058 
L 219.581094 134.572405 
L 222.006302 134.2963 
L 223.218906 134.707913 
L 224.43151 134.457804 
L 225.644114 134.434859 
L 226.856719 134.285243 
L 228.069323 134.506097 
L 229.281927 134.310295 
L 230.494531 134.468793 
L 231.707135 134.48478 
L 232.919739 134.337448 
L 234.132343 136.35386 
L 235.344947 134.619642 
L 236.557552 134.373024 
L 237.770156 134.501419 
L 238.98276 134.372746 
L 240.195364 135.050912 
L 241.407968 136.477406 
L 242.620572 136.261162 
L 243.833176 136.911002 
L 245.045781 134.902961 
L 246.258385 135.071472 
L 247.470989 136.516747 
L 248.683593 135.845801 
L 249.896197 136.81319 
L 251.108801 136.891137 
L 252.321405 135.985144 
L 253.534009 136.154917 
L 254.746614 134.90552 
L 255.959218 136.005781 
L 257.171822 135.158792 
L 258.384426 136.280096 
L 259.59703 137.057824 
L 260.809634 134.750897 
L 262.022238 136.029596 
L 263.234842 136.118386 
L 264.447447 134.943035 
L 265.660051 137.037494 
L 266.872655 136.380171 
L 268.085259 136.161581 
L 269.297863 134.961052 
L 270.510467 136.385259 
L 271.723071 136.269769 
L 272.935675 134.891864 
L 274.14828 135.196439 
L 275.360884 137.261625 
L 276.573488 147.880004 
L 277.786092 139.379045 
L 278.998696 136.644657 
L 280.2113 135.0014 
L 282.636509 140.621817 
L 283.849113 140.310649 
L 285.061717 138.569309 
L 286.274321 146.433969 
L 287.486925 135.983787 
L 288.699529 136.787037 
L 289.912133 138.066124 
L 291.124737 137.652072 
L 292.337342 138.132849 
L 293.549946 141.135946 
L 294.76255 134.862717 
L 295.975154 135.877601 
L 297.187758 134.963562 
L 298.400362 142.119119 
L 299.612966 134.801365 
L 300.82557 135.594341 
L 303.250779 134.461976 
L 304.463383 145.60287 
L 305.675987 135.417498 
L 306.888591 134.940023 
L 308.101195 136.125766 
L 309.313799 134.514051 
L 310.526403 135.092951 
L 311.739008 134.448916 
L 315.37682 134.595293 
L 316.589424 135.344795 
L 317.802028 134.378642 
L 319.014632 134.386318 
L 320.227237 134.775747 
L 321.439841 134.469507 
L 322.652445 134.365467 
L 323.865049 134.547247 
L 325.077653 135.365498 
L 326.290257 134.557192 
L 327.502861 135.547063 
L 328.715465 134.551882 
L 329.92807 135.368824 
L 331.140674 134.61889 
L 332.353278 134.540097 
L 334.778486 134.789035 
L 337.203694 134.732359 
L 338.416298 134.983674 
L 339.628903 135.939503 
L 340.841507 134.59891 
L 342.054111 134.725083 
L 343.266715 135.531584 
L 344.479319 134.749866 
L 345.691923 136.446993 
L 346.904527 135.064067 
L 349.329736 134.555411 
L 350.54234 134.682 
L 352.967548 134.674818 
L 354.180152 134.508746 
L 355.392756 135.087362 
L 356.60536 134.49124 
L 357.817965 134.564358 
L 359.030569 135.523756 
L 360.243173 135.635871 
L 362.668381 135.072181 
L 363.880985 135.656412 
L 365.093589 135.320761 
L 366.306193 134.858776 
L 367.518798 135.184327 
L 371.15661 134.937415 
L 372.369214 145.57702 
L 373.581818 135.173181 
L 373.581818 135.173181 
" style="fill:none;stroke:#008000;stroke-dasharray:9.6,2.4,1.5,2.4;stroke-dashoffset:0;stroke-width:1.5;"/>
   </g>
   <g id="line2d_27">
    <path clip-path="url(#p95a1ca5ce2)" d="M 69.218182 126.09598 
L 70.430786 131.701004 
L 71.64339 130.169984 
L 72.855994 123.581557 
L 74.068598 129.812507 
L 75.281202 132.589955 
L 76.493807 130.668979 
L 77.706411 131.534515 
L 78.919015 131.888543 
L 80.131619 130.31018 
L 81.344223 132.300124 
L 82.556827 130.060965 
L 83.769431 132.316304 
L 84.982035 125.309234 
L 86.19464 130.802778 
L 87.407244 131.291837 
L 88.619848 129.59208 
L 89.832452 131.756919 
L 91.045056 132.035594 
L 92.25766 131.461023 
L 93.470264 131.981781 
L 94.682869 132.200217 
L 95.895473 132.042743 
L 97.108077 132.115063 
L 98.320681 131.968741 
L 99.533285 130.906462 
L 100.745889 128.938251 
L 101.958493 44.443636 
L 103.171097 131.88432 
L 105.596306 132.050446 
L 106.80891 132.441242 
L 108.021514 131.942106 
L 109.234118 131.801726 
L 110.446722 132.255672 
L 111.659326 131.729208 
L 112.87193 132.035105 
L 114.084535 131.935987 
L 115.297139 132.305249 
L 116.509743 132.01441 
L 117.722347 131.89709 
L 120.147555 132.004153 
L 121.360159 131.621679 
L 122.572763 132.017044 
L 123.785368 132.09089 
L 124.997972 132.304376 
L 126.210576 132.001658 
L 131.060992 132.035351 
L 132.273597 132.277109 
L 134.698805 132.02113 
L 135.911409 132.173204 
L 137.124013 131.126467 
L 138.336617 131.32603 
L 139.549221 131.327463 
L 140.761825 132.103597 
L 141.97443 131.93345 
L 145.612242 132.189762 
L 146.824846 132.268322 
L 148.03745 131.916947 
L 150.462658 131.615198 
L 151.675263 132.295686 
L 152.887867 130.420855 
L 154.100471 132.47097 
L 155.313075 132.036883 
L 158.950887 132.159725 
L 160.163491 131.727695 
L 161.376096 110.135393 
L 162.5887 131.863816 
L 163.801304 131.308787 
L 165.013908 130.094683 
L 166.226512 132.045667 
L 168.65172 131.459611 
L 169.864325 132.177111 
L 171.076929 131.735814 
L 172.289533 131.911279 
L 174.714741 130.929428 
L 175.927345 131.958232 
L 177.139949 131.669307 
L 178.352553 131.769189 
L 179.565158 131.08494 
L 180.777762 131.964323 
L 181.990366 132.129113 
L 183.20297 131.252208 
L 184.415574 131.259697 
L 185.628178 132.322909 
L 186.840782 131.979345 
L 188.053386 122.669115 
L 189.265991 131.799726 
L 190.478595 130.978077 
L 191.691199 126.166494 
L 192.903803 130.991071 
L 194.116407 128.739889 
L 195.329011 132.061883 
L 196.541615 131.761411 
L 197.754219 132.070675 
L 198.966824 132.093605 
L 200.179428 131.843986 
L 201.392032 129.977856 
L 202.604636 132.207555 
L 203.81724 128.684938 
L 205.029844 131.124417 
L 206.242448 132.126155 
L 207.455053 132.392676 
L 208.667657 132.299364 
L 209.880261 132.379074 
L 213.518073 131.649232 
L 214.730677 130.894186 
L 215.943281 132.286644 
L 217.155886 132.03993 
L 218.36849 132.119134 
L 220.793698 131.951056 
L 222.006302 132.168643 
L 223.218906 131.592559 
L 224.43151 132.192292 
L 225.644114 131.973805 
L 226.856719 131.868236 
L 228.069323 132.20053 
L 229.281927 132.326836 
L 230.494531 131.694861 
L 232.919739 132.276951 
L 234.132343 130.807984 
L 235.344947 132.088379 
L 236.557552 132.035057 
L 237.770156 132.558483 
L 238.98276 132.134643 
L 240.195364 132.051227 
L 241.407968 130.234043 
L 242.620572 130.789144 
L 243.833176 130.344571 
L 245.045781 131.883808 
L 246.258385 132.173809 
L 247.470989 130.55104 
L 248.683593 130.921642 
L 251.108801 129.936692 
L 252.321405 130.793181 
L 253.534009 130.717749 
L 254.746614 131.995942 
L 255.959218 130.762414 
L 257.171822 131.726031 
L 258.384426 130.755817 
L 259.59703 130.300623 
L 260.809634 132.089658 
L 262.022238 130.417043 
L 263.234842 130.860836 
L 264.447447 131.60114 
L 265.660051 130.002438 
L 266.872655 130.758928 
L 268.085259 130.378202 
L 269.297863 131.634204 
L 270.510467 130.73181 
L 271.723071 130.548829 
L 272.935675 131.772774 
L 274.14828 131.744794 
L 275.360884 130.22293 
L 276.573488 121.915326 
L 277.786092 129.022494 
L 280.2113 131.823444 
L 281.423904 129.502926 
L 282.636509 127.618355 
L 283.849113 128.553392 
L 285.061717 129.248991 
L 286.274321 123.040832 
L 287.486925 131.451609 
L 288.699529 130.437111 
L 289.912133 129.858602 
L 291.124737 130.226392 
L 292.337342 129.715215 
L 293.549946 128.276718 
L 294.76255 132.446166 
L 295.975154 131.340641 
L 297.187758 131.772293 
L 298.400362 125.534417 
L 299.612966 131.92536 
L 300.82557 131.318589 
L 302.038175 131.607005 
L 303.250779 132.021148 
L 304.463383 123.059098 
L 305.675987 131.288767 
L 306.888591 131.317531 
L 308.101195 130.61704 
L 309.313799 131.829185 
L 310.526403 131.705288 
L 311.739008 131.861162 
L 312.951612 132.190602 
L 314.164216 131.401554 
L 315.37682 131.971113 
L 316.589424 131.315747 
L 317.802028 132.272818 
L 319.014632 132.125749 
L 320.227237 131.622987 
L 321.439841 132.187918 
L 322.652445 131.975788 
L 323.865049 132.104664 
L 325.077653 131.534406 
L 326.290257 132.14993 
L 327.502861 131.187968 
L 328.715465 132.476639 
L 329.92807 131.646722 
L 331.140674 132.451867 
L 332.353278 131.954157 
L 333.565882 131.805142 
L 334.778486 132.501923 
L 335.99109 132.211125 
L 337.203694 131.755063 
L 338.416298 131.731421 
L 339.628903 131.060679 
L 340.841507 132.254659 
L 342.054111 132.080181 
L 343.266715 131.405103 
L 344.479319 131.90138 
L 345.691923 130.926954 
L 346.904527 131.669012 
L 348.117131 131.758005 
L 349.329736 131.967125 
L 350.54234 131.687857 
L 351.754944 131.836036 
L 352.967548 131.762583 
L 354.180152 132.123673 
L 355.392756 131.619781 
L 356.60536 132.246944 
L 360.243173 131.328323 
L 361.455777 131.409957 
L 362.668381 131.634993 
L 363.880985 131.19645 
L 366.306193 131.986674 
L 367.518798 131.359984 
L 368.731402 131.074324 
L 369.944006 132.030869 
L 371.15661 131.789589 
L 372.369214 123.585703 
L 373.581818 131.321149 
L 373.581818 131.321149 
" style="fill:none;stroke:#008000;stroke-dasharray:9.6,2.4,1.5,2.4;stroke-dashoffset:0;stroke-width:1.5;"/>
   </g>
   <g id="line2d_28">
    <path clip-path="url(#p95a1ca5ce2)" d="M 69.218182 128.998667 
L 70.430786 129.872671 
L 71.64339 129.689948 
L 72.855994 127.067151 
L 74.068598 127.460766 
L 75.281202 131.146438 
L 76.493807 127.568704 
L 77.706411 128.483147 
L 78.919015 129.925263 
L 80.131619 128.192037 
L 81.344223 129.026803 
L 82.556827 129.121265 
L 83.769431 130.426935 
L 84.982035 130.711711 
L 87.407244 127.61854 
L 88.619848 127.461006 
L 89.832452 128.88369 
L 91.045056 128.863295 
L 92.25766 129.348268 
L 93.470264 128.173854 
L 94.682869 130.07753 
L 95.895473 128.587052 
L 97.108077 130.120045 
L 98.320681 128.175795 
L 99.533285 129.161947 
L 100.745889 129.784747 
L 101.958493 127.559466 
L 103.171097 129.311268 
L 104.383702 128.313981 
L 105.596306 129.999681 
L 106.80891 130.235749 
L 108.021514 127.183205 
L 109.234118 125.330083 
L 110.446722 128.56993 
L 111.659326 128.418035 
L 112.87193 126.633868 
L 114.084535 127.843423 
L 115.297139 128.232385 
L 116.509743 127.709736 
L 117.722347 128.262136 
L 118.934951 128.097115 
L 120.147555 128.214269 
L 121.360159 125.489353 
L 122.572763 129.330223 
L 123.785368 127.851149 
L 124.997972 130.379103 
L 126.210576 127.353548 
L 127.42318 127.875394 
L 128.635784 128.792729 
L 129.848388 128.647091 
L 131.060992 128.299845 
L 132.273597 128.922282 
L 134.698805 128.357357 
L 137.124013 128.768417 
L 138.336617 119.294574 
L 139.549221 119.319238 
L 140.761825 128.633827 
L 141.97443 129.411192 
L 143.187034 128.543021 
L 144.399638 129.044621 
L 146.824846 130.683415 
L 148.03745 128.252471 
L 149.250054 130.458051 
L 150.462658 129.234187 
L 151.675263 130.048265 
L 152.887867 129.839108 
L 154.100471 130.38617 
L 155.313075 129.529169 
L 156.525679 129.982422 
L 157.738283 128.059256 
L 158.950887 129.275624 
L 160.163491 127.668894 
L 161.376096 130.263122 
L 162.5887 128.04964 
L 163.801304 118.962382 
L 165.013908 130.23353 
L 166.226512 128.668503 
L 167.439116 128.601834 
L 168.65172 118.920049 
L 169.864325 130.55195 
L 171.076929 128.881283 
L 172.289533 127.64614 
L 173.502137 121.022366 
L 174.714741 123.700645 
L 175.927345 128.685237 
L 177.139949 128.16967 
L 178.352553 129.942451 
L 179.565158 119.023656 
L 180.777762 129.867414 
L 181.990366 130.233018 
L 183.20297 130.973857 
L 184.415574 128.896272 
L 185.628178 128.172099 
L 186.840782 129.164216 
L 188.053386 129.352634 
L 189.265991 128.560877 
L 190.478595 129.787864 
L 191.691199 129.065819 
L 192.903803 129.775566 
L 194.116407 130.130885 
L 195.329011 128.761473 
L 196.541615 129.262339 
L 197.754219 129.451592 
L 198.966824 128.939359 
L 200.179428 129.088584 
L 201.392032 129.108229 
L 202.604636 129.813873 
L 203.81724 129.636205 
L 205.029844 125.967017 
L 206.242448 127.535092 
L 207.455053 130.146374 
L 208.667657 129.804451 
L 209.880261 131.116528 
L 211.092865 129.762286 
L 212.305469 128.981153 
L 213.518073 128.432029 
L 215.943281 130.26229 
L 217.155886 129.948412 
L 218.36849 129.903594 
L 219.581094 129.318034 
L 220.793698 128.932963 
L 222.006302 129.945713 
L 223.218906 127.947102 
L 224.43151 130.219667 
L 225.644114 128.783343 
L 226.856719 130.065857 
L 228.069323 129.434059 
L 229.281927 130.612382 
L 230.494531 128.253282 
L 231.707135 126.50361 
L 232.919739 129.839173 
L 234.132343 125.641033 
L 235.344947 129.806388 
L 236.557552 129.6353 
L 237.770156 130.012017 
L 238.98276 127.887078 
L 240.195364 128.547602 
L 242.620572 129.652151 
L 243.833176 130.931034 
L 245.045781 129.010173 
L 246.258385 130.37521 
L 247.470989 126.999697 
L 248.683593 129.286559 
L 249.896197 129.806889 
L 251.108801 128.340736 
L 252.321405 127.781454 
L 253.534009 125.66717 
L 254.746614 130.840305 
L 255.959218 125.665659 
L 257.171822 129.920027 
L 258.384426 124.102929 
L 259.59703 130.687387 
L 260.809634 130.949146 
L 262.022238 127.57481 
L 263.234842 128.279026 
L 264.447447 127.868203 
L 265.660051 129.950438 
L 266.872655 126.659367 
L 268.085259 124.938217 
L 269.297863 125.966887 
L 270.510467 129.349838 
L 271.723071 125.572385 
L 272.935675 129.941728 
L 274.14828 124.598086 
L 275.360884 127.276235 
L 276.573488 128.646762 
L 277.786092 129.570651 
L 278.998696 125.272725 
L 280.2113 128.924007 
L 281.423904 128.529093 
L 282.636509 128.701057 
L 283.849113 130.211948 
L 285.061717 128.654174 
L 286.274321 127.842313 
L 287.486925 125.936231 
L 288.699529 125.612757 
L 289.912133 129.541322 
L 291.124737 125.449003 
L 292.337342 124.322853 
L 293.549946 129.905227 
L 294.76255 129.336232 
L 295.975154 130.725019 
L 297.187758 126.083353 
L 298.400362 126.62827 
L 299.612966 126.523303 
L 300.82557 124.377814 
L 302.038175 125.484287 
L 303.250779 129.905093 
L 304.463383 125.174461 
L 305.675987 125.426137 
L 306.888591 126.47445 
L 308.101195 125.120804 
L 309.313799 124.72553 
L 310.526403 125.589945 
L 311.739008 128.907904 
L 312.951612 129.880399 
L 314.164216 125.987795 
L 315.37682 125.48012 
L 316.589424 122.85048 
L 317.802028 130.797468 
L 319.014632 129.848808 
L 320.227237 125.216266 
L 321.439841 130.392993 
L 322.652445 128.921224 
L 323.865049 129.995431 
L 325.077653 128.995058 
L 326.290257 128.925149 
L 327.502861 123.001125 
L 328.715465 129.920618 
L 329.92807 125.937697 
L 331.140674 130.228966 
L 332.353278 128.743072 
L 333.565882 125.266283 
L 334.778486 130.389969 
L 335.99109 129.28117 
L 337.203694 125.012702 
L 338.416298 124.777504 
L 339.628903 124.921394 
L 340.841507 130.156514 
L 342.054111 127.356992 
L 343.266715 129.459634 
L 344.479319 125.424302 
L 345.691923 130.3103 
L 346.904527 125.93482 
L 348.117131 125.178466 
L 349.329736 127.944384 
L 350.54234 124.740236 
L 351.754944 125.762172 
L 352.967548 126.169774 
L 354.180152 129.392153 
L 355.392756 127.340893 
L 356.60536 130.141544 
L 357.817965 125.741388 
L 359.030569 128.782749 
L 360.243173 125.897375 
L 361.455777 125.287105 
L 362.668381 125.51773 
L 363.880985 124.917047 
L 365.093589 124.956159 
L 366.306193 130.388941 
L 367.518798 127.288879 
L 368.731402 125.089133 
L 369.944006 129.950854 
L 371.15661 129.744523 
L 372.369214 129.919812 
L 373.581818 128.245654 
L 373.581818 128.245654 
" style="fill:none;stroke:#ff0000;stroke-linecap:square;stroke-width:1.5;"/>
   </g>
   <g id="patch_3">
    <path d="M 54 252 
L 54 34.56 
" style="fill:none;stroke:#000000;stroke-linecap:square;stroke-linejoin:miter;stroke-width:0.8;"/>
   </g>
   <g id="patch_4">
    <path d="M 388.8 252 
L 388.8 34.56 
" style="fill:none;stroke:#000000;stroke-linecap:square;stroke-linejoin:miter;stroke-width:0.8;"/>
   </g>
   <g id="patch_5">
    <path d="M 54 252 
L 388.8 252 
" style="fill:none;stroke:#000000;stroke-linecap:square;stroke-linejoin:miter;stroke-width:0.8;"/>
   </g>
   <g id="patch_6">
    <path d="M 54 34.56 
L 388.8 34.56 
" style="fill:none;stroke:#000000;stroke-linecap:square;stroke-linejoin:miter;stroke-width:0.8;"/>
   </g>
   <g id="text_15">
    <!-- Population's average and best fitness -->
    <defs>
     <path d="M 19.671875 64.796875 
L 19.671875 37.40625 
L 32.078125 37.40625 
Q 38.96875 37.40625 42.71875 40.96875 
Q 46.484375 44.53125 46.484375 51.125 
Q 46.484375 57.671875 42.71875 61.234375 
Q 38.96875 64.796875 32.078125 64.796875 
z
M 9.8125 72.90625 
L 32.078125 72.90625 
Q 44.34375 72.90625 50.609375 67.359375 
Q 56.890625 61.8125 56.890625 51.125 
Q 56.890625 40.328125 50.609375 34.8125 
Q 44.34375 29.296875 32.078125 29.296875 
L 19.671875 29.296875 
L 19.671875 0 
L 9.8125 0 
z
" id="DejaVuSans-80"/>
     <path d="M 18.109375 8.203125 
L 18.109375 -20.796875 
L 9.078125 -20.796875 
L 9.078125 54.6875 
L 18.109375 54.6875 
L 18.109375 46.390625 
Q 20.953125 51.265625 25.265625 53.625 
Q 29.59375 56 35.59375 56 
Q 45.5625 56 51.78125 48.09375 
Q 58.015625 40.1875 58.015625 27.296875 
Q 58.015625 14.40625 51.78125 6.484375 
Q 45.5625 -1.421875 35.59375 -1.421875 
Q 29.59375 -1.421875 25.265625 0.953125 
Q 20.953125 3.328125 18.109375 8.203125 
z
M 48.6875 27.296875 
Q 48.6875 37.203125 44.609375 42.84375 
Q 40.53125 48.484375 33.40625 48.484375 
Q 26.265625 48.484375 22.1875 42.84375 
Q 18.109375 37.203125 18.109375 27.296875 
Q 18.109375 17.390625 22.1875 11.75 
Q 26.265625 6.109375 33.40625 6.109375 
Q 40.53125 6.109375 44.609375 11.75 
Q 48.6875 17.390625 48.6875 27.296875 
z
" id="DejaVuSans-112"/>
     <path d="M 8.5 21.578125 
L 8.5 54.6875 
L 17.484375 54.6875 
L 17.484375 21.921875 
Q 17.484375 14.15625 20.5 10.265625 
Q 23.53125 6.390625 29.59375 6.390625 
Q 36.859375 6.390625 41.078125 11.03125 
Q 45.3125 15.671875 45.3125 23.6875 
L 45.3125 54.6875 
L 54.296875 54.6875 
L 54.296875 0 
L 45.3125 0 
L 45.3125 8.40625 
Q 42.046875 3.421875 37.71875 1 
Q 33.40625 -1.421875 27.6875 -1.421875 
Q 18.265625 -1.421875 13.375 4.4375 
Q 8.5 10.296875 8.5 21.578125 
z
M 31.109375 56 
z
" id="DejaVuSans-117"/>
     <path d="M 9.421875 75.984375 
L 18.40625 75.984375 
L 18.40625 0 
L 9.421875 0 
z
" id="DejaVuSans-108"/>
     <path d="M 17.921875 72.90625 
L 17.921875 45.796875 
L 9.625 45.796875 
L 9.625 72.90625 
z
" id="DejaVuSans-39"/>
     <path id="DejaVuSans-32"/>
     <path d="M 2.984375 54.6875 
L 12.5 54.6875 
L 29.59375 8.796875 
L 46.6875 54.6875 
L 56.203125 54.6875 
L 35.6875 0 
L 23.484375 0 
z
" id="DejaVuSans-118"/>
     <path d="M 45.40625 27.984375 
Q 45.40625 37.75 41.375 43.109375 
Q 37.359375 48.484375 30.078125 48.484375 
Q 22.859375 48.484375 18.828125 43.109375 
Q 14.796875 37.75 14.796875 27.984375 
Q 14.796875 18.265625 18.828125 12.890625 
Q 22.859375 7.515625 30.078125 7.515625 
Q 37.359375 7.515625 41.375 12.890625 
Q 45.40625 18.265625 45.40625 27.984375 
z
M 54.390625 6.78125 
Q 54.390625 -7.171875 48.1875 -13.984375 
Q 42 -20.796875 29.203125 -20.796875 
Q 24.46875 -20.796875 20.265625 -20.09375 
Q 16.0625 -19.390625 12.109375 -17.921875 
L 12.109375 -9.1875 
Q 16.0625 -11.328125 19.921875 -12.34375 
Q 23.78125 -13.375 27.78125 -13.375 
Q 36.625 -13.375 41.015625 -8.765625 
Q 45.40625 -4.15625 45.40625 5.171875 
L 45.40625 9.625 
Q 42.625 4.78125 38.28125 2.390625 
Q 33.9375 0 27.875 0 
Q 17.828125 0 11.671875 7.65625 
Q 5.515625 15.328125 5.515625 27.984375 
Q 5.515625 40.671875 11.671875 48.328125 
Q 17.828125 56 27.875 56 
Q 33.9375 56 38.28125 53.609375 
Q 42.625 51.21875 45.40625 46.390625 
L 45.40625 54.6875 
L 54.390625 54.6875 
z
" id="DejaVuSans-103"/>
     <path d="M 45.40625 46.390625 
L 45.40625 75.984375 
L 54.390625 75.984375 
L 54.390625 0 
L 45.40625 0 
L 45.40625 8.203125 
Q 42.578125 3.328125 38.25 0.953125 
Q 33.9375 -1.421875 27.875 -1.421875 
Q 17.96875 -1.421875 11.734375 6.484375 
Q 5.515625 14.40625 5.515625 27.296875 
Q 5.515625 40.1875 11.734375 48.09375 
Q 17.96875 56 27.875 56 
Q 33.9375 56 38.25 53.625 
Q 42.578125 51.265625 45.40625 46.390625 
z
M 14.796875 27.296875 
Q 14.796875 17.390625 18.875 11.75 
Q 22.953125 6.109375 30.078125 6.109375 
Q 37.203125 6.109375 41.296875 11.75 
Q 45.40625 17.390625 45.40625 27.296875 
Q 45.40625 37.203125 41.296875 42.84375 
Q 37.203125 48.484375 30.078125 48.484375 
Q 22.953125 48.484375 18.875 42.84375 
Q 14.796875 37.203125 14.796875 27.296875 
z
" id="DejaVuSans-100"/>
     <path d="M 48.6875 27.296875 
Q 48.6875 37.203125 44.609375 42.84375 
Q 40.53125 48.484375 33.40625 48.484375 
Q 26.265625 48.484375 22.1875 42.84375 
Q 18.109375 37.203125 18.109375 27.296875 
Q 18.109375 17.390625 22.1875 11.75 
Q 26.265625 6.109375 33.40625 6.109375 
Q 40.53125 6.109375 44.609375 11.75 
Q 48.6875 17.390625 48.6875 27.296875 
z
M 18.109375 46.390625 
Q 20.953125 51.265625 25.265625 53.625 
Q 29.59375 56 35.59375 56 
Q 45.5625 56 51.78125 48.09375 
Q 58.015625 40.1875 58.015625 27.296875 
Q 58.015625 14.40625 51.78125 6.484375 
Q 45.5625 -1.421875 35.59375 -1.421875 
Q 29.59375 -1.421875 25.265625 0.953125 
Q 20.953125 3.328125 18.109375 8.203125 
L 18.109375 0 
L 9.078125 0 
L 9.078125 75.984375 
L 18.109375 75.984375 
z
" id="DejaVuSans-98"/>
     <path d="M 37.109375 75.984375 
L 37.109375 68.5 
L 28.515625 68.5 
Q 23.6875 68.5 21.796875 66.546875 
Q 19.921875 64.59375 19.921875 59.515625 
L 19.921875 54.6875 
L 34.71875 54.6875 
L 34.71875 47.703125 
L 19.921875 47.703125 
L 19.921875 0 
L 10.890625 0 
L 10.890625 47.703125 
L 2.296875 47.703125 
L 2.296875 54.6875 
L 10.890625 54.6875 
L 10.890625 58.5 
Q 10.890625 67.625 15.140625 71.796875 
Q 19.390625 75.984375 28.609375 75.984375 
z
" id="DejaVuSans-102"/>
    </defs>
    <g transform="translate(108.555 28.56)scale(0.12 -0.12)">
     <use xlink:href="#DejaVuSans-80"/>
     <use x="60.255859" xlink:href="#DejaVuSans-111"/>
     <use x="121.4375" xlink:href="#DejaVuSans-112"/>
     <use x="184.914062" xlink:href="#DejaVuSans-117"/>
     <use x="248.292969" xlink:href="#DejaVuSans-108"/>
     <use x="276.076172" xlink:href="#DejaVuSans-97"/>
     <use x="337.355469" xlink:href="#DejaVuSans-116"/>
     <use x="376.564453" xlink:href="#DejaVuSans-105"/>
     <use x="404.347656" xlink:href="#DejaVuSans-111"/>
     <use x="465.529297" xlink:href="#DejaVuSans-110"/>
     <use x="528.908203" xlink:href="#DejaVuSans-39"/>
     <use x="556.398438" xlink:href="#DejaVuSans-115"/>
     <use x="608.498047" xlink:href="#DejaVuSans-32"/>
     <use x="640.285156" xlink:href="#DejaVuSans-97"/>
     <use x="701.564453" xlink:href="#DejaVuSans-118"/>
     <use x="760.744141" xlink:href="#DejaVuSans-101"/>
     <use x="822.267578" xlink:href="#DejaVuSans-114"/>
     <use x="863.380859" xlink:href="#DejaVuSans-97"/>
     <use x="924.660156" xlink:href="#DejaVuSans-103"/>
     <use x="988.136719" xlink:href="#DejaVuSans-101"/>
     <use x="1049.660156" xlink:href="#DejaVuSans-32"/>
     <use x="1081.447266" xlink:href="#DejaVuSans-97"/>
     <use x="1142.726562" xlink:href="#DejaVuSans-110"/>
     <use x="1206.105469" xlink:href="#DejaVuSans-100"/>
     <use x="1269.582031" xlink:href="#DejaVuSans-32"/>
     <use x="1301.369141" xlink:href="#DejaVuSans-98"/>
     <use x="1364.845703" xlink:href="#DejaVuSans-101"/>
     <use x="1426.369141" xlink:href="#DejaVuSans-115"/>
     <use x="1478.46875" xlink:href="#DejaVuSans-116"/>
     <use x="1517.677734" xlink:href="#DejaVuSans-32"/>
     <use x="1549.464844" xlink:href="#DejaVuSans-102"/>
     <use x="1584.669922" xlink:href="#DejaVuSans-105"/>
     <use x="1612.453125" xlink:href="#DejaVuSans-116"/>
     <use x="1651.662109" xlink:href="#DejaVuSans-110"/>
     <use x="1715.041016" xlink:href="#DejaVuSans-101"/>
     <use x="1776.564453" xlink:href="#DejaVuSans-115"/>
     <use x="1828.664062" xlink:href="#DejaVuSans-115"/>
    </g>
   </g>
   <g id="legend_1">
    <g id="patch_7">
     <path d="M 308.859375 101.2725 
L 381.8 101.2725 
Q 383.8 101.2725 383.8 99.2725 
L 383.8 41.56 
Q 383.8 39.56 381.8 39.56 
L 308.859375 39.56 
Q 306.859375 39.56 306.859375 41.56 
L 306.859375 99.2725 
Q 306.859375 101.2725 308.859375 101.2725 
z
" style="fill:#ffffff;opacity:0.8;stroke:#cccccc;stroke-linejoin:miter;"/>
    </g>
    <g id="line2d_29">
     <path d="M 310.859375 47.658437 
L 330.859375 47.658437 
" style="fill:none;stroke:#0000ff;stroke-linecap:square;stroke-width:1.5;"/>
    </g>
    <g id="line2d_30"/>
    <g id="text_16">
     <!-- average -->
     <g transform="translate(338.859375 51.158437)scale(0.1 -0.1)">
      <use xlink:href="#DejaVuSans-97"/>
      <use x="61.279297" xlink:href="#DejaVuSans-118"/>
      <use x="120.458984" xlink:href="#DejaVuSans-101"/>
      <use x="181.982422" xlink:href="#DejaVuSans-114"/>
      <use x="223.095703" xlink:href="#DejaVuSans-97"/>
      <use x="284.375" xlink:href="#DejaVuSans-103"/>
      <use x="347.851562" xlink:href="#DejaVuSans-101"/>
     </g>
    </g>
    <g id="line2d_31">
     <path d="M 310.859375 62.336562 
L 330.859375 62.336562 
" style="fill:none;stroke:#008000;stroke-dasharray:9.6,2.4,1.5,2.4;stroke-dashoffset:0;stroke-width:1.5;"/>
    </g>
    <g id="line2d_32"/>
    <g id="text_17">
     <!-- -1 sd -->
     <defs>
      <path d="M 4.890625 31.390625 
L 31.203125 31.390625 
L 31.203125 23.390625 
L 4.890625 23.390625 
z
" id="DejaVuSans-45"/>
     </defs>
     <g transform="translate(338.859375 65.836562)scale(0.1 -0.1)">
      <use xlink:href="#DejaVuSans-45"/>
      <use x="36.083984" xlink:href="#DejaVuSans-49"/>
      <use x="99.707031" xlink:href="#DejaVuSans-32"/>
      <use x="131.494141" xlink:href="#DejaVuSans-115"/>
      <use x="183.59375" xlink:href="#DejaVuSans-100"/>
     </g>
    </g>
    <g id="line2d_33">
     <path d="M 310.859375 77.014687 
L 330.859375 77.014687 
" style="fill:none;stroke:#008000;stroke-dasharray:9.6,2.4,1.5,2.4;stroke-dashoffset:0;stroke-width:1.5;"/>
    </g>
    <g id="line2d_34"/>
    <g id="text_18">
     <!-- +1 sd -->
     <defs>
      <path d="M 46 62.703125 
L 46 35.5 
L 73.1875 35.5 
L 73.1875 27.203125 
L 46 27.203125 
L 46 0 
L 37.796875 0 
L 37.796875 27.203125 
L 10.59375 27.203125 
L 10.59375 35.5 
L 37.796875 35.5 
L 37.796875 62.703125 
z
" id="DejaVuSans-43"/>
     </defs>
     <g transform="translate(338.859375 80.514687)scale(0.1 -0.1)">
      <use xlink:href="#DejaVuSans-43"/>
      <use x="83.789062" xlink:href="#DejaVuSans-49"/>
      <use x="147.412109" xlink:href="#DejaVuSans-32"/>
      <use x="179.199219" xlink:href="#DejaVuSans-115"/>
      <use x="231.298828" xlink:href="#DejaVuSans-100"/>
     </g>
    </g>
    <g id="line2d_35">
     <path d="M 310.859375 91.692813 
L 330.859375 91.692813 
" style="fill:none;stroke:#ff0000;stroke-linecap:square;stroke-width:1.5;"/>
    </g>
    <g id="line2d_36"/>
    <g id="text_19">
     <!-- best -->
     <g transform="translate(338.859375 95.192813)scale(0.1 -0.1)">
      <use xlink:href="#DejaVuSans-98"/>
      <use x="63.476562" xlink:href="#DejaVuSans-101"/>
      <use x="125" xlink:href="#DejaVuSans-115"/>
      <use x="177.099609" xlink:href="#DejaVuSans-116"/>
     </g>
    </g>
   </g>
  </g>
 </g>
 <defs>
  <clipPath id="p95a1ca5ce2">
   <rect height="217.44" width="334.8" x="54" y="34.56"/>
  </clipPath>
 </defs>
</svg>
